<?xml version="1.0" encoding="utf-8"?>
<svg version="1.1" id="Layer_1" x="0px" y="0px" viewBox="0 0 1200 1200" enable-background="new 0 0 1200 1200" xmlns="http://www.w3.org/2000/svg">
  <g>
    <path d="M878.027,884.674c0.584-18.84,5.178-36.423,16.037-52.124c33.206-48.017,105.007-49.416,139.953-2.632 c3.104,4.155,5.646,8.729,8.447,13.111c-2.308,4.977,0.359,7.815,4.335,10.09c3.037,10.857,4.658,21.94,5.311,33.178 c-31.219,13.824-64.091,22.401-97.179,30.128c-21.098,4.927-42.18,10.266-64.006,11.15c-5.152-10.36-9.535-20.992-11.46-32.491 C881.588,891.254,881.639,887.711,878.027,884.674z" style="fill: rgb(166, 56, 34);"/>
    <path d="M878.027,884.674c3.612,3.037,3.561,6.58,1.439,10.411c-16.978,5.952-33.4,13.049-47.993,23.785 c-2.585,1.902-6.103,3.948-5.069,7.749c1.028,3.781,5.055,3.865,8.25,4.035c18.86,1,37.714,1.56,56.271-3.081 c21.826-0.884,42.908-6.223,64.006-11.15c33.089-7.727,65.96-16.304,97.181-30.13c29.083-9.666,47.314-20.483,54.227-33.318 c-20.309-4.114-39.881-3.642-59.539,0.142c-3.976-2.275-6.643-5.113-4.335-10.09c17.735-4.855,35.794-4.016,53.833-2.874 c3.745,0.237,7.564,1.232,11.094,2.557c11.317,4.246,13.772,13.306,5.843,22.309c-6.352,7.213-14.349,12.585-22.928,16.754 c-13.662,6.638-27.598,12.715-41.418,19.031c-33.35,10.588-66.654,21.345-100.947,28.591c-15.693,3.316-31.415,6.495-47.124,9.736 c-18.408,1.115-36.714,3.955-55.242,3.057c-7.596-0.368-15.227-0.599-22.351-3.493c-10.496-4.264-12.659-12.564-5.769-21.513 c1.43-1.858,3.14-3.605,5.025-4.991C839.374,899.765,857.581,889.947,878.027,884.674z" style="fill: rgb(255, 255, 255);"/>
    <path d="M900.818,939.131c15.709-3.241,31.431-6.42,47.124-9.736c34.293-7.246,67.597-18.003,100.947-28.591 c-7.86,34.383-29.305,56.292-63.045,64.698C952.796,973.735,923.819,965.141,900.818,939.131z" style="fill: rgb(166, 56, 34);"/>
    <path d="M375.22,204.294c2.424-5.811-0.711-9.918-6.319-13.052c-2.891-1.615-5.675-3.435-8.436-5.27 c-9.271-6.161-8.905-10.682,1.281-15.853c1.684-0.855,3.415-1.827,5.233-2.175c11.542-2.207,16.948-9.06,16.17-20.794 c-0.031-0.464,0.097-0.941,0.176-1.408c0.638-3.804,1.239-7.958,5.962-8.541c5.324-0.657,7.186,3.351,8.801,7.555 c4.012,10.447,4.073,10.396,14.337,8.755c5.611-0.897,11.223-1.828,16.865-2.475c3.283-0.376,7.064-0.649,8.277,3.481 c1.024,3.483-1.977,4.649-4.421,6.26c-7.586,4.999-13.057,12.316-19.595,18.474c-3.218,3.031-3.668,6.109-1.387,10.067 c3.07,5.327,5.786,10.877,8.35,16.471c1.397,3.048,2.262,6.535-1.008,9.067c-2.688,2.082-5.394,0.7-7.881-0.815 c-1.616-0.985-3.132-2.135-4.744-3.126c-10.957-6.734-11.018-6.788-20.829,2.22c-2.579,2.368-5.206,4.646-8.722,3.127 c-4.523-1.954-3.95-5.859-2.689-9.707C374.788,206.105,374.879,205.637,375.22,204.294z" style="fill: rgb(255, 200, 0);"/>
    <path d="M165.207,546.599c-6.622-1.634-12.397-0.14-15.312,7.627c-0.486,1.295-1.393,2.497-2.323,3.55 c-5.092,5.763-11.25,5.102-12.253-2.234c-1.292-9.446-5.968-11.745-14.198-11.007c-1.836,0.165-3.832-0.096-5.589-0.667 c-6.184-2.01-7.684-6.917-3.456-12.077c2.065-2.52,4.634-4.979,7.499-6.429c11.571-5.855,8.336-9.877,6.39-18.666 c-1.121-5.067-2.814-10.142-2.974-15.253c-0.185-5.927,5.163-8.404,9.745-4.578c3.955,3.302,7.468,7.332,10.449,11.554 c4.429,6.273,9.059,9.602,16.379,4.309c1.496-1.081,3.428-1.608,5.217-2.223c2.957-1.017,5.738-0.585,7.536,2.111 c1.472,2.207,0.907,4.661-0.773,6.549c-6.992,7.852-5.02,14.309,2.742,20.176c1.458,1.102,2.54,2.831,3.485,4.451 c1.904,3.264,4.074,6.582,1.235,10.465c-2.259,3.089-5.445,3.468-8.881,3.106C168.715,547.213,167.317,546.931,165.207,546.599z" style="fill: rgb(255, 200, 0);"/>
    <path d="M702.769,964.74c3.492,0.889,4.042,3.385,3.815,6.548c-0.588,8.212,4.002,9.684,10.845,8.158 c1.851-0.413,3.748-0.632,5.63-0.893c2.896-0.401,5.795-0.465,7.745,2.19c2.532,3.447,0.193,6.275-1.51,9.074 c-0.984,1.617-2.013,3.286-3.353,4.593c-3.596,3.507-4.467,6.922-0.757,10.981c1.573,1.721,2.789,3.859,3.791,5.986 c1.281,2.721,1.324,5.544-1.056,7.833c-1.933,1.859-4.2,1.893-6.556,0.814c-0.432-0.198-0.948-0.273-1.308-0.555 c-8.637-6.776-15.921-5.668-22.624,3.14c-2.187,2.874-5.745,5.305-9.992,3.014c-3.539-1.91-3.837-5.504-3.284-8.736 c1.403-8.208-2.288-13.491-8.875-17.518c-1.198-0.732-2.29-1.74-3.207-2.813c-4.549-5.325-3.176-11.159,3.398-11.107 c11.918,0.093,18.671-4.459,20.753-16.305C696.74,966.211,699.515,964.63,702.769,964.74z" style="fill: rgb(255, 200, 0);"/>
    <path d="M1093.411,359.992c0.94,0.081,1.954-0.026,2.814,0.287c12.796,4.649,20.219,0.061,24.548-12.675 c1.982-5.829,7.608-5.599,10.582-0.206c1.561,2.831,2.626,6.18,2.952,9.393c0.512,5.046,2.918,6.863,7.744,8.335 c9.365,2.856,10.668,8.692,2.767,13.26c-7.374,4.264-9.656,8.62-7.944,16.94c1.253,6.085-2.892,8.35-8.941,5.986 c-1.74-0.68-3.687-1.485-4.87-2.824c-5.99-6.778-12.102-6.009-18.521-0.794c-0.724,0.588-1.577,1.055-2.434,1.434 c-2.735,1.211-5.623,1.765-7.864-0.679c-2.325-2.536-1.529-5.479,0.557-7.648c6.021-6.26,3.867-10.617-2.779-14.371 c-1.616-0.913-3.006-2.312-4.311-3.669c-2.361-2.458-4.432-5.261-2.701-8.827C1086.654,360.548,1089.823,359.64,1093.411,359.992z" style="fill: rgb(255, 200, 0);"/>
    <path fill="#965133" d="M800.61,213.899c2.924,0.879,4.347,3.527,6.425,5.412c4.926,4.466,9.025,5.261,14.399-0.497 c5.939-6.364,9.253-5.387,14.509,1.976c1.651,2.312,2.818,4.969,4.47,7.28c6.102,8.538,8.96,9.593,19.132,6.004 c6.161-2.173,11.787-4.246,16.039,3.07c1.586,2.728,4.434,3.293,7.458,3.061c2.478-0.19,5.612,0.23,6.279,2.388 c2.391,7.739,7.511,9.615,14.746,8.209c0.37-0.072,1.189,0.347,1.219,0.604c1.397,11.981,17.599,13.92,17.739,27.589 c0.118,11.531,0.201,22.682-3.82,33.62c-3.448,9.377-7.438,18.486-12.054,27.35c-4.04,7.759-6.224,16.089-4.274,24.794 c7.696,34.356-8.308,60.718-28.453,85.79c-1.98,2.464-4.402,3.719-7.356,3.453c-3.767-0.339-7.613-0.751-11.215-1.832 c-53.148-15.949-106.097-32.509-157.934-52.41c0.063-1.421,0.45-2.918,0.14-4.253c-3.737-16.122-13.061-30.167-17.056-46.312 c-1.366-5.52-7.032-5.486-11.408-1.258c-27.7,0.304-43.614-15.327-43.218-42.754c0.215-14.865,2.855-29.356,8.97-42.972 c7.603-16.931,21.363-22.563,38.665-15.441c21.241,8.743,29.962,26.447,32.753,47.972c-3.393,4.937-4.292,9.613,2.31,12.557 c5.003,2.231,9.789-0.23,11.598-6.58c1.21-4.249,1.7-8.354,6.777-9.64c7.851-1.99,9.675-8.288,10.486-15.101 c0.393-3.303,0.015-7.094,3.243-8.913c7.254-4.084,11.42-10.897,16.795-16.773c5.915-6.467,12.854-14.317,20.387-16.793 C789.533,229.827,795.05,222.497,800.61,213.899z M678.238,301.019c-0.89-14.34-3.188-28.356-13.636-39.286 c-8.505-8.898-17.513-7.114-22.439,3.961c-3.894,8.755-6.015,18.394-6.187,27.513c-0.188,10.009,0.477,20.945,7.225,29.763 c9.533,12.458,25.599,10.583,31.767-3.874C677.384,313.433,679.055,307.422,678.238,301.019z M803.702,377.86 c-0.101,8.845,2.155,12.576,7.587,12.548c6.092-0.031,19.848-9.155,20.202-13.399c0.411-4.935-9.296-11.671-17.132-11.889 C806.386,364.898,803.815,367.972,803.702,377.86z"/>
    <path fill="#7F3A21" d="M800.61,213.899c-5.56,8.598-11.078,15.928-22.252,19.601c-7.533,2.476-14.472,10.326-20.387,16.793 c-5.375,5.876-9.541,12.688-16.795,16.773c-3.229,1.818-2.85,5.609-3.243,8.913c-0.811,6.813-2.634,13.111-10.486,15.101 c-5.077,1.287-5.567,5.391-6.777,9.64c-1.808,6.351-6.595,8.811-11.598,6.58c-6.602-2.944-5.703-7.621-2.31-12.557 c6.492-3.6,8.313-12.279,16.796-14.333c4.4-1.065,4.656-6.587,3.522-11.105c-1.806-7.197,0.024-12.091,8.138-13.471 c2.227-0.379,5.714-1.45,6.159-2.939c3.979-13.32,18.348-15.571,25.878-24.945c1.895-2.358,4.29-3.894,7.126-4.345 c6.058-0.962,10.023-4.144,13.493-9.278C791.201,209.406,796.166,208.175,800.61,213.899z"/>
    <path fill="#7F3A21" d="M669.593,347.938c4.376-4.228,10.042-4.262,11.408,1.258c3.995,16.145,13.319,30.19,17.056,46.312 c0.31,1.335-0.077,2.832-0.14,4.253c-4.489,0.745-8.211-1.796-12.293-2.82c-5.907-1.482-8.361-5.141-8.805-11.175 c-0.729-9.897-2.214-19.736-3.174-29.62C673.319,352.786,673.479,349.432,669.593,347.938z"/>
    <path fill="#7F3A21" d="M678.238,301.019c0.818,6.404-0.854,12.414-3.27,18.077c-6.168,14.457-22.234,16.332-31.767,3.874 c-6.748-8.818-7.413-19.755-7.225-29.763c0.172-9.118,2.293-18.757,6.187-27.513c4.926-11.075,13.934-12.859,22.439-3.961 C675.05,272.663,677.348,286.679,678.238,301.019z"/>
    <path fill="#7F3A21" d="M803.702,377.86c0.112-9.887,2.684-12.961,10.656-12.74c7.837,0.218,17.543,6.954,17.132,11.889 c-0.353,4.243-14.11,13.368-20.202,13.399C805.858,390.436,803.602,386.705,803.702,377.86z"/>
    <path fill="#1C0A05" d="M871.925,196.747c17.603-5.318,24.213-3.208,34.152,12.387c2.329,3.654,5.203,3.28,8.203,4.162 c11.875,3.493,17.145,9.046,16.873,21.353c-0.15,6.773,2.549,9.953,6.971,14.061c14.332,13.314,8.807,40.535-9.286,47.601 c-5.28,2.062-8.848-0.86-9.528-5.484c-1.198-8.144-3.003-14.524-13.235-14.148c-2.857,0.105-5.45-2.791-5.913-5.551 c-2.055-12.254-12.303-15.927-21.341-20.549c-5.721-2.926-9.638-7.537-14.405-12.27c-13.331,8.729-25.175,5.155-35.619-5.458 c-3.335-3.389-6.209-5.048-11.126-3.023c-4.938,2.034-10.24,1.651-15.13-1.077c-5.555-3.098-10.378-8.093-17.879-3.216 c-5.266,3.424-11.343,4.782-16.874,8.952c-10.528,7.937-17.92,18.23-26.957,27.197c-3.863,3.833-7.04,5.681-6.479,12.163 c0.904,10.427-7.697,12.905-15.832,14.904c0.5-6.938-3.62-11.415-8.179-15.787c-4.295-4.119-8.873-8.253-7.661-15.867 c2.883-0.169,5.227-0.605,7.508-0.388c10.914,1.038,16.938-5.414,20.371-14.298c2.333-6.036,5.317-13.563,3.603-19.044 c-3.243-10.369,3.842-12.382,9.427-16.115c5.627-3.761,12.319-3.063,17.903-1.147c12.834,4.403,23.153,2.377,31.469-8.587 c1.133-1.494,2.604-2.768,4.057-3.979c3.958-3.298,7.422-2.887,11.139,0.873c10.217,10.333,10.333,10.249,23.07,2.141 c4.843-3.083,8.817-4.559,12.786,1.897c4.497,7.313,11.953,9.151,19.071,5.082C866.201,201.747,870.039,200.359,871.925,196.747z"/>
    <path fill="#070201" d="M871.925,196.747c-1.886,3.612-5.724,5-8.842,6.783c-7.118,4.069-14.574,2.232-19.071-5.082 c-3.97-6.456-7.943-4.98-12.786-1.897c-12.737,8.108-12.853,8.191-23.07-2.141c-3.718-3.759-7.181-4.171-11.139-0.873 c-1.453,1.21-2.923,2.484-4.057,3.979c-8.316,10.963-18.635,12.99-31.469,8.587c-5.585-1.916-12.277-2.614-17.903,1.147 c-5.584,3.733-12.669,5.746-9.427,16.115c1.714,5.482-1.27,13.009-3.603,19.044c-3.433,8.884-9.457,15.336-20.371,14.298 c-2.281-0.217-4.625,0.219-7.508,0.388c-1.213,7.614,3.365,11.748,7.661,15.867c4.559,4.372,8.679,8.849,8.179,15.787 c-1.421,6.456-2.707,12.947-4.331,19.352c-0.622,2.451-2.603,4.097-5.328,3.72c-2.55-0.353-4.285-2.006-4.545-4.677 c-2.296-23.571-15.536-41.234-30.867-57.891c-7.108-7.723-3.544-21.804,7.596-25.457c7.347-2.41,8.457-5.746,9.392-12.518 c1.289-9.336,6.607-17.103,17.317-18.026c5.024-0.433,7.511-2.849,9.634-6.952c2.911-5.627,8.963-9.454,14.091-7.553 c10.331,3.831,19.2-3.177,28.856-1.72c3.253,0.491,5.247-1.626,7.4-3.513c9.225-8.085,19.146-8.031,28.72-1.246 c4.455,3.158,7.967,3.426,12.895,1.569c10.811-4.072,20.744-2.593,27.969,7.299c2.418,3.311,4.731,3.265,8.431,2.75 C861.169,181.741,864.443,183.565,871.925,196.747z"/>
    <path fill="#070201" d="M669.422,381.484c-16.025-3.132-26.475-14.818-26.403-29.526c0.041-8.445,1.81-10.195,9.913-8.177 c9.116,2.271,17.683,2.61,25.502-3.566c1.626-1.285,3.507-1.072,5.375-0.619c-0.536,1.792-0.539,4.098-1.693,5.297 C672.214,355.178,668.877,367.633,669.422,381.484z"/>
    <path fill="#1C0A05" d="M669.422,381.484c-0.544-13.851,2.793-26.306,12.694-36.591c1.154-1.198,1.156-3.504,1.693-5.297 c14.341,9.437,14.41,28.594-0.056,37.398C679.457,379.607,674.858,382.11,669.422,381.484z"/>
    <path fill="#8ABABC" d="M806.619,639.934c-38.204,42.721-81.596,79.391-129.853,110.204c-7.704,4.919-10.797,9.775-10.432,19.242 c1.157,30.053-2.806,59.87-10.386,88.819c-10.003,38.202-31.149,70.035-61.626,95.259c-23.644,19.569-50.614,33.538-79.425,43.708 c-9.406,3.32-15.31,7.951-16.56,18.218c-0.623,5.116-2.641,10.083-5.898,14.324c-25.778-20.325-56.394-28.758-87.684-35.252 c-11.827-2.454-13.763-0.897-15.803,11.658c-4.488,27.626-2.249,54.864,5.941,81.618c-10.162-10.783-15.114-24.103-17.48-38.293 c-3.552-21.299-3.192-42.815,1.723-63.768c4.76-20.29,9.208-40.733,17.229-60.207c3.191-7.746,7.73-10.84,15.695-11.771 c21.807-2.551,42.731-8.519,63.087-16.895c26.739-11.002,37.587-32.146,38.872-59.357c0.559-11.839-0.841-23.76-0.56-35.625 c0.168-7.085-2.776-11.283-8.303-15.153c-16.751-11.729-33.201-23.956-47.614-38.518c-5.945-6.007-10.725-5.37-17.395-1.561 c-19.347,11.05-38.638,22.074-59.352,30.748c-27.676,11.589-56.387,16.809-85.948,18.278c-28.513,1.417-57.035,0.94-85.208-4.463 c-4.902-0.94-7.949,1.247-11.669,3.492c-10.923,6.593-20.266,15.874-32.914,19.551c-13.962-35.865-38.263-63.189-69.807-84.532 c11.377-17.22,28.097-28.248,45.819-37.375c12.114-6.239,25.95-4.332,39.264-3.328c26.983,2.036,54.034,3.535,81.063,2.246 c33.78-1.612,61.589-17.701,86.653-38.921c12.299-10.412,23.548-22.061,35.318-33.101c22.238-20.858,48.206-35.101,77.387-43.712 c14.65-4.323,28.672-10.01,40.53-20.046c3.564-3.016,7.498-5.681,10.031-11.635c-18.395-7.096-35.379-16.1-52.599-24.622 c-29.478-14.588-56.234-33.522-83.574-51.528c-3.512-2.313-6.36-5.635-9.515-8.49c0.786-32.354,10.121-61.311,33.624-84.639 c6.982,4.87,14.397,9.227,20.871,14.697c28.675,24.229,62.695,36.41,98.556,44.655c4.604,1.059,9.158,2.337,13.735,3.512 c3.691,10.244,9.355,19.685,11.786,30.468c5.023,22.273,9.032,44.651,8.704,67.594c-0.107,7.455,0.467,14.616,8.915,17.471 c8.663,2.928,11.805-4.682,15.599-9.491c13.139-16.652,20.691-36.234,26.57-56.284c3.425-11.681,7.766-23.571,5.43-36.264 c16.764,4.776,33.529,9.551,50.293,14.326c7.793,12.441,16.616,24.369,23.116,37.453c8.072,16.249,20.453,26.833,36.387,34.309 c28.841,13.532,58.177,11.257,87.346,2.077c8.649-2.722,18.05-6.506,21.161-17.043c1.98,0.231,3.96,0.463,5.94,0.694 c5.567,4.865,11.134,9.73,16.699,14.595c-9.99,32.69-20.772,64.988-44.149,91.211C802.829,632.283,803.287,636.231,806.619,639.934 z M760.022,641.37c0.239-15.779-9.552-22.397-24.448-16.583c-8.368,3.266-14.409,9.328-18.848,16.754 c-6.358,10.636,0.682,23.973,13.117,25.684C744.246,669.207,759.801,655.88,760.022,641.37z"/>
    <path fill="#50857F" d="M659.712,465.192c-16.764-4.775-33.529-9.551-50.293-14.327c-7.771-2.821-14.091-11.437-23.931-5.99 c-0.626-2.409-1.877-3.77-4.565-2.727l0.186,0.13c-0.46-4.749-5.132-4.916-7.898-7.052c-16.476-12.727-26.767-27.511-21.58-50.048 c2.741-11.908,2.607-24.477,3.769-36.75c10.582-1.512,17.882-7.308,23.799-16.195c16.188-24.315,24.5-51.341,27.051-79.969 c1.791-20.096,4.087-41.014-11.826-57.809c36.868-55.174,87.683-88.537,153.72-97.637c51.39-7.081,97.772,6.668,140.419,35.016 c5.543,3.684,10.918,7.641,16.609,11.078c35.09,21.2,55.4,53.557,69.652,90.731c-2.638,2.285-3.61-0.04-4.776-0.858 c-1.139-0.8-1.957-2.057-2.924-3.105c-7.084-7.682-13.913-15.621-21.305-22.994c-19.52-19.469-44.443-28.846-70.25-35.881 c-26.207-7.144-53.096-10.054-80.231-11.869c-20.987-1.404-41.474-2.053-62.173,3.163c-48.047,12.107-78.542,41.675-93.045,88.896 c-10.131,32.986-11.837,66.044-5.482,99.888c3.469,18.477,14.136,29.754,31.473,34.958c28.194,8.464,56.743,15.783,84.788,24.699 c52.503,16.691,104.744,34.205,157.12,51.297c5.853,1.91,11.864,3.34,17.817,4.935c12.298,3.296,15.46,8.157,13.477,20.716 c-1.278,8.095-4.948,15.38-8.026,22.809c-3.267,7.886-7.204,15.524-11.269,23.043c-6.648,12.297-11.895,14.524-25.728,9.956 c-13.521-4.466-26.773-9.754-40.114-14.757c-6.681-2.506-13.331-5.067-20.506-5.852c-1.99-0.236-3.97-0.467-5.95-0.692 c-2.251-5.817-7.958-6.344-12.733-7.899c-40.896-13.318-81.703-26.945-122.881-39.332 C681.356,471.528,671.591,464.591,659.712,465.192z M724.018,433.706c-7.79,0.161-11.901,3.248-13.364,10.037 c-1.342,6.228,1.688,12.019,8.01,14.913c2.145,0.982,4.494,1.514,6.738,2.285c24.211,8.324,48.369,16.808,72.644,24.942 c26.065,8.734,52.112,17.584,78.989,23.593c3.658,0.818,7.507,1.031,11.271,1.061c4.752,0.039,8.236-2.293,9.541-6.999 c1.225-4.418,0.428-8.437-3.255-11.616c-2.577-2.225-5.621-3.405-8.751-4.595c-46.121-17.538-92.52-34.287-139.659-48.902 C738.99,436.195,731.775,433.525,724.018,433.706z M677.22,413.912c-7.626-0.259-14.415,6.03-15.08,13.97 c-0.652,7.785,6.594,15.394,14.957,15.703c7.687,0.284,14.734-6.228,15.033-13.893C692.443,421.654,685.39,414.189,677.22,413.912z "/>
    <path fill="#8ABABC" d="M898.707,559.862c33.375,7.801,67.05,6.571,100.795,3.338c7.805,17.803,16.307,35.271,15.901,55.585 c-0.32,16.013-4.617,30.87-10.337,45.527c-31.271,4.71-62.442,10.703-94.307,8.822c-34.538-2.039-66.892-11.08-95.763-30.817 c7.584-5.74,15.149-11.499,22.743-17.219C861.879,606.917,882.073,585.054,898.707,559.862z"/>
    <path d="M1005.067,664.312c5.72-14.657,10.017-29.513,10.337-45.527c0.405-20.313-8.096-37.782-15.901-55.585 c24.083-4.823,46.211-14.294,66.83-27.612c9.982-6.448,20.295-12.412,30.682-18.192c6.224-3.464,12.89-6.025,20.047-7.216 c21.177-3.524,34.508,10.308,29.395,31.271c-4.171,17.099-14.513,30.907-26.008,43.71c-5.003,5.572-11.301,9.981-16.212,14.228 c2.213,6.875,6.646,7.093,9.435,9.313c8.697,6.925,9.158,13.87,0.61,21.211c-3.918,3.365-8.545,6.049-13.172,8.413 c-11.914,6.087-24.56,10.372-37.562,13.356C1044.111,656.142,1024.566,660.126,1005.067,664.312z" style="fill: rgb(255, 255, 255);"/>
    <path d="M399.251,374.507c-23.503,23.329-32.838,52.285-33.624,84.639c-9.082-6.768-18.944-12.601-25.776-22.028 c-3.024-4.172-7.81-4.921-12.423-6.225c-13.711-3.878-27.383-7.987-39.793-15.245c-8.234-4.815-16.173-10.112-21.427-18.386 c-7.821-12.318-4.779-21.66,8.431-27.429c3.889-1.698,8.543-0.966,12.745-4.723c-4.511-11.389-11.893-22.099-13.578-34.885 c-0.681-5.168-2.401-10.266-2.54-15.426c-0.432-15.966,12.662-26.68,28.246-23.316c7.021,1.516,13.533,4.511,19.342,8.772 c14.182,10.401,28.138,21.036,39.561,34.642C370.661,349.482,384.785,362.184,399.251,374.507z" style="fill: rgb(255, 255, 255);"/>
    <path d="M394.894,1087.731c-8.191-26.754-10.43-53.992-5.941-81.618c2.04-12.555,3.976-14.112,15.803-11.658 c31.29,6.493,61.906,14.927,87.684,35.252c-8.765,26.252-24.175,48.3-44.803,66.231 C430.44,1110.886,409.149,1106.85,394.894,1087.731z" style="fill: rgb(255, 255, 255);"/>
    <path d="M95.25,729.658c31.544,21.343,55.845,48.667,69.807,84.532c-21.496,13.628-44.019,24.429-70.119,25.24 c-5.713,0.177-11.361-0.232-16.967-1.67c-20.257-5.197-28.492-17.477-24.139-38.066c3.267-15.452,9.651-29.878,18.497-42.995 C78.951,746.881,85.701,737.049,95.25,729.658z" style="fill: rgb(255, 255, 255);"/>
    <path fill="#8ABABC" d="M594.425,194.455c15.912,16.794,13.617,37.713,11.826,57.809c-2.552,28.628-10.863,55.654-27.051,79.969 c-5.917,8.888-13.217,14.684-23.799,16.195c-7.539,0.674-15.069,1.572-22.625,1.952c-7.069,0.356-14.281,0.923-20.742-3.091 c4.069-4.614,8.364-9.048,12.163-13.873c30.315-38.502,40.791-82.676,36.414-130.761c-0.845-9.278-2.613-18.778-7.964-26.964 c3.717-3.231,6.897-0.522,10.258,0.855C574.18,181.168,583.81,188.676,594.425,194.455z"/>
    <path fill="#8ABABC" d="M552.645,175.69c5.352,8.185,7.12,17.686,7.964,26.964c4.377,48.086-6.098,92.259-36.414,130.761 c-3.799,4.825-8.093,9.259-12.163,13.873c-5.58-1.765-6.312-6.789-7.197-11.36c-4.299-22.188-5.078-44.303,0.696-66.486 c4.319-16.593,8.835-33.113,15.472-48.914C528.229,203.329,538.103,187.815,552.645,175.69z"/>
    <path d="M585.488,444.875c9.84-5.447,16.16,3.169,23.931,5.99c2.336,12.694-2.005,24.584-5.43,36.264 c-5.879,20.05-13.431,39.632-26.57,56.284c-3.794,4.809-6.936,12.419-15.599,9.491c-8.448-2.855-9.022-10.016-8.915-17.471 c0.328-22.943-3.682-45.321-8.704-67.594c-2.432-10.783-8.095-20.224-11.786-30.468c13.133,1.801,26.264,3.628,39.404,5.383 c3.105,0.415,6.355,2.695,9.293-0.476c-0.001,0-0.187-0.13-0.187-0.13C581.151,445.222,583.675,444.454,585.488,444.875z" style="fill: rgb(255, 255, 255);"/>
    <path d="M898.707,559.862c-16.634,25.192-36.828,47.055-60.967,65.235c-7.594,5.72-15.159,11.479-22.743,17.219 c-2.797-0.791-5.589-1.581-8.379-2.376c-3.331-3.709-3.789-7.657-0.405-11.452c23.377-26.223,34.158-58.521,44.149-91.211 C866.695,544.34,881.638,554.377,898.707,559.862z" style="fill: rgb(255, 255, 255);"/>
    <path d="M659.712,465.192c11.879-0.601,21.643,6.336,32.395,9.571c41.178,12.388,81.985,26.015,122.881,39.332 c4.775,1.555,10.481,2.083,12.733,7.899c-3.11,10.53-12.511,14.314-21.16,17.036c-29.169,9.18-58.504,11.455-87.346-2.077 c-15.934-7.476-28.315-18.06-36.387-34.309C676.329,489.561,667.505,477.633,659.712,465.192z" style="fill: rgb(255, 255, 255);"/>
    <path fill="#F6C988" d="M760.022,641.37c-0.22,14.51-15.776,27.837-30.179,25.855c-12.435-1.711-19.475-15.049-13.117-25.684 c4.439-7.425,10.48-13.488,18.848-16.754C750.469,618.974,760.261,625.591,760.022,641.37z"/>
    <path fill="#F6C988" d="M724.019,433.704c7.756-0.179,14.971,2.492,22.163,4.721c47.139,14.615,93.538,31.364,139.659,48.902 c3.13,1.19,6.174,2.37,8.751,4.595c3.683,3.18,4.479,7.198,3.255,11.616c-1.305,4.706-4.788,7.038-9.541,6.999 c-3.764-0.031-7.613-0.244-11.271-1.061c-26.878-6.009-52.924-14.859-78.989-23.593c-24.275-8.134-48.432-16.618-72.644-24.942 c-2.244-0.771-4.593-1.303-6.738-2.285c-6.322-2.895-9.352-8.686-8.01-14.913C712.117,436.955,716.228,433.867,724.019,433.704z"/>
    <path fill="#F6C988" d="M677.22,413.912c8.169,0.277,15.222,7.742,14.909,15.78c-0.299,7.665-7.345,14.177-15.033,13.893 c-8.362-0.309-15.609-7.918-14.957-15.703C662.806,419.943,669.594,413.654,677.22,413.912z"/>
    <path fill="#50857F" d="M957.19,205.992c10.059,5.878,13.627,16.377,17.451,26.169c16.751,42.901,18.713,86.745,7.35,131.353 c-9.753,38.286-25.859,73.344-51.322,103.816c-0.866,1.037-1.486,2.587-4.187,2.066c-0.666-5.021,3.41-8.116,5.965-11.544 c29.144-39.098,45.133-82.992,49.567-131.497c3.679-40.252-2.376-78.385-21.595-114.177c-1.116-2.079-1.938-4.316-2.897-6.48 L957.19,205.992z"/>
    <path fill="#37665F" d="M551.668,186.663c4.18-0.05,4.838,2.634,5.365,4.641c12.933,49.262,5.326,95.017-24.018,136.819 c-4.558,6.493-10.176,12.316-22.735,12.101c9.844-12.476,20.933-20.828,26.66-33.258c5.801-12.589,10.162-25.542,13.338-38.992 c3.174-13.438,6.183-26.882,5.064-40.809C554.26,213.709,552.913,200.273,551.668,186.663z"/>
    <path fill="#37665F" d="M551.951,347.402c0.205-0.968,0.164-1.735,0.422-1.854c27.655-12.748,33.974-38.554,40.271-64.718 c3.455-14.357,1.881-28.97,3.479-45.645c6.049,7.297,7.77,13.85,7.66,20.934c-0.397,25.653-6.849,49.852-19.986,71.773 C576.971,339.281,567.731,349.108,551.951,347.402z"/>
    <path fill="#1C0A05" d="M761.314,331.085c0.809-9.134,10.044-17.997,17.604-16.895c9.074,1.322,16.865,10.386,16.063,18.689 c-0.862,8.928-11.315,17.834-19.73,16.811C767.268,348.718,760.547,339.747,761.314,331.085z"/>
    <path fill="#1C0A05" d="M849.478,360.06c-0.016-9.652,6.445-17.633,14.268-17.628c8.55,0.006,16.104,6.997,15.88,14.696 c-0.256,8.8-10.234,18.451-18.724,18.109C854.21,374.968,849.492,368.699,849.478,360.06z"/>
    <path fill="#37665F" d="M536.741,228.09c-6.138,22.42-6.11,45.934-14.27,67.708C520.873,271.878,522.76,248.657,536.741,228.09z"/>
    <path fill="#070201" d="M689.207,237.054c-15.099,3.985-18.753,2.968-22.525-5.551c-4.165-9.406-1.174-21.36,6.586-26.735 c3.999-2.77,8.436-3.31,11.646,0.166c3.7,4.008,0.775,7.934-2.342,11.089c-1.301,1.317-3.006,2.285-4.642,3.209 c-3.295,1.863-7.301,3.304-5.827,8.292c1.344,4.549,4.557,6.973,9.421,7.219C683.744,234.856,686.197,234.09,689.207,237.054z M672.066,216.316c5.871,0.059,8.997-2.001,10.418-6.423c0.149-0.464-0.854-1.841-1.43-1.911 C675.885,207.353,673.418,210.29,672.066,216.316z"/>
    <path fill="#3F1408" d="M661.614,262.727c16.777,10.87,21.346,31.864,12.567,55.964c-2.396-12.768-13.081-16.984-20.408-25.759 c10.262-2.332,12.883,8.842,20.628,10.078C678.195,287.522,666.517,276.89,661.614,262.727z"/>
    <g>
      <path d="M845.049,559.686c3.228,21.452-11.886,37.232-19.662,58.588c17.507-12.658,24.615-30.077,37.604-42.306 c-11.696,26.516-30.155,46.772-57.394,59.341c6.839-12.406,13.944-24.673,20.441-37.255 C832.521,585.498,835.723,571.378,845.049,559.686z" style="fill: rgb(25, 154, 218);"/>
      <path d="M532.758,444.428c10.492,5.553,16.667,14,19.742,25.047c5.516,19.813,8.209,39.912,7.554,60.465 c-0.106,3.318,0.125,6.729-3.551,8.964C554.396,506.005,551.239,473.505,532.758,444.428z" style="fill: rgb(25, 154, 218);"/>
      <path d="M1007.098,655.595c11.743-28.524,15.548-56.871-0.47-86.616c9.792,5.866,15.308,15.82,16.81,30.189 C1025.657,620.389,1023.651,643.685,1007.098,655.595z" style="fill: rgb(25, 154, 218);"/>
      <path d="M1022.21,566.31c24.294,15.412,28.508,59.246,7.94,79.671 C1041.475,617.984,1036.347,591.807,1022.21,566.31z" style="fill: rgb(25, 154, 218);"/>
      <path d="M568.078,544.047c-5.598-0.296-2.448-3.457-1.864-5.743c5.166-20.237,9.646-40.54,9.247-61.655 c-0.148-7.813-4.285-15.341-1.799-24.64c8.699,5.831,8.881,14.126,9.102,21.863c0.589,20.64-4.239,40.415-10.819,59.814 c-1.217,3.588-2.667,7.098-4.009,10.644C567.936,544.331,568.078,544.047,568.078,544.047z" style="fill: rgb(25, 154, 218);"/>
      <path d="M393.329,377.812c-7.783,10.848-14.405,22.268-19.306,34.524c-4.72,11.803-2.687,25.347-8.504,37.394 C353.246,430.199,366.096,396.407,393.329,377.812z" style="fill: rgb(25, 154, 218);"/>
      <path d="M349.19,431.52c-9.765-22.634,2.511-49.825,31.683-69.271c-6.612,13.149-17.048,20.871-21.982,32.345 C353.807,406.413,352.746,419.133,349.19,431.52z" style="fill: rgb(25, 154, 218);"/>
      <path fill="#C53D25" d="M748.445,624.501c-6.196,4.464-12.426,8.554-18.073,13.404c-11.021,9.465-11.271,16.014-1.167,26.398 c-12.533,3.773-17.015,0.772-16.798-10.965c0.073-3.942,1.133-7.413,2.984-10.815 C720.834,632.514,734.903,624.199,748.445,624.501z"/>
      <path d="M675.074,481.599c27.729,19.62,56.925,35.564,92.328,44.37c-15.034,0.63-26.911-2.665-40.545-8.683 c-14.902-6.578-27.564-17.372-43.541-22.034C677.942,493.685,678.96,485.621,675.074,481.599z" style="fill: rgb(25, 154, 218);"/>
      <path d="M567.936,544.331c23.306-23.233,35.084-51.631,36.896-85.675c5.968,5.118,5.158,10.685,4.509,15.471 c-3.554,26.199-15.625,48.297-33.477,67.491c-2.222,2.389-4.682,2.939-7.721,2.349 C568.078,544.047,567.936,544.331,567.936,544.331z" style="fill: rgb(25, 154, 218);"/>
      <path d="M755.467,545.536c-25.317-4.256-49.811-10.86-64.751-34.979 C708.122,529.812,732.794,535.363,755.467,545.536z" style="fill: rgb(25, 154, 218);"/>
    </g>
    <path fill="#3F1408" d="M875.932,227.314c1.194,5.061-7.592,7.07-3.869,13.196c1.155,1.901-1.641,1.571-2.661,1.569 c-3.767-0.01-7.534-0.288-12.77-0.535c3.614-3.03,5.072-6.367,3.322-10.356c-1.951-4.445-0.148-8.478,2.039-12.144 c3.692-6.191,10.188-8.687,14.135-5.347c5.601,4.74,4.918,9.665-0.708,14.12c-0.084-2.765,0.281-5.649-0.35-8.297 c-0.611-2.562-2.999-3.6-5.569-2.657c-3.864,1.418-6.124,4.34-6.413,8.472c-0.192,2.743-0.665,6.213,2.324,7.456 c3.862,1.606,5.54-2.425,8-4.346C874.116,227.896,875.084,227.682,875.932,227.314z"/>
    <path fill="#1C0A05" d="M873.574,305.031c16.306-3.729,22.558,0.418,21.927,15.068 C888.626,313.446,882.789,306.722,873.574,305.031z"/>
    <path d="M701.603,313.552c-0.159-9.525-3.452-18.566-3.16-30.99C704.974,294.492,707.693,303.705,701.603,313.552z"/>
    <path fill="#1C0A05" d="M759.979,287.898c10.65-15.228,14.191-15.969,26.627-6.072 C776.916,280.687,769.202,282.394,759.979,287.898z"/>
    <g>
      <g>
        <path fill="#3F1408" d="M774.088,378.513c18.903,36.222,37.044,39.008,66.95,15.244c-5.465,13.92-20.797,23.917-34.298,22.364 C789.048,414.087,778.198,401.883,774.088,378.513z"/>
        <path fill="#3F1408" d="M817.323,383.582c1.439-1.143,2.721-2.633,4.344-3.37c8.563-3.888,11.259-10.622,10.797-19.645 c-0.609-11.877-0.465-23.804,3.902-35.147c1.48-3.845,1.852-8.401,7.099-11.61c-4.697,17.453-5.813,34.277-5.328,51.37 C838.467,376.84,833.922,380.514,817.323,383.582z"/>
        <path fill="#3F1408" d="M806.144,376.794c-2.23-1.86-1.151-4.255-1.177-6.443c0.555,1.328,1.253,2.62,1.607,3.999 C806.754,375.056,806.318,375.92,806.144,376.794z"/>
      </g>
    </g>
    <g>
      <g>
        <path fill="#37665F" d="M61.899,809.601c-1.042-9,2.201-15.615,5.534-21.645c15.955-28.865,34.971-55.471,60.677-76.608 c6.575-5.406,13.715-10.344,21.2-14.373c11.111-5.981,23.058-4.004,34.686-1.29c9.905,2.312,18.322,7.894,26.355,13.812 c22.037,16.233,45.149,17.317,69.897,6.709c16.135-6.916,32.796-12.613,49.26-18.752c9.492-3.539,19.119-6.026,29.038-1.074 c4.464-5.213,1.201-10.703,2.465-15.538c1.962-7.507,3.661-9.267,10.557-6.147c4.274,1.933,6.828,3.536,7.738-2.595 c0.05-0.335,0.669-0.607,1.052-0.866c3.467-2.349,6.533,5.978,9.6,0.7c1.824-3.139,1.908-7.269,2.93-10.91 c0.219-0.779,0.98-1.72,1.713-1.994c16.121-6.013,26.138-20.123,39.546-29.722c11.875-8.502,22.537-19.357,38.877-18.847 c3.971,0.124,4.321-3.039,3.218-6.09c-1.882-5.208-3.976-10.339-7.154-18.527c7.962,5.452,8.749,11.825,11.788,16.591 c1.542,2.418,2.728,5.328,6.405,3.66c3.712-1.684,4.642-4.449,2.697-8.139c-1.903-3.612-3.721-7.269-6.659-13.026 c7.832,3.309,8.514,10.261,14.022,12.901c15.079-13.037,30.368-26.191,47.505-37.249c-0.243,4.712-3.043,7.461-6.218,10.061 c-9.924,8.127-19.819,16.289-29.671,24.501c-9.687,8.074-9.644,8.102-4.687,20.054c0.719,1.733,1.267,3.544,1.776,5.351 c0.087,0.31-0.422,0.788-0.979,1.743c-1.7-2.394-3.329-4.523-4.778-6.77c-2.039-3.162-3.448-7.092-8.622-4.746 c-4.766,2.161-6.189,5.462-4.326,10.319c0.651,1.698,1.091,3.477,1.948,6.259c-6.238-2.655-5.021-12.548-13.275-10.948 c-6.034,1.17-12.424,1.113-17.965,3.974c-5.041,2.602-9.853,5.76-14.428,9.132c-14.149,10.429-28.012,21.25-42.261,31.538 c-4.349,3.14-7.126,6.226-5.284,11.727c1.084,3.236,0.348,6.611-2.955,6.568c-7.44-0.096-9.671,5.023-11.2,10.693 c-6.148-1.936-7.432-8.885-13.96-9.036c-3.655,3.362-1.567,7.638-0.774,11.435c1.283,6.144-1.294,10.31-7.016,9.33 c-29.957-5.129-53.835,12.18-79.5,21.714c-27.53,10.227-52.583,10.567-76.725-7.386c-9.195-6.837-19.153-12.071-30.218-15.628 c-8.157-2.622-14.648-1.089-21.519,3.13c-33.203,20.39-56.98,49.889-78.498,81.437C68.979,791.969,66.292,800.296,61.899,809.601 z"/>
        <path fill="#37665F" d="M409.479,932.309c3.346,5.205,6.134,6.898,12.179,5.263c16.984-4.592,34.124-8.486,49.567-17.435 c10.159-5.887,20.168-8.162,29.703,1.53c1.492,1.517,4.174,1.864,7.705,3.335c-0.161-6.052-3.673-9.424-5.54-13.397 c-3.153-6.711-1.719-10.838,5.405-10.794c14.008,0.086,19.165-9.64,20.735-19.876c3.244-21.154,12.688-40.868,13.297-62.672 c5.243,5.642,4.337,12.063,3.305,18.423c-2.662,16.414-9.3,31.842-11.656,48.416c-1.184,8.33-9.967,13.227-12.636,21.681 c-1.388,4.397-7.942-1.196-11.698,1.91c-0.329,5.087,3.453,8.617,5.067,12.963c1.02,2.746,2.161,5.392-0.351,7.898 c-2.603,2.597-5.732,3.578-9.103,1.925c-4.252-2.085-8.655-4.094-12.403-6.919c-4.751-3.581-9.301-4.222-14.557-1.615 c-19.319,9.58-39.789,15.55-61.028,18.852c-5.322,0.827-7.06,3.9-7.802,8.546c-6.129,38.377-16.777,76.07-17.276,115.304 c-0.082,6.468-0.414,6.464-6.604,16.451c-4.606-1.89-5.291-6.406-6.76-10.303c-7.689-20.398-9.49-41.161-6.671-62.957 c3.817-29.506,15.664-56.385,24.219-84.392c1.367,8.27-0.955,15.986-3.28,23.454c-6.793,21.826-11.83,43.981-14.374,66.693 c-2.044,18.25-0.108,35.844,8.977,53.862C389.857,1021.315,397.008,976.661,409.479,932.309z"/>
        <path fill="#37665F" d="M720.053,544.093c-0.144,8.196-4.242,13.622-7.432,19.266c-14.336,25.366-32.349,48.049-52.228,69.192 c-46.687,49.655-97.704,94.29-154.989,131.464c-4.395,2.852-8.394,8.225-15.065,5.33c-0.199-6.557,5.256-7.752,8.964-10.21 c34.095-22.596,66.565-47.369,96.813-74.843c43.336-39.362,84.077-81.154,115.501-131.094 C713.565,550.105,714.56,546.042,720.053,544.093z"/>
        <path fill="#37665F" d="M735.037,562.412c-27.283,56.835-69.687,101.853-115.695,143.651 c-35.742,32.471-89.182,67.275-105.164,70.277c9.425-9.296,19.296-15.708,29.183-21.968 c49.283-31.206,92.53-69.195,130.765-113.274c20.295-23.396,39.308-47.489,54.491-74.516c1.136-2.023,2.718-3.796,4.093-5.685 C733.486,561.402,734.261,561.907,735.037,562.412z"/>
        <path fill="#37665F" d="M51.58,804.823c-2.969-11.503-1.632-19.595,2.982-26.888c11.166-17.652,21.974-35.601,34.282-52.44 c11.406-15.605,28.656-24.349,45.673-33.041c-6.772,9.492-17.779,14.155-26.037,22.015c-8.706,8.286-16.285,17.129-22.22,27.551 c-5.635,9.895-11.423,19.724-17.638,29.26C62.235,781.08,57.383,791.696,51.58,804.823z"/>
        <path fill="#37665F" d="M645.118,568.668c-23.396,1.678-46.168-1.367-69.819-6.369c4.657,7.593,12.793,8.815,18.836,17.354 c-14.046-7.482-24.69-14.776-35.598-21.847c-11.041-7.157-25.458-6.731-36.697-14.672 C562.648,553.106,603.4,563.094,645.118,568.668z"/>
        <path fill="#37665F" d="M661.47,757.131c-19.14,21.487-44.024,29.045-71.653,29.681 C614.422,778.818,639.922,773.023,661.47,757.131z"/>
        <path fill="#37665F" d="M553.033,793.87c-9.501,2.632-15.455,0.466-23.265-0.116c6.638,8.464,15.869,9.912,22.414,15.188 c-13.965-0.864-26.564-8.302-40.482-25.106C525.188,790.895,537.853,790.866,553.033,793.87z"/>
        <path fill="#37665F" d="M948.283,627.165c0.051-13.765-2.917-27.281-7.215-41.567C952.94,592.244,955.157,605.65,948.283,627.165 z"/>
        <path fill="#37665F" d="M495.608,994.014c-15.659,3.668-24.422-6.282-32.997-16.636 C473.9,982.232,484.369,988.773,495.608,994.014z"/>
        <path fill="#37665F" d="M472.197,475.422c3.222-10.689,3.079-22.051,7.167-32.451C486.46,455.755,478.93,465.583,472.197,475.422 z"/>
        <path fill="#37665F" d="M968.071,609.823c-4.466-6.696-7.889-11.789-11.265-16.913c-1.083-1.643-1.922-3.684-0.174-5.108 c2.408-1.961,4.724-0.112,6.022,1.626C966.726,594.882,968.94,601.045,968.071,609.823z"/>
        <path fill="#37665F" d="M455.969,464.98c2.432-9.154,4.865-18.307,7.775-29.261C468.116,449.387,467.361,452.321,455.969,464.98z "/>
        <path fill="#37665F" d="M325.555,761.844c-10.853-6.847-13.812-18.174-16.062-29.901 C314.847,741.91,320.201,751.877,325.555,761.844z"/>
        <path fill="#37665F" d="M559.143,919.564c5.121,2.139,10.242,4.278,15.362,6.417 C568.071,927.294,562.683,925.872,559.143,919.564z"/>
        <path fill="#37665F" d="M562.612,906.088c5.48,2.69,10.959,5.381,18.664,9.164c-9.831,0.833-14.419-4.386-20.337-6.421 C561.496,907.916,562.054,907.002,562.612,906.088z"/>
        <path fill="#37665F" d="M506.585,987.328c-7.521-0.083-11.654-2.819-17.41-8.293 C496.896,980.223,501.257,982.462,506.585,987.328z"/>
        <path fill="#37665F" d="M474.186,967.975c2.387,0.267,3.761,2.003,5.27,3.537c-2.332,2.114-2.877-0.722-4.073-1.558 C474.811,969.554,474.582,968.663,474.186,967.975z"/>
      </g>
    </g>
    <g>
      <path d="M745.235,265.201c-0.294,0-0.589-0.031-0.883-0.092c-1.354-0.284-2.487-1.206-3.042-2.475 c-8.018-18.325-20.312-46.324-21.324-48.347c-0.866-1.732-0.463-3.829,0.983-5.116c1.446-1.284,3.576-1.445,5.195-0.383 l43.352,28.385c1.105,0.724,1.815,1.917,1.922,3.234c0.108,1.316-0.397,2.61-1.37,3.504l-21.935,20.161 C747.336,264.805,746.298,265.201,745.235,265.201z M733.683,223.951c4.312,9.769,9.866,22.437,13.071,29.754l13.467-12.378 L733.683,223.951z" style="fill: rgb(25, 154, 218);"/>
    </g>
  </g>
</svg>