<?xml version="1.0" encoding="UTF-8"?>
<!DOCTYPE svg PUBLIC "-//W3C//DTD SVG 1.1//EN" "http://www.w3.org/Graphics/SVG/1.1/DTD/svg11.dtd">
<!-- Creator: CorelDRAW 2021 (64-Bit) -->
<svg xmlns="http://www.w3.org/2000/svg" xml:space="preserve" width="150mm" height="167.993mm" version="1.1" style="shape-rendering:geometricPrecision; text-rendering:geometricPrecision; image-rendering:optimizeQuality; fill-rule:evenodd; clip-rule:evenodd"
viewBox="0 0 15000 16799.3"
 xmlns:xlink="http://www.w3.org/1999/xlink"
 xmlns:xodm="http://www.corel.com/coreldraw/odm/2003">
 <defs>
  <style type="text/css">
   <![CDATA[
    .fil0 {fill:url(#id0)}
    .fil2 {fill:url(#id1)}
    .fil3 {fill:url(#id2)}
    .fil1 {fill:url(#id3)}
    .fil4 {fill:url(#id4);fill-rule:nonzero}
    .fil5 {fill:url(#id5);fill-rule:nonzero}
   ]]>
  </style>
  <radialGradient id="id0" gradientUnits="userSpaceOnUse" gradientTransform="matrix(0.999999 -0 -0 0.999999 0 0)" cx="7305.29" cy="7035.67" r="6638.97" fx="7305.29" fy="7035.67">
   <stop offset="0" style="stop-opacity:1; stop-color:#D6D6D6"/>
   <stop offset="0.309804" style="stop-opacity:1; stop-color:#5D6670"/>
   <stop offset="0.670588" style="stop-opacity:1; stop-color:#E2E2E4"/>
   <stop offset="1" style="stop-opacity:1; stop-color:#5E6774"/>
  </radialGradient>
  <radialGradient id="id1" gradientUnits="userSpaceOnUse" gradientTransform="matrix(1 -0 -0 1 0 0)" xlink:href="#id0" cx="7289.45" cy="11152.67" r="5797.23" fx="7289.45" fy="11152.67">
  </radialGradient>
  <radialGradient id="id2" gradientUnits="userSpaceOnUse" gradientTransform="matrix(1 -0 -0 1 0 0)" xlink:href="#id0" cx="7289.45" cy="2749.17" r="5480.19" fx="7289.45" fy="2749.17">
  </radialGradient>
  <radialGradient id="id3" gradientUnits="userSpaceOnUse" gradientTransform="matrix(1 -0 -0 1 0 0)" xlink:href="#id0" cx="7305.29" cy="7035.67" r="8742.88" fx="7305.29" fy="7035.67">
  </radialGradient>
  <linearGradient id="id4" gradientUnits="userSpaceOnUse" x1="6227.21" y1="7050.65" x2="8550.96" y2="7050.65">
   <stop offset="0" style="stop-opacity:1; stop-color:#5E6774"/>
   <stop offset="0.329412" style="stop-opacity:1; stop-color:#E2E2E4"/>
   <stop offset="0.690196" style="stop-opacity:1; stop-color:#5D6670"/>
   <stop offset="1" style="stop-opacity:1; stop-color:#D6D6D6"/>
  </linearGradient>
  <radialGradient id="id5" gradientUnits="userSpaceOnUse" gradientTransform="matrix(1 -0 -0 0.999999 0 0)" xlink:href="#id0" cx="7498.53" cy="15747.92" r="7500" fx="7498.53" fy="15747.92">
  </radialGradient>
 </defs>
 <g id="Layer_x0020_1">
  <metadata id="CorelCorpID_0Corel-Layer"/>
  <g id="_2774679486464">
   <path class="fil0" d="M7305.29 11292.73l-4257.06 -4257.06 4257.06 -4257.06 4257.06 4257.06 -4257.06 4257.06zm0 453.27l-4710.33 -4710.33 4710.33 -4710.33 4710.33 4710.33 -4710.33 4710.33z"/>
   <path class="fil1" d="M7305.29 12814.34l-5778.67 -5778.67 5778.67 -5778.67 5778.67 5778.67 -5778.67 5778.67zm0 424.37l-6203.04 -6203.04 6203.04 -6203.04 6203.04 6203.04 -6203.04 6203.04z"/>
   <polygon class="fil2" points="7289.15,14052.6 13086.68,8255.17 11375.19,8252.77 11097.18,8530.78 12415.99,8532.29 7287.59,13657.88 2164.23,8530.28 3512.89,8530.27 3235.35,8252.73 1492.22,8255.17 "/>
   <polygon class="fil3" points="7289.07,7.76 1809.26,5490.57 3563.37,5490.59 3841.93,5212.03 2482.6,5212.02 7289.45,404.33 12096.3,5211.35 10768.48,5211.86 11047.21,5490.59 12769.64,5490.59 "/>
   <path class="fil4" d="M7556.39 9432.99l0 -4755.43c374.7,0 706.22,-21.58 994.57,-64.76l0 83.27c-177.33,32.38 -325.36,129.52 -442.55,289.89 -120.27,164.99 -180.41,507.31 -180.41,1025.41l0 2155.67c0,464.13 63.22,775.6 189.67,935.97 126.44,158.82 271.38,260.59 433.29,302.22l0 83.27c-282.18,-37.01 -613.7,-55.51 -994.57,-55.51zm-339.23 -4755.43l0 4755.43c-217.42,0 -547.4,18.5 -989.95,55.51l0 -83.27c231.3,-60.13 393.21,-191.2 482.64,-393.2 90.98,-198.91 135.69,-558.19 135.69,-1080.92l0 -2019.97c0,-391.66 -46.26,-678.47 -140.32,-861.96 -92.51,-181.95 -252.88,-299.14 -478.01,-353.11l0 -83.27c366.99,35.47 696.97,57.06 989.95,64.76z"/>
   <path class="fil5" d="M576.37 14690.32l0 861.21 -351.94 469.42 0 560.19 124.03 0 0 -522.87 227.91 -304.55 0 1053.31 -577.83 0 0 -861.2 349.92 -469.94 0 -559.68 -124.03 0 0 524.39 -225.89 304.55 0 -1054.83 577.83 0zm301.02 1460.72c-16.64,-71.6 -25.21,-143.2 -25.21,-214.29 0,-83.7 12.1,-167.4 35.8,-251.1 43.36,-152.28 122.02,-285.89 235.97,-400.35 170.43,-161.35 372.12,-242.03 604.56,-242.03l29.24 0c193.12,0 360.52,66.56 502.21,199.17l171.43 0c-58.99,-76.64 -129.58,-141.68 -211.27,-194.63 -133.61,-87.73 -283.37,-131.6 -448.75,-131.6 -183.54,0 -346.4,52.94 -489.09,159.33 -78.66,41.35 -149.76,93.28 -212.78,155.3 -123.03,122.02 -208.25,266.73 -255.64,434.14 -25.72,91.76 -38.32,183.53 -38.32,274.79 0,76.14 10.59,159.34 32.27,249.59 -64.04,-135.63 -95.8,-282.36 -95.8,-440.18 0,-146.73 27.73,-283.87 82.69,-411.95 54.96,-128.07 131.09,-240.51 227.4,-336.81 96.81,-96.31 208.75,-172.45 336.82,-227.41 128.07,-55.46 265.72,-82.69 412.45,-82.69 209.75,0 399.84,55.47 569.77,166.9 127.06,83.7 223.36,174.96 288.41,274.8 33.28,47.9 65.55,102.35 95.8,162.35 30.76,60.01 54.46,117.99 71.09,174.46l-635.31 0c-67.06,-78.15 -135.13,-131.6 -203.7,-161.35 -59,-26.21 -130.6,-39.83 -214.3,-39.83 -13.61,0 -27.73,0.51 -41.34,1.51 -174.46,12.11 -314.13,71.1 -419.51,177.49 -84.71,84.71 -143.71,185.05 -177.49,301.02 -17.65,63.02 -26.22,126.05 -26.22,189.08 0,53.45 6.05,106.39 19.16,159.84 18.66,79.66 53.45,153.78 103.87,222.86 50.93,69.08 119,128.07 204.71,177.49 94.29,49.91 199.17,75.12 314.64,75.12 123.03,0 236.98,-20.67 341.35,-62.01 105.38,-41.35 202.19,-103.37 290.94,-186.06 154.79,-145.72 240,-324.21 257.15,-534.98l-695.82 0 0 103.37 509.76 0c-23.7,164.88 -97.82,299.5 -221.85,404.38 -124.04,104.88 -267.74,157.32 -431.11,157.32 -97.82,0 -189.08,-18.66 -274.3,-55.47 -85.21,-36.8 -160.34,-87.23 -225.38,-151.26 -26.22,-27.73 -50.93,-56.98 -73.62,-87.23 -11.09,-25.72 -19.66,-52.95 -26.72,-81.18 -10.59,-47.4 -16.14,-94.29 -16.14,-140.68 0,-56.97 8.07,-113.45 23.7,-169.92 29.25,-102.36 81.69,-191.1 156.31,-267.24 19.66,-18.65 40.84,-35.79 63.53,-51.43 -70.59,85.72 -106.39,185.56 -106.39,299.51 0,132.11 46.89,245.05 140.68,338.33 93.28,92.78 206.22,139.16 338.33,139.16 47.9,0 96.3,-10.58 144.71,-31.26 47.9,-20.67 91.26,-46.38 130.09,-76.64l-358 0 0 -557.16 1145.08 0c3.03,41.35 4.54,81.68 4.54,121.52 0,121.01 -13.11,232.44 -38.32,334.8 -33.78,135.13 -105.38,271.77 -215.81,409.42 -61.01,77.65 -144.2,150.26 -249.58,217.32 -169.42,108.41 -356.99,162.36 -562.71,162.36 -104.37,0 -206.23,-14.62 -305.05,-43.36 -99.33,-29.25 -191.61,-75.13 -277.32,-138.16 -153.29,-111.43 -257.15,-269.76 -311.61,-474.47zm2623.45 -8.57c0,43.36 14.12,74.12 42.86,92.27 28.23,18.15 62.52,27.23 101.85,27.23 34.28,0 64.03,-11.09 89.24,-32.27 25.22,-21.68 37.82,-50.93 37.82,-87.23 0,-36.81 -8.07,-66.05 -24.2,-88.24 -16.64,-22.18 -37.31,-39.83 -63.03,-53.95 -25.71,-13.61 -52.94,-25.71 -82.69,-36.81 -2.02,-1.01 -4.54,-2.01 -7.56,-3.02 -55.97,-20.68 -106.39,-42.36 -150.26,-65.55 -44.37,-23.2 -88.24,-57.99 -131.6,-104.37 -48.41,-51.94 -81.18,-112.95 -99.33,-183.04 -9.58,-36.3 -14.63,-73.11 -14.63,-110.92 0,-32.27 4.04,-65.55 12.11,-98.83 19.66,-84.71 57.98,-159.84 114.96,-225.89 68.07,-78.15 149.75,-126.56 245.55,-146.22 20.67,-5.05 41.35,-7.57 62.02,-7.57 72.61,0 142.69,28.74 209.76,85.72 31.26,29.75 55.46,65.04 72.1,106.39l134.62 0c-4.03,-16.64 -9.58,-32.27 -16.63,-47.4 -20.68,-46.89 -51.94,-90.76 -94.29,-131.6 -42.36,-40.33 -88.24,-70.08 -137.15,-89.75 -49.41,-20.67 -102.86,-31.26 -159.84,-31.26 -61.01,0 -116.47,10.08 -166.89,29.75 -50.43,19.66 -96.31,49.41 -138.66,90.25 -5.05,3.53 -9.58,8.07 -13.62,13.11 -24.7,20.68 -47.39,43.37 -69.08,68.07 -76.13,89.25 -123.03,190.09 -140.67,301.02 -4.54,29.75 -7.06,59 -7.06,87.23 0,79.67 18.15,157.32 54.45,231.94 -109.41,-117.98 -163.87,-256.14 -163.87,-413.46 0,-86.72 16.14,-167.9 48.91,-244.04 31.26,-74.62 78.66,-142.19 141.69,-202.19 62.02,-58.99 131.09,-103.87 208.24,-134.12 76.64,-29.75 158.83,-44.37 246.56,-44.37 84.71,0 164.88,15.12 241.02,45.38 74.62,30.75 143.7,76.13 206.73,136.14 128.07,122.02 192.11,269.75 192.11,443.2l0 109.42 -548.09 0c0,-22.69 -2.02,-48.41 -6.05,-77.15 -4.03,-28.23 -12.61,-53.44 -26.72,-74.62 -13.62,-21.18 -35.8,-34.29 -66.56,-38.83l-7.06 0c-31.77,0 -63.03,11.6 -94.79,35.3 -43.37,35.29 -74.63,77.14 -94.29,125.55 -14.12,32.77 -20.67,65.55 -20.67,98.83 0,9.07 0.5,18.15 1.51,28.23 4.03,43.37 21.68,83.2 52.94,119.5 26.72,28.74 56.98,51.43 90.76,69.08 34.29,17.14 69.58,31.77 105.89,44.88 38.32,13.61 75.12,29.24 110.92,47.39 63.03,32.27 113.45,75.13 151.77,128.58 38.32,52.94 57.99,122.52 57.99,208.24 0,95.3 -33.78,175.47 -100.84,240.51 -68.58,65.05 -149.76,97.82 -243.54,97.82 -99.33,0 -185.05,-31.26 -257.15,-93.28 -41.35,-36.3 -71.1,-81.68 -90.26,-136.14l-137.15 0c19.67,79.16 62.02,147.74 127.07,207.24 47.39,43.86 99.33,77.14 156.81,98.82 54.96,21.68 115.97,32.27 183.03,32.27 67.06,0 128.07,-11.09 183.03,-33.78 56.98,-22.69 109.42,-56.98 156.81,-103.37 94.29,-89.75 141.69,-199.67 141.69,-329.25 0,-72.1 -12.61,-135.13 -38.32,-189.08 -41.35,-80.17 -101.35,-142.7 -180.51,-188.08 -62.02,-34.28 -127.07,-61.51 -194.63,-81.17 -16.14,-4.54 -32.27,-10.09 -48.91,-16.14 -41.35,-15.63 -75.63,-37.82 -103.36,-66.56 -20.68,-25.71 -31.27,-52.94 -31.27,-82.69 0,-6.55 0.51,-14.12 1.52,-22.18 6.05,-38.32 21.68,-72.11 47.39,-101.86l9.08 -8.57c15.63,17.65 37.31,32.78 65.55,44.88 28.23,12.1 53.95,22.18 77.65,30.25 45.38,14.62 86.72,29.25 124.03,42.86 56.98,18.66 111.94,43.87 165.39,75.13 116.98,69.08 205.72,163.87 265.72,283.87 38.32,83.7 57.99,176.48 57.99,279.34 0,190.59 -69.59,352.95 -208.75,485.56 -67.57,66.05 -143.2,115.47 -225.89,147.74 -82.69,33.78 -170.93,50.42 -264.21,50.42 -92.78,0 -180.01,-15.63 -261.69,-47.4 -81.68,-31.26 -156.31,-78.65 -224.38,-141.68 -140.67,-128.07 -211.26,-286.4 -211.26,-475.48l0 -109.42 570.27 0 0 109.42zm2448.99 97.31c84.2,0 164.38,-8.57 239,-25.71 75.13,-17.14 143.7,-55.46 206.73,-114.46 93.78,-95.8 140.68,-209.25 140.68,-341.35 0,-42.36 -4.54,-82.7 -13.62,-121.02 -35.29,-160.84 -129.58,-272.27 -281.86,-335.3 -45.38,-17.15 -93.28,-28.74 -143.7,-34.79 -49.92,-6.56 -99.33,-9.58 -147.23,-9.58l-350.43 0 0 1323.57 290.93 0c165.39,0 295.98,-11.09 391.78,-32.77 62.02,-14.63 119.5,-35.3 172.44,-62.02 109.42,-54.96 199.17,-131.1 269.76,-227.91 70.59,-97.31 118.49,-205.22 144.21,-324.21 11.59,-61.52 17.64,-121.52 17.64,-180.51 0,-123.03 -25.21,-242.53 -75.12,-359.01 -47.4,-111.93 -116.98,-207.73 -208.75,-286.39 -96.31,-77.65 -205.22,-130.09 -326.23,-156.81 -64.04,-13.62 -129.08,-23.2 -195.64,-27.74 -66.55,-5.04 -132.61,-7.56 -198.66,-7.56l-509.76 0 0 -225.89 509.76 0c72.61,0 147.23,3.03 223.87,8.57 76.14,6.05 150.26,17.15 222.36,32.78 156.31,34.28 295.98,102.35 419.51,203.7 119,102.36 209.25,225.39 270.26,369.59 63.03,145.72 94.29,294.97 94.29,448.76 0,75.13 -7.06,150.76 -22.18,227.4 -33.28,152.78 -95.8,290.93 -186.56,415.48 -91.27,124.03 -207.24,221.85 -347.91,293.96 -69.08,33.27 -143.2,59.49 -223.37,78.15 -112.95,25.71 -260.18,38.32 -441.7,38.32l-518.33 0 0 -1776.87 587.91 0c124.04,0 244.05,20.17 360.52,60.51 140.68,54.96 249.59,143.2 327.24,265.22 77.14,121.52 115.97,255.64 115.97,402.37 0,134.62 -34.29,258.16 -102.86,369.08 -68.58,111.44 -163.37,197.15 -284.38,257.16 -77.65,36.3 -158.83,59.49 -243.03,68.57 -84.21,9.58 -168.41,14.12 -253.12,14.12l-158.33 0 0 -1085.59 227.91 0 0 858.18zm2580.59 -1549.46l0 567.25 -664.56 0 0 81.18 -227.91 0 0 -308.59 666.58 0 0 -113.95 -790.61 0 0 551.11c34.79,-4.03 72.1,-6.05 112.44,-6.05l762.37 4.54 0 565.73 -858.68 0c-3.53,0 -7.06,1.51 -10.08,4.54 -3.03,3.03 -5.05,6.56 -6.05,11.6l0 533.46 790.61 0 0 -113.95 -666.58 0 0 -311.61 227.91 0 0 84.2 664.56 0 0 567.25 -1242.39 0 0 -759.35c0,-64.04 24.2,-121.02 72.6,-171.44 49.92,-47.39 106.39,-70.59 169.42,-70.59l632.29 0 0 -113.95 -626.24 0c-47.4,0 -92.27,9.07 -135.63,26.72 -42.36,17.65 -80.17,42.36 -112.44,73.62l0 -1101.72 1242.39 0zm654.48 1452.15c0,43.36 14.12,74.12 42.86,92.27 28.23,18.15 62.52,27.23 101.85,27.23 34.28,0 64.03,-11.09 89.24,-32.27 25.22,-21.68 37.82,-50.93 37.82,-87.23 0,-36.81 -8.07,-66.05 -24.2,-88.24 -16.64,-22.18 -37.31,-39.83 -63.03,-53.95 -25.71,-13.61 -52.94,-25.71 -82.69,-36.81 -2.02,-1.01 -4.54,-2.01 -7.56,-3.02 -55.97,-20.68 -106.39,-42.36 -150.26,-65.55 -44.37,-23.2 -88.24,-57.99 -131.6,-104.37 -48.41,-51.94 -81.18,-112.95 -99.33,-183.04 -9.58,-36.3 -14.63,-73.11 -14.63,-110.92 0,-32.27 4.04,-65.55 12.11,-98.83 19.66,-84.71 57.98,-159.84 114.96,-225.89 68.07,-78.15 149.75,-126.56 245.55,-146.22 20.67,-5.05 41.35,-7.57 62.02,-7.57 72.61,0 142.69,28.74 209.76,85.72 31.26,29.75 55.46,65.04 72.1,106.39l134.62 0c-4.03,-16.64 -9.58,-32.27 -16.63,-47.4 -20.68,-46.89 -51.94,-90.76 -94.29,-131.6 -42.36,-40.33 -88.24,-70.08 -137.15,-89.75 -49.41,-20.67 -102.86,-31.26 -159.84,-31.26 -61.01,0 -116.47,10.08 -166.89,29.75 -50.43,19.66 -96.31,49.41 -138.66,90.25 -5.05,3.53 -9.58,8.07 -13.62,13.11 -24.7,20.68 -47.39,43.37 -69.08,68.07 -76.13,89.25 -123.03,190.09 -140.67,301.02 -4.54,29.75 -7.06,59 -7.06,87.23 0,79.67 18.15,157.32 54.45,231.94 -109.41,-117.98 -163.87,-256.14 -163.87,-413.46 0,-86.72 16.14,-167.9 48.91,-244.04 31.26,-74.62 78.66,-142.19 141.69,-202.19 62.02,-58.99 131.09,-103.87 208.24,-134.12 76.64,-29.75 158.83,-44.37 246.56,-44.37 84.71,0 164.88,15.12 241.02,45.38 74.62,30.75 143.7,76.13 206.73,136.14 128.07,122.02 192.11,269.75 192.11,443.2l0 109.42 -548.09 0c0,-22.69 -2.02,-48.41 -6.05,-77.15 -4.03,-28.23 -12.61,-53.44 -26.72,-74.62 -13.62,-21.18 -35.8,-34.29 -66.56,-38.83l-7.06 0c-31.77,0 -63.03,11.6 -94.79,35.3 -43.37,35.29 -74.63,77.14 -94.29,125.55 -14.12,32.77 -20.67,65.55 -20.67,98.83 0,9.07 0.5,18.15 1.51,28.23 4.03,43.37 21.68,83.2 52.94,119.5 26.72,28.74 56.98,51.43 90.76,69.08 34.29,17.14 69.58,31.77 105.89,44.88 38.32,13.61 75.12,29.24 110.92,47.39 63.03,32.27 113.45,75.13 151.77,128.58 38.32,52.94 57.99,122.52 57.99,208.24 0,95.3 -33.78,175.47 -100.84,240.51 -68.58,65.05 -149.76,97.82 -243.54,97.82 -99.33,0 -185.05,-31.26 -257.15,-93.28 -41.35,-36.3 -71.1,-81.68 -90.26,-136.14l-137.15 0c19.67,79.16 62.02,147.74 127.07,207.24 47.39,43.86 99.33,77.14 156.81,98.82 54.96,21.68 115.97,32.27 183.03,32.27 67.06,0 128.07,-11.09 183.03,-33.78 56.98,-22.69 109.42,-56.98 156.81,-103.37 94.29,-89.75 141.69,-199.67 141.69,-329.25 0,-72.1 -12.61,-135.13 -38.32,-189.08 -41.35,-80.17 -101.35,-142.7 -180.51,-188.08 -62.02,-34.28 -127.07,-61.51 -194.63,-81.17 -16.14,-4.54 -32.27,-10.09 -48.91,-16.14 -41.35,-15.63 -75.63,-37.82 -103.36,-66.56 -20.68,-25.71 -31.27,-52.94 -31.27,-82.69 0,-6.55 0.51,-14.12 1.52,-22.18 6.05,-38.32 21.68,-72.11 47.39,-101.86l9.08 -8.57c15.63,17.65 37.31,32.78 65.55,44.88 28.23,12.1 53.95,22.18 77.65,30.25 45.38,14.62 86.72,29.25 124.03,42.86 56.98,18.66 111.94,43.87 165.39,75.13 116.98,69.08 205.72,163.87 265.72,283.87 38.32,83.7 57.99,176.48 57.99,279.34 0,190.59 -69.59,352.95 -208.75,485.56 -67.57,66.05 -143.2,115.47 -225.89,147.74 -82.69,33.78 -170.93,50.42 -264.21,50.42 -92.78,0 -180.01,-15.63 -261.69,-47.4 -81.68,-31.26 -156.31,-78.65 -224.38,-141.68 -140.67,-128.07 -211.26,-286.4 -211.26,-475.48l0 -109.42 570.27 0 0 109.42zm1617.53 -1452.15l0 861.21 -351.94 469.42 0 560.19 124.03 0 0 -522.87 227.91 -304.55 0 1053.31 -577.83 0 0 -861.2 349.92 -469.94 0 -559.68 -124.03 0 0 524.39 -225.89 304.55 0 -1054.83 577.83 0zm301.02 1460.72c-16.64,-71.6 -25.21,-143.2 -25.21,-214.29 0,-83.7 12.1,-167.4 35.8,-251.1 43.36,-152.28 122.02,-285.89 235.97,-400.35 170.43,-161.35 372.12,-242.03 604.56,-242.03l29.24 0c193.12,0 360.52,66.56 502.21,199.17l171.43 0c-58.99,-76.64 -129.58,-141.68 -211.27,-194.63 -133.61,-87.73 -283.37,-131.6 -448.75,-131.6 -183.54,0 -346.4,52.94 -489.09,159.33 -78.66,41.35 -149.76,93.28 -212.78,155.3 -123.03,122.02 -208.25,266.73 -255.64,434.14 -25.72,91.76 -38.32,183.53 -38.32,274.79 0,76.14 10.59,159.34 32.27,249.59 -64.04,-135.63 -95.8,-282.36 -95.8,-440.18 0,-146.73 27.73,-283.87 82.69,-411.95 54.96,-128.07 131.09,-240.51 227.4,-336.81 96.81,-96.31 208.75,-172.45 336.82,-227.41 128.07,-55.46 265.72,-82.69 412.45,-82.69 209.75,0 399.84,55.47 569.77,166.9 127.06,83.7 223.36,174.96 288.41,274.8 33.28,47.9 65.55,102.35 95.8,162.35 30.76,60.01 54.46,117.99 71.09,174.46l-635.31 0c-67.06,-78.15 -135.13,-131.6 -203.7,-161.35 -59,-26.21 -130.6,-39.83 -214.3,-39.83 -13.61,0 -27.73,0.51 -41.34,1.51 -174.46,12.11 -314.13,71.1 -419.51,177.49 -84.71,84.71 -143.71,185.05 -177.49,301.02 -17.65,63.02 -26.22,126.05 -26.22,189.08 0,53.45 6.05,106.39 19.16,159.84 18.66,79.66 53.45,153.78 103.87,222.86 50.93,69.08 119,128.07 204.71,177.49 94.29,49.91 199.17,75.12 314.64,75.12 123.03,0 236.98,-20.67 341.35,-62.01 105.38,-41.35 202.19,-103.37 290.94,-186.06 154.79,-145.72 240,-324.21 257.15,-534.98l-695.82 0 0 103.37 509.76 0c-23.7,164.88 -97.82,299.5 -221.85,404.38 -124.04,104.88 -267.74,157.32 -431.11,157.32 -97.82,0 -189.08,-18.66 -274.3,-55.47 -85.21,-36.8 -160.34,-87.23 -225.38,-151.26 -26.22,-27.73 -50.93,-56.98 -73.62,-87.23 -11.09,-25.72 -19.66,-52.95 -26.72,-81.18 -10.59,-47.4 -16.14,-94.29 -16.14,-140.68 0,-56.97 8.07,-113.45 23.7,-169.92 29.25,-102.36 81.69,-191.1 156.31,-267.24 19.66,-18.65 40.84,-35.79 63.53,-51.43 -70.59,85.72 -106.39,185.56 -106.39,299.51 0,132.11 46.89,245.05 140.68,338.33 93.28,92.78 206.22,139.16 338.33,139.16 47.9,0 96.3,-10.58 144.71,-31.26 47.9,-20.67 91.26,-46.38 130.09,-76.64l-358 0 0 -557.16 1145.08 0c3.03,41.35 4.54,81.68 4.54,121.52 0,121.01 -13.11,232.44 -38.32,334.8 -33.78,135.13 -105.38,271.77 -215.81,409.42 -61.01,77.65 -144.2,150.26 -249.58,217.32 -169.42,108.41 -356.99,162.36 -562.71,162.36 -104.37,0 -206.23,-14.62 -305.05,-43.36 -99.33,-29.25 -191.61,-75.13 -277.32,-138.16 -153.29,-111.43 -257.15,-269.76 -311.61,-474.47zm3324.81 655.99c-49.91,-81.68 -100.84,-163.37 -151.77,-245.05 -270.26,-435.64 -540.52,-871.29 -811.28,-1307.44l0 1325.09 124.03 0 0 -862.72 226.4 364.55 0 725.57 -576.32 0 0 -2118.22 140.17 0c212.78,341.86 425.05,683.21 636.83,1025.07 178.99,288.42 357.99,577.33 535.98,865.75l218.83 0 0 -1663.42 -124.04 0 0 1554 -208.24 -338.33c-138.66,-222.36 -277.32,-445.22 -414.97,-667.58 -159.84,-258.16 -319.67,-516.83 -480.02,-775.49l264.21 0 613.13 986.75 0 -986.75 577.33 0 0 2118.22 -570.27 0z"/>
  </g>
 </g>
</svg>
