<?xml version="1.0" encoding="utf-8"?>
<!-- Generator: Adobe Illustrator 24.1.2, SVG Export Plug-In . SVG Version: 6.00 Build 0)  -->
<svg version="1.1" xmlns="http://www.w3.org/2000/svg" xmlns:xlink="http://www.w3.org/1999/xlink" x="0px" y="0px"
	 viewBox="0 0 442 294.67" enable-background="new 0 0 442 294.67" xml:space="preserve">
<g id="Background">
</g>
<g id="Objects">
	<g>
		<g>
			<path fill="#D7EFF9" d="M319.13,64.33c-28.04-8.92-61.13-13.17-90.5-14.61c-53.33-2.63-107.36,11.31-152.77,39.4
				c-24.34,15.06-46.73,34.74-59.45,60.38c-31.92,64.33,18.25,123.28,81.2,135.81c31.74,6.32,64.49,3.68,96.79,1.64
				c41.98-2.66,84.12-4.28,126.08-1.41c16.01,1.09,32.28,2.82,47.94-0.67c36.67-8.16,62.35-44.86,65.9-82.25
				c2.96-31.14-7.44-63.32-28.06-86.84c-8.9-10.15-19.54-18.64-31.03-25.68C357.26,79.07,338.55,70.51,319.13,64.33z"/>
			<g>
				<g>
					<polygon fill="#A7A9AC" points="367.54,115.23 359.9,120.42 371.78,123.57 371.78,133.61 377.58,126.54 390.73,129.88 
						403.74,101.09 					"/>
					<g>
						<g>
							<g>
								<polygon fill="#FFFFFF" points="370.5,120.42 370.5,129.88 378.62,121.29 								"/>
								<polygon fill="#FFFFFF" points="372.53,121.29 404.51,95.53 389.27,125.59 								"/>
								<polygon fill="#FFFFFF" points="404.51,95.53 359.37,115.68 372.53,121.29 								"/>
								<polygon fill="#19365A" points="372.53,121.29 370.5,120.42 404.51,95.53 								"/>
							</g>
						</g>
					</g>
				</g>
				
					<path fill="none" stroke="#244E80" stroke-width="0.8504" stroke-linecap="round" stroke-linejoin="round" stroke-miterlimit="10" stroke-dasharray="2.8347" d="
					M368.39,136.33c-9.56,8.54-22.93,11.74-35.75,11.53c-5.59-0.09-11.27-0.8-16.33-3.17c-2.62-1.23-5.1-2.95-6.68-5.38
					c-1.58-2.43-2.13-5.65-0.91-8.28c1.22-2.63,4.43-4.34,7.17-3.4c2.94,1.01,4.38,4.63,3.75,7.67c-0.63,3.05-2.84,5.54-5.27,7.47
					c-6.12,4.85-14.07,7.04-21.88,7.13c-7.81,0.09-15.53-1.78-22.9-4.36"/>
			</g>
			<path fill="#FFFFFF" d="M148.55,125.63c1.1-0.03,2.23-0.06,3.24-0.5c0.76-0.33,1.41-0.86,1.97-1.47
				c3.9-4.21,2.45-12.05-2.69-14.59c-5.14-2.54-12.25,1.06-13.23,6.72c-0.42-1.77-2.03-3.18-3.83-3.38
				c-1.8-0.19-3.68,0.85-4.46,2.49c-1.19-4.54-3.23-9.05-6.86-12.03c-3.63-2.98-9.12-4.03-13.09-1.53
				c-5.04,3.17-5.7,10.18-5.31,16.12c-0.26-3.93-8.06,0.32-8.83,2.26c-3.2-2.35-9.27,0.17-6.36,4.07c2.45,3.28,10.9,2.65,14.35,2.64
				C118.48,126.38,133.52,126.02,148.55,125.63z"/>
			<path fill="#D7EFF9" d="M351.87,50.31c1.1-0.03,2.23-0.06,3.24-0.5c0.76-0.33,1.41-0.86,1.97-1.47
				c3.9-4.21,2.45-12.05-2.69-14.59c-5.14-2.54-12.25,1.06-13.23,6.72c-0.42-1.77-2.03-3.18-3.83-3.38
				c-1.8-0.19-3.68,0.85-4.46,2.49c-1.19-4.54-3.23-9.05-6.86-12.03c-3.63-2.98-9.12-4.03-13.09-1.53
				c-5.04,3.17-5.7,10.18-5.31,16.12c-0.26-3.93-8.06,0.32-8.83,2.26c-3.2-2.35-9.27,0.17-6.36,4.07c2.45,3.28,10.9,2.65,14.35,2.64
				C321.8,51.06,336.84,50.71,351.87,50.31z"/>
		</g>
		<g>
			<g>
				<path fill="#19365A" d="M287.51,286.22l-31.69-3.47l4.19-38.32c0.48-4.41,4.48-7.62,8.89-7.14l15.66,1.71
					c4.41,0.48,7.62,4.48,7.14,8.89L287.51,286.22z"/>
				<path fill="#A05E47" d="M252.34,236.42c-0.04-0.01-4.16-0.99-8.03-4.92c-5.27-5.35-7.74-13.52-7.33-24.26c0-0.01,0-0.02,0-0.03
					c-4.01-0.66-11.23-0.4-11.23-0.4c-0.68,17.94,5.62,28,11.11,33.28c6.11,5.87,12.45,7.29,13.15,7.44
					c0.38,0.08,0.76,0.12,1.14,0.12c2.64,0,5.03-1.85,5.58-4.53C257.36,240.03,255.41,237.04,252.34,236.42z"/>
				<path fill="#E59B39" d="M250.17,247.82c0.39,0.08,0.79,0.12,1.18,0.12c2.73,0,5.19-1.91,5.76-4.68
					c0.64-3.17-1.37-6.25-4.53-6.89c-0.04-0.01-4.29-1.02-8.29-5.08c-0.93-0.94-1.77-1.98-2.53-3.09l-8.41,8.32
					c1.08,1.4,2.18,2.6,3.25,3.63C242.9,246.2,249.44,247.67,250.17,247.82z"/>
				<path fill="#A05E47" d="M236.68,201.19c-0.07-0.48-0.16-0.98-0.46-1.35s-0.88-0.57-1.28-0.3c-0.61,0.42-0.28,1.4-0.59,2.07
					c-0.23,0.51-0.8,0.77-1.35,0.84c-0.55,0.06-1.11-0.04-1.66-0.05c-2.66-0.08-5.21,2.04-5.63,4.67c-0.08,0.5-0.08,1.04,0.21,1.45
					c0.37,0.52,1.06,0.65,1.69,0.74c1.68,0.25,3.39,0.49,5.08,0.36c1.53-0.12,4.06-0.55,4.3-2.32
					C237.26,205.37,236.95,203.1,236.68,201.19z"/>
				<path fill="#632A1A" d="M228.19,208.36c-0.07-0.08-0.14-0.17-0.2-0.27c-0.06-0.09-0.03-0.21,0.06-0.27
					c0.09-0.06,0.21-0.03,0.27,0.06c0.17,0.28,0.37,0.43,0.59,0.44c0.43,0.02,0.91-0.46,1.06-0.65c0.03-0.04,0.08-0.07,0.14-0.08
					c0.05,0,0.11,0.01,0.15,0.05c0.34,0.3,0.63,0.43,0.88,0.36c0.38-0.09,0.57-0.59,0.57-0.59c0.03-0.07,0.09-0.12,0.17-0.13
					c0.07-0.01,0.15,0.03,0.19,0.09c0.17,0.28,0.35,0.44,0.55,0.48c0.21,0.04,0.37-0.08,0.38-0.09c1.6-1.15-0.35-4.89-0.37-4.93
					c-0.05-0.1-0.01-0.21,0.08-0.27c0.1-0.05,0.21-0.02,0.27,0.08c0.09,0.17,2.13,4.08,0.26,5.42c0,0-0.29,0.23-0.68,0.16
					c-0.23-0.04-0.44-0.17-0.63-0.39c-0.13,0.21-0.36,0.45-0.69,0.53c-0.34,0.08-0.7-0.03-1.09-0.32c-0.23,0.24-0.72,0.68-1.25,0.65
					C228.63,208.7,228.4,208.58,228.19,208.36z"/>
				<path fill="#632A1A" d="M231.75,207.62c-0.03-0.03-0.04-0.06-0.05-0.1c-0.01-0.04-0.6-3.77-1.13-4.79
					c-0.05-0.1-0.01-0.21,0.08-0.26c0.1-0.05,0.22-0.01,0.26,0.08c0.56,1.08,1.15,4.75,1.17,4.91c0.02,0.11-0.06,0.21-0.16,0.22
					C231.86,207.69,231.8,207.67,231.75,207.62z"/>
				<path fill="#632A1A" d="M229.99,207.93c-0.02-0.03-0.04-0.06-0.05-0.1c-0.01-0.04-0.68-3.72-1.2-4.65
					c-0.05-0.09-0.02-0.21,0.07-0.27c0.09-0.05,0.21-0.02,0.27,0.07c0.56,0.99,1.22,4.62,1.25,4.77c0.02,0.11-0.05,0.21-0.16,0.23
					C230.1,208,230.03,207.98,229.99,207.93z"/>
				<path fill="#632A1A" d="M233.67,206.98c-0.04-0.05-0.06-0.12-0.04-0.19c0.08-0.27,0.28-0.5,0.53-0.61
					c-0.23-0.55-0.42-1.02-0.53-1.54c-0.14-0.63-0.12-1.21,0.05-1.71c0.09-0.27,0.22-0.47,0.39-0.6c0.28-0.21,0.7-0.24,1.07-0.07
					c0.33,0.15,0.57,0.41,0.76,0.65c0.57,0.7,0.98,1.52,1.19,2.35c0.03,0.11-0.04,0.21-0.15,0.24c-0.1,0.02-0.21-0.04-0.24-0.14
					c-0.19-0.78-0.57-1.54-1.11-2.2c-0.16-0.2-0.36-0.42-0.62-0.54c-0.24-0.11-0.5-0.1-0.67,0.03c-0.11,0.08-0.19,0.21-0.26,0.41
					c-0.15,0.43-0.16,0.94-0.04,1.51c0.11,0.5,0.3,0.97,0.53,1.5c0.02,0.06,0.07,0.17,0.02,0.29c-0.05,0.11-0.16,0.16-0.21,0.18
					c-0.17,0.07-0.29,0.21-0.34,0.37c-0.03,0.1-0.14,0.17-0.24,0.14C233.73,207.03,233.7,207.01,233.67,206.98z"/>
				<path fill="#FBB040" d="M242.89,244.63l2.74,35.43c0,0,8,4.36,19.29,3.04c11.29-1.31,13.77-6.3,13.77-6.3
					s-1.95-34.76-2.28-35.11c-0.33-0.34-1.66-11.77-18-9.43C242.06,234.59,242.89,244.63,242.89,244.63z"/>
				<path fill="#D38E33" d="M266.47,246.02c0,0,9.06,15.28,3.23,32.25c0,0,9.32-13.43,8.98-17.85
					C278.34,255.99,266.47,246.02,266.47,246.02z"/>
				<path fill="#A05E47" d="M287.49,258.11l-13.33-21.17c-1.67-2.65-5.17-3.45-7.82-1.78c-2.65,1.67-3.44,5.17-1.78,7.82l11.7,18.57
					l-8.22,17.88c0,0,4.04,4.87,10.3,4.74l9.5-20.67C288.64,261.76,288.51,259.73,287.49,258.11z"/>
				<g>
					<polygon fill="#A05E47" points="265.81,226.02 262.27,235.19 256.56,237.41 253.42,233.32 255.55,227.81 					"/>
				</g>
				<path fill="#774031" d="M262.88,230.2l-8.1-0.39l-1.13,2.94C257.86,233.76,262.88,230.2,262.88,230.2z"/>
				<path fill="#A05E47" d="M256.69,232.11l-3.79-1.46c-3.24-1.25-4.87-4.92-3.62-8.16l4.04-10.48c1.25-3.24,4.92-4.87,8.16-3.62
					l3.79,1.46c3.24,1.25,4.87,4.92,3.62,8.16l-4.04,10.48C263.6,231.73,259.93,233.36,256.69,232.11z"/>
				<path opacity="0.3" fill="#171E26" d="M265.28,209.85l-3.79-1.46c-2.83-1.09-5.99,0.01-7.58,2.47c0.55,0.89,1.3,1.65,2.22,2.13
					c1.73,0.91,3.78,0.99,5.72,0.74c0.75-0.1,1.53-0.23,2.27-0.05c0.74,0.18,1.43,0.8,1.42,1.56c-0.01,0.63-0.5,1.15-1.02,1.5
					c-0.32,0.22-0.68,0.4-0.93,0.7c-0.32,0.39-0.4,0.91-0.46,1.41c-0.18,1.61-0.2,3.33,0.62,4.72c0.45,0.76,1.11,1.36,1.79,1.92
					c0.12,0.1,0.24,0.2,0.37,0.29l3-7.78C270.15,214.77,268.52,211.1,265.28,209.85z"/>
				<path fill="#A05E47" d="M268.75,225.94c-0.41,1.05-1.59,1.58-2.64,1.17c-1.05-0.41-1.58-1.59-1.17-2.64
					c0.41-1.05,1.59-1.58,2.64-1.17C268.63,223.7,269.16,224.89,268.75,225.94z"/>
				<path fill="#FBB040" d="M274.16,236.94c-1.67-2.65-5.17-3.45-7.82-1.78c-2.65,1.67-3.44,5.17-1.78,7.82l6.01,9.54
					c1.91-0.74,6.86-2.79,10.09-5.25L274.16,236.94z"/>
				<path fill="#A05E47" d="M277.57,286.18c-0.3,0.62-0.63,1.27-1.19,1.67c-0.56,0.41-1.42,0.49-1.9-0.01
					c-0.25-0.26-0.38-0.65-0.72-0.78c-0.42-0.17-0.85,0.18-1.28,0.3c-0.8,0.23-1.66-0.36-1.95-1.14c-0.1-0.26-0.16-0.55-0.39-0.71
					c-0.5-0.34-1.26,0.31-1.76-0.04c-0.38-0.27-0.27-0.93-0.64-1.21c-0.2-0.15-0.48-0.14-0.71-0.24c-0.39-0.17-0.58-0.63-0.56-1.05
					c0.02-0.42,0.21-0.82,0.39-1.2c0.29-0.6,0.58-1.2,0.87-1.8c0.17-0.35,0.35-0.71,0.64-0.98c0.62-0.57,1.58-0.53,2.41-0.43
					c1.6,0.2,3.22,0.55,4.64,1.31c1.17,0.62,2.29,1.57,2.89,2.77C278.87,283.75,278.07,285.17,277.57,286.18z"/>
			</g>
			<g>
				<path fill="#19365A" d="M76.43,286.19H44.55v-38.55c0-4.43,3.63-8.06,8.06-8.06h15.75c4.43,0,8.06,3.63,8.06,8.06V286.19z"/>
				<g>
					<g>
						<path fill="#A05E47" d="M76.72,239.53c2.82-1.36,6.21-0.18,7.58,2.64l8.81,18.23l20.7-7.7c1.09,6.97,3.98,10.11,3.98,10.11
							l-25.49,10.05c-1.32,0.51-2.71,0.49-3.95,0.04c-1.35-0.49-2.52-1.48-3.19-2.87l-11.08-22.92
							C72.72,244.29,73.9,240.9,76.72,239.53z"/>
						<path fill="#7F4637" d="M88.36,272.9c1.24,0.45,2.63,0.46,3.95-0.04l9.44-3.72c-3.75-3.02-6.23-6.48-7.72-9.08l-0.91,0.34
							l-3.41-7.05c-3.34-1.16-9.3-1.33-13.23-1.29l8.7,17.99C85.84,271.42,87.01,272.42,88.36,272.9z"/>
						<path fill="#D3AFA5" d="M78.03,255.27l5.07,6.54l8.41-4.74l-7.21-14.9c-1.16-2.4-3.79-3.59-6.28-3.06l-0.26,0.14L78.03,255.27
							z"/>
						<path fill="#A05E47" d="M119.56,250.55c0.45-0.12,0.93-0.22,1.37-0.1c0.45,0.13,0.84,0.57,0.75,1.03
							c-0.15,0.7-1.14,0.78-1.62,1.3c-0.36,0.39-0.39,1-0.24,1.52c0.15,0.51,0.45,0.97,0.67,1.46c1.06,2.34,0.14,5.4-2.05,6.75
							c-0.41,0.25-0.9,0.46-1.37,0.35c-0.6-0.13-0.97-0.7-1.29-1.23c-0.85-1.4-1.71-2.82-2.22-4.38c-0.46-1.4-1.03-3.81,0.45-4.69
							C115.63,251.59,117.76,251.02,119.56,250.55z"/>
						<path fill="#7F4637" d="M116.51,260.52c0.1,0.03,0.2,0.06,0.32,0.08c0.1,0.02,0.2-0.05,0.22-0.16c0.02-0.1-0.05-0.2-0.16-0.22
							c-0.32-0.05-0.52-0.17-0.61-0.36c-0.18-0.38,0.07-0.98,0.18-1.18c0.03-0.05,0.03-0.1,0.02-0.15c-0.02-0.05-0.05-0.09-0.1-0.11
							c-0.39-0.18-0.61-0.4-0.65-0.65c-0.06-0.37,0.31-0.73,0.31-0.73c0.05-0.05,0.07-0.13,0.05-0.19
							c-0.02-0.07-0.08-0.12-0.15-0.13c-0.31-0.05-0.53-0.15-0.63-0.31c-0.11-0.17-0.06-0.36-0.06-0.37
							c0.42-1.85,4.48-1.52,4.52-1.51c0.1,0.01,0.2-0.07,0.21-0.17c0.01-0.1-0.06-0.19-0.17-0.21c-0.18-0.02-4.42-0.36-4.92,1.8
							c0,0-0.1,0.34,0.11,0.66c0.12,0.19,0.31,0.32,0.58,0.41c-0.13,0.2-0.27,0.49-0.22,0.81c0.05,0.33,0.29,0.62,0.69,0.84
							c-0.13,0.29-0.33,0.89-0.11,1.36C116.04,260.26,116.24,260.42,116.51,260.52z"/>
						<path fill="#7F4637" d="M115.84,257.08c0.03,0.01,0.07,0.02,0.11,0.01c0.04-0.01,3.57-0.87,4.68-0.78
							c0.1,0.01,0.2-0.07,0.2-0.17c0.01-0.1-0.07-0.2-0.17-0.2c-1.17-0.1-4.65,0.76-4.8,0.79c-0.1,0.03-0.16,0.13-0.14,0.23
							C115.73,257.01,115.78,257.06,115.84,257.08z"/>
						<path fill="#7F4637" d="M116.23,258.77c0.03,0.01,0.07,0.01,0.1,0.01c0.04-0.01,3.56-0.79,4.58-0.67
							c0.1,0.01,0.2-0.06,0.21-0.17c0.01-0.1-0.06-0.2-0.17-0.21c-1.09-0.13-4.56,0.64-4.71,0.68c-0.1,0.02-0.17,0.12-0.14,0.23
							C116.12,258.69,116.17,258.74,116.23,258.77z"/>
						<path fill="#7F4637" d="M116.79,260.59c0.04,0.01,0.09,0.02,0.13,0c0.02-0.01,1.97-0.76,3.68-0.72c0.1,0,0.19-0.08,0.19-0.18
							c0-0.1-0.08-0.19-0.18-0.19c-1.79-0.04-3.75,0.71-3.83,0.74c-0.1,0.04-0.15,0.15-0.11,0.25
							C116.7,260.53,116.74,260.57,116.79,260.59z"/>
						<path fill="#7F4637" d="M115.49,255.26c0.06,0.02,0.13,0.01,0.18-0.03c0.21-0.17,0.34-0.43,0.34-0.7
							c0.57,0,1.07-0.01,1.56-0.1c0.61-0.12,1.12-0.35,1.5-0.69c0.21-0.18,0.33-0.37,0.38-0.57c0.08-0.33-0.05-0.71-0.34-0.98
							c-0.26-0.23-0.58-0.35-0.86-0.43c-0.84-0.25-1.72-0.31-2.53-0.17c-0.1,0.02-0.17,0.11-0.16,0.22c0.02,0.1,0.11,0.17,0.22,0.16
							c0.76-0.12,1.58-0.07,2.37,0.16c0.24,0.07,0.51,0.17,0.71,0.35c0.19,0.17,0.28,0.41,0.23,0.6c-0.03,0.13-0.12,0.25-0.27,0.38
							c-0.33,0.3-0.77,0.5-1.32,0.6c-0.48,0.09-0.98,0.1-1.53,0.09c-0.06,0-0.18,0-0.26,0.09c-0.08,0.09-0.08,0.2-0.08,0.25
							c0,0.17-0.07,0.34-0.2,0.44c-0.08,0.07-0.1,0.18-0.03,0.27C115.43,255.22,115.46,255.24,115.49,255.26z"/>
					</g>
					<path fill="#EACFC5" d="M86.29,247.83l-2.76,35.77c0,0-8.08,4.4-19.48,3.07c-11.4-1.33-13.9-6.36-13.9-6.36
						s1.97-35.1,2.3-35.45c0.33-0.35,1.68-11.88,18.18-9.52C87.12,237.7,86.29,247.83,86.29,247.83z"/>
					<g>
						<polygon fill="#A05E47" points="66.81,225.1 66.81,235.02 72.75,239.78 75.83,236.48 75.83,230.51 						"/>
					</g>
					<path fill="#7F4637" d="M68.05,230.3l7.78,2.58v3.18C71.49,235.48,68.05,230.3,68.05,230.3z"/>
					<path fill="#A05E47" d="M74.17,234.35h2.13c4.05,0,7.36-3.31,7.36-7.36v-9.38c0-4.05-3.31-7.36-7.36-7.36h-2.13
						c-4.05,0-7.36,3.31-7.36,7.36v9.38C66.81,231.04,70.12,234.35,74.17,234.35z"/>
					<path fill="#171C27" d="M67.12,223.64c0.27,0.67,1.17,1.21,1.7,0.72c0.19-0.18,0.27-0.45,0.34-0.71
						c0.35-1.41,0.41-2.88,0.18-4.31c-0.27-1.68-0.9-3.56,0.06-4.96c0.63-0.92,1.9-1.34,2.95-0.98c0.55,0.19,1.02,0.56,1.57,0.74
						c1.1,0.35,2.27-0.12,3.41-0.26c2.1-0.27,4.4,0.54,6.29-0.43c1.05-0.54,1.81-1.61,1.97-2.78c0.05-0.33,0.04-0.68-0.08-0.99
						c-0.24-0.6-0.89-0.96-1.53-1.07c-1.47-0.27-3,0.43-4.45,0.06c-0.9-0.23-1.67-0.86-2.59-1c-1.28-0.2-2.49,0.57-3.75,0.86
						c-1.29,0.3-2.65,0.09-3.94,0.37c-2.7,0.59-4.54,3.25-5.04,5.96c-0.5,2.71,0.08,5.5,0.65,8.2c0.21,0.97,0.41,1.94,0.62,2.91
						c0.17,0.81,0.4,1.7,1.1,2.14c0.11,0.07,0.24,0.13,0.37,0.12c0.36-0.04,0.46-0.51,0.45-0.87c-0.03-1.8-0.32-3.54-0.71-5.29
						C66.9,222.56,66.91,223.13,67.12,223.64z"/>
					<path fill="#A05E47" d="M64.85,224.16c0,1.14,0.92,2.06,2.06,2.06c1.14,0,2.06-0.92,2.06-2.06c0-1.14-0.92-2.06-2.06-2.06
						C65.77,222.09,64.85,223.02,64.85,224.16z"/>
					<g>
						<path fill="#A05E47" d="M92.18,272.74c0.13-0.06,0.29-0.13,0.41-0.06c0.1,0.05,0.13,0.17,0.17,0.27
							c0.26,0.71,0.89,1.32,1.64,1.39s1.55-0.55,1.52-1.31c-0.02-0.51-0.38-0.94-0.73-1.33c0.67,0.76,1.45,1.57,2.46,1.66
							c0.12,0.01,0.25,0.01,0.35-0.05c0.12-0.07,0.18-0.2,0.22-0.33c0.21-0.63,0.12-1.35-0.22-1.92c0.28,0.27,0.57,0.55,0.93,0.69
							c0.36,0.15,0.81,0.13,1.09-0.13c0.45-0.43,0.22-1.17-0.03-1.74c-0.27-0.61-0.55-1.23-0.82-1.84c-0.31-0.7-0.63-1.41-1.1-2.02
							c-0.79-1.01-1.96-1.66-3.16-2.13c-2.52-0.99-5.3-1.33-7.98-0.96c-0.17,0.02-0.35,0.05-0.51,0.14
							c-0.33,0.19-0.46,0.59-0.54,0.96c-0.69,2.87-0.67,5.96,0.12,8.81c0.32,1.15,0.74,1.47,1.97,1.36
							C89.47,274.08,90.86,273.4,92.18,272.74z"/>
						<g>
							<path fill="#A05E47" d="M59.27,237.63c3.12-0.28,5.88,2.01,6.16,5.13l1.84,20.16l22.09-0.16
								c-1.44,6.91-1.51,11.46-1.51,11.46l-25.71,0.08c-1.41,0.01-2.71-0.5-3.71-1.35c-1.1-0.93-1.84-2.28-1.98-3.81l-2.31-25.36
								C53.85,240.67,56.15,237.91,59.27,237.63z"/>
						</g>
						
							<path fill="none" stroke="#7F4637" stroke-width="0.5669" stroke-linecap="round" stroke-linejoin="round" stroke-miterlimit="10" d="
							M95.42,271.95c0,0-1.25-2.68-2.03-3.68c-0.78-0.99-1.92-0.88-1.92-0.88"/>
						
							<path fill="none" stroke="#7F4637" stroke-width="0.5669" stroke-linecap="round" stroke-linejoin="round" stroke-miterlimit="10" d="
							M98.01,271.07l-1.77-3.91c0,0-0.81-1.47-2.28-1.71"/>
						<path fill="#EACFC5" d="M65.61,242.55c-0.3-3.23-3.15-5.61-6.38-5.32c-3.23,0.29-5.61,3.15-5.32,6.39l1.53,16.78l11.66-1.49
							L65.61,242.55z"/>
						
							<path fill="none" stroke="#A5867C" stroke-width="0.2835" stroke-linecap="round" stroke-linejoin="round" stroke-miterlimit="10" d="
							M54.11,245.84l1.33,14.56c0,0,8.93-1.14,11.66-1.49l-1.44-15.82"/>
					</g>
					
						<path fill="none" stroke="#A5867C" stroke-width="0.2835" stroke-linecap="round" stroke-linejoin="round" stroke-miterlimit="10" d="
						M64.49,235.48l4,7.92l4.28-3.26l4.12,2.95c0,0,1.47-3.36,1.47-5.08"/>
					
						<polyline fill="none" stroke="#A5867C" stroke-width="0.2835" stroke-linecap="round" stroke-linejoin="round" stroke-miterlimit="10" points="
						72.18,240.58 71.94,253.43 74.74,253.43 					"/>
				</g>
			</g>
			<g>
				<path fill="#19365A" d="M175.3,283.15l-31.57,4.39l-5.31-38.18c-0.61-4.39,2.48-8.48,6.87-9.09l15.6-2.17
					c4.39-0.61,8.48,2.48,9.09,6.88L175.3,283.15z"/>
				<g>
					<path fill="#503972" d="M174.58,210.37c-1.47-0.6-3.04-0.92-4.63-0.96c-1.54-0.03-3.11-0.22-4.61,0.24
						c-2.11,0.65-3.7,2.45-4.63,4.45c-0.66,1.42-1.02,2.96-1.3,4.5c-0.26,1.46-0.6,2.89-0.78,4.37c-0.39,3.19-0.42,6.42-0.93,9.59
						c-0.95,5.82-3.49,11.25-5.2,16.9c-1.72,5.65-2.56,11.93-0.16,17.32c0.2,0.46,0.44,0.92,0.85,1.21
						c0.37,0.27,0.84,0.36,1.29,0.44c2.82,0.5,5.68,0.74,8.55,0.72c1.03-0.01,2.09-0.05,3.04-0.46c0.84-0.36,1.54-0.98,2.14-1.66
						c2.28-2.6,3.23-6.07,4.11-9.41c0.84-3.2,1.68-6.41,2.53-9.61c2.35-8.94,4.71-17.98,4.98-27.22c0.09-3.15-0.22-6.66-2.54-8.8
						C176.5,211.28,175.55,210.77,174.58,210.37z"/>
					<g>
						<path fill="#DBA38D" d="M208.59,252.78c-23.22,3.36-30.14-13.15-30.44-13.91c-0.92-2.38-3.6-3.58-6-2.67
							c-2.4,0.92-3.61,3.6-2.69,6.01c0.25,0.64,2.57,6.45,8.7,11.76c5.53,4.79,15.25,10.03,30.48,8.19
							c0.42-0.05,0.85-0.11,1.28-0.17C210.19,257.14,208.59,252.78,208.59,252.78z"/>
						<path fill="#DBA38D" d="M212.93,250.66c0.61-0.23,1.26-0.47,1.89-0.32c0.63,0.15,1.18,0.85,0.91,1.44
							c-0.23,0.5-0.97,0.85-0.8,1.38c0.05,0.16,0.19,0.29,0.33,0.39c1.71,1.33,3.99,1.58,5.99,2.43c0.9,0.38,1.83,0.99,2.05,1.94
							c0.17,0.72-0.12,1.5-0.6,2.06c-0.49,0.56-1.15,0.94-1.82,1.26c-3.57,1.69-7.8,1.9-11.52,0.58c-0.42-0.15-0.84-0.32-1.15-0.63
							c-0.3-0.3-0.48-0.71-0.64-1.11c-0.33-0.79-0.66-1.58-0.78-2.42c-0.27-1.74,0.44-3.5,1.6-4.78
							C209.73,251.4,211.19,251.33,212.93,250.66z"/>
						<path fill="#F75454" d="M182.61,245.38c-3.08-3.19-4.34-6.2-4.47-6.52c-0.92-2.38-3.6-3.58-6-2.67
							c-2.4,0.92-3.61,3.6-2.69,6.01c0.21,0.56,1.99,4.99,6.45,9.62C177.26,250.85,180.24,248.52,182.61,245.38z"/>
						<path fill="#BF4040" d="M175.92,251.97c-0.05,0.01-0.1-0.01-0.13-0.05c-4.49-4.67-6.29-9.17-6.48-9.67
							c-0.03-0.08,0.01-0.17,0.09-0.2c0.08-0.03,0.17,0.01,0.2,0.09c0.19,0.49,1.94,4.87,6.32,9.47c1.26-0.91,4.16-3.18,6.49-6.22
							c-3.12-3.26-4.36-6.34-4.41-6.47c-0.03-0.08,0.01-0.17,0.09-0.2c0.08-0.03,0.17,0.01,0.2,0.09c0.05,0.13,1.29,3.21,4.44,6.46
							c0.05,0.05,0.06,0.14,0.01,0.2c-2.43,3.22-5.53,5.6-6.74,6.47C175.97,251.96,175.94,251.97,175.92,251.97z"/>
					</g>
					<path fill="#F75454" d="M180.29,244.46c0.48,3.13,0.22,6.32,0.15,9.49c-0.17,6.99,0.06,14.15,2.38,20.79
						c0.79,2.25,1.51,4.26-0.26,6.24c-3.53,3.92-11.87,4.83-16.72,4.97c-3.1,0.09-13.43-0.09-14.75-4.42
						c-0.43-1.41,1.13-4.59,1.4-6.1c0.58-3.23,0.26-6.93,0.26-10.24c0-4.3-0.06-8.93-1.08-13.12c-0.95-3.92-0.82-7.76,0.91-11.53
						c0.88-1.93,2.18-3.76,4.05-4.76c2.49-1.33,5.5-1.75,8.28-1.76c3.26-0.01,7.54,0.16,10.47,1.73c2.76,1.48,4.27,5.14,4.81,8.04
						C180.22,244.02,180.26,244.24,180.29,244.46z"/>
					<g>
						<g>
							<path fill="#EEB399" d="M170.31,230.46l0.17,5.99c0,0,0.04,2.88-4.38,2.84c-4.42-0.04-4.7-4.05-4.7-4.05l-0.28-9.95
								L170.31,230.46z"/>
							<path fill="#C18B76" d="M162.5,230.27l7.87,2.36l0.09,3.19C166.09,235.36,162.5,230.27,162.5,230.27z"/>
							<path fill="#EEB399" d="M167.68,234.18l4.27-0.12c3.47-0.1,6.23-3.02,6.13-6.49l-0.32-11.54c-0.1-3.47-3.02-6.23-6.49-6.13
								l-4.27,0.12c-3.47,0.1-6.23,3.02-6.13,6.49l0.32,11.54C161.29,231.52,164.21,234.28,167.68,234.18z"/>
							<path fill="#EEB399" d="M159.11,224.19c0.03,1.14,0.99,2.04,2.13,2.01c1.14-0.03,2.04-0.99,2.01-2.13
								c-0.03-1.14-0.99-2.04-2.13-2.01C159.98,222.1,159.08,223.05,159.11,224.19z"/>
						</g>
						<path fill="#503972" d="M178.23,213.07c0,0-7.13,9.68-17.82,9.01c0,0-2.36-12.77,8.03-13.15
							C168.45,208.93,173.84,208.24,178.23,213.07z"/>
					</g>
					<g>
						<path fill="#EEB399" d="M184.28,266.82c-22.42-6.94-21.57-24.82-21.52-25.64c0.19-2.55-1.72-4.78-4.27-4.98
							c-2.56-0.2-4.81,1.71-5.01,4.27c-0.05,0.69-0.44,6.93,2.81,14.36c2.93,6.7,9.47,15.61,24,20.49c0.4,0.14,0.81,0.27,1.23,0.4
							C183.85,271.45,184.28,266.82,184.28,266.82z"/>
						<path fill="#F75454" d="M164,248.99c-1.41-4.2-1.26-7.46-1.24-7.8c0.19-2.55-1.72-4.78-4.27-4.98
							c-2.56-0.2-4.81,1.71-5.01,4.27c-0.05,0.59-0.34,5.36,1.69,11.45C156.81,251.62,160.51,250.8,164,248.99z"/>
						<path fill="#BF4040" d="M155.12,252.07c-0.04-0.01-0.08-0.05-0.1-0.1c-2.05-6.15-1.74-10.98-1.7-11.51
							c0.01-0.08,0.08-0.15,0.17-0.14c0.09,0,0.15,0.08,0.14,0.17c-0.04,0.52-0.35,5.23,1.64,11.26c1.53-0.28,5.13-1.09,8.53-2.83
							c-1.42-4.28-1.21-7.6-1.2-7.74c0.01-0.09,0.08-0.15,0.17-0.14c0.09,0,0.15,0.08,0.14,0.17c-0.01,0.14-0.21,3.46,1.23,7.74
							c0.02,0.07-0.01,0.15-0.08,0.19c-3.58,1.86-7.4,2.68-8.87,2.95C155.17,252.08,155.15,252.08,155.12,252.07z"/>
						<path fill="#EEB399" d="M188.98,266.87c0.65,0.05,1.34,0.12,1.85,0.52c0.51,0.4,0.7,1.28,0.2,1.69
							c-0.43,0.36-1.24,0.35-1.31,0.9c-0.02,0.17,0.05,0.34,0.13,0.5c0.97,1.93,2.93,3.15,4.36,4.76c0.65,0.73,1.23,1.68,1.02,2.63
							c-0.15,0.73-0.75,1.3-1.43,1.6c-0.68,0.3-1.44,0.36-2.19,0.36c-3.95-0.01-7.87-1.63-10.66-4.42
							c-0.31-0.31-0.62-0.65-0.77-1.06c-0.14-0.4-0.13-0.85-0.11-1.28c0.04-0.85,0.09-1.71,0.33-2.53c0.51-1.69,1.89-2.97,3.5-3.63
							C185.77,266.16,187.12,266.73,188.98,266.87z"/>
					</g>
				</g>
			</g>
			<g>
				<path fill="#19365A" d="M398.05,284.63h-31.88v-38.55c0-4.43,3.63-8.06,8.06-8.06h15.75c4.43,0,8.06,3.63,8.06,8.06V284.63z"/>
				<path fill="#EEB399" d="M362.4,240.37c-2.17-2.21-5.73-2.25-7.95-0.08l-14.32,14.04l-16.86-13.87c-3.35,6.14-7.05,8.1-7.05,8.1
					l20.48,17.66c1.06,0.91,2.36,1.36,3.67,1.36c1.42,0,2.85-0.54,3.94-1.61l18.01-17.66C364.54,246.15,364.57,242.59,362.4,240.37z
					"/>
				<path fill="#638DCE" d="M362.4,240.37c-2.17-2.21-5.73-2.25-7.95-0.08l-13.53,13.27c1.07,2.69,3.17,7.18,6.1,9.75l15.3-15
					C364.54,246.15,364.57,242.59,362.4,240.37z"/>
				<path fill="#EEB399" d="M318.6,236.48c-0.38-0.26-0.79-0.52-1.25-0.55c-0.46-0.03-0.97,0.25-1.04,0.71
					c-0.1,0.7,0.8,1.1,1.08,1.75c0.21,0.49,0.02,1.06-0.29,1.49c-0.31,0.43-0.74,0.76-1.11,1.13c-1.77,1.82-1.93,4.98-0.35,6.97
					c0.3,0.38,0.68,0.73,1.16,0.79c0.6,0.07,1.14-0.33,1.61-0.71c1.26-1.02,2.54-2.06,3.53-3.34c0.9-1.16,2.24-3.21,1.15-4.52
					C321.92,238.77,320.13,237.52,318.6,236.48z"/>
				<path fill="#B57359" d="M318.28,246.62c-0.1,0-0.21-0.01-0.32-0.03c-0.1-0.02-0.17-0.12-0.15-0.22c0.02-0.1,0.12-0.17,0.22-0.15
					c0.31,0.06,0.54,0.02,0.69-0.13c0.3-0.29,0.26-0.94,0.23-1.16c-0.01-0.05,0-0.1,0.04-0.15c0.03-0.04,0.08-0.07,0.13-0.07
					c0.43-0.04,0.71-0.17,0.82-0.38c0.18-0.33-0.05-0.78-0.05-0.79c-0.03-0.06-0.03-0.14,0.02-0.2c0.04-0.06,0.11-0.08,0.19-0.07
					c0.31,0.06,0.54,0.04,0.69-0.08c0.16-0.12,0.18-0.31,0.18-0.32c0.23-1.87-3.66-2.91-3.7-2.92c-0.1-0.03-0.16-0.13-0.13-0.23
					c0.03-0.1,0.12-0.16,0.23-0.13c0.17,0.05,4.25,1.14,3.98,3.32c0,0-0.03,0.35-0.32,0.58c-0.18,0.14-0.4,0.2-0.68,0.19
					c0.06,0.23,0.09,0.54-0.07,0.83c-0.16,0.29-0.47,0.48-0.93,0.55c0.02,0.32,0.01,0.94-0.35,1.3
					C318.81,246.53,318.57,246.62,318.28,246.62z"/>
				<path fill="#B57359" d="M320.06,243.64c-0.04,0-0.07-0.01-0.1-0.03c-0.03-0.02-3.04-2.01-4.1-2.29
					c-0.1-0.03-0.16-0.13-0.13-0.23c0.03-0.1,0.13-0.16,0.23-0.13c1.12,0.3,4.08,2.26,4.21,2.34c0.09,0.06,0.11,0.17,0.05,0.26
					C320.18,243.61,320.12,243.64,320.06,243.64z"/>
				<path fill="#B57359" d="M319.13,245.08c-0.03,0-0.07-0.01-0.1-0.03c-0.03-0.02-3.05-1.93-4.05-2.16
					c-0.1-0.02-0.16-0.12-0.14-0.23c0.02-0.1,0.12-0.16,0.23-0.14c1.06,0.25,4.04,2.13,4.16,2.21c0.09,0.05,0.11,0.17,0.06,0.26
					C319.26,245.05,319.2,245.08,319.13,245.08z"/>
				<path fill="#B57359" d="M318,246.59c-0.04,0-0.09-0.01-0.12-0.05c-0.02-0.01-1.58-1.37-3.19-1.9c-0.1-0.03-0.15-0.14-0.12-0.24
					c0.03-0.1,0.14-0.15,0.24-0.12c1.68,0.56,3.25,1.92,3.32,1.97c0.08,0.07,0.09,0.19,0.02,0.26
					C318.1,246.57,318.05,246.59,318,246.59z"/>
				<path fill="#B57359" d="M321,242.05c-0.06,0-0.12-0.03-0.16-0.09c-0.14-0.23-0.17-0.52-0.09-0.77
					c-0.53-0.19-0.99-0.37-1.42-0.62c-0.53-0.31-0.93-0.7-1.17-1.15c-0.13-0.24-0.19-0.46-0.17-0.66c0.03-0.33,0.29-0.65,0.64-0.8
					c0.32-0.13,0.65-0.13,0.94-0.11c0.87,0.05,1.7,0.29,2.42,0.69c0.09,0.05,0.12,0.16,0.07,0.25c-0.05,0.09-0.16,0.12-0.25,0.07
					c-0.67-0.37-1.45-0.59-2.26-0.64c-0.25-0.02-0.53-0.02-0.78,0.09c-0.23,0.1-0.4,0.29-0.41,0.49c-0.01,0.13,0.03,0.27,0.12,0.45
					c0.21,0.39,0.56,0.72,1.03,1c0.42,0.25,0.88,0.42,1.4,0.6c0.05,0.02,0.16,0.06,0.21,0.18c0.05,0.11,0.01,0.21-0.01,0.26
					c-0.06,0.16-0.04,0.34,0.04,0.47c0.05,0.09,0.03,0.2-0.06,0.26C321.06,242.04,321.03,242.05,321,242.05z"/>
				<path fill="#7298E2" d="M350.12,248.21l2.74,35.43c0,0,8,4.36,19.29,3.04c11.29-1.31,13.77-6.3,13.77-6.3
					s-1.95-34.76-2.28-35.11c-0.33-0.34-1.66-11.77-18-9.43C349.29,238.17,350.12,248.21,350.12,248.21z"/>
				<rect x="35.33" y="279.79" fill="#5F87DF" width="370.67" height="8.78"/>
				<g>
					<g>
						<path fill="#0D2638" d="M67.41,281.53h48.92c0.28,0,0.5-0.23,0.5-0.5v-1.43c0-0.27-0.22-0.5-0.5-0.5H67.41
							c-0.28,0-0.5,0.23-0.5,0.5v1.43C66.91,281.31,67.14,281.53,67.41,281.53z"/>
						<path fill="#224CB3" d="M93.29,281.49h40.73c1.66,0,3.23-1.36,3.49-3.02l3.52-22.19c0.26-1.66-0.88-3.02-2.54-3.02H97.76
							c-1.66,0-3.23,1.36-3.49,3.02l-3.52,22.19C90.49,280.14,91.63,281.49,93.29,281.49z"/>
					</g>
					<circle fill="#FFFFFF" cx="116.77" cy="267.32" r="3.75"/>
				</g>
				<path fill="#3F649E" d="M381.84,250.61c0,0,2.5,29.92-4.83,30.51c-7.33,0.59-19.7,0-19.7,0s14.92-2.86,16.56-11.16
					C375.5,261.65,381.84,250.61,381.84,250.61z"/>
				<path fill="#EEB399" d="M365.75,244.47c5.71-0.8,6.51-5.93,6.51-8.81c-1.88-0.21-4.07-0.19-6.62,0.18
					c-2.96,0.42-5.35,1.1-7.3,1.93C358.51,240.19,359.6,245.33,365.75,244.47z"/>
				<g>
					<polygon fill="#EEB399" points="369.41,225.89 369.41,235.72 364.88,239.85 360.48,237.17 360.48,231.25 					"/>
				</g>
				<path fill="#CC957F" d="M368.18,230.85l-7.7,2.55v3.15C364.78,235.97,368.18,230.85,368.18,230.85z"/>
				<path fill="#EEB399" d="M363.1,234.85h-4.06c-3.47,0-6.31-2.84-6.31-6.31v-11.23c0-3.47,2.84-6.31,6.31-6.31h4.06
					c3.47,0,6.31,2.84,6.31,6.31v11.23C369.41,232.01,366.57,234.85,363.1,234.85z"/>
				<path fill="#171E26" d="M351.64,213.45c-0.43,0.49-0.77,1.18-0.5,1.77c0.14,0.31,0.42,0.53,0.71,0.7
					c1.02,0.59,2.33,0.66,3.41,0.18c-0.34,0.33-0.3,0.91-0.01,1.28c0.29,0.37,0.76,0.55,1.22,0.63c1.45,0.23,2.91-0.47,3.97-1.48
					c-0.04,0.92,0.77,1.79,1.69,1.82c0.83,0.03,1.63-0.54,2.44-0.36c0.24,0.4-0.14,1.06,0.24,1.32c0.09,0.06,0.21,0.08,0.32,0.09
					c0.77,0.07,1.69-0.06,2.19,0.53c0.48,0.57,0.22,1.42,0.02,2.14c-0.18,0.66-0.28,1.4,0.08,1.98c0.36,0.58,1.34,0.76,1.7,0.18
					c0.1-0.16,0.14-0.36,0.24-0.52c0.11-0.16,0.34-0.27,0.49-0.16c0.12,0.08,0.13,0.25,0.13,0.39c-0.04,0.86-0.57,1.61-0.87,2.41
					c-0.3,0.81-0.27,1.9,0.49,2.31c0.23,0.12,0.49,0.16,0.74,0.2c0.8,0.11,1.69,0.13,2.34-0.35c0.62-0.46,0.86-1.26,1.06-2.01
					c0.08-0.29,0.16-0.59,0.12-0.89c-0.04-0.3-0.25-0.59-0.54-0.65c-0.36-0.99,0.72-2.22,0.08-3.06c-0.14-0.18-0.34-0.31-0.52-0.46
					c-0.51-0.44-0.77-1.12-0.87-1.79c-0.09-0.67-0.04-1.35-0.03-2.03c0.02-1.31-0.11-2.63-0.4-3.91c-0.12-0.53-0.27-1.06-0.6-1.5
					c-0.32-0.43-0.86-0.75-1.39-0.67c-0.24-0.98-0.75-1.93-1.6-2.48c-0.85-0.54-2.06-0.58-2.82,0.08c-0.17,0.15-0.33,0.33-0.55,0.37
					c-0.18,0.03-0.35-0.04-0.52-0.11c-1.55-0.63-3.35-1.16-4.85-0.42c-0.23,0.11-0.45,0.25-0.69,0.28c-0.25,0.03-0.5-0.05-0.75-0.12
					c-0.59-0.15-1.27-0.17-1.76,0.19c-0.54,0.41-0.31,0.86-0.35,1.4c-0.05,0.61-0.39,0.58-0.97,0.79
					C353.58,211.96,352.45,212.52,351.64,213.45z"/>
				<path fill="#EEB399" d="M372.13,224.76c0,1.13-0.92,2.05-2.05,2.05c-1.13,0-2.05-0.92-2.05-2.05c0-1.13,0.92-2.05,2.05-2.05
					C371.21,222.72,372.13,223.63,372.13,224.76z"/>
				<g>
					<g>
						<path fill="#EEB399" d="M376.94,238.63c-3.11-0.27-5.87,2.03-6.15,5.15l-2.15,24.34l-22.83,1.47c0,0-0.75,6.02,0.73,11.31
							l27.68-1.78c2.79-0.18,5.04-2.37,5.28-5.16l2.58-29.19C382.37,241.66,380.06,238.9,376.94,238.63z"/>
						<path fill="#EEB399" d="M343.53,280.97c-0.69-0.07-1.4-0.17-1.97-0.55c-0.57-0.39-0.94-1.17-0.63-1.79
							c0.16-0.32,0.49-0.58,0.5-0.94c0.02-0.45-0.45-0.74-0.72-1.11c-0.48-0.67-0.21-1.69,0.42-2.22c0.21-0.18,0.47-0.34,0.54-0.6
							c0.16-0.59-0.72-1.09-0.55-1.67c0.13-0.45,0.78-0.57,0.92-1.01c0.08-0.24-0.03-0.5-0.01-0.75c0.03-0.42,0.4-0.76,0.8-0.88
							c0.4-0.12,0.84-0.08,1.26-0.03c0.66,0.07,1.32,0.14,1.98,0.22c0.39,0.04,0.79,0.09,1.14,0.27c0.75,0.4,1.03,1.31,1.21,2.13
							c0.35,1.58,0.56,3.21,0.33,4.81c-0.19,1.31-0.7,2.69-1.63,3.65C346.25,281.38,344.65,281.1,343.53,280.97z"/>
					</g>
					<path fill="#7298E2" d="M376.97,238.34c-3.17-0.28-5.99,2.07-6.27,5.26l-1.8,20.43c2.03,0.9,6.74,2.78,11.35,3.09l1.99-22.5
						C382.51,241.43,380.16,238.62,376.97,238.34z"/>
					
						<path fill="none" stroke="#3C62A0" stroke-width="0.2835" stroke-linecap="round" stroke-linejoin="round" stroke-miterlimit="10" d="
						M370.55,245.22l-1.66,18.81c0,0,6.96,2.98,11.35,3.09l1.87-19.36"/>
				</g>
				<g>
					<g>
						<path fill="#0D2638" d="M365.68,281.53h-48.92c-0.28,0-0.5-0.23-0.5-0.5v-1.43c0-0.27,0.22-0.5,0.5-0.5h48.92
							c0.27,0,0.5,0.23,0.5,0.5v1.43C366.18,281.31,365.95,281.53,365.68,281.53z"/>
						<path fill="#173658" d="M339.8,281.49h-40.73c-1.66,0-3.23-1.36-3.49-3.02l-3.52-22.19c-0.26-1.66,0.88-3.02,2.54-3.02h40.73
							c1.66,0,3.23,1.36,3.49,3.02l3.52,22.19C342.6,280.14,341.46,281.49,339.8,281.49z"/>
					</g>
					<g>
						<path fill="#FFFFFF" d="M314.07,267.95c-0.2,0.37-0.45,0.72-0.59,1.12c-0.14,0.4-0.14,0.88,0.13,1.2
							c0.13,0.15,0.31,0.25,0.49,0.32c0.96,0.38,2.12,0,2.82-0.76c0.7-0.76,1-1.83,1.01-2.86c0.01-0.83-0.21-1.75-0.89-2.22
							c-0.21-0.15-0.46-0.24-0.71-0.29c-0.4-0.08-0.84-0.06-1.19,0.15c-0.51,0.31-0.55,0.89-0.6,1.42
							C314.48,266.72,314.39,267.33,314.07,267.95z"/>
						<path fill="#FFFFFF" d="M315.8,263.52c-0.03-0.21-0.03-0.43,0.04-0.63c0.07-0.2,0.22-0.39,0.42-0.44
							c0.07-0.02,0.15-0.02,0.22-0.03c0.17,0,0.35,0.02,0.47,0.14c0.1,0.1,0.14,0.24,0.14,0.38c-0.01,0.14-0.06,0.27-0.12,0.39
							c-0.14,0.27-0.38,0.52-0.67,0.64C315.9,264.14,315.85,263.9,315.8,263.52z"/>
					</g>
				</g>
			</g>
			<g>
				<path fill="#FFFFFF" stroke="#1F74C2" stroke-linecap="round" stroke-linejoin="round" stroke-miterlimit="10" d="M93.04,171.23
					c0-11.99-9.72-21.72-21.72-21.72s-21.72,9.72-21.72,21.72c0,11.61,9.12,21.1,20.58,21.69l3.15,7.74l3.75-8.49
					C86.28,189.64,93.04,181.23,93.04,171.23z"/>
				<path fill="#5F87DF" d="M78.97,167.41v-5.11h-5.11c0-2.12-1.72-3.84-3.84-3.84c-2.12,0-3.84,1.72-3.84,3.84h-5.11v17.91h5.11
					c0-2.12,1.72-3.84,3.84-3.84c2.12,0,3.84,1.72,3.84,3.84h5.11v-5.11c2.12,0,3.84-1.72,3.84-3.84
					C82.81,169.13,81.09,167.41,78.97,167.41z"/>
			</g>
			<g>
				<path fill="#FFFFFF" stroke="#1F74C2" stroke-linecap="round" stroke-linejoin="round" stroke-miterlimit="10" d="
					M405.62,183.63c5.05-10.88,0.32-23.79-10.56-28.84c-10.88-5.05-23.79-0.32-28.84,10.56c-4.89,10.54-0.61,22.97,9.54,28.34
					l-0.4,8.35l6.97-6.12C391.74,197.48,401.41,192.69,405.62,183.63z"/>
				<path fill="#5F87DF" d="M395.34,170.54c-0.33,0-0.64,0.05-0.94,0.13v-5.24h-5.11c0,2.12-1.72,3.84-3.84,3.84
					c-2.12,0-3.84-1.72-3.84-3.84h-5.11v5.11c-2.12,0-3.84,1.72-3.84,3.84s1.72,3.84,3.84,3.84v5.11h5.22
					c0-2.12,1.72-3.84,3.84-3.84c2.12,0,3.84,1.72,3.84,3.84h5.01v-5.24c0.3,0.08,0.62,0.13,0.94,0.13c2.12,0,3.84-1.72,3.84-3.84
					S397.46,170.54,395.34,170.54z"/>
			</g>
			<g>
				<path fill="#FFFFFF" stroke="#1F74C2" stroke-linecap="round" stroke-linejoin="round" stroke-miterlimit="10" d="
					M133.69,185.16c-5.05-10.88-0.32-23.79,10.56-28.84c10.88-5.05,23.79-0.32,28.84,10.56c4.89,10.54,0.61,22.97-9.54,28.34
					l0.4,8.35l-6.97-6.12C147.57,199.01,137.9,194.22,133.69,185.16z"/>
				<path fill="#5F87DF" d="M157.36,167.91c0-2.12-1.72-3.84-3.84-3.84c-2.12,0-3.84,1.72-3.84,3.84h-5.11v17.91h5.11
					c0-2.12,1.72-3.84,3.84-3.84c2.12,0,3.84,1.72,3.84,3.84h5.11v-17.91H157.36z"/>
			</g>
			<g>
				<path fill="#FFFFFF" stroke="#1F74C2" stroke-linecap="round" stroke-linejoin="round" stroke-miterlimit="10" d="
					M314.91,196.81c9.17-7.73,10.33-21.44,2.6-30.6c-7.73-9.17-21.44-10.33-30.6-2.6c-8.88,7.49-10.25,20.57-3.3,29.72l-3.88,7.4
					l8.91-2.61C296.48,203.52,307.27,203.25,314.91,196.81z"/>
				<path fill="#5F87DF" d="M309.55,177.01v-5.11h-5.11c0-2.12-1.72-3.84-3.84-3.84c-2.12,0-3.84,1.72-3.84,3.84h-5.11v5.11
					c2.12,0,3.84,1.72,3.84,3.84c0,2.12-1.72,3.84-3.84,3.84v5.11h5.11c0-2.12,1.72-3.84,3.84-3.84c2.12,0,3.84,1.72,3.84,3.84h5.11
					v-5.11c2.12,0,3.84-1.72,3.84-3.84C313.39,178.72,311.67,177.01,309.55,177.01z"/>
			</g>
		</g>
		<g>
			<g>
				<g>
					<path fill="#224CB3" d="M201.39,185.19c0,0-0.23,8.82,19.28,8.82s18.6-8.82,18.6-8.82H201.39z"/>
					<path fill="#19365A" d="M240.27,187.66h-39.36c-2.6,0-4.71-2.11-4.71-4.71v-16.01c0-2.6,2.11-4.71,4.71-4.71h39.36
						c2.6,0,4.71,2.11,4.71,4.71v16.01C244.97,185.55,242.87,187.66,240.27,187.66z"/>
					<path fill="#5F87DF" d="M281.83,68.21c-1.35-19.08-13.13-56.29-58.97-58.52V9.58c-0.74,0-1.47,0.01-2.19,0.03
						c-0.72-0.02-1.45-0.03-2.19-0.03v0.11c-45.84,2.23-57.62,39.45-58.97,58.52c-1.39,19.67,8.83,35.01,17.35,50.34
						c8.52,15.34,11.62,35.86,12.93,43.3c1.32,7.44,8.05,7.2,8.05,7.2h20.63v0l2.19,0l2.19,0v0h20.63c0,0,6.74,0.23,8.05-7.2
						c1.32-7.44,4.41-27.96,12.93-43.3C273,103.22,283.23,87.88,281.83,68.21z"/>
				</g>
				<path fill="none" stroke="#19365A" stroke-miterlimit="10" d="M205.11,170.87c5.27-16.45,7.87-33.74,7.66-51.01
					c-0.08-6.82-0.63-13.78-3.34-20.03c-0.49-1.13-1.33-2.4-2.56-2.3c-1.08,0.09-1.75,1.21-2.1,2.24c-1.3,3.81-0.77,8.19,1.39,11.58
					c2.16,3.39,5.91,5.72,9.91,6.16c1.06,0.12,2.16,0.1,3.17-0.27c2.08-0.77,3.33-2.89,4.13-4.96c1.72-4.52,2.03-9.56,0.88-14.26
					c-0.29-1.17-1-2.56-2.2-2.48c-0.85,0.06-1.43,0.86-1.81,1.62c-2.05,4.07-1.82,8.97-0.5,13.33c0.58,1.91,1.39,3.82,2.82,5.22
					c3.48,3.42,9.69,2.54,13.22-0.84c3.53-3.38,4.84-8.48,5.18-13.35c0.16-2.34-0.44-5.41-2.77-5.73c-2.39-0.33-3.78,2.6-4.31,4.95
					c-4.67,20.44-5.71,41.7-3.04,62.49c0.5,3.92,1.21,8,3.57,11.17"/>
				<path fill="#709CE8" d="M177.04,34.68c-1.71,2.02-3.39,4.16-4.22,6.68c-0.83,2.52-0.67,5.51,1.04,7.54
					c2.4,2.86,7.01,2.82,10.3,1.03c3.29-1.78,5.63-4.86,8.1-7.66c3.89-4.41,8.51-8.44,14.11-10.25c2.12-0.69,4.35-1.04,6.43-1.86
					c2.08-0.82,4.07-2.22,4.9-4.29c1.12-2.78-0.25-6.15-2.68-7.91c-5.88-4.25-13.5-0.22-19.26,2.23
					C188.22,23.39,182.31,28.47,177.04,34.68z"/>
			</g>
			<path fill="#D7EFF9" d="M176.51,70.01v-5.11h-5.11c0-2.12-1.72-3.84-3.84-3.84c-2.12,0-3.84,1.72-3.84,3.84h-5.11V82.8h5.11
				c0-2.12,1.72-3.84,3.84-3.84c2.12,0,3.84,1.72,3.84,3.84h5.11v-5.11c2.12,0,3.84-1.72,3.84-3.84S178.63,70.01,176.51,70.01z"/>
			<path fill="#D7EFF9" d="M279.7,63.46c-0.33,0-0.64,0.05-0.94,0.13v-5.24h-5.11c0,2.12-1.72,3.84-3.84,3.84
				c-2.12,0-3.84-1.72-3.84-3.84h-5.11v5.11c-2.12,0-3.84,1.72-3.84,3.84c0,2.12,1.72,3.84,3.84,3.84v5.11h5.22
				c0-2.12,1.72-3.84,3.84-3.84c2.12,0,3.84,1.72,3.84,3.84h5.01v-5.24c0.3,0.08,0.62,0.13,0.94,0.13c2.12,0,3.84-1.72,3.84-3.84
				C283.54,65.18,281.82,63.46,279.7,63.46z"/>
			<path fill="#D7EFF9" d="M194.53,130.68c0-2.12-1.72-3.84-3.84-3.84s-3.84,1.72-3.84,3.84h-5.11v17.91h5.11
				c0-2.12,1.72-3.84,3.84-3.84s3.84,1.72,3.84,3.84h5.11v-17.91H194.53z"/>
			<path fill="#D7EFF9" d="M257.59,128.32v-5.11h-5.11c0-2.12-1.72-3.84-3.84-3.84c-2.12,0-3.84,1.72-3.84,3.84h-5.11v5.11
				c2.12,0,3.84,1.72,3.84,3.84s-1.72,3.84-3.84,3.84v5.11h5.11c0-2.12,1.72-3.84,3.84-3.84s3.84,1.72,3.84,3.84h5.11V136
				c2.12,0,3.84-1.72,3.84-3.84S259.71,128.32,257.59,128.32z"/>
		</g>
	</g>
</g>
<g id="Designed_by_freepik">
</g>
</svg>
