<?xml version="1.0" encoding="utf-8"?>
<!-- Generator: Adobe Illustrator 24.1.2, SVG Export Plug-In . SVG Version: 6.00 Build 0)  -->
<svg version="1.1" xmlns="http://www.w3.org/2000/svg" xmlns:xlink="http://www.w3.org/1999/xlink" x="0px" y="0px"
	 viewBox="0 0 500 500" enable-background="new 0 0 500 500" xml:space="preserve">
<g id="BACKGROUND">
</g>
<g id="OBJECTS">
	<g>
		<g>
			<path fill="#3FDDC7" d="M170.19,170.81c-2.69-4.04-6.82-6.37-13.17-6.37c-15.01,0-17.62,13-18.08,30.77
				C147.91,185.24,158.34,176.75,170.19,170.81z"/>
			<path fill="#EBD800" d="M145.61,204.85c7.88-9.41,16.9-19.48,27.92-25.51c-0.64-2.88-1.52-5.44-2.74-7.57
				c-2.11,1.05-4.19,2.18-6.22,3.4c-9.63,5.79-18.18,13.14-25.66,21.54c-0.06,3.31-0.06,6.76-0.06,10.32c0,1.85,0.12,3.66,0.33,5.44
				C141.33,209.94,143.48,207.39,145.61,204.85z"/>
			<path fill="#3FDDC7" d="M161.24,189.85c-6.66,6.05-12.48,12.96-18.17,19.91c-1.22,1.49-2.45,2.96-3.68,4.44
				c3.03,20.11,17.62,35.43,17.62,35.43s18.18-19.07,18.18-42.6c0-10,0-19.19-1.4-26.46C169.27,183.12,165.1,186.35,161.24,189.85z"
				/>
			<path fill="#6276EF" d="M199.99,232.36c-16.64,16.64-42.98,17.27-42.98,17.27s0.63-26.34,17.27-42.98s42.98-17.27,42.98-17.27
				S216.63,215.73,199.99,232.36z"/>
			<path fill="#6276EF" d="M139.75,206.65c16.64,16.64,17.27,42.98,17.27,42.98s-26.34-0.63-42.98-17.27s-17.27-42.98-17.27-42.98
				S123.12,190.02,139.75,206.65z"/>
		</g>
		<text transform="matrix(1 0 0 1 115.4902 277.3483)" fill="#6276EF" font-family="'Montserrat-SemiBold'" font-size="27.9473px">LOGO</text>
	</g>
	<linearGradient id="SVGID_1_" gradientUnits="userSpaceOnUse" x1="10.7821" y1="364.681" x2="236.7684" y2="364.681">
		<stop  offset="0" style="stop-color:#FFFFFF"/>
		<stop  offset="1" style="stop-color:#C3CAF4"/>
	</linearGradient>
	<path fill="url(#SVGID_1_)" d="M10.78,428.18h220.6c0,0,12.11-33.9,0-50.82c-17.92-25.03-66.04-18.82-73.34-36.85
		s-15.71-38.73-33.95-39.32c-18.24-0.58-33.37,55.88-46.31,63.44c-12.94,7.57-22.76-9.16-47.26,6.37
		C11.1,383.32,10.78,428.18,10.78,428.18z"/>
	<linearGradient id="SVGID_2_" gradientUnits="userSpaceOnUse" x1="263.837" y1="364.681" x2="489.8234" y2="364.681">
		<stop  offset="0" style="stop-color:#FFFFFF"/>
		<stop  offset="1" style="stop-color:#C3CAF4"/>
	</linearGradient>
	<path fill="url(#SVGID_2_)" d="M263.84,428.18h220.6c0,0,12.11-33.9,0-50.82c-17.92-25.03-66.04-18.82-73.34-36.85
		s-15.71-38.73-33.95-39.32c-18.24-0.58-33.37,55.88-46.31,63.44c-12.94,7.57-22.76-9.16-47.26,6.37
		C264.15,383.32,263.84,428.18,263.84,428.18z"/>
	
		<radialGradient id="SVGID_3_" cx="243.4502" cy="425.9963" r="215.0423" gradientTransform="matrix(0.9551 -0.0219 4.589268e-03 0.2195 18.3038 337.8167)" gradientUnits="userSpaceOnUse">
		<stop  offset="0" style="stop-color:#ACCBFF"/>
		<stop  offset="0.999" style="stop-color:#FFFFFF"/>
	</radialGradient>
	<path fill="url(#SVGID_3_)" d="M420.21,498.11H80.09c-32.91,0-59.58-26.68-59.58-59.58v-10.35h459.29v10.35
		C479.79,471.43,453.11,498.11,420.21,498.11z"/>
	<path fill="#3FDDC7" d="M469.02,428.25c-2.94-12.95-5.77-59.78-26.72-63.93c-23.32-4.61-23.89,25.01-42.91,22.77
		c-26.87-3.16-26.49,22.65-36.09,20.03c-39.38-10.72-72.22,21.12-72.22,21.12H469.02z"/>
	<path fill="none" stroke="#4D61BC" stroke-miterlimit="10" d="M417.03,428.25c0,0-3.39-25.23-21.01-28.48
		c-17.62-3.25-7.77-42.32-34.57-39.88c-26.8,2.44-35.87,55.93-89.52,68.36"/>
	<g>
		<path fill="#4D61BC" d="M360.97,428.13l14.94-60.67c1.02-4.16,4.97-6.91,9.23-6.43h0c4.49,0.51,7.81,4.44,7.55,8.95l-3.51,58.26
			L360.97,428.13z"/>
		<line fill="none" stroke="#3FDDC7" stroke-miterlimit="10" x1="384.39" y1="367.16" x2="374.19" y2="428.18"/>
		<path fill="none" stroke="#3FDDC7" stroke-miterlimit="10" d="M376.42,379.54c0,0,0.21,6.41,4.19,10.24"/>
		<path fill="none" stroke="#3FDDC7" stroke-miterlimit="10" d="M388.16,398.09c0,0-4.02,7.47-9.73,6.83"/>
		<path fill="none" stroke="#3FDDC7" stroke-miterlimit="10" d="M368.63,410.4c0,0,1.32,6.26,7.03,8.95"/>
		<path fill="none" stroke="#3FDDC7" stroke-miterlimit="10" d="M389.27,372.15c0,0-1.55,5.72-5.93,4.32"/>
	</g>
	<path fill="#4D61BC" d="M429.78,428.18c0,0,3.01-12.37,12.25-16.72c10.4-4.9,7.85-20.67,19.81-18.66
		c9.31,1.56,12.06,35.38,12.06,35.38H429.78z"/>
	<path fill="#4D61BC" d="M212.35,428.25H57.4c0,0,5.72-33.79,39.9-26.5c12.21,2.61,8.34-51.88,42.05-47.92
		c23.86,2.81,17.75,45.33,35.51,50.24S208.66,412,212.35,428.25"/>
	<path fill="none" stroke="#3FDDC7" stroke-miterlimit="10" d="M193.67,428.25c0,0,2.09-22.87-20.99-27.13
		c-23.08-4.26-18.82-50.53-53.93-47.34c-35.11,3.19-61.17,64.89-103.19,74.47"/>
	<g>
		<path fill="#3FDDC7" d="M143.64,428.26l-7.37-56.76c-0.5-3.89-3.82-6.8-7.74-6.8h0c-4.14,0-7.56,3.24-7.79,7.37l-3.1,56.18H143.64
			z"/>
		<line fill="none" stroke="#2D21A7" stroke-miterlimit="10" x1="128.58" y1="370.37" x2="131.67" y2="428.26"/>
		<path fill="none" stroke="#2D21A7" stroke-miterlimit="10" d="M134.56,382.46c0,0-0.85,5.81-4.86,8.89"/>
		<path fill="none" stroke="#2D21A7" stroke-miterlimit="10" d="M121.97,398.14c0,0,2.89,7.21,8.15,7.21"/>
		<path fill="none" stroke="#2D21A7" stroke-miterlimit="10" d="M138.48,411.34c0,0-1.84,5.56-7.32,7.42"/>
		<path fill="none" stroke="#2D21A7" stroke-miterlimit="10" d="M123.63,374.41c0,0,0.83,5.36,4.95,4.54"/>
	</g>
	<g>
		<path fill="#3FDDC7" d="M49.11,428.25c0,0-2.21-23.19,8.63-23.27c8.63-0.06,12.95,17.67,12.95,17.67s6.91-4.84,13.47-2.3
			c6.5,2.51,7.25,7.9,7.25,7.9H49.11z"/>
	</g>
	<g>
		<path fill="#3FDDC7" d="M163.87,428.25c0,0-2.44-25.64,9.54-25.72c9.54-0.07,14.31,19.53,14.31,19.53s7.63-5.35,14.88-2.55
			c7.18,2.78,8.01,8.73,8.01,8.73H163.87z"/>
		<line fill="none" stroke="#4D61BC" stroke-miterlimit="10" x1="173.03" y1="408.44" x2="178.75" y2="428.25"/>
	</g>
	<line fill="none" stroke="#2D21A7" stroke-width="3" stroke-miterlimit="10" x1="336.36" y1="66.56" x2="336.36" y2="136.79"/>
	<text transform="matrix(1 0 0 1 340.6791 129.3439)" fill="#6276EF" font-family="'Montserrat-SemiBold'" font-size="77.3262px">E</text>
	<g>
		<rect x="362.9" y="196.52" fill="none" stroke="#6276EF" stroke-miterlimit="10" width="81.93" height="81.93"/>
		<rect x="371.85" y="205.47" fill="#3FDDC7" width="64.04" height="64.04"/>
		<polygon fill="#4D61BC" points="371.85,269.51 435.89,269.51 435.89,236.71 407.59,255.41 388.77,244.83 371.85,260.75 		"/>
		<circle fill="#EBD800" cx="406.83" cy="233.87" r="9.97"/>
	</g>
	<g>
		<rect x="152.83" y="70.94" fill="#EBD800" width="27.31" height="27.31"/>
		<rect x="180.15" y="70.94" fill="#3FDDC7" width="27.31" height="27.31"/>
		<rect x="207.46" y="70.94" fill="#E75526" width="27.31" height="27.31"/>
		<rect x="234.78" y="70.94" fill="#ED8CB1" width="27.31" height="27.31"/>
	</g>
	<path fill="#6276EF" d="M162.68,93.28c0,8.85-7.18,16.03-16.03,16.03s-16.03-7.18-16.03-16.03s16.03-35.87,16.03-35.87
		S162.68,84.43,162.68,93.28z"/>
	<g>
		<path fill="#252639" d="M257.84,171.54c-0.19,0.23-3.53,15.15-1.42,17.04c2.12,1.89,7.52,0.75,12.87,0.36l0.98-17.4H257.84z"/>
		<g>
			<path fill="#252639" d="M257.54,254.97c0,0,9.61,1.53,17.6,1.53s20.56-2.54,20.56-2.54s16.1,25,27.5,67.8
				c10.84,40.71,20.34,100.73,16.1,108.83c-4.02,7.69-73.16,7.44-57.34,7.69c2.31,0.04-57.01-2.11-55.88-10.02
				c0,0,6.82-78.44,13.36-109.84C245.71,288.3,257.54,254.97,257.54,254.97z"/>
			<path fill="#F09F79" d="M267.09,176.53c0,0,0.52,8.55-2.85,11.04c-3.37,2.5-16.12,9.86-16.12,9.86s21.26,2.83,30.76,1.99
				c9.5-0.84,23.32-3.36,23.32-3.36s-6.73-4.26-14.02-8.19c-7.1-3.82-11.33-37.68-11.33-37.68L267.09,176.53z"/>
			<path fill="#F09F79" d="M330,295.26c0,0,1.14,3.76,2.05,5.93c0.91,2.17,4.42,3.21,6.84,1.95c2.42-1.26,2.49-4.72,0.41-6.88
				c-2.07-2.16-5.99-4.24-5.99-4.24L330,295.26z"/>
			<path fill="#F09F79" d="M273.98,157.59c1.66,9.99,1.1,21.13-8.17,27.91l1.36-12.9L273.98,157.59z"/>
			<path fill="#EE7557" d="M271.14,167.32c1.08,6.51,0.72,13.76-5.32,18.17l0.88-8.4L271.14,167.32z"/>
			<path fill="#F09F79" d="M334.97,293.43c0,0-11.81-42.02-19.42-67.34c-4.38,1.42-8.18,1.76-12.34,3.05
				c8.49,26.9,23.69,62.82,27.16,67.09c0.62,0.76,1.07,1.02,1.96,0.6l1.87-0.9C335.31,295.39,335.59,294.49,334.97,293.43z"/>
			<g>
				<path fill="#F09F79" d="M184.52,186.58c0,0-1.61-3.8-2.8-5.97c-1.19-2.17-4.97-2.87-7.36-1.29s-2.08,5.2,0.33,7.23
					s6.72,3.77,6.72,3.77L184.52,186.58z"/>
				<path fill="#F09F79" d="M215.69,211.81l-31.53-26.07c-0.79-0.75-1.14-0.2-1.97,0.52l-1.07,1.19c-0.81,0.71-0.96,1.92-0.35,2.8
					c0,0,26.61,31.54,28.93,33.05c3.87,2.53,7.12,2.11,10.96,0.91l16.4-7.27c-2.92-4.13-5.17-11.91-5.17-11.91L215.69,211.81z"/>
			</g>
			<path fill="#E75526" d="M310.53,205.45c-3.14-7.12-5.63-11.74-14.22-13.45c-0.7-0.14-6.29,5.61-25.49,5.85
				c-12.49,0.16-12.54-6.51-18.21-3.94c-2.68,1.21-10.71,4-20.11,8.2c-0.8,0.36-1.26,1.22-1.09,2.07c1.06,5.21,3.09,9.92,5.84,14.11
				c0.49,0.75,1.47,1.03,2.3,0.68l13.66-5.73c0,0-0.6,11.92-0.64,17.75c-0.06,9.2-1.4,21.53,4.88,23.97c0,0,9.3,2.49,17.7,2.49
				c8.4,0,20.55-3.5,20.55-3.5c6.49-1.4,2.41-17.81,2.57-35.74c1.02,4.03,2.08,6.61,3.36,10.46c0.32,0.95,1.32,1.5,2.28,1.24
				c3.76-1.03,8.13-1.89,12.03-3c1.02-0.29,1.61-1.36,1.3-2.37C313.33,211.66,311.57,207.81,310.53,205.45z"/>
			<path fill="#6276EF" d="M296.77,252.53l-0.3,0.01C296.57,252.56,296.67,252.55,296.77,252.53z"/>
			<path fill="#F09F79" d="M263.2,176.57l3.23,0.17c5.12,0.27,9.53-3.7,9.8-8.82l0.88-16.75c0.27-5.12-3.7-9.53-8.82-9.8l-3.23-0.17
				c-5.12-0.27-9.53,3.7-9.8,8.82l-0.88,16.75C254.1,171.89,258.07,176.3,263.2,176.57z"/>
		</g>
		<path fill="#252639" d="M259.6,150.2c0,0,9.24,10.95,14.4,10.76c0,0,1.07,24.42,3.55,26.9c2.49,2.49,17.73,1.46,19.08-1.46
			s-0.87-32.96-17.8-42.87c-6.84-4.01-25-5.92-23.83,11.26C255,154.79,257.69,152.66,259.6,150.2z"/>
		<path fill="#252639" d="M259.6,143.02c-3.6,1.97-9.41,9.41-4.79,15.46l1.12-6.49L259.6,143.02z"/>
		<path fill="none" stroke="#FFFFFF" stroke-linecap="round" stroke-linejoin="round" stroke-miterlimit="10" d="M254.15,236.45
			c0,0,14.81,2.94,42.8-1.07"/>
		<path fill="none" stroke="#FFFFFF" stroke-linecap="round" stroke-linejoin="round" stroke-miterlimit="10" d="M254.15,242.48
			c0,0,17.84,4.63,42.8-1.28"/>
		<circle fill="#EBD800" cx="275.95" cy="167.32" r="1.28"/>
	</g>
	<g>
		<rect x="86.11" y="150.2" fill="none" stroke="#2D21A7" stroke-miterlimit="10" width="141.82" height="141.82"/>
		<g>
			<rect x="80.25" y="285.88" fill="#6276EF" width="11.15" height="11.15"/>
			<rect x="222.07" y="285.88" fill="#6276EF" width="11.15" height="11.15"/>
			<rect x="80.25" y="144.62" fill="#6276EF" width="11.15" height="11.15"/>
			<rect x="222.07" y="144.62" fill="#6276EF" width="11.15" height="11.15"/>
		</g>
	</g>
	<linearGradient id="SVGID_4_" gradientUnits="userSpaceOnUse" x1="33.8727" y1="112.4189" x2="138.3415" y2="112.4189">
		<stop  offset="0" style="stop-color:#FFFFFF"/>
		<stop  offset="1" style="stop-color:#C3CAF4"/>
	</linearGradient>
	<path fill="url(#SVGID_4_)" d="M33.87,131.84h104.47c0,0-1.43-21.66-24.17-15.55c0,0,0.47-13.46-12.49-14.98
		c-9.82-1.16-14.25,10.69-14.25,10.69S86.11,89.02,64.58,93.6c-11.43,2.43-11.45,20.89-11.45,20.89S36.1,118.38,33.87,131.84z"/>
	<linearGradient id="SVGID_5_" gradientUnits="userSpaceOnUse" x1="214.4348" y1="30.5159" x2="330.4967" y2="30.5159">
		<stop  offset="0" style="stop-color:#FFFFFF"/>
		<stop  offset="1" style="stop-color:#C3CAF4"/>
	</linearGradient>
	<path fill="url(#SVGID_5_)" d="M214.48,49.35H330.5c0,0-3.56-16.28-21.88-16.28c0,0-0.57-21.16-26.6-21.39
		c-15.73-0.14-22.18,18.76-22.18,18.76s-13.01-6.71-21.94-3.95s-7.47,13.97-7.47,13.97S213.46,38.16,214.48,49.35z"/>
	<linearGradient id="SVGID_6_" gradientUnits="userSpaceOnUse" x1="337.0677" y1="164.4346" x2="448.3228" y2="164.4346">
		<stop  offset="0" style="stop-color:#FFFFFF"/>
		<stop  offset="1" style="stop-color:#C3CAF4"/>
	</linearGradient>
	<path fill="url(#SVGID_6_)" d="M337.07,178.83h111.26c0,0-7.56-18.9-28.89-10.53c0,0,1.62-12.96-10.8-15.12
		c-9.94-1.73-13.23,7.02-13.23,7.02s-9.22-14.24-19.17-9.01c-7.56,3.97-7.61,14.06-7.61,14.06S340.58,168.03,337.07,178.83z"/>
</g>
<g id="DESIGNED_BY_FREEPIK">
</g>
</svg>
