<?xml version="1.0" encoding="UTF-8"?>
<!DOCTYPE svg PUBLIC "-//W3C//DTD SVG 1.1//EN" "http://www.w3.org/Graphics/SVG/1.1/DTD/svg11.dtd">
<!-- Creator: CorelDRAW 2021 (64-Bit) -->
<svg xmlns="http://www.w3.org/2000/svg" xml:space="preserve" width="577.75mm" height="21.937mm" version="1.1" style="shape-rendering:geometricPrecision; text-rendering:geometricPrecision; image-rendering:optimizeQuality; fill-rule:evenodd; clip-rule:evenodd"
viewBox="0 0 57775 2193.7"
 xmlns:xlink="http://www.w3.org/1999/xlink"
 xmlns:xodm="http://www.corel.com/coreldraw/odm/2003">
 <defs>
  <style type="text/css">
   <![CDATA[
    .fil0 {fill:#009BDE}
   ]]>
  </style>
 </defs>
 <g id="Layer_x0020_1">
  <metadata id="CorelCorpID_0Corel-Layer"/>
  <path class="fil0" d="M-0.76 2197.49l57774.97 0.01 0 -1275.84c-87.25,-46.15 -85,-61.81 -163.92,-117.18 -163.87,-114.93 -345.69,-195.74 -554.8,-223.69 -361.32,-48.32 -665.05,59.05 -859.88,189.52 -134.32,-89.96 -283.65,-184.92 -496.97,-195.03 -376.78,-17.91 -368.81,58.33 -584.24,108.52 -65.97,-44.16 -47.05,-40.33 -95.55,-99.07 -160.73,-194.62 -523.1,-377.34 -796.05,-436.52 -753.1,-163.31 -1123.36,275.81 -1258.6,264.78 -60.1,-4.9 -94.68,-23.6 -144.59,-29.19 -704.67,-79.2 -949.55,343.16 -1071.48,333.38 -64.85,-5.18 -443.65,-195.74 -872.14,9.86 -163.36,-243.94 -547.01,-515.36 -950.6,-519.86 -466.58,-5.21 -638.65,95.78 -944.27,333.36 -57.13,44.42 -54.71,31.65 -72.97,100.02 -187.93,-15.66 -112.69,-86.46 -519.42,-87.09 -496.92,-0.75 -434.91,230.7 -699.15,139.09 -307,-106.48 -525.15,-49.42 -792.51,12.87 -202.66,-135.72 -240.92,-228.97 -602.66,-305.57 -123.84,-26.23 -324.88,1.48 -429.8,-24.31 -141.8,-34.84 -285.16,-370.98 -1001.12,-362.99 -559.34,6.24 -578.14,325.09 -805.96,248.36 -306.72,-103.26 -677.88,-61.07 -945.42,76.22 -132.73,68.09 -164.74,112.55 -254.74,178.75 -128.37,94.45 -365.85,-89.21 -785.58,35.15 -181.62,53.81 -462.44,195.28 -559.22,327.38 -156.03,-104.49 -210.84,-167.34 -413.22,-235.51 -564.38,-190.05 -615.71,55.09 -820.27,-109.55 -536.3,-431.61 -1177.04,-450.28 -1647.55,-49.16 -204.33,174.16 -194.11,35.86 -521.96,126.78 -335.06,92.95 -262.89,179.55 -431.33,36.5 -213.29,-181.19 -614.74,-332.59 -1017.11,-249.28 -134.29,27.82 -92.79,16.4 -199.27,-69.52 -72.15,-58.21 -108.65,-88.11 -186.39,-138.28 -108.01,-69.67 -164.1,-85.33 -287.95,-126.09 -455.54,-149.93 -908.41,7.23 -1173.31,235.48 -204.36,176.11 -324.09,-15.35 -762.78,210.33 -367.89,189.26 -66,115.04 -477.79,-39.82 -587.79,-221.05 -720.27,19.44 -858.04,-91.89 -377.98,-305.49 -778.58,-503.95 -1385.43,-275.71 -336.53,126.55 -295.66,279.74 -542.44,279.31 -160.26,-0.31 -228.31,13.1 -355.55,55.3 -178.61,59.2 -177.89,115.98 -259.37,75.26 -74.09,-37.03 -295.76,-115.06 -649.45,-38.18 -307.38,46.05 -572.2,249.45 -642.17,432.5 -75.99,-180.61 -330.06,-387.41 -631.1,-432.51 -353.69,-76.88 -575.36,1.15 -649.45,38.18 -81.48,40.72 -80.76,-16.06 -259.37,-75.26 -127.24,-42.2 -195.29,-55.61 -355.55,-55.3 -246.78,0.43 -205.91,-152.76 -542.44,-279.31 -606.85,-228.24 -1007.45,-29.78 -1385.43,275.71 -137.77,111.33 -270.25,-129.16 -858.04,91.89 -411.79,154.86 -109.9,229.08 -477.79,39.82 -438.69,-225.68 -558.42,-34.22 -762.78,-210.33 -264.9,-228.25 -717.77,-385.41 -1173.31,-235.48 -123.85,40.76 -179.94,56.42 -287.95,126.09 -77.74,50.17 -114.24,80.07 -186.39,138.28 -106.48,85.92 -64.98,97.34 -199.27,69.52 -402.37,-83.31 -803.82,68.09 -1017.11,249.28 -168.44,143.05 -96.27,56.45 -431.33,-36.5 -327.85,-90.92 -317.63,47.38 -521.96,-126.78 -470.51,-401.12 -1111.25,-382.45 -1647.55,49.16 -204.56,164.64 -255.89,-80.5 -820.27,109.55 -202.38,68.17 -257.19,131.02 -413.22,235.51 -96.78,-132.1 -377.6,-273.57 -559.22,-327.38 -419.73,-124.36 -657.21,59.3 -785.58,-35.15 -90,-66.2 -122.01,-110.66 -254.74,-178.75 -267.54,-137.29 -638.7,-179.48 -945.42,-76.22 -227.82,76.73 -246.62,-242.12 -805.96,-248.36 -715.96,-7.99 -859.32,328.15 -1001.12,362.99 -104.92,25.79 -305.96,-1.92 -429.8,24.31 -361.74,76.6 -400,169.85 -602.66,305.57 -267.36,-62.29 -485.51,-119.35 -792.51,-12.87 -264.24,91.61 -202.23,-139.84 -699.15,-139.09 -406.73,0.63 -331.49,71.43 -519.42,87.09 -18.26,-68.37 -15.84,-55.6 -72.97,-100.02 -305.62,-237.58 -477.69,-338.57 -944.27,-333.36 -403.59,4.5 -787.24,275.92 -950.6,519.86 -428.49,-205.6 -807.29,-15.04 -872.14,-9.86 -121.93,9.78 -366.81,-412.58 -1071.48,-333.38 -49.91,5.59 -84.49,24.29 -144.59,29.19 -135.24,11.03 -505.5,-428.09 -1258.6,-264.78 -272.95,59.18 -635.32,241.9 -796.05,436.52 -48.5,58.74 -29.58,54.91 -95.55,99.07 -215.43,-50.19 -207.46,-126.43 -584.24,-108.52 -213.32,10.11 -362.65,105.07 -496.97,195.03 -194.83,-130.47 -498.56,-237.84 -859.88,-189.52 -209.11,27.95 -390.93,108.76 -554.8,223.69 -78.92,55.37 -76.67,71.03 -163.92,117.18l0 1275.84z"/>
 </g>
</svg>
