<?xml version="1.0" encoding="UTF-8"?>
<!DOCTYPE svg PUBLIC "-//W3C//DTD SVG 1.1//EN" "http://www.w3.org/Graphics/SVG/1.1/DTD/svg11.dtd">
<!-- Creator: CorelDRAW 2021 (64-Bit) -->
<svg xmlns="http://www.w3.org/2000/svg" xml:space="preserve" width="210mm" height="297mm" version="1.1" style="shape-rendering:geometricPrecision; text-rendering:geometricPrecision; image-rendering:optimizeQuality; fill-rule:evenodd; clip-rule:evenodd"
viewBox="0 0 21000 29700"
 xmlns:xlink="http://www.w3.org/1999/xlink"
 xmlns:xodm="http://www.corel.com/coreldraw/odm/2003">
 <defs>
  <style type="text/css">
   <![CDATA[
    .fil13 {fill:black;fill-rule:nonzero}
    .fil6 {fill:#070201;fill-rule:nonzero}
    .fil8 {fill:#1281B8;fill-rule:nonzero}
    .fil7 {fill:#199ADA;fill-rule:nonzero}
    .fil5 {fill:#1C0A05;fill-rule:nonzero}
    .fil1 {fill:#90D3F5;fill-rule:nonzero}
    .fil0 {fill:#A63822;fill-rule:nonzero}
    .fil11 {fill:#B38471;fill-rule:nonzero}
    .fil12 {fill:#C53D25;fill-rule:nonzero}
    .fil4 {fill:#E3C1B3;fill-rule:nonzero}
    .fil3 {fill:#EBCFC4;fill-rule:nonzero}
    .fil10 {fill:#F6C988;fill-rule:nonzero}
    .fil2 {fill:#FFC800;fill-rule:nonzero}
    .fil9 {fill:white;fill-rule:nonzero}
   ]]>
  </style>
 </defs>
 <g id="Layer_x0020_1">
  <metadata id="CorelCorpID_0Corel-Layer"/>
  <path class="fil0" d="M15365.47 19831.8c10.22,-329.7 90.62,-637.4 280.65,-912.17 581.11,-840.3 1837.62,-864.78 2449.18,-46.06 54.32,72.71 98.81,152.76 147.82,229.44 -40.39,87.1 6.28,136.76 75.86,176.58 53.15,190 81.52,383.95 92.94,580.62 -546.33,241.92 -1121.59,392.02 -1700.63,527.24 -369.22,86.22 -738.15,179.66 -1120.11,195.13 -90.16,-181.3 -166.86,-367.36 -200.55,-568.59 37.16,-67.04 38.05,-129.05 -25.16,-182.19z"/>
  <path class="fil1" d="M15365.47 19831.8c63.21,53.15 62.32,115.15 25.18,182.19 -297.12,104.16 -584.5,228.36 -839.88,416.24 -45.24,33.29 -106.8,69.09 -88.71,135.61 17.99,66.17 88.46,67.64 144.38,70.61 330.05,17.5 660,27.3 984.74,-53.92 381.96,-15.47 750.89,-108.9 1120.11,-195.13 579.06,-135.22 1154.3,-285.32 1700.67,-527.28 508.95,-169.16 828,-358.45 948.97,-583.07 -355.41,-72 -697.92,-63.74 -1041.93,2.49 -69.58,-39.81 -116.25,-89.48 -75.86,-176.58 310.36,-84.96 626.4,-70.28 942.08,-50.3 65.54,4.15 132.37,21.56 194.15,44.75 198.05,74.31 241.01,232.86 102.25,390.41 -111.16,126.23 -251.11,220.24 -401.24,293.2 -239.09,116.17 -482.97,222.51 -724.82,333.04 -583.63,185.29 -1166.45,373.54 -1766.57,500.34 -274.63,58.03 -549.76,113.66 -824.67,170.38 -322.14,19.51 -642.5,69.21 -966.74,53.5 -132.93,-6.44 -266.47,-10.48 -391.14,-61.13 -183.68,-74.62 -221.53,-219.87 -100.96,-376.48 25.03,-32.52 54.95,-63.09 87.94,-87.34 295.63,-217.44 614.25,-389.26 972.05,-481.53z"/>
  <path class="fil0" d="M15764.32 20784.79c274.91,-56.72 550.04,-112.35 824.67,-170.38 600.13,-126.81 1182.95,-315.05 1766.57,-500.34 -137.55,601.7 -512.84,985.11 -1103.29,1132.22 -578.34,144.07 -1085.44,-6.32 -1487.95,-461.5z"/>
  <path class="fil2" d="M6566.35 7925.14c42.42,-101.69 -12.44,-173.57 -110.58,-228.41 -50.59,-28.26 -99.31,-60.11 -147.63,-92.23 -162.24,-107.82 -155.84,-186.94 22.42,-277.43 29.47,-14.96 59.76,-31.97 91.58,-38.06 201.99,-38.62 296.59,-158.55 282.98,-363.9 -0.54,-8.12 1.7,-16.47 3.08,-24.64 11.17,-66.57 21.68,-139.27 104.34,-149.47 93.17,-11.5 125.76,58.64 154.02,132.21 70.21,182.82 71.28,181.93 250.9,153.21 98.19,-15.7 196.4,-31.99 295.14,-43.31 57.45,-6.58 123.62,-11.36 144.85,60.92 17.92,60.95 -34.6,81.36 -77.37,109.55 -132.76,87.48 -228.5,215.53 -342.91,323.3 -56.32,53.04 -64.19,106.91 -24.27,176.17 53.73,93.22 101.26,190.35 146.13,288.24 24.45,53.34 39.59,114.36 -17.64,158.67 -47.04,36.44 -94.4,12.25 -137.92,-14.26 -28.28,-17.24 -54.81,-37.36 -83.02,-54.71 -191.75,-117.85 -192.82,-118.79 -364.51,38.85 -45.13,41.44 -91.11,81.31 -152.64,54.72 -79.15,-34.2 -69.13,-102.53 -47.06,-169.87 2.55,-7.85 4.14,-16.04 10.11,-39.55z"/>
  <path class="fil2" d="M2891.12 13915.48c-115.89,-28.6 -216.95,-2.45 -267.96,133.47 -8.51,22.66 -24.38,43.7 -40.65,62.13 -89.11,100.85 -196.88,89.29 -214.43,-39.1 -22.61,-165.31 -104.44,-205.54 -248.47,-192.62 -32.13,2.89 -67.06,-1.68 -97.81,-11.67 -108.22,-35.18 -134.47,-121.05 -60.48,-211.35 36.14,-44.1 81.1,-87.13 131.23,-112.51 202.49,-102.46 145.88,-172.85 111.83,-326.66 -19.62,-88.67 -49.25,-177.49 -52.05,-266.93 -3.24,-103.72 90.35,-147.07 170.54,-80.12 69.21,57.79 130.69,128.31 182.86,202.2 77.51,109.78 158.53,168.04 286.63,75.41 26.18,-18.92 59.99,-28.14 91.3,-38.9 51.75,-17.8 100.42,-10.24 131.88,36.94 25.76,38.62 15.87,81.57 -13.53,114.61 -122.36,137.41 -87.85,250.41 47.99,353.08 25.52,19.29 44.45,49.54 60.99,77.89 33.32,57.12 71.3,115.19 21.61,183.14 -39.53,54.06 -95.29,60.69 -155.42,54.36 -24.67,-2.62 -49.13,-7.56 -86.06,-13.37z"/>
  <path class="fil2" d="M12298.46 21232.95c61.11,15.56 70.74,59.24 66.76,114.59 -10.29,143.71 70.04,169.47 189.79,142.77 32.39,-7.23 65.59,-11.06 98.53,-15.63 50.68,-7.02 101.41,-8.14 135.54,38.33 44.31,60.32 3.38,109.81 -26.43,158.8 -17.22,28.3 -35.23,57.51 -58.68,80.38 -62.93,61.37 -78.17,121.14 -13.25,192.17 27.53,30.12 48.81,67.53 66.34,104.76 22.42,47.62 23.17,97.02 -18.48,137.08 -33.83,32.53 -73.5,33.13 -114.73,14.25 -7.56,-3.47 -16.59,-4.78 -22.89,-9.71 -151.15,-118.58 -278.62,-99.19 -395.92,54.95 -38.27,50.3 -100.54,92.84 -174.86,52.75 -61.93,-33.43 -67.15,-96.32 -57.47,-152.88 24.55,-143.64 -40.04,-236.09 -155.31,-306.57 -20.97,-12.81 -40.08,-30.45 -56.12,-49.23 -79.61,-93.19 -55.58,-195.28 59.47,-194.37 208.57,1.63 326.74,-78.03 363.18,-285.34 9.02,-51.36 57.58,-79.02 114.53,-77.1z"/>
  <path class="fil2" d="M19134.69 10649.86c16.45,1.42 34.2,-0.46 49.25,5.02 223.93,81.36 353.83,1.07 429.59,-221.81 34.69,-102.01 133.14,-97.98 185.19,-3.61 27.32,49.54 45.96,108.15 51.66,164.38 8.96,88.31 51.07,120.1 135.52,145.86 163.89,49.98 186.69,152.11 48.42,232.05 -129.05,74.62 -168.98,150.85 -139.02,296.45 21.93,106.49 -50.61,146.13 -156.47,104.76 -30.45,-11.9 -64.52,-25.99 -85.23,-49.42 -104.83,-118.62 -211.79,-105.16 -324.12,-13.9 -12.67,10.29 -27.6,18.46 -42.6,25.1 -47.86,21.19 -98.4,30.89 -137.62,-11.88 -40.69,-44.38 -26.76,-95.88 9.75,-133.84 105.37,-109.55 67.67,-185.8 -48.63,-251.49 -28.28,-15.98 -52.61,-40.46 -75.44,-64.21 -41.32,-43.02 -77.56,-92.07 -47.27,-154.47 28.78,-59.26 84.23,-75.15 147.02,-68.99z"/>
  <path class="fil3" d="M14010.68 8093.23c51.17,15.38 76.07,61.72 112.44,94.71 86.21,78.16 157.94,92.07 251.98,-8.7 103.93,-111.37 161.93,-94.27 253.91,34.58 28.89,40.46 49.32,86.96 78.23,127.4 106.79,149.42 156.8,167.88 334.81,105.07 107.82,-38.03 206.27,-74.31 280.68,53.73 27.76,47.74 77.6,57.63 130.52,53.57 43.37,-3.33 98.21,4.03 109.88,41.79 41.84,135.43 131.44,168.26 258.06,143.66 6.48,-1.26 20.81,6.07 21.33,10.57 24.45,209.67 307.98,243.6 310.43,482.81 2.07,201.79 3.52,396.94 -66.85,588.35 -60.34,164.1 -130.17,323.51 -210.95,478.63 -70.7,135.78 -108.92,281.56 -74.8,433.9 134.68,601.23 -145.39,1062.57 -497.93,1501.33 -34.65,43.12 -77.04,65.08 -128.73,60.43 -65.92,-5.93 -133.23,-13.14 -196.26,-32.06 -930.09,-279.11 -1856.7,-568.91 -2763.85,-917.18 1.1,-24.87 7.88,-51.07 2.45,-74.43 -65.4,-282.14 -228.57,-527.92 -298.48,-810.46 -23.91,-96.6 -123.06,-96.01 -199.64,-22.02 -484.75,5.32 -763.25,-268.22 -756.32,-748.2 3.76,-260.14 49.96,-513.73 156.98,-752.01 133.05,-296.29 373.85,-394.85 676.64,-270.22 371.72,153 524.34,462.82 573.18,839.51 -59.38,86.4 -75.11,168.23 40.43,219.75 87.55,39.04 171.31,-4.03 202.97,-115.15 21.18,-74.36 29.75,-146.2 118.6,-168.7 137.39,-34.83 169.31,-145.04 183.51,-264.27 6.88,-57.8 0.26,-124.15 56.75,-155.98 126.95,-71.47 199.85,-190.7 293.91,-293.53 103.51,-113.17 224.95,-250.55 356.77,-293.88 195.5,-64.26 292.05,-192.53 389.35,-343zm-2141.51 1524.6c-15.58,-250.95 -55.79,-496.23 -238.63,-687.51 -148.84,-155.72 -306.48,-124.5 -392.68,69.32 -68.15,153.21 -105.26,321.9 -108.27,481.48 -3.29,175.16 8.35,366.54 126.44,520.85 166.83,218.02 447.98,185.2 555.92,-67.8 42.27,-99.09 71.51,-204.29 57.22,-316.34zm2195.62 1344.72c-1.77,154.79 37.71,220.08 132.77,219.59 106.61,-0.54 347.34,-160.21 353.54,-234.48 7.19,-86.36 -162.68,-204.24 -299.81,-208.06 -139.53,-3.89 -184.53,49.91 -186.5,222.95z"/>
  <path class="fil3" d="M14010.68 8093.23c-97.3,150.47 -193.87,278.74 -389.41,343.02 -131.83,43.33 -253.26,180.71 -356.77,293.88 -94.06,102.83 -166.97,222.04 -293.91,293.53 -56.51,31.82 -49.88,98.16 -56.75,155.98 -14.19,119.23 -46.1,229.44 -183.51,264.27 -88.85,22.52 -97.42,94.34 -118.6,168.7 -31.64,111.14 -115.41,154.19 -202.97,115.15 -115.54,-51.52 -99.8,-133.37 -40.43,-219.75 113.61,-63 145.48,-214.88 293.93,-250.83 77,-18.64 81.48,-115.27 61.64,-194.34 -31.61,-125.95 0.42,-211.59 142.42,-235.74 38.97,-6.63 100,-25.38 107.78,-51.43 69.63,-233.1 321.09,-272.49 452.87,-436.54 33.16,-41.27 75.08,-68.15 124.71,-76.04 106.02,-16.84 175.4,-72.52 236.13,-162.37 58.21,-86.12 145.1,-107.66 222.87,-7.49z"/>
  <path class="fil3" d="M11717.88 10438.91c76.58,-73.99 175.74,-74.59 199.64,22.02 69.91,282.54 233.08,528.33 298.48,810.46 5.43,23.36 -1.35,49.56 -2.45,74.43 -78.56,13.04 -143.69,-31.43 -215.13,-49.35 -103.37,-25.94 -146.32,-89.97 -154.09,-195.56 -12.76,-173.2 -38.75,-345.38 -55.55,-518.35 -5.7,-58.81 -2.9,-117.5 -70.9,-143.65z"/>
  <path class="fil3" d="M11869.17 9617.83c14.32,112.07 -14.95,217.25 -57.23,316.35 -107.94,253 -389.1,285.81 -555.92,67.8 -118.09,-154.32 -129.73,-345.71 -126.44,-520.85 3.01,-159.57 40.13,-328.25 108.27,-481.48 86.21,-193.81 243.85,-225.03 392.68,-69.32 182.85,191.27 223.06,436.55 238.64,687.5z"/>
  <path class="fil4" d="M14064.79 10962.55c1.96,-173.02 46.97,-226.82 186.48,-222.95 137.15,3.82 307,121.7 299.81,208.06 -6.18,74.25 -246.93,233.94 -353.54,234.48 -95.02,0.49 -134.5,-64.8 -132.75,-219.59z"/>
  <path class="fil5" d="M15258.69 7793.07c308.05,-93.07 423.73,-56.14 597.66,216.77 40.76,63.95 91.05,57.4 143.55,72.84 207.81,61.13 300.04,158.31 295.28,373.68 -2.63,118.53 44.61,174.18 121.99,246.07 250.81,233 154.12,709.36 -162.51,833.02 -92.4,36.09 -154.84,-15.05 -166.74,-95.97 -20.97,-142.52 -52.55,-254.17 -231.61,-247.59 -50,1.84 -95.38,-48.84 -103.48,-97.14 -35.96,-214.45 -215.3,-278.72 -373.47,-359.61 -100.12,-51.21 -168.67,-131.9 -252.09,-214.73 -233.29,152.76 -440.56,90.21 -623.33,-95.52 -58.36,-59.31 -108.66,-88.34 -194.71,-52.9 -86.42,35.6 -179.2,28.89 -264.78,-18.85 -97.21,-54.22 -181.62,-141.63 -312.88,-56.28 -92.16,59.92 -198.5,83.69 -295.3,156.66 -184.24,138.9 -313.6,319.03 -471.75,475.95 -67.6,67.08 -123.2,99.42 -113.38,212.85 15.82,182.47 -134.7,225.84 -277.06,260.82 8.75,-121.42 -63.35,-199.76 -143.13,-276.27 -75.16,-72.08 -155.28,-144.43 -134.07,-277.67 50.45,-2.96 91.47,-10.59 131.39,-6.79 191,18.17 296.42,-94.75 356.49,-250.22 40.83,-105.63 93.05,-237.35 63.05,-333.27 -56.75,-181.46 67.24,-216.69 164.97,-282.01 98.47,-65.82 215.58,-53.6 313.3,-20.07 224.6,77.05 405.18,41.6 550.71,-150.27 19.83,-26.15 45.57,-48.44 71,-69.63 69.27,-57.72 129.89,-50.52 194.93,15.28 178.8,180.83 180.83,179.36 403.73,37.47 84.75,-53.95 154.3,-79.78 223.76,33.2 78.7,127.98 209.18,160.14 333.74,88.94 54.57,-31.26 121.73,-55.55 154.74,-118.76z"/>
  <path class="fil6" d="M15258.69 7793.07c-33.01,63.21 -100.17,87.5 -154.74,118.7 -124.57,71.21 -255.05,39.06 -333.74,-88.94 -69.48,-112.98 -139,-87.15 -223.76,-33.2 -222.9,141.89 -224.93,143.34 -403.73,-37.47 -65.07,-65.78 -125.67,-72.99 -194.93,-15.28 -25.43,21.18 -51.15,43.47 -71,69.63 -145.53,191.85 -326.11,227.33 -550.71,150.27 -97.74,-33.53 -214.85,-45.75 -313.3,20.07 -97.72,65.33 -221.71,100.56 -164.97,282.01 30,95.94 -22.23,227.66 -63.05,333.27 -60.08,155.47 -165.5,268.38 -356.49,250.22 -39.92,-3.8 -80.94,3.83 -131.39,6.79 -21.23,133.25 58.89,205.59 134.07,277.67 79.78,76.51 151.88,154.86 143.13,276.27 -24.87,112.98 -47.37,226.57 -75.79,338.66 -10.89,42.89 -45.55,71.7 -93.24,65.1 -44.63,-6.18 -74.99,-35.11 -79.54,-81.85 -40.18,-412.49 -271.88,-721.6 -540.17,-1013.09 -124.39,-135.15 -62.02,-381.57 132.93,-445.5 128.57,-42.18 148,-100.56 164.36,-219.07 22.56,-163.38 115.62,-299.3 303.05,-315.46 87.92,-7.58 131.44,-49.86 168.6,-121.66 50.94,-98.47 156.85,-165.45 246.59,-132.18 180.79,67.04 336,-55.6 504.98,-30.1 56.93,8.59 91.82,-28.46 129.5,-61.48 161.44,-141.49 335.06,-140.54 502.6,-21.81 77.96,55.27 139.42,59.96 225.66,27.46 189.19,-71.26 363.02,-45.38 489.46,127.73 42.32,57.94 82.79,57.14 147.54,48.13 269.85,-37.49 327.14,-5.57 458.08,225.11z"/>
  <path class="fil6" d="M11714.89 11025.97c-280.44,-54.81 -463.31,-259.32 -462.05,-516.71 0.72,-147.79 31.68,-178.41 173.48,-143.1 159.53,39.74 309.45,45.68 446.29,-62.41 28.46,-22.49 61.37,-18.76 94.06,-10.83 -9.38,31.36 -9.43,71.72 -29.63,92.7 -173.29,179.99 -231.69,397.96 -222.15,640.35z"/>
  <path class="fil5" d="M11714.89 11025.97c-9.52,-242.39 48.88,-460.36 222.15,-640.34 20.2,-20.97 20.23,-61.32 29.63,-92.7 250.97,165.15 252.18,500.4 -0.98,654.47 -75.19,45.72 -155.67,89.52 -250.8,78.57z"/>
  <path class="fil7" d="M14115.83 15548.85c-668.57,747.62 -1427.93,1389.34 -2272.43,1928.57 -134.82,86.08 -188.95,171.06 -182.56,336.74 20.25,525.93 -49.11,1047.73 -181.76,1554.33 -175.05,668.54 -545.11,1225.61 -1078.46,1667.03 -413.77,342.46 -885.75,586.92 -1389.94,764.89 -164.61,58.1 -267.93,139.14 -289.8,318.82 -10.9,89.53 -46.22,176.45 -103.22,250.67 -451.12,-355.69 -986.9,-503.27 -1534.47,-616.91 -206.97,-42.95 -240.85,-15.7 -276.55,204.02 -78.54,483.46 -39.36,960.12 103.97,1428.32 -177.84,-188.7 -264.5,-421.8 -305.9,-670.13 -62.16,-372.73 -55.86,-749.26 30.15,-1115.94 83.3,-355.08 161.14,-712.83 301.51,-1053.62 55.84,-135.56 135.28,-189.7 274.66,-205.99 381.62,-44.64 747.79,-149.08 1104.02,-295.66 467.93,-192.54 657.77,-562.56 680.26,-1038.75 9.78,-207.18 -14.72,-415.8 -9.8,-623.44 2.94,-123.99 -48.58,-197.45 -145.3,-265.18 -293.14,-205.26 -581.02,-419.23 -833.25,-674.07 -104.04,-105.12 -187.69,-93.98 -304.41,-27.32 -338.57,193.38 -676.17,386.3 -1038.66,538.09 -484.33,202.81 -986.77,294.16 -1504.09,319.87 -498.98,24.8 -998.11,16.45 -1491.14,-78.1 -85.79,-16.45 -139.11,21.82 -204.21,61.11 -191.15,115.38 -354.66,277.8 -576,342.14 -244.34,-627.64 -669.6,-1105.81 -1221.62,-1479.31 199.1,-301.35 491.7,-494.34 801.83,-654.06 212,-109.18 454.13,-75.81 687.12,-58.24 472.2,35.63 945.6,61.86 1418.6,39.31 591.15,-28.21 1077.81,-309.77 1516.43,-681.12 215.23,-182.21 412.09,-386.07 618.07,-579.27 389.17,-365.02 843.61,-614.27 1354.27,-764.96 256.38,-75.65 501.76,-175.18 709.28,-350.81 62.37,-52.78 131.22,-99.42 175.54,-203.61 -321.91,-124.18 -619.13,-281.75 -920.48,-430.89 -515.87,-255.29 -984.1,-586.64 -1462.55,-901.74 -61.46,-40.48 -111.3,-98.61 -166.51,-148.58 13.76,-566.2 177.12,-1072.94 588.42,-1481.18 122.19,85.23 251.95,161.47 365.24,257.2 501.81,424.01 1097.16,637.18 1724.73,781.46 80.57,18.53 160.27,40.9 240.36,61.46 64.59,179.27 163.71,344.49 206.26,533.19 87.9,389.78 158.06,781.39 152.32,1182.9 -1.87,130.46 8.17,255.78 156.01,305.74 151.6,51.24 206.59,-81.94 272.98,-166.09 229.93,-291.41 362.09,-634.1 464.98,-984.97 59.94,-204.42 135.91,-412.49 95.03,-634.62 293.37,83.58 586.76,167.14 880.13,250.71 136.38,217.72 290.78,426.46 404.53,655.43 141.26,284.36 357.93,469.58 636.77,600.41 504.72,236.81 1018.1,197 1528.56,36.35 151.36,-47.64 315.88,-113.86 370.32,-298.25 34.65,4.04 69.3,8.1 103.95,12.15 97.42,85.14 194.85,170.28 292.23,255.41 -174.83,572.08 -363.51,1137.29 -772.61,1596.19 -59.13,66.4 -51.12,135.49 7.19,200.3zm-815.44 25.13c4.18,-276.13 -167.16,-391.95 -427.84,-290.2 -146.44,57.16 -252.16,163.24 -329.84,293.2 -111.27,186.13 11.94,419.53 229.55,449.47 252.05,34.67 524.26,-198.55 528.13,-452.47z"/>
  <path class="fil8" d="M11544.96 12490.86c-293.37,-83.56 -586.76,-167.14 -880.13,-250.72 -135.99,-49.37 -246.59,-200.15 -418.79,-104.83 -10.96,-42.16 -32.85,-65.98 -79.89,-47.72l3.26 2.28c-8.05,-83.11 -89.81,-86.03 -138.22,-123.41 -288.33,-222.72 -468.42,-481.44 -377.65,-875.84 47.97,-208.39 45.62,-428.35 65.96,-643.13 185.19,-26.46 312.94,-127.89 416.48,-283.41 283.29,-425.51 428.75,-898.47 473.39,-1399.46 31.34,-351.68 71.52,-717.75 -206.96,-1011.66 645.19,-965.55 1534.45,-1549.4 2690.1,-1708.65 899.33,-123.92 1711.01,116.69 2457.33,612.78 97,64.47 191.07,133.72 290.66,193.87 614.08,371 969.5,937.25 1218.91,1587.79 -46.17,39.99 -63.18,-0.7 -83.58,-15.02 -19.93,-14 -34.25,-36 -51.17,-54.34 -123.97,-134.44 -243.48,-273.37 -372.84,-402.4 -341.6,-340.71 -777.75,-504.81 -1229.38,-627.92 -458.62,-125.02 -929.18,-175.95 -1404.04,-207.71 -367.27,-24.57 -725.8,-35.93 -1088.03,55.35 -840.82,211.87 -1374.49,729.31 -1628.29,1555.68 -177.29,577.26 -207.15,1155.77 -95.94,1748.04 60.71,323.35 247.38,520.7 550.78,611.77 493.4,148.12 993,276.2 1483.79,432.23 918.8,292.09 1833.02,598.59 2749.6,897.7 102.43,33.43 207.62,58.45 311.8,86.36 215.22,57.68 270.55,142.75 235.85,362.53 -22.37,141.66 -86.59,269.15 -140.46,399.16 -57.17,138.01 -126.07,271.67 -197.21,403.25 -116.34,215.2 -208.16,254.17 -450.24,174.23 -236.62,-78.16 -468.53,-170.7 -702,-258.25 -116.92,-43.86 -233.29,-88.67 -358.86,-102.41 -34.83,-4.13 -69.48,-8.17 -104.13,-12.11 -39.39,-101.8 -139.27,-111.02 -222.83,-138.23 -715.68,-233.07 -1429.8,-471.54 -2150.42,-688.31 -188.08,-56.61 -358.97,-178.01 -566.85,-167.49zm1125.36 -551.01c-136.33,2.82 -208.27,56.84 -233.87,175.65 -23.49,108.99 29.54,210.33 140.18,260.98 37.54,17.19 78.65,26.5 117.92,39.99 423.69,145.67 846.46,294.14 1271.27,436.49 456.14,152.85 911.96,307.72 1382.31,412.88 64.02,14.32 131.37,18.04 197.24,18.57 83.16,0.68 144.13,-40.13 166.97,-122.48 21.44,-77.32 7.49,-147.65 -56.96,-203.28 -45.1,-38.94 -98.37,-59.59 -153.14,-80.41 -807.12,-306.92 -1619.1,-600.02 -2444.03,-855.79 -125.88,-39.04 -252.15,-85.76 -387.89,-82.6zm-818.97 -346.39c-133.46,-4.53 -252.26,105.53 -263.9,244.48 -11.41,136.24 115.4,269.4 261.75,274.8 134.52,4.97 257.85,-108.99 263.08,-243.13 5.47,-140.67 -117.95,-271.3 -260.93,-276.15z"/>
  <path class="fil7" d="M15727.37 14147.58c584.06,136.52 1173.38,114.99 1763.91,58.42 136.59,311.55 285.37,617.24 278.27,972.74 -5.6,280.23 -80.8,540.23 -180.9,796.72 -547.24,82.43 -1092.74,187.3 -1650.37,154.39 -604.42,-35.68 -1170.61,-193.9 -1675.85,-539.3 132.72,-100.45 265.11,-201.23 398,-301.33 422.45,-318.17 775.85,-700.78 1066.94,-1141.64z"/>
  <path class="fil9" d="M17588.67 15975.46c100.1,-256.5 175.3,-516.48 180.9,-796.72 7.09,-355.48 -141.68,-661.19 -278.27,-972.74 421.45,-84.4 808.69,-250.15 1169.53,-483.21 174.69,-112.84 355.16,-217.21 536.94,-318.36 108.92,-60.62 225.58,-105.44 350.82,-126.28 370.6,-61.67 603.89,180.39 514.41,547.24 -72.99,299.23 -253.98,540.87 -455.14,764.93 -87.55,97.51 -197.77,174.67 -283.71,248.99 38.73,120.31 116.31,124.13 165.11,162.98 152.2,121.19 160.27,242.73 10.68,371.19 -68.57,58.89 -149.54,105.86 -230.51,147.23 -208.5,106.52 -429.8,181.51 -657.34,233.73 -340.15,78.05 -682.18,147.77 -1023.42,221.02z"/>
  <path class="fil9" d="M6986.89 10903.87c-411.3,408.26 -574.67,914.99 -588.42,1481.18 -158.94,-118.44 -331.52,-220.52 -451.08,-385.49 -52.92,-73.01 -136.68,-86.12 -217.4,-108.94 -239.94,-67.87 -479.2,-139.77 -696.38,-266.79 -144.1,-84.26 -283.03,-176.96 -374.97,-321.76 -136.87,-215.57 -83.63,-379.05 147.54,-480.01 68.06,-29.72 149.5,-16.91 223.04,-82.65 -78.94,-199.31 -208.13,-386.73 -237.62,-610.49 -11.92,-90.44 -42.02,-179.66 -44.45,-269.96 -7.56,-279.41 221.59,-466.9 494.31,-408.03 122.87,26.53 236.83,78.94 338.49,153.51 248.19,182.02 492.42,368.13 692.32,606.24 214.3,255.25 461.47,477.54 714.62,693.19z"/>
  <path class="fil9" d="M6910.64 23385.29c-143.34,-468.2 -182.53,-944.86 -103.97,-1428.32 35.7,-219.71 69.58,-246.96 276.55,-204.02 547.58,113.63 1083.36,261.22 1534.47,616.91 -153.39,459.41 -423.06,845.25 -784.05,1159.04 -300.94,261.61 -673.53,190.97 -923,-143.61z"/>
  <path class="fil9" d="M1666.87 17119.02c552.02,373.5 977.29,851.67 1221.62,1479.31 -376.18,238.49 -770.33,427.51 -1227.08,441.7 -99.98,3.1 -198.82,-4.06 -296.92,-29.23 -354.5,-90.95 -498.61,-305.85 -422.43,-666.16 57.17,-270.41 168.89,-522.87 323.7,-752.41 115.88,-171.81 234.01,-343.87 401.11,-473.21z"/>
  <path class="fil7" d="M10402.44 7752.96c278.46,293.9 238.3,659.98 206.96,1011.66 -44.66,500.99 -190.1,973.95 -473.39,1399.46 -103.55,155.54 -231.3,256.97 -416.48,283.41 -131.93,11.8 -263.71,27.51 -395.94,34.16 -123.71,6.23 -249.92,16.15 -362.99,-54.09 71.21,-80.75 146.37,-158.34 212.85,-242.78 530.51,-673.79 713.84,-1446.83 637.25,-2288.32 -14.79,-162.37 -45.73,-328.62 -139.37,-471.87 65.05,-56.54 120.7,-9.14 179.52,14.96 197.3,80.89 365.82,212.28 551.59,313.41z"/>
  <path class="fil7" d="M9671.29 7424.57c93.66,143.24 124.6,309.51 139.37,471.87 76.6,841.51 -106.72,1614.53 -637.25,2288.32 -66.48,84.44 -141.63,162.03 -212.85,242.78 -97.65,-30.89 -110.46,-118.81 -125.95,-198.8 -75.23,-388.29 -88.87,-775.3 12.18,-1163.51 75.58,-290.38 154.61,-579.48 270.76,-856 126.46,-300.97 299.25,-572.47 553.74,-784.66z"/>
  <path class="fil9" d="M10246.04 12135.31c172.2,-95.32 282.8,55.46 418.79,104.83 40.88,222.15 -35.09,430.22 -95.03,634.62 -102.88,350.88 -235.04,693.56 -464.98,984.97 -66.4,84.16 -121.38,217.33 -272.98,166.09 -147.84,-49.96 -157.89,-175.28 -156.01,-305.74 5.74,-401.5 -64.44,-793.12 -152.32,-1182.9 -42.56,-188.7 -141.66,-353.92 -206.26,-533.19 229.83,31.52 459.62,63.49 689.57,94.2 54.34,7.26 111.21,47.16 162.63,-8.33 -0.02,0 -3.27,-2.28 -3.27,-2.28 3.96,53.8 48.13,40.36 79.86,47.73z"/>
  <path class="fil9" d="M15727.37 14147.58c-291.1,440.86 -644.49,823.46 -1066.92,1141.61 -132.9,100.1 -265.28,200.88 -398,301.33 -48.95,-13.84 -97.81,-27.67 -146.63,-41.58 -58.29,-64.91 -66.31,-134 -7.09,-200.41 409.1,-458.9 597.77,-1024.12 772.61,-1596.19 285.82,123.61 547.33,299.26 846.03,395.24z"/>
  <path class="fil9" d="M11544.96 12490.86c207.88,-10.52 378.75,110.88 566.91,167.49 720.62,216.79 1434.74,455.26 2150.42,688.31 83.56,27.21 183.42,36.45 222.83,138.23 -54.43,184.28 -218.94,250.5 -370.3,298.13 -510.46,160.65 -1023.82,200.46 -1528.56,-36.35 -278.85,-130.83 -495.51,-316.05 -636.77,-600.41 -113.73,-228.94 -268.15,-437.68 -404.53,-655.4z"/>
  <path class="fil10" d="M13300.39 15573.98c-3.85,253.93 -276.08,487.15 -528.13,452.46 -217.61,-29.94 -340.81,-263.36 -229.55,-449.47 77.68,-129.94 183.4,-236.04 329.84,-293.2 260.66,-101.72 432.02,14.07 427.84,290.21z"/>
  <path class="fil10" d="M12670.33 11939.82c135.73,-3.13 261.99,43.61 387.85,82.62 824.93,255.76 1636.92,548.87 2444.03,855.79 54.78,20.83 108.05,41.48 153.14,80.41 64.45,55.65 78.38,125.97 56.96,203.28 -22.84,82.36 -83.79,123.17 -166.97,122.48 -65.87,-0.54 -133.23,-4.27 -197.24,-18.57 -470.37,-105.16 -926.17,-260.03 -1382.31,-412.88 -424.81,-142.35 -847.56,-290.82 -1271.27,-436.49 -39.27,-13.49 -80.38,-22.8 -117.92,-39.99 -110.64,-50.66 -163.66,-152.01 -140.18,-260.98 25.63,-118.78 97.57,-172.82 233.91,-175.67z"/>
  <path class="fil10" d="M11851.35 11593.46c142.96,4.85 266.39,135.49 260.91,276.15 -5.23,134.14 -128.54,248.1 -263.08,243.13 -146.34,-5.41 -273.16,-138.57 -261.75,-274.8 11.68,-138.94 130.47,-249 263.92,-244.48z"/>
  <path class="fil8" d="M16750.83 7954.86c176.03,102.87 238.47,286.6 305.39,457.96 293.14,750.77 327.48,1518.04 128.63,2298.68 -170.68,670.01 -452.53,1283.52 -898.14,1816.78 -15.16,18.15 -26.01,45.27 -73.27,36.16 -11.66,-87.87 59.68,-142.03 104.39,-202.02 510.02,-684.22 789.83,-1452.36 867.42,-2301.2 64.38,-704.41 -41.58,-1371.74 -377.91,-1998.1 -19.53,-36.38 -33.92,-75.53 -50.7,-113.4l-5.81 5.14z"/>
  <path class="fil1" d="M9654.19 7616.6c73.15,-0.88 84.67,46.1 93.89,81.22 226.33,862.09 93.21,1662.8 -420.32,2394.33 -79.77,113.63 -178.08,215.53 -397.86,211.77 172.27,-218.33 366.33,-364.49 466.55,-582.02 101.52,-220.31 177.84,-446.99 233.42,-682.36 55.55,-235.17 108.2,-470.44 88.62,-714.16 -18.94,-235.47 -42.51,-470.6 -64.3,-708.78z"/>
  <path class="fil1" d="M9659.14 10429.53c3.59,-16.94 2.87,-30.36 7.39,-32.45 483.96,-223.09 594.55,-674.7 704.74,-1132.57 60.46,-251.25 32.92,-506.98 60.88,-798.79 105.86,127.7 135.98,242.38 134.05,366.35 -6.95,448.93 -119.86,872.41 -349.76,1256.03 -119.45,199.32 -281.15,371.29 -557.3,341.43z"/>
  <path class="fil5" d="M13323 10143.99c14.16,-159.85 175.77,-314.95 308.07,-295.66 158.8,23.14 295.14,181.76 281.1,327.06 -15.09,156.24 -198.01,312.1 -345.28,294.19 -139.7,-17.02 -257.32,-174.01 -243.89,-325.59z"/>
  <path class="fil5" d="M14865.87 10651.05c-0.28,-168.91 112.79,-308.58 249.69,-308.49 149.63,0.11 281.82,122.45 277.9,257.18 -4.48,154 -179.1,322.89 -327.67,316.91 -117.11,-4.71 -199.68,-114.42 -199.92,-265.6z"/>
  <path class="fil1" d="M9392.97 8341.57c-107.42,392.35 -106.93,803.85 -249.73,1184.89 -27.96,-418.6 5.06,-824.96 249.73,-1184.89z"/>
  <path class="fil6" d="M12061.12 8498.44c-264.23,69.74 -328.18,51.94 -394.19,-97.14 -72.89,-164.61 -20.55,-373.8 115.26,-467.86 69.98,-48.48 147.63,-57.93 203.81,2.91 64.75,70.14 13.56,138.85 -40.99,194.06 -22.77,23.05 -52.61,39.99 -81.24,56.16 -57.66,32.6 -127.77,57.82 -101.97,145.11 23.52,79.61 79.75,122.03 164.87,126.33 38.85,1.97 81.78,-11.44 134.45,40.43zm-299.96 -362.91c102.74,1.03 157.45,-35.02 182.32,-112.4 2.61,-8.12 -14.95,-32.22 -25.03,-33.44 -90.46,-11.01 -133.63,40.38 -157.29,145.84z"/>
  <path class="fil11" d="M11578.25 8947.72c293.6,190.23 373.56,557.62 219.92,979.37 -41.93,-223.44 -228.92,-297.22 -357.14,-450.78 179.59,-40.81 225.45,154.74 360.99,176.37 66.39,-271.05 -137.97,-457.11 -223.77,-704.96z"/>
  <path class="fil7" d="M14788.36 14144.51c56.49,375.41 -208.01,651.56 -344.09,1025.29 306.37,-221.52 430.76,-526.35 658.07,-740.36 -204.68,464.03 -527.71,818.51 -1004.4,1038.47 119.68,-217.11 244.02,-431.78 357.72,-651.96 113.46,-219.73 169.49,-466.83 332.7,-671.44z"/>
  <path class="fil7" d="M9323.27 12127.49c183.61,97.18 291.67,245 345.49,438.32 96.53,346.73 143.66,698.46 132.2,1058.14 -1.86,58.07 2.19,117.76 -62.14,156.87 -36.89,-575.73 -92.14,-1144.48 -415.55,-1653.33z"/>
  <path class="fil7" d="M17624.22 15822.91c205.5,-499.17 272.09,-995.24 -8.23,-1515.78 171.36,102.66 267.89,276.85 294.18,528.31 38.83,371.37 3.72,779.05 -285.95,987.47z"/>
  <path class="fil7" d="M17888.68 14260.42c425.15,269.71 498.89,1036.81 138.95,1394.24 198.18,-489.94 108.44,-948.04 -138.95,-1394.24z"/>
  <path class="fil7" d="M9941.36 13870.82c-97.97,-5.18 -42.84,-60.5 -32.62,-100.5 90.41,-354.15 168.81,-709.45 161.82,-1078.96 -2.59,-136.73 -74.99,-268.47 -31.48,-431.2 152.23,102.04 155.42,247.21 159.29,382.6 10.31,361.2 -74.18,707.26 -189.33,1046.75 -21.3,62.79 -46.67,124.22 -70.16,186.27 0,0.01 2.48,-4.96 2.48,-4.96z"/>
  <path class="fil7" d="M6883.26 10961.71c-136.2,189.84 -252.09,389.69 -337.86,604.17 -82.6,206.55 -47.02,443.57 -148.82,654.4 -214.78,-341.8 10.1,-933.16 486.68,-1258.57z"/>
  <path class="fil7" d="M6110.82 11901.6c-170.89,-396.1 43.94,-871.94 554.45,-1212.24 -115.71,230.11 -298.34,365.24 -384.69,566.04 -88.96,206.83 -107.53,429.43 -169.76,646.2z"/>
  <path class="fil12" d="M13097.79 15278.77c-108.43,78.12 -217.46,149.7 -316.28,234.57 -192.87,165.64 -197.24,280.25 -20.42,461.97 -219.33,66.03 -297.76,13.51 -293.97,-191.89 1.28,-68.99 19.83,-129.73 52.22,-189.26 95.26,-175.16 341.46,-320.68 578.45,-315.39z"/>
  <path class="fil7" d="M11813.8 12777.98c485.26,343.35 996.19,622.37 1615.74,776.48 -263.1,11.03 -470.94,-46.64 -709.54,-151.95 -260.79,-115.12 -482.37,-304.01 -761.97,-385.6 -94.04,-27.42 -76.23,-168.54 -144.23,-238.93z"/>
  <path class="fil7" d="M9938.88 13875.79c407.86,-406.58 613.97,-903.54 645.68,-1499.31 104.44,89.57 90.27,186.99 78.91,270.74 -62.2,458.48 -273.44,845.2 -585.85,1181.09 -38.89,41.81 -81.94,51.43 -135.12,41.11 -1.14,1.4 -3.62,6.37 -3.62,6.37z"/>
  <path class="fil7" d="M13220.67 13896.88c-443.05,-74.48 -871.69,-190.05 -1133.14,-612.13 304.61,336.96 736.37,434.1 1133.14,612.13z"/>
  <path class="fil5" d="M15287.55 9688.04c285.36,-65.26 394.77,7.32 383.72,263.69 -120.31,-116.43 -222.46,-234.1 -383.72,-263.69z"/>
  <path class="fil13" d="M12278.05 9837.16c-2.78,-166.69 -60.41,-324.91 -55.3,-542.33 114.3,208.78 161.88,370.01 55.3,542.33z"/>
  <path class="fil5" d="M13299.63 9388.21c186.38,-266.49 248.34,-279.46 465.97,-106.26 -169.57,-19.93 -304.56,9.94 -465.97,106.26z"/>
  <path class="fil11" d="M13546.54 10973.98c330.8,633.89 648.27,682.64 1171.63,266.77 -95.64,243.6 -363.95,418.55 -600.22,391.37 -309.61,-35.6 -499.48,-249.17 -571.41,-658.14z"/>
  <path class="fil11" d="M14303.15 11062.68c25.18,-20 47.62,-46.08 76.02,-58.98 149.85,-68.04 197.03,-185.89 188.95,-343.79 -10.66,-207.85 -8.14,-416.57 68.29,-615.07 25.9,-67.29 32.41,-147.02 124.23,-203.18 -82.2,305.43 -101.73,599.85 -93.24,898.98 5.77,204.06 -73.76,268.35 -364.25,322.04z"/>
  <path class="fil11" d="M14107.52 10943.89c-39.03,-32.55 -20.14,-74.46 -20.6,-112.75 9.71,23.24 21.93,45.85 28.12,69.98 3.16,12.36 -4.47,27.48 -7.52,42.77z"/>
  <path class="fil1" d="M1083.23 18518.02c-18.24,-157.5 38.52,-273.26 96.85,-378.79 279.21,-505.14 611.99,-970.74 1061.85,-1340.64 115.06,-94.61 240.01,-181.02 371,-251.53 194.44,-104.67 403.52,-70.07 607.01,-22.58 173.34,40.46 320.64,138.15 461.21,241.71 385.65,284.08 790.11,303.05 1223.2,117.41 282.36,-121.03 573.93,-220.73 862.05,-328.16 166.11,-61.93 334.58,-105.46 508.17,-18.8 78.12,-91.23 21.02,-187.3 43.14,-271.92 34.34,-131.37 64.07,-162.17 184.75,-107.57 74.8,33.83 119.49,61.88 135.42,-45.41 0.88,-5.86 11.71,-10.62 18.41,-15.16 60.67,-41.11 114.33,104.62 168,12.25 31.92,-54.93 33.39,-127.21 51.28,-190.93 3.83,-13.63 17.15,-30.1 29.98,-34.9 282.12,-105.23 457.42,-352.15 692.06,-520.14 207.81,-148.79 394.4,-338.75 680.35,-329.82 69.49,2.17 75.62,-53.18 56.32,-106.58 -32.94,-91.14 -69.58,-180.93 -125.2,-324.22 139.34,95.41 153.11,206.94 206.29,290.34 26.99,42.32 47.74,93.24 112.09,64.05 64.96,-29.47 81.24,-77.86 47.2,-142.43 -33.3,-63.21 -65.12,-127.21 -116.53,-227.96 137.06,57.91 149,179.57 245.39,225.77 263.88,-228.15 531.44,-458.34 831.34,-651.86 -4.25,82.46 -53.25,130.57 -108.82,176.07 -173.67,142.22 -346.83,285.06 -519.24,428.77 -169.52,141.3 -168.77,141.79 -82.02,350.95 12.58,30.33 22.17,62.02 31.08,93.64 1.52,5.43 -7.39,13.79 -17.13,30.5 -29.75,-41.9 -58.26,-79.15 -83.62,-118.48 -35.68,-55.34 -60.34,-124.11 -150.89,-83.06 -83.41,37.82 -108.31,95.59 -75.71,180.58 11.39,29.72 19.09,60.85 34.09,109.53 -109.17,-46.46 -87.87,-219.59 -232.31,-191.59 -105.6,20.48 -217.42,19.48 -314.39,69.55 -88.22,45.54 -172.43,100.8 -252.49,159.81 -247.61,182.51 -490.21,371.88 -739.57,551.92 -76.11,54.95 -124.71,108.96 -92.47,205.22 18.97,56.63 6.09,115.69 -51.71,114.94 -130.2,-1.68 -169.24,87.9 -196,187.13 -107.59,-33.88 -130.06,-155.49 -244.3,-158.13 -63.96,58.84 -27.42,133.67 -13.55,200.11 22.45,107.52 -22.65,180.43 -122.78,163.28 -524.25,-89.76 -942.11,213.15 -1391.25,380 -481.78,178.97 -920.2,184.92 -1342.69,-129.26 -160.91,-119.65 -335.18,-211.24 -528.82,-273.49 -142.75,-45.89 -256.34,-19.06 -376.58,54.78 -581.05,356.83 -997.15,873.06 -1373.72,1425.15 -82.84,121.39 -129.86,267.11 -206.74,429.95z"/>
  <path class="fil1" d="M7165.88 20665.41c58.56,91.09 107.35,120.72 213.13,92.1 297.22,-80.36 597.17,-148.51 867.42,-305.11 177.78,-103.02 352.94,-142.84 519.8,26.78 26.11,26.55 73.05,32.62 134.84,58.36 -2.82,-105.91 -64.28,-164.92 -96.95,-234.45 -55.18,-117.44 -30.08,-189.67 94.59,-188.9 245.14,1.51 335.39,-168.7 362.86,-347.83 56.77,-370.2 222.04,-715.19 232.7,-1096.76 91.75,98.74 75.9,211.1 57.84,322.4 -46.59,287.25 -162.75,557.24 -203.98,847.28 -20.72,145.78 -174.42,231.47 -221.13,379.42 -24.29,76.95 -138.99,-20.93 -204.72,33.43 -5.76,89.02 60.43,150.8 88.67,226.85 17.85,48.06 37.82,94.36 -6.14,138.22 -45.55,45.45 -100.31,62.62 -159.3,33.69 -74.41,-36.49 -151.46,-71.65 -217.05,-121.08 -83.14,-62.67 -162.77,-73.89 -254.75,-28.26 -338.08,167.65 -696.31,272.13 -1067.99,329.91 -93.14,14.47 -123.55,68.25 -136.54,149.56 -107.26,671.6 -293.6,1331.23 -302.33,2017.82 -1.44,113.19 -7.25,113.12 -115.57,287.89 -80.61,-33.08 -92.59,-112.11 -118.3,-180.3 -134.56,-356.97 -166.08,-720.32 -116.74,-1101.75 66.8,-516.36 274.12,-986.74 423.83,-1476.86 23.92,144.73 -16.71,279.76 -57.4,410.45 -118.88,381.96 -207.03,769.67 -251.55,1167.13 -35.77,319.38 -1.89,627.27 157.1,942.59 34.28,-824.98 159.42,-1606.42 377.66,-2382.58z"/>
  <path class="fil1" d="M12600.93 13871.63c-2.52,143.43 -74.24,238.39 -130.06,337.16 -250.88,443.91 -566.11,840.86 -913.99,1210.86 -817.02,868.96 -1709.82,1650.08 -2712.31,2300.62 -76.91,49.91 -146.9,143.94 -263.64,93.28 -3.48,-114.75 91.98,-135.66 156.87,-178.68 596.66,-395.43 1164.89,-828.96 1694.23,-1309.75 758.38,-688.84 1471.35,-1420.2 2021.27,-2294.15 34.09,-54.13 51.5,-125.24 147.63,-159.34z"/>
  <path class="fil1" d="M12863.15 14192.21c-477.45,994.61 -1219.52,1782.43 -2024.66,2513.89 -625.49,568.24 -1560.69,1177.31 -1840.37,1229.85 164.94,-162.68 337.68,-274.89 510.7,-384.44 862.45,-546.11 1619.28,-1210.91 2288.39,-1982.3 355.16,-409.43 687.89,-831.06 953.59,-1304.03 19.88,-35.4 47.57,-66.43 71.63,-99.49 13.58,8.85 27.14,17.68 40.72,26.52z"/>
  <path class="fil1" d="M902.65 18434.4c-51.96,-201.3 -28.56,-342.91 52.19,-470.54 195.41,-308.91 384.55,-623.02 599.94,-917.7 199.61,-273.09 501.48,-426.11 799.28,-578.22 -118.51,166.11 -311.13,247.71 -455.65,385.26 -152.36,145.01 -284.99,299.76 -388.85,482.14 -98.61,173.16 -199.9,345.17 -308.67,512.05 -111.78,171.51 -196.69,357.29 -298.24,587.01z"/>
  <path class="fil1" d="M11289.57 14301.69c-409.43,29.37 -807.94,-23.92 -1221.83,-111.46 81.5,132.88 223.88,154.26 329.63,303.7 -245.81,-130.94 -432.08,-258.58 -622.97,-382.32 -193.22,-125.25 -445.52,-117.79 -642.2,-256.76 714.14,174.5 1427.3,349.3 2157.37,446.84z"/>
  <path class="fil1" d="M11575.73 17599.79c-334.95,376.02 -770.42,508.29 -1253.93,519.42 430.59,-139.89 876.84,-241.31 1253.93,-519.42z"/>
  <path class="fil1" d="M9678.08 18242.73c-166.27,46.06 -270.46,8.16 -407.14,-2.03 116.17,148.12 277.71,173.46 392.25,265.79 -244.39,-15.12 -464.87,-145.29 -708.44,-439.36 236.04,123.53 457.68,123.03 723.33,175.6z"/>
  <path class="fil1" d="M16594.95 15325.39c0.89,-240.89 -51.05,-477.42 -126.26,-727.42 207.76,116.3 246.56,350.91 126.26,727.42z"/>
  <path class="fil1" d="M8673.14 21745.25c-274.03,64.19 -427.39,-109.94 -577.45,-291.13 197.56,84.94 380.77,199.41 577.45,291.13z"/>
  <path class="fil1" d="M8263.45 12669.88c56.39,-187.06 53.88,-385.89 125.42,-567.89 124.18,223.72 -7.6,395.71 -125.42,567.89z"/>
  <path class="fil1" d="M16941.24 15021.9c-78.16,-117.18 -138.06,-206.31 -197.14,-295.98 -18.95,-28.75 -33.64,-64.47 -3.05,-89.39 42.14,-34.32 82.67,-1.96 105.39,28.46 71.27,95.44 110.01,203.3 94.8,356.91z"/>
  <path class="fil1" d="M7979.46 12487.15c42.56,-160.2 85.14,-320.37 136.06,-512.07 76.51,239.19 63.3,290.54 -136.06,512.07z"/>
  <path class="fil1" d="M5697.21 17682.27c-189.93,-119.82 -241.71,-318.05 -281.09,-523.27 93.7,174.43 187.4,348.85 281.09,523.27z"/>
  <path class="fil1" d="M9785 20442.37c89.62,37.43 179.24,74.87 268.84,112.3 -112.6,22.98 -206.89,-1.91 -268.84,-112.3z"/>
  <path class="fil1" d="M9845.71 20206.54c95.9,47.08 191.78,94.17 326.62,160.37 -172.04,14.58 -252.33,-76.76 -355.9,-112.37 9.75,-16.01 19.51,-32 29.28,-48z"/>
  <path class="fil1" d="M8865.24 21628.24c-131.62,-1.45 -203.95,-49.33 -304.68,-145.13 135.12,20.79 211.44,59.98 304.68,145.13z"/>
  <path class="fil1" d="M8298.25 21289.56c41.77,4.67 65.82,35.05 92.23,61.9 -40.81,37 -50.35,-12.64 -71.28,-27.27 -10.01,-6.99 -14.02,-22.59 -20.95,-34.63z"/>
 </g>
</svg>
