<svg id="Camada_1" data-name="Camada 1" xmlns="http://www.w3.org/2000/svg" viewBox="0 0 545.67 501.04"><defs><style>.cls-1{fill:#a63822;}.cls-2{fill:#90d3f5;}.cls-3{fill:#ffc800;}.cls-4{fill:#ebcfc4;}.cls-5{fill:#e3c1b3;}.cls-6{fill:#1c0a05;}.cls-7{fill:#070201;}.cls-8{fill:#199ada;}.cls-9{fill:#1281b8;}.cls-10{fill:#fff;}.cls-11{fill:#f6c988;}.cls-12{fill:#b38471;}.cls-13{fill:#c53d25;}</style></defs><g id="Layer_1"><path class="cls-1" d="M434.92,432.06c.29-9.34,2.57-18.07,8-25.85,16.47-23.82,52.09-24.52,69.42-1.31,1.54,2.06,2.8,4.33,4.19,6.5-1.14,2.47.18,3.88,2.15,5a77.63,77.63,0,0,1,2.64,16.46c-15.49,6.85-31.79,11.11-48.21,14.94-10.46,2.45-20.92,5.1-31.75,5.53a57.38,57.38,0,0,1-5.68-16.11c1.05-1.9,1.07-3.66-.72-5.17Z" transform="translate(-24.17 -40.32)"/><path class="cls-2" d="M434.92,432.06c1.79,1.51,1.77,3.27.72,5.17-8.43,2.95-16.57,6.47-23.81,11.8-1.28.94-3,2-2.52,3.84s2.51,1.92,4.1,2c9.35.5,18.71.77,27.91-1.53,10.83-.44,21.29-3.08,31.75-5.53,16.42-3.83,32.72-8.09,48.21-14.95,14.43-4.79,23.47-10.16,26.9-16.52a74.92,74.92,0,0,0-29.54.07c-2-1.13-3.29-2.54-2.15-5,8.8-2.41,17.76-2,26.71-1.42a19.37,19.37,0,0,1,5.5,1.26c5.62,2.11,6.83,6.61,2.9,11.07a35.74,35.74,0,0,1-11.37,8.31c-6.78,3.3-13.69,6.31-20.55,9.44-16.54,5.26-33.06,10.59-50.08,14.19-7.78,1.64-15.58,3.22-23.37,4.83-9.13.55-18.21,2-27.41,1.51-3.76-.18-7.55-.3-11.08-1.73-5.21-2.12-6.28-6.23-2.86-10.67a12.45,12.45,0,0,1,2.49-2.48c8.38-6.16,17.41-11,27.55-13.65Z" transform="translate(-24.17 -40.32)"/><path class="cls-1" d="M446.23,459.08c7.79-1.61,15.59-3.19,23.37-4.83,17-3.6,33.54-8.93,50.08-14.19-3.9,17.06-14.54,27.93-31.27,32.1-16.4,4.08-30.77-.18-42.18-13.08Z" transform="translate(-24.17 -40.32)"/><path class="cls-3" d="M185.5,94.55c1.2-2.88-.35-4.92-3.14-6.47-1.43-.81-2.81-1.71-4.18-2.62-4.6-3.06-4.42-5.3.63-7.86a10.09,10.09,0,0,1,2.6-1.08c5.73-1.1,8.41-4.5,8-10.32a3.44,3.44,0,0,1,.09-.7c.32-1.88.61-3.94,3-4.23,2.64-.33,3.56,1.66,4.36,3.75,2,5.18,2,5.15,7.12,4.34,2.78-.45,5.56-.91,8.36-1.23,1.63-.19,3.51-.32,4.11,1.73.51,1.73-1,2.3-2.2,3.1-3.76,2.48-6.47,6.11-9.72,9.17a3.57,3.57,0,0,0-.68,5c1.52,2.64,2.87,5.4,4.14,8.17.69,1.51,1.12,3.24-.5,4.5-1.34,1-2.68.35-3.91-.4-.8-.49-1.56-1.06-2.35-1.56-5.44-3.34-5.47-3.36-10.34,1.11-1.28,1.17-2.58,2.3-4.32,1.55-2.25-1-2-2.91-1.34-4.82.07-.22.12-.45.29-1.12Z" transform="translate(-24.17 -40.32)"/><path class="cls-3" d="M81.32,264.36c-3.29-.82-6.15-.07-7.6,3.78a5.94,5.94,0,0,1-1.15,1.76c-2.53,2.86-5.58,2.53-6.08-1.11-.64-4.68-3-5.82-7-5.46a7.23,7.23,0,0,1-2.77-.33c-3.07-1-3.82-3.43-1.72-6a12.32,12.32,0,0,1,3.72-3.19c5.74-2.9,4.14-4.9,3.17-9.26-.55-2.51-1.39-5-1.47-7.57-.1-2.94,2.56-4.16,4.83-2.27a30,30,0,0,1,5.18,5.73c2.2,3.12,4.5,4.77,8.13,2.14a9.81,9.81,0,0,1,2.59-1.1,3,3,0,0,1,3.74,1,2.56,2.56,0,0,1-.39,3.25c-3.47,3.89-2.49,7.09,1.36,10A7.38,7.38,0,0,1,87.55,258c1,1.62,2,3.27.61,5.19-1.12,1.54-2.7,1.72-4.4,1.54-.7-.07-1.39-.21-2.44-.37Z" transform="translate(-24.17 -40.32)"/><path class="cls-3" d="M348,471.78c1.74.44,2,1.68,1.9,3.25-.3,4.07,2,4.8,5.38,4,.91-.2,1.85-.31,2.79-.44,1.44-.2,2.87-.23,3.84,1.09,1.26,1.71.1,3.11-.75,4.5a11.79,11.79,0,0,1-1.66,2.28c-1.79,1.74-2.22,3.43-.38,5.45a11.59,11.59,0,0,1,1.88,3,3.13,3.13,0,0,1-.52,3.88,4,4,0,0,1-3.9.13c-4.29-3.36-7.9-2.81-11.22,1.56-1.09,1.42-2.85,2.63-5,1.49-1.76-1-1.9-2.73-1.63-4.33.7-4.07-1.14-6.69-4.4-8.69a6.43,6.43,0,0,1-1.59-1.4c-2.26-2.64-1.58-5.53,1.68-5.51,5.91.05,9.26-2.21,10.3-8.09.25-1.45,1.63-2.23,3.24-2.18Z" transform="translate(-24.17 -40.32)"/><path class="cls-3" d="M541.77,171.79a5.29,5.29,0,0,1,1.39.14c6.35,2.31,10,0,12.18-6.29,1-2.89,3.77-2.78,5.25-.1a12.5,12.5,0,0,1,1.46,4.66c.26,2.5,1.45,3.4,3.85,4.13,4.64,1.42,5.29,4.31,1.37,6.58-3.66,2.12-4.79,4.28-3.94,8.4.62,3-1.44,4.15-4.44,3a6,6,0,0,1-2.41-1.4c-3-3.36-6-3-9.19-.39a5.41,5.41,0,0,1-1.21.71c-1.36.6-2.79.88-3.9-.34s-.76-2.71.28-3.79c3-3.11,1.91-5.27-1.38-7.13a10,10,0,0,1-2.14-1.82c-1.17-1.22-2.2-2.61-1.34-4.38s2.39-2.13,4.17-2Z" transform="translate(-24.17 -40.32)"/><path class="cls-4" d="M396.52,99.32c1.45.43,2.16,1.74,3.19,2.68,2.44,2.22,4.47,2.61,7.14-.25,2.94-3.15,4.59-2.67,7.2,1,.82,1.15,1.39,2.47,2.21,3.61,3,4.24,4.45,4.76,9.49,3,3.06-1.07,5.85-2.1,8,1.53.79,1.35,2.2,1.63,3.7,1.51,1.23-.09,2.78.12,3.12,1.19,1.18,3.84,3.72,4.77,7.31,4.07.18,0,.59.17.6.3.7,5.94,8.74,6.91,8.8,13.69.06,5.72.1,11.25-1.89,16.67a114.72,114.72,0,0,1-6,13.57c-2,3.85-3.09,8-2.12,12.3,3.82,17-4.12,30.12-14.12,42.56a4,4,0,0,1-3.64,1.71,28.16,28.16,0,0,1-5.57-.91c-26.36-7.91-52.63-16.12-78.34-26a8.34,8.34,0,0,0,.07-2.11c-1.86-8-6.48-15-8.46-23-.68-2.74-3.49-2.72-5.66-.62-13.74.15-21.64-7.61-21.44-21.21a53.19,53.19,0,0,1,4.45-21.32c3.77-8.4,10.59-11.19,19.18-7.66,10.53,4.34,14.86,13.12,16.25,23.8-1.69,2.45-2.13,4.77,1.14,6.23,2.48,1.1,4.86-.12,5.76-3.27.6-2.1.84-4.14,3.36-4.78,3.89-1,4.8-4.11,5.2-7.49.19-1.64,0-3.52,1.61-4.42,3.6-2,5.66-5.41,8.33-8.32,2.93-3.21,6.38-7.1,10.11-8.33,5.54-1.82,8.28-5.46,11-9.72Zm-60.71,43.21c-.44-7.11-1.58-14.06-6.76-19.49-4.22-4.41-8.69-3.53-11.13,2a35.86,35.86,0,0,0-3.07,13.65c-.09,5,.24,10.39,3.58,14.76,4.73,6.18,12.7,5.25,15.76-1.92a17.09,17.09,0,0,0,1.62-9Zm62.24,38.12c-.05,4.39,1.07,6.24,3.77,6.22,3,0,9.84-4.54,10-6.64.2-2.45-4.61-5.79-8.5-5.9S398.11,175.75,398.05,180.65Z" transform="translate(-24.17 -40.32)"/><path class="cls-4" d="M396.52,99.32c-2.76,4.26-5.5,7.9-11,9.72-3.74,1.23-7.18,5.12-10.11,8.33-2.67,2.91-4.74,6.29-8.33,8.32-1.61.9-1.42,2.78-1.61,4.42-.41,3.38-1.31,6.5-5.2,7.49-2.52.64-2.77,2.68-3.37,4.78-.89,3.15-3.27,4.37-5.75,3.27-3.28-1.46-2.83-3.78-1.15-6.23,3.22-1.79,4.13-6.09,8.34-7.11,2.18-.53,2.31-3.27,1.74-5.51-.89-3.57,0-6,4-6.68,1.1-.19,2.83-.72,3.06-1.46,2-6.61,9.1-7.72,12.83-12.37a5.63,5.63,0,0,1,3.54-2.16,9.52,9.52,0,0,0,6.69-4.6c1.65-2.44,4.11-3,6.32-.21Z" transform="translate(-24.17 -40.32)"/><path class="cls-4" d="M331.53,165.81c2.17-2.1,5-2.12,5.66.62,2,8,6.6,15,8.46,23a8.34,8.34,0,0,1-.07,2.11c-2.23.37-4.08-.89-6.1-1.39-2.93-.74-4.15-2.55-4.37-5.55-.36-4.91-1.1-9.79-1.57-14.69C333.37,168.21,333.45,166.55,331.53,165.81Z" transform="translate(-24.17 -40.32)"/><path class="cls-4" d="M335.81,142.53a17.09,17.09,0,0,1-1.62,9c-3.06,7.17-11,8.1-15.76,1.92-3.34-4.37-3.67-9.8-3.58-14.76A35.86,35.86,0,0,1,317.92,125c2.44-5.49,6.91-6.38,11.13-2,5.18,5.43,6.32,12.38,6.76,19.49Z" transform="translate(-24.17 -40.32)"/><path class="cls-5" d="M398.05,180.65c.06-4.9,1.33-6.43,5.29-6.32s8.7,3.45,8.5,5.9c-.18,2.1-7,6.63-10,6.64C399.12,186.89,398,185,398.05,180.65Z" transform="translate(-24.17 -40.32)"/><path class="cls-6" d="M431.9,90.81c8.73-2.64,12-1.59,16.94,6.14,1.15,1.81,2.58,1.63,4.07,2.07,5.89,1.73,8.5,4.48,8.37,10.59-.08,3.36,1.26,4.94,3.45,7,7.11,6.61,4.37,20.11-4.6,23.62-2.62,1-4.39-.43-4.73-2.72-.59-4-1.49-7.21-6.56-7a3.28,3.28,0,0,1-2.94-2.76c-1-6.07-6.1-7.9-10.58-10.19-2.84-1.45-4.79-3.74-7.15-6.09-6.61,4.33-12.49,2.56-17.67-2.7-1.65-1.68-3.08-2.51-5.52-1.5a8.41,8.41,0,0,1-7.5-.54c-2.76-1.53-5.15-4-8.87-1.59-2.62,1.7-5.63,2.37-8.37,4.44-5.23,3.94-8.89,9-13.38,13.49-1.91,1.9-3.49,2.82-3.21,6,.45,5.18-3.82,6.4-7.85,7.4.24-3.45-1.8-5.67-4.06-7.83s-4.4-4.1-3.8-7.88a26.44,26.44,0,0,1,3.72-.19c5.42.52,8.41-2.68,10.11-7.09,1.16-3,2.64-6.73,1.79-9.45-1.61-5.14,1.9-6.14,4.67-8s6.11-1.52,8.88-.57c6.37,2.18,11.49,1.18,15.61-4.26a13,13,0,0,1,2-2c2-1.64,3.68-1.44,5.52.43,5.07,5.12,5.13,5.08,11.45,1.06,2.4-1.53,4.37-2.26,6.34.94,2.23,3.63,5.93,4.54,9.46,2.52,1.55-.88,3.45-1.57,4.39-3.36Z" transform="translate(-24.17 -40.32)"/><path class="cls-7" d="M431.9,90.81c-.94,1.79-2.84,2.48-4.39,3.36-3.53,2-7.23,1.11-9.46-2.52-2-3.2-3.94-2.47-6.34-.94-6.32,4-6.38,4.06-11.45-1.06-1.84-1.87-3.56-2.07-5.52-.44a13,13,0,0,0-2,2c-4.12,5.44-9.24,6.44-15.61,4.26-2.77-1-6.09-1.3-8.88.57s-6.28,2.85-4.67,8c.85,2.72-.63,6.45-1.79,9.45-1.7,4.4-4.69,7.6-10.11,7.09a26.44,26.44,0,0,0-3.72.19c-.6,3.78,1.67,5.83,3.8,7.87s4.3,4.39,4.06,7.83c-.71,3.21-1.35,6.43-2.15,9.6a2.31,2.31,0,0,1-2.65,1.85,2.47,2.47,0,0,1-2.25-2.32c-1.14-11.69-7.71-20.46-15.31-28.72-3.53-3.83-1.76-10.81,3.77-12.63,3.64-1.19,4.19-2.85,4.66-6.21.63-4.63,3.27-8.48,8.59-8.94,2.49-.21,3.72-1.41,4.77-3.45,1.45-2.79,4.45-4.69,7-3.74,5.13,1.9,9.53-1.58,14.32-.86,1.61.25,2.6-.8,3.67-1.74,4.58-4,9.5-4,14.25-.62a6,6,0,0,0,6.39.78c5.37-2,10.29-1.29,13.88,3.62,1.2,1.64,2.35,1.62,4.18,1.37,7.65-1.07,9.27-.16,13,6.38Z" transform="translate(-24.17 -40.32)"/><path class="cls-7" d="M331.44,182.45c-7.95-1.56-13.13-7.35-13.1-14.65,0-4.19.9-5.06,4.92-4.06,4.52,1.13,8.77,1.3,12.65-1.76a2.91,2.91,0,0,1,2.67-.31c-.27.89-.27,2-.84,2.63C332.83,169.4,331.17,175.58,331.44,182.45Z" transform="translate(-24.17 -40.32)"/><path class="cls-6" d="M331.44,182.45c-.27-6.87,1.39-13,6.3-18.15.57-.6.57-1.74.84-2.63,7.11,4.68,7.15,14.18,0,18.55C336.42,181.52,334.14,182.76,331.44,182.45Z" transform="translate(-24.17 -40.32)"/><path class="cls-8" d="M399.5,310.66a309,309,0,0,1-64.42,54.66c-3.82,2.44-5.35,4.85-5.17,9.55a151.1,151.1,0,0,1-5.15,44.06c-5,18.95-15.46,34.74-30.57,47.25-11.73,9.71-25.11,16.64-39.4,21.69-4.67,1.64-7.6,3.94-8.22,9a14.67,14.67,0,0,1-2.92,7.11c-12.79-10.08-28-14.27-43.5-17.49-5.87-1.22-6.83-.44-7.84,5.78a88.18,88.18,0,0,0,2.95,40.49c-5-5.35-7.5-11.95-8.67-19a80.05,80.05,0,0,1,.85-31.64C189.8,472.1,192,462,196,452.3c1.58-3.85,3.83-5.38,7.78-5.84a118.46,118.46,0,0,0,31.3-8.38c13.26-5.46,18.64-15.95,19.28-29.45.28-5.87-.42-11.78-.28-17.67.09-3.52-1.37-5.6-4.12-7.52-8.31-5.82-16.47-11.88-23.62-19.1-2.94-3-5.32-2.67-8.62-.78-9.6,5.48-19.17,10.95-29.45,15.25-13.73,5.75-28,8.34-42.63,9.07-14.15.7-28.3.47-42.27-2.21-2.43-.47-3.94.62-5.79,1.73-5.42,3.27-10,7.87-16.33,9.7-6.92-17.79-19-31.35-34.63-41.94,5.65-8.54,13.94-14,22.73-18.54,6-3.09,12.88-2.14,19.48-1.65,13.39,1,26.81,1.76,40.21,1.12,16.76-.8,30.56-8.78,43-19.31,6.1-5.16,11.68-10.94,17.52-16.42a94,94,0,0,1,38.39-21.68c7.26-2.15,14.22-5,20.1-9.95,1.77-1.49,3.72-2.82,5-5.77-9.13-3.52-17.55-8-26.09-12.21-14.63-7.24-27.9-16.63-41.46-25.57a40.62,40.62,0,0,1-4.72-4.21c.39-16.05,5-30.41,16.68-42,3.46,2.41,7.14,4.57,10.35,7.29,14.23,12,31.1,18.06,48.89,22.15,2.29.52,4.54,1.16,6.81,1.74,1.84,5.08,4.65,9.77,5.85,15.12,2.49,11,4.48,22.15,4.32,33.53-.05,3.69.23,7.25,4.42,8.66s5.86-2.32,7.74-4.7c6.52-8.27,10.26-18,13.18-27.93,1.7-5.79,3.85-11.69,2.69-18l24.95,7.1c3.87,6.17,8.25,12.09,11.47,18.58,4,8.06,10.15,13.31,18.05,17,14.31,6.71,28.86,5.59,43.33,1,4.29-1.35,8.95-3.23,10.5-8.45l2.94.34,8.29,7.24C416.24,276,410.89,292,399.3,305c-1.68,1.88-1.45,3.84.2,5.68Zm-23.12.71c.12-7.83-4.73-11.11-12.12-8.23a18.93,18.93,0,0,0-9.35,8.31c-3.16,5.28.34,11.9,6.5,12.74C368.56,325.18,376.27,318.57,376.38,311.37Z" transform="translate(-24.17 -40.32)"/><path class="cls-9" d="M326.62,224l-24.94-7.1c-3.86-1.4-7-5.68-11.88-3-.31-1.19-.93-1.87-2.26-1.35l.09.07c-.23-2.36-2.54-2.44-3.92-3.5-8.17-6.32-13.27-13.65-10.7-24.83,1.36-5.91,1.29-12.14,1.87-18.23,5.25-.75,8.87-3.63,11.8-8,8-12.07,12.16-25.47,13.42-39.67.89-10,2-20.35-5.86-28.68,18.29-27.37,43.49-43.92,76.25-48.43,25.49-3.52,48.5,3.3,69.66,17.37,2.75,1.82,5.41,3.79,8.24,5.49,17.4,10.52,27.48,26.57,34.55,45-1.31,1.13-1.79,0-2.37-.43a10.15,10.15,0,0,1-1.45-1.54c-3.51-3.81-6.9-7.75-10.57-11.4-9.68-9.66-22.05-14.31-34.85-17.8-13-3.55-26.34-5-39.8-5.89-10.41-.7-20.57-1-30.84,1.57-23.83,6-39,20.67-46.16,44.1a101.75,101.75,0,0,0-2.71,49.55c1.72,9.16,7,14.76,15.61,17.34,14,4.2,28.15,7.83,42.06,12.25,26,8.28,52,17,77.94,25.45,2.9.95,5.88,1.65,8.84,2.45,6.1,1.63,7.67,4,6.68,10.27-.63,4-2.45,7.63-4,11.32a123.17,123.17,0,0,1-5.59,11.43c-3.3,6.1-5.9,7.2-12.76,4.94s-13.28-4.84-19.9-7.32a41.82,41.82,0,0,0-10.17-2.91l-2.95-.34c-1.12-2.89-4-3.15-6.32-3.92-20.29-6.61-40.53-13.37-61-19.51-5.33-1.6-10.17-5.05-16.07-4.75Zm31.9-15.62c-3.86.08-5.9,1.61-6.63,5a6.47,6.47,0,0,0,4,7.4,34.49,34.49,0,0,0,3.34,1.13c12,4.13,24,8.34,36,12.38,12.93,4.33,25.85,8.72,39.18,11.7a26.82,26.82,0,0,0,5.59.53,4.48,4.48,0,0,0,4.73-3.48,5.21,5.21,0,0,0-1.61-5.76A14,14,0,0,0,438.8,235c-22.88-8.7-45.9-17-69.28-24.26-3.57-1.1-7.15-2.43-11-2.34Zm-23.21-9.82a7.52,7.52,0,0,0-7.48,6.93c-.32,3.87,3.27,7.64,7.42,7.79a7.4,7.4,0,0,0,7.46-6.89A7.86,7.86,0,0,0,335.31,198.53Z" transform="translate(-24.17 -40.32)"/><path class="cls-8" d="M445.18,270.93c16.56,3.87,33.26,3.26,50,1.66,3.87,8.83,8.09,17.5,7.89,27.57-.16,7.95-2.29,15.32-5.13,22.59-15.51,2.33-31,5.31-46.78,4.37-17.13-1-33.18-5.49-47.51-15.28,3.77-2.85,7.52-5.71,11.29-8.54a129.36,129.36,0,0,0,30.24-32.37Z" transform="translate(-24.17 -40.32)"/><path class="cls-10" d="M497.94,322.75c2.84-7.27,5-14.64,5.13-22.59.2-10.07-4-18.74-7.89-27.57a94.89,94.89,0,0,0,33.15-13.7c5-3.2,10.07-6.15,15.22-9a30.8,30.8,0,0,1,10-3.58c10.5-1.75,17.12,5.11,14.58,15.51-2.07,8.48-7.2,15.33-12.9,21.68-2.48,2.77-5.61,5-8,7.06,1.09,3.41,3.29,3.52,4.68,4.62,4.31,3.44,4.54,6.88.3,10.52a33,33,0,0,1-6.53,4.18A80.23,80.23,0,0,1,527,316.48c-9.64,2.22-19.34,4.19-29,6.27Z" transform="translate(-24.17 -40.32)"/><path class="cls-10" d="M197.42,179c-11.66,11.57-16.29,25.93-16.68,42-4.51-3.35-9.4-6.25-12.79-10.92-1.5-2.07-3.87-2.45-6.16-3.09-6.8-1.93-13.58-4-19.74-7.56-4.08-2.39-8-5-10.63-9.13-3.88-6.11-2.37-10.74,4.18-13.6,1.93-.84,4.24-.48,6.33-2.35-2.24-5.64-5.9-11-6.74-17.3-.34-2.56-1.19-5.09-1.26-7.65-.21-7.92,6.28-13.24,14-11.57a25.12,25.12,0,0,1,9.6,4.35c7,5.16,14,10.44,19.62,17.19,6.08,7.23,13.08,13.53,20.26,19.65Z" transform="translate(-24.17 -40.32)"/><path class="cls-10" d="M195.26,532.79a88.18,88.18,0,0,1-2.95-40.49c1-6.23,2-7,7.84-5.78,15.52,3.22,30.71,7.4,43.5,17.49a74.34,74.34,0,0,1-22.23,32.85c-8.53,7.42-19.09,5.41-26.16-4.07Z" transform="translate(-24.17 -40.32)"/><path class="cls-10" d="M46.62,355.16c15.64,10.59,27.7,24.15,34.62,41.94-10.66,6.76-21.83,12.12-34.78,12.52a29.94,29.94,0,0,1-8.42-.83c-10-2.58-14.13-8.67-12-18.88a60.34,60.34,0,0,1,9.18-21.33c3.28-4.87,6.63-9.75,11.37-13.42Z" transform="translate(-24.17 -40.32)"/><path class="cls-8" d="M294.24,89.67c7.89,8.33,6.75,18.71,5.86,28.68-1.26,14.2-5.38,27.6-13.41,39.67-2.94,4.41-6.56,7.28-11.81,8-3.74.33-7.48.78-11.22,1-3.51.17-7.09.46-10.29-1.53,2-2.29,4.15-4.49,6-6.89,15-19.1,20.24-41,18.06-64.86-.42-4.61-1.29-9.32-3.95-13.38,1.85-1.6,3.42-.26,5.09.43,5.6,2.29,10.37,6,15.64,8.88Z" transform="translate(-24.17 -40.32)"/><path class="cls-8" d="M273.51,80.36c2.66,4.06,3.53,8.77,3.95,13.38,2.17,23.85-3,45.76-18.06,64.86-1.89,2.4-4,4.6-6,6.88-2.77-.87-3.14-3.36-3.57-5.63-2.14-11-2.52-22,.34-33a176.76,176.76,0,0,1,7.68-24.27c3.58-8.53,8.48-16.22,15.69-22.24Z" transform="translate(-24.17 -40.32)"/><path class="cls-10" d="M289.8,213.89c4.89-2.7,8,1.58,11.88,3,1.15,6.29-1,12.19-2.7,18-2.91,10-6.66,19.66-13.18,27.92-1.88,2.39-3.44,6.17-7.74,4.71s-4.47-5-4.42-8.66c.16-11.38-1.83-22.49-4.32-33.53-1.2-5.35-4-10-5.84-15.12,6.51.89,13,1.8,19.54,2.67,1.54.21,3.16,1.34,4.61-.23l-.09-.07c.11,1.53,1.37,1.14,2.26,1.35Z" transform="translate(-24.17 -40.32)"/><path class="cls-10" d="M445.18,270.93a129.36,129.36,0,0,1-30.24,32.37c-3.77,2.83-7.52,5.69-11.28,8.54l-4.16-1.18c-1.65-1.84-1.88-3.8-.2-5.68,11.59-13,16.94-29,21.9-45.25,8.1,3.5,15.51,8.48,24,11.2Z" transform="translate(-24.17 -40.32)"/><path class="cls-10" d="M326.62,224c5.9-.3,10.74,3.15,16.07,4.75,20.43,6.15,40.67,12.91,61,19.51,2.37.77,5.2,1,6.32,3.92-1.55,5.22-6.21,7.1-10.5,8.45-14.47,4.55-29,5.68-43.33-1-7.9-3.71-14-9-18.05-17C334.87,236.06,330.49,230.14,326.62,224Z" transform="translate(-24.17 -40.32)"/><path class="cls-11" d="M376.38,311.37c-.1,7.2-7.82,13.81-15,12.82-6.16-.85-9.66-7.46-6.5-12.74a18.93,18.93,0,0,1,9.35-8.31C371.65,300.26,376.5,303.54,376.38,311.37Z" transform="translate(-24.17 -40.32)"/><path class="cls-11" d="M358.52,208.35c3.85-.09,7.43,1.24,11,2.34,23.38,7.25,46.4,15.56,69.28,24.26a14,14,0,0,1,4.34,2.28,5.21,5.21,0,0,1,1.61,5.76,4.48,4.48,0,0,1-4.73,3.48,26.75,26.75,0,0,1-5.59-.53c-13.33-3-26.25-7.37-39.18-11.7-12.05-4-24-8.25-36-12.38a34.49,34.49,0,0,1-3.34-1.13,6.47,6.47,0,0,1-4-7.4C352.62,210,354.66,208.43,358.52,208.35Z" transform="translate(-24.17 -40.32)"/><path class="cls-11" d="M335.31,198.53a7.86,7.86,0,0,1,7.4,7.83,7.4,7.4,0,0,1-7.46,6.89c-4.15-.15-7.75-3.92-7.42-7.79A7.52,7.52,0,0,1,335.31,198.53Z" transform="translate(-24.17 -40.32)"/><path class="cls-9" d="M474.19,95.39c5,2.92,6.76,8.13,8.66,13,8.31,21.29,9.28,43,3.65,65.16-4.84,19-12.83,36.39-25.46,51.5-.43.52-.74,1.29-2.08,1-.33-2.49,1.69-4,3-5.73,14.46-19.39,22.39-41.17,24.59-65.23,1.82-20-1.18-38.88-10.72-56.64-.55-1-1-2.14-1.43-3.21l-.17.14Z" transform="translate(-24.17 -40.32)"/><path class="cls-2" d="M273,85.8c2.07,0,2.4,1.31,2.66,2.31,6.41,24.43,2.64,47.13-11.92,67.87-2.26,3.22-5,6.11-11.27,6,4.88-6.19,10.38-10.33,13.22-16.5a102,102,0,0,0,6.62-19.34c1.57-6.67,3.07-13.34,2.51-20.24-.54-6.68-1.2-13.34-1.82-20.1Z" transform="translate(-24.17 -40.32)"/><path class="cls-2" d="M273.17,165.54c.1-.48.08-.86.21-.92,13.72-6.32,16.85-19.12,20-32.1,1.72-7.13.94-14.37,1.73-22.65a14.87,14.87,0,0,1,3.8,10.39,70.46,70.46,0,0,1-9.91,35.6c-3.39,5.65-8,10.53-15.8,9.68Z" transform="translate(-24.17 -40.32)"/><path class="cls-6" d="M377,157.45c.4-4.53,5-8.93,8.73-8.38,4.5.65,8.36,5.15,8,9.27-.43,4.43-5.62,8.84-9.79,8.34C380,166.19,376.64,161.74,377,157.45Z" transform="translate(-24.17 -40.32)"/><path class="cls-6" d="M420.76,171.82c0-4.79,3.2-8.75,7.08-8.74,4.24,0,8,3.47,7.88,7.29-.13,4.36-5.08,9.15-9.29,9-3.32-.13-5.66-3.24-5.67-7.53Z" transform="translate(-24.17 -40.32)"/><path class="cls-2" d="M265.62,106.35c-3,11.13-3,22.79-7.08,33.59C257.75,128.08,258.69,116.56,265.62,106.35Z" transform="translate(-24.17 -40.32)"/><path class="cls-7" d="M341.26,110.8c-7.49,2-9.31,1.47-11.18-2.75-2.06-4.67-.58-10.6,3.27-13.26,2-1.38,4.18-1.65,5.78.08,1.83,2,.38,3.93-1.17,5.5a10.35,10.35,0,0,1-2.3,1.59c-1.63.93-3.62,1.64-2.89,4.11a4.72,4.72,0,0,0,4.67,3.59c1.11,0,2.32-.33,3.82,1.14Zm-8.51-10.29c2.92,0,4.47-1,5.17-3.18.07-.23-.42-.92-.71-1C334.65,96.07,333.42,97.52,332.75,100.51Z" transform="translate(-24.17 -40.32)"/><path class="cls-12" d="M327.57,123.54c8.32,5.39,10.59,15.8,6.23,27.76-1.19-6.34-6.49-8.43-10.12-12.78,5.09-1.16,6.39,4.39,10.23,5,1.88-7.68-3.91-13-6.34-20Z" transform="translate(-24.17 -40.32)"/><path class="cls-8" d="M418.56,270.85c1.6,10.64-5.89,18.47-9.75,29.06,8.68-6.28,12.21-14.92,18.65-21-5.8,13.16-15,23.21-28.47,29.44,3.39-6.15,6.92-12.24,10.14-18.48s4.81-13.23,9.43-19Z" transform="translate(-24.17 -40.32)"/><path class="cls-8" d="M263.65,213.67a19.1,19.1,0,0,1,9.79,12.43,99.4,99.4,0,0,1,3.75,30c-.05,1.65.06,3.34-1.76,4.45-1.05-16.32-2.62-32.44-11.78-46.87Z" transform="translate(-24.17 -40.32)"/><path class="cls-8" d="M499,318.42c5.83-14.15,7.71-28.21-.23-43,4.85,2.91,7.59,7.84,8.34,15,1.1,10.53.1,22.09-8.11,28Z" transform="translate(-24.17 -40.32)"/><path class="cls-8" d="M506.45,274.13c12.05,7.65,14.14,29.39,3.94,39.52C516,299.77,513.46,286.78,506.45,274.13Z" transform="translate(-24.17 -40.32)"/><path class="cls-8" d="M281.17,263.09c-2.78-.15-1.22-1.72-.93-2.85,2.57-10,4.79-20.11,4.59-30.58-.07-3.88-2.13-7.61-.89-12.23,4.31,2.9,4.4,7,4.51,10.85.3,10.24-2.1,20.05-5.36,29.67-.61,1.78-1.33,3.52-2,5.28l.07-.14Z" transform="translate(-24.17 -40.32)"/><path class="cls-8" d="M194.48,180.63a81.44,81.44,0,0,0-9.58,17.12c-2.34,5.86-1.33,12.58-4.21,18.55-6.09-9.69.28-26.45,13.79-35.67Z" transform="translate(-24.17 -40.32)"/><path class="cls-8" d="M172.59,207.27c-4.85-11.23,1.24-24.72,15.71-34.36-3.28,6.52-8.45,10.35-10.9,16-2.52,5.86-3.05,12.17-4.81,18.32Z" transform="translate(-24.17 -40.32)"/><path class="cls-13" d="M370.64,303c-3.07,2.21-6.16,4.24-9,6.65-5.47,4.69-5.59,7.94-.58,13.09-6.22,1.88-8.44.39-8.34-5.44a11.52,11.52,0,0,1,1.48-5.36c2.7-5,9.68-9.09,16.4-8.94Z" transform="translate(-24.17 -40.32)"/><path class="cls-8" d="M334.24,232.11c13.76,9.73,28.24,17.64,45.81,22-7.46.31-13.35-1.32-20.12-4.31-7.39-3.26-13.67-8.61-21.6-10.93-2.66-.77-2.16-4.77-4.09-6.77Z" transform="translate(-24.17 -40.32)"/><path class="cls-8" d="M281.1,263.23c11.56-11.52,17.4-25.61,18.3-42.5,3,2.54,2.56,5.3,2.24,7.67-1.77,13-7.75,24-16.61,33.48a3.77,3.77,0,0,1-3.83,1.17,2,2,0,0,0-.1.18Z" transform="translate(-24.17 -40.32)"/><path class="cls-8" d="M374.12,263.83c-12.55-2.11-24.7-5.39-32.12-17.35C350.64,256,362.88,258.78,374.12,263.83Z" transform="translate(-24.17 -40.32)"/><path class="cls-6" d="M432.71,144.52c8.09-1.85,11.19.21,10.88,7.48C440.18,148.7,437.28,145.36,432.71,144.52Z" transform="translate(-24.17 -40.32)"/><path d="M347.4,148.75c-.07-4.73-1.71-9.21-1.56-15.37C349.08,139.29,350.43,143.86,347.4,148.75Z" transform="translate(-24.17 -40.32)"/><path class="cls-6" d="M376.36,136c5.29-7.55,7-7.92,13.21-3A19.37,19.37,0,0,0,376.36,136Z" transform="translate(-24.17 -40.32)"/><path class="cls-12" d="M383.36,181c9.38,18,18.38,19.35,33.21,7.57-2.71,6.9-10.31,11.86-17,11.09C390.78,198.62,385.4,192.57,383.36,181Z" transform="translate(-24.17 -40.32)"/><path class="cls-12" d="M404.81,183.49a11.21,11.21,0,0,1,2.15-1.67c4.25-1.93,5.59-5.27,5.36-9.75-.3-5.89-.23-11.81,1.94-17.43.73-1.91.91-4.17,3.52-5.76a86.63,86.63,0,0,0-2.65,25.48c.17,5.78-2.09,7.61-10.32,9.13Z" transform="translate(-24.17 -40.32)"/><path class="cls-12" d="M399.26,180.12c-1.1-.92-.57-2.11-.58-3.19a14.13,14.13,0,0,1,.8,2,3.11,3.11,0,0,1-.22,1.21Z" transform="translate(-24.17 -40.32)"/><path class="cls-2" d="M30.07,394.82c-.52-4.46,1.09-7.75,2.75-10.74,7.91-14.32,17.34-27.51,30.1-38A66.09,66.09,0,0,1,73.43,339c5.51-3,11.44-2,17.21-.64,4.91,1.15,9.09,3.92,13.07,6.85,10.93,8.06,22.4,8.59,34.68,3.33,8-3.43,16.27-6.26,24.43-9.3,4.71-1.76,9.49-3,14.41-.53,2.21-2.59.59-5.31,1.22-7.71,1-3.73,1.82-4.6,5.24-3.05,2.12,1,3.38,1.75,3.84-1.29,0-.16.33-.3.52-.43,1.72-1.16,3.24,3,4.76.35.9-1.56.95-3.61,1.45-5.41a1.65,1.65,0,0,1,.85-1c8-3,13-10,19.62-14.75,5.89-4.21,11.18-9.6,19.29-9.35,2,.07,2.14-1.5,1.59-3-.93-2.58-2-5.13-3.55-9.19,3.95,2.71,4.34,5.87,5.85,8.23.77,1.2,1.35,2.65,3.18,1.82s2.3-2.21,1.34-4-1.85-3.61-3.31-6.46c3.89,1.64,4.23,5.09,7,6.4,7.48-6.47,15.06-13,23.57-18.48-.13,2.34-1.51,3.7-3.09,5q-7.38,6-14.72,12.16c-4.8,4-4.78,4-2.32,9.94a24.36,24.36,0,0,1,.88,2.66c0,.15-.21.39-.49.86-.84-1.18-1.65-2.24-2.37-3.36-1-1.56-1.71-3.51-4.28-2.35-2.36,1.07-3.07,2.71-2.14,5.12.32.84.54,1.72,1,3.1-3.09-1.31-2.49-6.22-6.58-5.43-3,.58-6.16.55-8.91,2a55,55,0,0,0-7.16,4.53c-7,5.18-13.89,10.55-21,15.65-2.16,1.56-3.54,3.09-2.62,5.82.53,1.6.17,3.28-1.47,3.25-3.69,0-4.8,2.5-5.56,5.31-3-1-3.68-4.41-6.92-4.48-1.81,1.66-.78,3.79-.39,5.67.64,3.05-.64,5.11-3.48,4.63-14.86-2.55-26.7,6-39.43,10.77-13.66,5.07-26.09,5.24-38.06-3.66a51,51,0,0,0-15-7.76c-4-1.3-7.27-.54-10.68,1.56C58.4,352.35,46.61,367,35.93,382.63c-2.35,3.44-3.68,7.57-5.86,12.19Z" transform="translate(-24.17 -40.32)"/><path class="cls-2" d="M202.49,455.69c1.66,2.58,3,3.42,6,2.61,8.43-2.28,16.93-4.21,24.59-8.65,5-2.92,10-4,14.74.76.74.76,2.07.93,3.82,1.66-.08-3-1.82-4.68-2.75-6.65-1.56-3.33-.85-5.38,2.68-5.35,6.95,0,9.51-4.79,10.29-9.86,1.61-10.5,6.29-20.28,6.59-31.09,2.61,2.8,2.16,6,1.64,9.14-1.32,8.14-4.61,15.79-5.78,24-.59,4.14-4.94,6.57-6.27,10.76-.68,2.18-3.94-.59-5.8,1-.16,2.52,1.71,4.27,2.51,6.43.51,1.36,1.08,2.67-.17,3.92a3.73,3.73,0,0,1-4.52.95,37.64,37.64,0,0,1-6.15-3.43,6.27,6.27,0,0,0-7.22-.8,103.49,103.49,0,0,1-30.27,9.35c-2.64.41-3.51,1.93-3.87,4.24-3,19-8.33,37.73-8.57,57.2,0,3.2-.21,3.2-3.28,8.16-2.28-.94-2.62-3.18-3.35-5.11a63.44,63.44,0,0,1-3.31-31.23c1.89-14.64,7.77-28,12-41.87.68,4.1-.47,7.93-1.63,11.64a178.94,178.94,0,0,0-7.13,33.08c-1,9.05-.05,17.78,4.46,26.72a291.62,291.62,0,0,1,10.7-67.54Z" transform="translate(-24.17 -40.32)"/><path class="cls-2" d="M356.56,263.11c-.07,4.07-2.11,6.76-3.69,9.56C345.76,285.25,336.82,296.5,327,307c-23.16,24.64-48.47,46.78-76.88,65.22-2.18,1.41-4.17,4.08-7.48,2.64-.09-3.25,2.61-3.84,4.45-5.06a399.87,399.87,0,0,0,48-37.13c21.49-19.53,41.7-40.26,57.29-65,1-1.54,1.46-3.55,4.19-4.52Z" transform="translate(-24.17 -40.32)"/><path class="cls-2" d="M364,272.2c-13.53,28.19-34.57,50.53-57.39,71.26-17.73,16.11-44.24,33.37-52.17,34.86a82.09,82.09,0,0,1,14.48-10.9,293.19,293.19,0,0,0,64.86-56.19c10.07-11.6,19.5-23.56,27-37a26.46,26.46,0,0,1,2-2.82l1.15.75Z" transform="translate(-24.17 -40.32)"/><path class="cls-2" d="M25,392.45c-1.47-5.71-.81-9.72,1.48-13.34,5.54-8.75,10.9-17.66,17-26,5.66-7.74,14.21-12.08,22.65-16.39-3.35,4.71-8.81,7-12.91,10.92a59.4,59.4,0,0,0-11,13.67c-2.8,4.9-5.67,9.78-8.75,14.51S27.83,385.94,25,392.45Z" transform="translate(-24.17 -40.32)"/><path class="cls-2" d="M319.38,275.3c-11.6.84-22.9-.68-34.63-3.16,2.31,3.77,6.35,4.38,9.34,8.61-7-3.71-12.24-7.33-17.65-10.84s-12.63-3.33-18.21-7.27C278.47,267.58,298.69,272.54,319.38,275.3Z" transform="translate(-24.17 -40.32)"/><path class="cls-2" d="M327.5,368.79C318,379.45,305.66,383.2,292,383.52,304.16,379.55,316.81,376.68,327.5,368.79Z" transform="translate(-24.17 -40.32)"/><path class="cls-2" d="M273.7,387c-4.71,1.3-7.66.23-11.54-.06,3.3,4.2,7.88,4.92,11.12,7.53-6.92-.42-13.17-4.11-20.08-12.45C259.89,385.54,266.17,385.53,273.7,387Z" transform="translate(-24.17 -40.32)"/><path class="cls-2" d="M469.77,304.32c0-6.83-1.44-13.53-3.58-20.62C472.08,287,473.18,293.65,469.77,304.32Z" transform="translate(-24.17 -40.32)"/><path class="cls-2" d="M245.22,486.3c-7.77,1.82-12.12-3.11-16.37-8.25C234.45,480.46,239.64,483.7,245.22,486.3Z" transform="translate(-24.17 -40.32)"/><path class="cls-2" d="M233.61,229.05c1.59-5.31,1.52-10.94,3.55-16.1C240.68,219.29,236.94,224.17,233.61,229.05Z" transform="translate(-24.17 -40.32)"/><path class="cls-2" d="M479.59,295.72c-2.22-3.32-3.91-5.85-5.59-8.39-.54-.82-.95-1.83-.08-2.54,1.19-1,2.34-.05,3,.81A13.56,13.56,0,0,1,479.59,295.72Z" transform="translate(-24.17 -40.32)"/><path class="cls-2" d="M225.56,223.87c1.2-4.54,2.41-9.08,3.85-14.52C231.58,216.13,231.21,217.59,225.56,223.87Z" transform="translate(-24.17 -40.32)"/><path class="cls-2" d="M160.86,371.13c-5.38-3.4-6.85-9-8-14.83Z" transform="translate(-24.17 -40.32)"/><path class="cls-2" d="M276.74,449.37l7.62,3.18C281.16,453.2,278.49,452.5,276.74,449.37Z" transform="translate(-24.17 -40.32)"/><path class="cls-2" d="M278.46,442.68l9.26,4.55c-4.88.41-7.16-2.18-10.09-3.18C277.9,443.59,278.18,443.14,278.46,442.68Z" transform="translate(-24.17 -40.32)"/><path class="cls-2" d="M250.66,483c-3.73,0-5.78-1.39-8.63-4.11A14.53,14.53,0,0,1,250.66,483Z" transform="translate(-24.17 -40.32)"/><path class="cls-2" d="M234.59,473.38a4.51,4.51,0,0,1,2.62,1.76c-1.16,1.05-1.43-.36-2-.77C234.9,474.17,234.79,473.73,234.59,473.38Z" transform="translate(-24.17 -40.32)"/></g></svg>