<?xml version="1.0" encoding="UTF-8"?>
<!DOCTYPE svg PUBLIC "-//W3C//DTD SVG 1.1//EN" "http://www.w3.org/Graphics/SVG/1.1/DTD/svg11.dtd">
<!-- Creator: CorelDRAW 2021 (64-Bit) -->
<svg xmlns="http://www.w3.org/2000/svg" xml:space="preserve" width="103.555mm" height="65.644mm" version="1.1" style="shape-rendering:geometricPrecision; text-rendering:geometricPrecision; image-rendering:optimizeQuality; fill-rule:evenodd; clip-rule:evenodd"
viewBox="0 0 10355.5 6564.4"
 xmlns:xlink="http://www.w3.org/1999/xlink"
 xmlns:xodm="http://www.corel.com/coreldraw/odm/2003">
 <defs>
  <style type="text/css">
   <![CDATA[
    .fil15 {fill:black;fill-rule:nonzero}
    .fil12 {fill:#005DE5;fill-rule:nonzero}
    .fil13 {fill:#005DE5;fill-rule:nonzero}
    .fil14 {fill:#00CCFF;fill-rule:nonzero}
    .fil2 {fill:#060C3A;fill-rule:nonzero}
    .fil4 {fill:#151F2C;fill-rule:nonzero}
    .fil19 {fill:#23284D;fill-rule:nonzero}
    .fil20 {fill:#23284D;fill-rule:nonzero}
    .fil18 {fill:#2A4A7C;fill-rule:nonzero}
    .fil6 {fill:#384152;fill-rule:nonzero}
    .fil7 {fill:#3F4BA0;fill-rule:nonzero}
    .fil11 {fill:#7AA2DE;fill-rule:nonzero}
    .fil16 {fill:#7AA2DE;fill-rule:nonzero}
    .fil1 {fill:#C5EFFF;fill-rule:nonzero}
    .fil0 {fill:#C5EFFF;fill-rule:nonzero}
    .fil8 {fill:#DE6B4D;fill-rule:nonzero}
    .fil3 {fill:#E9E9E9;fill-rule:nonzero}
    .fil5 {fill:#EE805F;fill-rule:nonzero}
    .fil17 {fill:#FF5F57;fill-rule:nonzero}
    .fil9 {fill:#FF5F57;fill-rule:nonzero}
    .fil10 {fill:white;fill-rule:nonzero}
   ]]>
  </style>
 </defs>
 <g id="Layer_x0020_1">
  <metadata id="CorelCorpID_0Corel-Layer"/>
  <path class="fil0" d="M5185.82 1225.56c8.69,21.96 15.82,45.64 20.67,70.94 9.42,48.26 -0.28,124.41 -22.1,168.56 -2.28,4.75 -4.71,9.36 -7.13,13.97 -150.32,278.93 -544.13,223.47 -608.97,-91.26 -8.45,-41.16 -3.21,-101.07 11.49,-147.01 3.58,-10.59 7.39,-20.55 11.75,-28.98 20.07,-40.06 44.93,-73.59 73.29,-100.87 161.75,-155.36 432,-104.49 521,114.65zm-982.55 436.08l153.58 -17.3c12.79,-1.31 25.23,4.65 32.25,15.43 8.85,13.79 18.39,27.33 28.54,40.56 18.9,24.62 39.14,47.36 60.8,67.9 10.16,9.64 13.54,24.27 8.37,37.18l-58.9 150.38c-6.44,15.99 0.63,34.36 16.37,42.08l132.31 65.54c15.01,7.39 32.97,2.3 42.03,-11.67l80.04 -125.35c7.52,-12.37 22.47,-18.09 36.87,-14.26 60.81,16.05 123.99,22.34 187.31,18.65 15.26,-0.88 29.52,9.06 34.08,23.6l27.1 86.31c5.28,16.33 21.96,26.47 38.93,23.18l143.76 -29.05c2.99,-0.59 5.7,-1.42 8.27,-2.77 12.55,-5.93 20.11,-19.47 18.39,-33.66l-12.83 -114.72 -3.14 -27.96c23.96,-13.45 47.35,-28.88 69.74,-46.02 30.09,-23.09 57.47,-48.59 81.72,-75.7 9.27,-10.33 23.96,-14.05 36.79,-8.87l121.08 47.57c16.54,6.41 35.37,-0.75 43.07,-16.68l50.2 -101.16 14.26 -29.02c7.84,-15.8 2.57,-35.14 -12.41,-44.55l-104.53 -66.96c-12.27,-7.61 -18.4,-22.12 -14.83,-35.85 9.69,-41.29 15.25,-83.5 15.97,-125.73 0.28,-3.68 0.28,-7.06 0.28,-10.67 -0.14,-1.21 0.15,-2.39 0.29,-3.58 1.28,-13.53 10.69,-24.8 23.67,-28.85l140.05 -44.34c1.71,-0.38 3.28,-1.14 4.56,-1.79 13.69,-6.64 21.39,-21.95 18.54,-37.14l-28.81 -143.28c-3.42,-17.3 -19.53,-29.02 -37.22,-27.14l-160.15 18.1c-13.55,1.69 -26.53,-5.31 -32.95,-17.33 -14.54,-26.33 -31.23,-51.98 -50.2,-76.73 -10.12,-13.12 -20.53,-25.67 -31.51,-37.69 -8.85,-9.83 -11.41,-23.76 -6.56,-35.98l56.61 -144.57c6.28,-15.88 -0.71,-34.11 -16.25,-41.8l-130.92 -64.64c-15.83,-7.85 -34.94,-2.68 -44.64,12.39l-63.32 99.19c-8.56,13.3 -24.82,18.98 -39.65,14.02 -58.18,-20.17 -119.22,-30.97 -180.69,-32.46 -14.54,-0.12 -27.52,-9.74 -31.94,-23.79l-39.79 -126.24c-5.42,-16.94 -22.68,-27.04 -40.08,-23.69l-142.77 28.59c-17.17,3.4 -28.8,19.54 -26.71,36.66l0.69 6.7 14.89 133.28c1.59,14.28 -5.72,27.74 -18.47,34.37l-0.12 0.1c-30.64,15.82 -60.24,34.52 -88.6,56.28 -15.15,11.59 -29.35,23.79 -43.2,36.52 -9.48,8.97 -23.13,11.63 -35.25,6.91l-122.97 -48.31c-16.78,-6.66 -35.92,0.8 -43.79,16.84l-64.43 130.41c-1.84,3.74 -2.83,7.69 -3.33,11.48 -1.28,12.45 4.5,25.24 15.45,32.33l83.81 53.25c10.16,6.63 16.12,18.24 15.63,30.08 -0.18,3.11 -0.74,6.27 -1.72,9.4 -25.47,74.81 -35.7,153.8 -30.15,232.7 1.1,13.38 -6.35,25.87 -17.97,32.03 -1.67,0.85 -3.45,1.6 -5.29,2.18l-113.48 35.81c-16.43,5.18 -26.33,21.91 -23,38.94l0.61 3.33 27.94 139.69c3.68,17.56 19.94,29.32 37.72,27.34l0 0z"/>
  <path class="fil0" d="M9079.28 1123.76c-147.31,-297.13 -657.73,-93.71 -657.73,-93.71 0,0 -250.71,621.02 -352.82,654.89 -101.97,33.89 110.67,-572.8 110.67,-572.8 -206.79,20.66 -674.28,371.93 -674.28,371.93 0,0 160.16,634.66 52.91,642.36 -107.24,7.72 -113.09,-569.18 -113.09,-569.18 -184.54,97.89 -322.3,363.25 -322.3,363.25 -154.88,418.39 390.47,595.69 390.47,595.69 0,0 50.63,221.14 -36.08,503.57l0 0.01c0,0 -21.68,53.27 -37.22,139.6l53.48 -10.62c1.57,-15.23 3.56,-30.05 6.27,-44.43l0.14 -0.25 0.15 -0.63c1.99,-9 4.85,-21.8 8.55,-37.45l0 -0.13c10.13,-35.25 16.4,-61.08 19.97,-79.55l0.14 -0.17c28.95,-110.17 73.45,-255.08 115.09,-291.88 0,0 -7.56,-7.15 -16.26,-22.28 5.14,7.12 10.56,14.52 16.26,22.28 130.64,178.08 595.12,119.8 839.85,16.78 244.72,-103.02 119.22,-152.89 -41.36,-242.4 -160.72,-89.5 -442.38,-1.54 -536.51,-30.43 -94.12,-28.89 21.11,-99.39 193.81,-120.1 172.56,-20.7 291.5,132.49 571.45,104.08 279.95,-28.42 386.63,-586.85 386.63,-586.85 -177.99,96.58 -538.94,59.49 -565.04,-3.35 -26.1,-62.81 478.9,-156.34 553.63,-191.57 74.44,-35.23 180.69,-219.52 33.22,-516.66z"/>
  <path class="fil0" d="M657.53 3407.55c-59.99,-326.23 470.55,-469.24 470.55,-469.24 0,0 572.75,347 674.78,312.96 102.02,-34.04 -431.78,-392.3 -431.78,-392.3 177.88,-107.31 762.58,-106.19 762.58,-106.19 0,0 252.17,604.02 342.62,545.91 90.51,-58.12 -250.5,-523.43 -250.5,-523.43 206.37,-32.25 475.65,97.7 475.65,97.7 374.73,242.16 44.42,710.84 44.42,710.84 0,0 91.88,207.43 330.55,381.58l0 0c0,0 49.23,29.72 113.48,89.46l-49.23 23.51c-10.34,-11.26 -20.86,-21.9 -31.63,-31.76l-0.19 -0.18 -0.48 -0.43c-7.02,-6.03 -16.99,-14.52 -29.35,-24.8l-0.07 -0.06 -0.06 0c-29.11,-22.27 -49.66,-39.13 -63.62,-51.75l-0.13 -0.12c-89.23,-70.82 -211.73,-160.11 -267.11,-164.67 0,0 1.78,-10.27 -0.26,-27.62 0.07,8.8 0.19,18.02 0.26,27.62 2.15,220.79 -404.59,452.47 -662.28,516.64 -257.64,64.18 -187.06,-50.95 -112.12,-218.81 74.94,-167.92 353.21,-266.33 411.29,-345.88 58.02,-79.5 -76.42,-66.95 -227.12,20 -150.63,86.88 -154.02,280.7 -395.17,425.74 -241.14,145.04 -661.17,-238.13 -661.17,-238.13 200.35,-29.34 467.16,-275.36 450.36,-341.26 -16.74,-65.96 -477.13,161.76 -557.99,178.32 -80.79,16.5 -276.28,-67.44 -336.28,-393.66l0 0.01z"/>
  <path class="fil0" d="M9394.03 5501.37c261.12,-204.61 -41.64,-663.2 -41.64,-663.2 0,0 -658.87,-119.44 -712.78,-212.54 -53.91,-93.11 583.29,-7.89 583.29,-7.89 -62.18,-198.19 -500.86,-584.68 -500.86,-584.68 0,0 -588.99,285.45 -618.37,181.94 -29.23,-103.49 534.51,-226.12 534.51,-226.12 -133.34,-160.91 -421.13,-241.89 -421.13,-241.89 -441.1,-66.83 -504.14,503.03 -504.14,503.03 0,0 -206.21,94.52 -500.42,66.9l0 0c0,0 -56.62,-10.42 -144.19,-8.19l21.25 50.27c15.12,-1.6 30.09,-2.58 44.78,-2.89l0.86 0c9.27,0.18 22.39,0.42 38.36,0.92l0.29 0c36.36,2.64 63.03,3.62 81.86,3.38l0.14 0c113.8,6.04 264.69,20.31 309.18,53.6 0,0 5.42,-8.86 18.54,-20.48 -5.99,6.51 -12.12,13.35 -18.54,20.48 -147.88,163.99 3.43,606.96 153.88,825.71 150.46,218.81 173.85,85.78 229.04,-89.65 55.05,-175.37 -88.28,-433.44 -79.15,-531.46 9.27,-98.09 101.68,0.43 157.01,165.33 55.34,164.92 -70.59,312.35 13.98,580.75 84.57,268.41 653.02,259.61 653.02,259.61 -130.63,-154.75 -167.57,-515.77 -111.23,-554.03 56.19,-38.28 250.14,437.3 299.77,503.21 49.63,65.9 251.71,132.54 512.69,-72.11l0 0z"/>
  <path class="fil0" d="M7024.09 1661.04c0,0 30.52,-611.19 316.32,-994.37 13.97,-18.75 33.8,-27.18 53.48,-27.18 33.65,0 66.74,24.79 68.59,64.88 0.15,1.05 0.15,2.12 0.15,3.21 3.42,108.41 -313.04,588.53 -438.54,953.46l0 0z"/>
  <path class="fil0" d="M6998.28 1837.2c0,0 257.27,-779.05 762.98,-1150.57 12.97,-9.6 28.52,-14.34 43.78,-14.34 20.68,0 41.21,8.77 54.9,26.06 15.55,19.51 24.11,51.08 11.7,102.15 -32.95,136.17 -591.7,625.4 -873.36,1036.7z"/>
  <path class="fil0" d="M2621.13 2653.84c-233.78,-226.1 -654.78,-465.83 -693.6,-548.56 -0.38,-0.83 -0.74,-1.65 -1.11,-2.47 -18.1,-40.16 13.47,-81.04 51.92,-81.04 8.32,0 16.87,1.89 25.42,6.09 360.89,178.63 617.37,625.98 617.37,625.98l0 0z"/>
  <path class="fil0" d="M2707.82 2776.27c-368.7,-201.28 -975.24,-355.27 -1051.97,-444.95 -28.79,-33.64 -34.46,-60.59 -30.28,-81.17 5.74,-28.26 31.51,-47.37 59.63,-47.37 3.32,0 6.72,0.28 10.1,0.83 521.6,85.88 1012.52,572.66 1012.52,572.66z"/>
  <path class="fil1" d="M8284.22 1686.81l0 3880.52c0,67.87 -49.06,122.95 -109.39,122.95l-5598.74 0c-60.44,0 -109.41,-55.08 -109.41,-122.95l0 -3880.52c0,-67.93 48.97,-122.94 109.41,-122.94l5598.74 0c60.33,0 109.39,55.01 109.39,122.94z"/>
  <path class="fil2" d="M8007.55 1465.29l0 314.68 -6248.2 0 0 -314.68c0,-64.94 52.61,-117.54 117.52,-117.54l6013.02 0c64.89,0 117.66,52.6 117.66,117.54l0 0z"/>
  <path class="fil3" d="M1950.48 1563.87c0,-30.23 24.48,-54.72 54.7,-54.72 30.21,0 54.69,24.49 54.69,54.72 0,30.21 -24.48,54.72 -54.69,54.72 -30.22,0 -54.7,-24.51 -54.7,-54.72z"/>
  <path class="fil3" d="M2166.09 1563.87c0,-30.23 24.49,-54.72 54.69,-54.72 30.22,0 54.71,24.49 54.71,54.72 0,30.21 -24.49,54.72 -54.71,54.72 -30.2,0 -54.69,-24.51 -54.69,-54.72z"/>
  <path class="fil3" d="M2387.11 1563.87c0,-30.23 24.49,-54.72 54.71,-54.72 30.27,0 54.76,24.49 54.76,54.72 0,30.21 -24.49,54.72 -54.76,54.72 -30.22,0 -54.71,-24.51 -54.71,-54.72z"/>
  <path class="fil0" d="M6285.64 796.41c4.28,10.69 7.7,22.22 10.13,34.55 4.56,23.51 -0.14,60.59 -10.84,82.08 -1.14,2.32 -2.28,4.56 -3.42,6.81 -73.16,135.84 -264.98,108.83 -296.64,-44.43 -3.99,-20.05 -1.57,-49.23 5.71,-71.61 1.71,-5.15 3.56,-10 5.7,-14.12 9.7,-19.49 21.82,-35.82 35.66,-49.11 78.86,-75.66 210.35,-50.89 253.7,55.83zm-478.46 212.38l74.73 -8.43c6.27,-0.64 12.41,2.27 15.69,7.52 4.42,6.71 8.98,13.3 13.97,19.76 9.27,11.98 19.11,23.05 29.52,33.04 4.99,4.71 6.7,11.83 4.14,18.12l-28.67 73.24c-3.13,7.79 0.29,16.73 7.99,20.5l64.46 31.9c7.27,3.61 15.97,1.13 20.39,-5.66l38.94 -61.07c3.7,-6.02 10.98,-8.8 17.97,-6.94 29.66,7.83 60.47,10.88 91.27,9.09 7.42,-0.42 14.4,4.4 16.54,11.5l13.26 42.03c2.57,7.95 10.7,12.89 18.97,11.29l70.03 -14.16c1.42,-0.28 2.71,-0.68 3.99,-1.34 6.13,-2.88 9.84,-9.48 8.98,-16.39l-6.13 -55.87 -1.71 -13.62c11.69,-6.55 23.1,-14.06 33.94,-22.41 14.69,-11.25 28.1,-23.67 39.93,-36.88 4.57,-5.02 11.56,-6.83 17.83,-4.3l59.04 23.16c7.99,3.12 17.12,-0.37 20.97,-8.13l24.38 -49.26 6.99 -14.13c3.71,-7.71 1.28,-17.12 -5.99,-21.69l-51.05 -32.62c-5.99,-3.71 -8.85,-10.77 -7.14,-17.46 4.71,-20.1 7.42,-40.67 7.71,-61.24 0.28,-1.79 0.14,-3.42 0.14,-5.19 0,-0.58 0.14,-1.15 0.14,-1.74 0.72,-6.58 5.28,-12.07 11.55,-14.06l68.17 -21.59c0.86,-0.18 1.57,-0.54 2.28,-0.87 6.71,-3.24 10.42,-10.7 8.99,-18.08l-13.98 -69.78c-1.71,-8.43 -9.41,-14.13 -18.11,-13.22l-78.01 8.81c-6.56,0.83 -12.98,-2.58 -16.11,-8.44 -6.99,-12.82 -15.12,-25.3 -24.39,-37.37 -4.85,-6.37 -9.98,-12.49 -15.26,-18.35 -4.42,-4.78 -5.7,-11.57 -3.28,-17.53l27.52 -70.39c3.14,-7.75 -0.28,-16.62 -7.84,-20.37l-63.75 -31.47c-7.7,-3.84 -17.11,-1.31 -21.82,6.03l-30.8 48.3c-4.14,6.48 -12.12,9.25 -19.4,6.82 -28.24,-9.81 -57.9,-15.07 -87.99,-15.8 -6.99,-0.06 -13.26,-4.75 -15.4,-11.58l-19.54 -61.48c-2.57,-8.26 -10.98,-13.18 -19.4,-11.54l-69.59 13.92c-8.27,1.65 -13.98,9.51 -12.98,17.86l0.29 3.26 7.27 64.9c0.86,6.96 -2.71,13.52 -8.98,16.75l0 0.04c-14.98,7.72 -29.38,16.81 -43.22,27.42 -7.41,5.64 -14.26,11.58 -20.96,17.79 -4.71,4.36 -11.27,5.65 -17.26,3.35l-59.89 -23.52c-8.13,-3.23 -17.4,0.39 -21.25,8.2l-31.38 63.51c-0.85,1.82 -1.43,3.75 -1.71,5.59 -0.57,6.07 2.28,12.29 7.56,15.74l40.79 25.94c4.99,3.23 7.84,8.87 7.7,14.65 -0.14,1.51 -0.29,3.05 -0.86,4.58 -12.41,36.44 -17.4,74.9 -14.69,113.32 0.57,6.52 -3.14,12.61 -8.7,15.6 -0.85,0.41 -1.71,0.77 -2.56,1.07l-55.34 17.43c-7.98,2.52 -12.83,10.66 -11.12,18.97l0.28 1.62 13.55 68.03c1.86,8.55 9.7,14.29 18.4,13.32z"/>
  <path class="fil4" d="M1454.58 4519.73c0,0 8.3,-90.76 -93.17,-90.76 0,0 30.76,8.3 46.71,24.98 0,0 -64.73,-37.98 -135.19,20.42 -70.39,58.33 -26.65,204.78 -48.05,232.53 -21.43,27.83 -104.85,33.42 -94.64,123.26 10.21,89.89 264.7,202.5 248.34,276.83 0,0 99.75,-146.56 28.43,-213.51 0,0 34.76,32.79 38.27,71.68 0,0 9.49,-75.98 -38.89,-100.3 -42.82,-21.48 -77.84,-100.17 -74.14,-114.2 3.69,-14.09 122.33,-230.93 122.33,-230.93l0 0z"/>
  <path class="fil5" d="M1354.71 4955.75c0,0 75.74,313.63 150.2,376.34 44.74,37.65 177.71,124.1 177.71,124.1l-55.32 20.07c0,0 -184.49,-62.27 -225.77,-110.83 -41.29,-48.54 -154.32,-291.85 -154.32,-291.85l107.5 -117.83z"/>
  <path class="fil6" d="M642.27 5506.72c0.62,1.17 1.36,2.45 2.04,3.69 16.62,28.8 54.7,99.43 96.61,176.79 19.81,36.67 40.54,74.82 60.24,110.75 33.96,62.04 64.79,117.23 82.82,146.39 18.34,29.72 31.81,50.51 37.23,58.88l0.06 0.06c1.65,2.53 1.97,5.55 1.78,8.56 -1.91,26.21 -1.41,52.18 1.17,77.78 25.29,251.48 194.88,386.31 194.88,386.31l50.46 7.44c0,0 -71.38,-264.4 -92.36,-413.87 -3.58,-25.29 -5.12,-45.84 -3.88,-59.2 3.7,-38.95 -3.19,-96.11 -16.31,-161.77 -23.25,-116.67 -65.96,-259.79 -103.07,-374.43 -2.4,-7.31 -73.29,-263.84 -73.29,-263.84 -59.5,52.05 -276.64,73.53 -276.64,73.53 0,0 -36.81,89.46 38.26,222.93l0 0z"/>
  <path class="fil4" d="M1275.39 6547.18l-210.44 0c0,0 -5.05,-32.06 5.9,-56.42 10.53,-23.33 25.55,-24.06 1.91,-60.68 13.41,13.79 56.37,19.45 86.83,15.39 3.69,6.03 24,46.57 36.49,55.5 13.72,9.91 75.07,6.41 79.31,46.21l0 0z"/>
  <path class="fil4" d="M642.27 5506.72c0.62,1.17 1.36,2.45 2.04,3.69 16.62,28.8 106.32,194.51 148.23,271.79 -48.54,-199.8 -14.77,-399.6 -14.77,-399.6l-135.5 124.12z"/>
  <path class="fil4" d="M1425.83 4506.99c1.43,-5.53 -120.16,54.95 -126.31,61.78 -57.05,63.25 -40.8,145.76 -8.13,146.58 20.92,0.48 16.86,35.31 16.86,35.31l233.08 -98.63c0,0 -28.05,-163.69 -115.5,-145.04l0 0z"/>
  <path class="fil7" d="M1347.51 4908.67c0,0 35.51,70.9 31.07,128.37 0,0 -42.77,67.55 -153.7,84.6 0,0 95.38,-213.02 122.63,-212.97l0 0z"/>
  <path class="fil6" d="M806.32 5299.42l0.74 -39.32c-78.45,9.84 -270.43,-93.78 -270.43,-93.78 0,0 -82.03,54.57 -93.29,210.44 -5.47,76.05 -40.18,397.74 -43.99,493.8 -1.42,34.83 -1.86,59.69 -2.04,69.6l0 0.12c0,3 -1.47,5.71 -3.33,8.05 -16.24,20.68 -30.27,42.53 -42.45,65.18 -119.68,222.69 -57.1,525.18 -57.1,525.18l27.75 -7.02c0,0 101.23,-313.63 167.37,-449.31 11.19,-23.02 21.42,-40.93 29.91,-51.25 24.85,-30.23 51.14,-81.54 76.98,-143.26 48.84,-116.67 209.88,-588.43 209.88,-588.43l0 0z"/>
  <path class="fil4" d="M461.8 6547.18l-210.51 0c0,0 -5.04,-32.06 5.97,-56.42 10.53,-23.33 27.01,-33.97 23.08,-62.21 13.35,13.78 35.2,29.17 65.59,25.1 3.76,6.04 24.07,38.39 36.55,47.32 13.73,9.91 75.07,6.41 79.32,46.21l0 0z"/>
  <path class="fil2" d="M1210.66 5166.87c-28.31,4.79 4.62,27.33 -34.27,31.51 -55.32,6.03 -112.48,10.21 -142.39,22.09 -10.95,4.36 -18.22,9.78 -20.49,16.61 -12.99,39.01 -95.19,106.08 -95.19,106.08 -366.43,-16.67 -390.07,-180.04 -390.07,-180.04 237.83,-231 440.21,-356.9 607.46,-372.47 40.68,-3.81 95.57,1.3 121.28,12.75 58.46,26.02 90.52,105.27 90.52,105.27 0,0 -29.42,239.86 -136.85,258.2l0 0z"/>
  <path class="fil7" d="M1176.39 5198.38c-55.32,6.03 -112.48,10.21 -142.39,22.09 -12.25,-182.76 74.02,-320.23 74.02,-320.23 0,0 56.25,228.97 68.37,298.14l0 0z"/>
  <path class="fil5" d="M1253.86 4818.47c10.46,32.79 45.35,126.14 93.65,90.2 -1.6,-6.94 8.55,-27.25 20.49,-47.8 15.32,-26.28 33.53,-53.17 33.53,-53.17l-78.75 -69.04 -4.69 -4.12c-20.61,35.98 -40.85,53.28 -58.57,66.52 -5.42,4.05 -7.69,11.01 -5.66,17.41z"/>
  <path class="fil8" d="M1401.53 4807.7c0,0 -18.21,26.83 -33.53,53.17 -48.92,-30.22 -48.99,-90.77 -45.22,-122.21l78.75 69.04z"/>
  <path class="fil5" d="M1403.76 4842.29c0,0 -118.89,-66.16 -76.56,-139.56 42.34,-73.35 55.5,-131.32 133.16,-92.17 77.72,39.06 76.18,75.55 68,103.49 -8.19,27.87 -92.62,143.55 -124.6,128.24l0 0z"/>
  <path class="fil4" d="M1548.41 4671.22c-5.41,-32.61 -21.97,-35.69 -33.53,-33.54 -43.87,-72.6 -115.62,-44.24 -115.62,-44.24 -38.28,48.06 -93.72,56.25 -93.72,56.25 0,0 13.84,25.65 70.65,41.58 17.34,4.81 37.09,1.92 56.12,-4.49 -39.45,21.98 -80.68,30.41 -80.68,30.41 74.89,6.83 146.15,-61.67 153.52,-68.98 3.45,10.65 9.54,32.85 5.92,49.1 -4.94,22.09 -24.56,62.02 -12.56,67.2 0,0 58.08,-44.43 49.9,-93.29l0 0z"/>
  <polygon class="fil2" points="2619.4,6278.65 1732.41,5846.19 1845.81,5613.59 2732.81,6046 "/>
  <path class="fil2" d="M1455.01 5894.87c-81.48,-39.69 -139.32,-113.28 -158.76,-201.83 -7.88,-35.94 14.84,-71.45 50.77,-79.38 36,-7.88 71.5,14.84 79.44,50.77 10.64,48.55 42.33,88.85 86.94,110.63 80,39.02 176.79,5.6 215.8,-74.39 39.02,-79.99 5.66,-176.79 -74.33,-215.8 -36.37,-17.73 -77.65,-21.16 -116.42,-9.73 -35.27,10.42 -72.37,-9.71 -82.77,-45.03 -10.45,-35.31 9.73,-72.36 45.05,-82.83 70.69,-20.85 146.19,-14.58 212.54,17.8 146.08,71.17 206.99,247.97 135.74,394.05 -71.2,146.01 -247.99,206.93 -394,135.74l0 0z"/>
  <path class="fil2" d="M2709.79 6506.63c-146.08,-71.25 -207.01,-247.99 -135.74,-394.06 71.19,-146.08 247.97,-206.99 394,-135.74 66.33,32.3 117.84,87.88 144.9,156.47 13.54,34.29 -3.19,72.99 -37.46,86.52 -34.21,13.48 -72.92,-3.26 -86.47,-37.53 -14.82,-37.54 -43.01,-67.94 -79.38,-85.66 -79.99,-39.01 -176.78,-5.66 -215.78,74.34 -39.02,79.99 -5.66,176.85 74.33,215.8 44.61,21.77 95.86,21.9 140.67,0.42 33.22,-15.94 73.03,-1.91 88.91,31.26 15.92,33.18 1.96,72.98 -31.27,88.93 -81.71,39.18 -175.29,38.94 -256.71,-0.75z"/>
  <path class="fil9" d="M2413.57 6072.45l-467.27 -227.8c-13.37,-6.51 -19.03,-22.83 -12.51,-36.23l11.88 -24.38c6.59,-13.42 22.89,-19.01 36.25,-12.49l467.29 227.8c13.4,6.53 19.06,22.83 12.48,36.25l-11.87 24.36c-6.53,13.42 -22.83,19.02 -36.25,12.49z"/>
  <path class="fil5" d="M1335.69 5658.57c0,0 2.52,22.16 11.87,33.6 9.42,11.4 36.61,39.08 37.11,55.32 0,0 -1.35,7.15 -7.2,5.85 -5.85,-1.28 -26.15,-21.41 -36.55,-19.94 0,0 5.53,32.49 11.08,41.6 5.48,9.17 15.63,43.63 12.31,51.5 -3.33,7.89 -58.4,-38.02 -75.13,-60.48 -16.67,-22.46 -0.26,-113.54 -0.26,-113.54l46.77 6.09z"/>
  <path class="fil5" d="M1224.13 4869.3c0,0 -139.18,-7.58 -163.91,79.8 -24.68,87.33 46.39,436.08 61.78,472.08 27.86,65.54 163.73,252.59 163.73,252.59l49.96 -15.2c0,0 -90.63,-285.75 -110.81,-314 -31.75,-44.43 40.91,-437.25 -0.75,-475.27z"/>
  <path class="fil2" d="M1032.76 5065.89c0.37,2.09 131.75,24.19 213.89,-17.53 0,0 68.61,-214.94 -29.46,-204.66 -98.09,10.27 -156.12,41.16 -158.64,88.11 -2.46,46.96 -25.79,134.08 -25.79,134.08l0 0z"/>
  <path class="fil5" d="M1614.25 5316.39c-6.59,0.31 -18.71,2.46 -23.07,5.84 -7.58,5.85 -16.12,16.01 0.87,24.51 25.52,12.66 76.54,7.07 74.51,-0.63 -6.27,-24.05 -15.44,-31.43 -52.31,-29.72z"/>
  <path class="fil5" d="M3236.09 1894.01c-6.71,7.71 -7.58,16.29 -4.26,25.47l0.06 0.12c6.16,16.98 26.41,35.94 49.97,54.86 3.01,2.44 5.72,4.64 8.06,6.69 0.63,0.54 1.24,1.07 1.8,1.61l1.41 1.26c21.96,20.26 13.66,24.9 53.17,66 45.03,46.86 75.98,47.7 84.85,43.42 7.43,-3.63 -7.7,-28.48 -24.5,-56.4 -0.8,-1.34 -1.6,-2.71 -2.45,-4.08 -2.23,-3.71 -4.44,-7.47 -6.72,-11.21 -19.62,-33.6 -14.57,-49.37 -9.9,-99.38 3.75,-40.65 63.19,-227.07 63.19,-227.07l-86.26 -14.86c0,0 -25.97,148.44 -54.65,171.3 -15.26,12.2 -32.43,12.34 -47.13,21.37 -1.05,0.62 -2.03,1.28 -3.07,1.94 -8.37,5.54 -16.87,11.26 -23.57,18.96z"/>
  <path class="fil4" d="M3236.09 1894.01c-6.71,7.71 -7.58,16.29 -4.26,25.47l0.06 0.12c7.52,16.97 27.27,35.82 50.1,54.68 2.95,2.48 5.59,4.75 7.93,6.87 0.63,0.54 1.24,1.07 1.8,1.61l1.41 1.26c21.96,20.26 13.66,24.9 53.17,66 45.03,46.86 75.98,47.7 84.85,43.42 7.43,-3.63 -7.7,-28.48 -24.5,-56.4 -8.8,-3.21 -49.47,-19.75 -80.23,-59.13 -27.14,-34.59 -45.23,-79.05 -63.69,-104.8 -1.05,0.62 -2.03,1.28 -3.07,1.94 -8.37,5.54 -16.87,11.26 -23.57,18.96z"/>
  <path class="fil5" d="M3931.78 1840.13c5.35,26.63 43.31,22.19 85.71,11.83 42.4,-10.37 32.32,1.95 92.67,-4.74 60.37,-6.67 78.65,-29.18 80.49,-38.15 1.67,-7.97 -28.18,-10.78 -60.18,-14.46 -4,-0.45 -8.06,-0.95 -12.05,-1.45 -36.13,-4.54 -62.6,-27.84 -95.38,-46.98 -31.08,-18.14 -77.47,-92 -77.47,-92l-82.77 6.55c0,0 43.44,65.98 60.24,94.68 9.85,16.87 9.35,39.17 8.13,56.4 -0.69,9.36 -1.3,18.94 0.61,28.32z"/>
  <path class="fil4" d="M4017.49 1851.96c42.4,-10.37 32.31,1.95 92.67,-4.74 60.37,-6.67 78.65,-29.18 80.49,-38.15 1.67,-7.97 -28.18,-10.78 -60.18,-14.46l-0.25 0.62c0,0 -36.23,25.67 -86.45,26.86 -40.99,1 -84.37,-10.74 -112.61,-10.28 -0.68,9.36 -1.29,18.94 0.62,28.32 5.35,26.63 43.31,22.19 85.71,11.83z"/>
  <path class="fil4" d="M3614.51 1310.8l-77.34 208.24 -101.04 271.91c0,0 -27.44,2.64 -53.72,-4.92 -24.12,-6.99 -51.87,-25.26 -51.87,-25.26 0,0 28.05,-291.96 80.36,-459.54 13.42,-43.01 28.42,-77.81 45.04,-97.39 81.17,-95.88 158.57,106.96 158.57,106.96l0 0z"/>
  <path class="fil6" d="M3535.87 980.1c-50.7,-16.36 -195.31,4.63 -340.59,33.07l-30.39 -50.18 -313.76 -24.5c0,0 -103.55,229.6 -46.82,375.89 8.3,21.5 24.86,35.3 53.1,35.75l4.56 0c0,0 186.75,-0.11 247.36,-0.11 156.05,0 330.25,-107.26 352.77,-111.75 36.85,-7.39 51.62,66.37 88.49,143.83 36.91,77.44 346.73,343 346.73,343 0,0 47.57,0.47 67.26,-6.91 21.16,-7.92 28.92,-18.23 28.92,-18.23 0,0 -343.3,-683 -457.63,-719.86l0 0z"/>
  <path class="fil4" d="M3060.9 7.86c-43.94,-11.31 -104.12,-0.04 -114.08,0.94 -119.38,11.75 -159.49,144.92 -141.41,248.25 16.61,95.34 -31.75,121.72 -87.74,197.03 -112.43,151.01 -38.96,278.34 49.72,311.17 53.22,19.69 127.07,-29.99 127.07,-29.99 1.35,0.52 232.1,-151.2 326.74,-236.74 157.51,-61.64 -48.25,-461.84 -160.3,-490.66l0 0z"/>
  <path class="fil5" d="M3078.57 444.63c3.12,11.05 -49.12,31.36 -88.99,23.88 -37.46,-6.98 -79.49,-50.89 -70.82,-55.01 14.35,-6.82 24,-23.78 16.13,-115.48l7.13 0.81 119.99 13.71c0,0 0.37,37.36 3.14,72.37 2.34,29.4 8.3,41.69 13.42,59.72z"/>
  <path class="fil8" d="M3062.01 312.54c0,0 0.37,37.36 3.14,72.37 -66.22,3.56 -106.09,-53.85 -123.13,-86.08l119.99 13.71z"/>
  <path class="fil5" d="M3086.81 343.86c0,0 -156.11,15.4 -164.17,-81.96 -8.13,-97.36 -33.73,-160.96 65.59,-174.9 99.31,-13.94 121.84,21.6 132.43,53.43 10.58,31.85 6.51,196.91 -33.85,203.43l0 0z"/>
  <path class="fil4" d="M3070.07 71.64c0,0 -19.62,118.94 -108.54,147.16 -64.86,20.59 -94.27,7.02 -94.27,7.02 0,0 31.26,-41.42 42.33,-98.96 3.26,-16.96 15.31,-30.92 31.76,-36.33 46.08,-15.16 101.95,-56.61 128.72,-18.89l0 0z"/>
  <path class="fil4" d="M3040.65 97.01c0,0 29.42,6.56 55.52,44.52 14.2,20.74 30.76,73.04 27.92,96.18 0,0 27.33,-110.07 -12.55,-151.03 -42.21,-43.42 -70.89,10.33 -70.89,10.33l0 0z"/>
  <path class="fil2" d="M2797.48 764.46c2.77,11.83 5.16,22.69 7.07,32.73 3.2,16.2 5.35,30.15 6.89,42.47 4.81,38.41 3.4,61.16 6.59,86.04 1.78,13.91 5.05,28.51 11.7,46.84 6.46,17.84 176.04,33.73 272.58,27.32 30.65,-1.98 53.97,-6.3 62.27,-13.46 34.47,-29.89 31.02,35.87 35.75,-278.81 2.28,-153.49 -130.26,-290.19 -130.26,-290.19 0,0 -10.58,65.56 -142.01,-12.48 -4.68,-2.73 -56.44,73.92 -106.28,168.3 -54.89,104.27 -39.82,126.31 -24.3,191.24z"/>
  <path class="fil6" d="M3537.17 1519.04l-101.04 271.91c0,0 -27.44,2.64 -53.72,-4.92 -24.12,-6.99 -51.87,-25.26 -51.87,-25.26 0,0 28.05,-291.96 80.36,-459.54l126.27 217.81z"/>
  <path class="fil2" d="M3070.07 417.37c0,0 135.25,22.94 151.13,81.15 15.87,58.23 125.58,383.89 125.58,383.89 0,0 -84.98,28.99 -116.78,-2.76 -31.76,-31.76 -110.52,-294.68 -110.52,-294.68l-49.41 -167.59 0 -0.01z"/>
  <path class="fil10" d="M3050.8 286.44c0,0 6.54,16.02 23.82,16.02 17.29,0 21.98,-2.58 25.23,-6.25 3.26,-3.65 6.53,-10.71 6.53,-10.71 0,0 -28.68,-5.66 -55.58,0.94z"/>
  <path class="fil7" d="M2811.44 839.66c4.81,38.41 3.4,61.16 6.59,86.04 122.82,0.4 287,-94.82 287,-94.82l-293.59 8.78z"/>
  <path class="fil7" d="M3105.03 750.33c0,0 -191.32,-5.69 -223.56,-114.42 -35.44,-119.45 -75.13,49.12 -75.13,49.12l21.1 107.6 209.9 0 67.69 -42.3z"/>
  <path class="fil9" d="M3438.47 455.31l-10.34 -25.6c-11.07,-27.45 -37.72,-45.42 -67.31,-45.42l-190.71 0 0 637.59 788.87 0 0 -516.59 -446.43 0c-32.55,0 -61.9,-19.78 -74.08,-49.98z"/>
  <polygon class="fil10" points="3289.12,772.01 3289.12,726.04 3450.27,655.44 3450.27,702.4 3337.74,748.71 3450.27,795 3450.27,842.62 "/>
  <polygon class="fil10" points="3617.84,600.49 3660.79,600.49 3513.22,908.9 3470.28,908.9 "/>
  <polygon class="fil10" points="3839.96,726.04 3839.96,772.01 3678.76,842.62 3678.76,795.67 3791.36,749.36 3678.76,703.07 3678.76,655.44 "/>
  <path class="fil5" d="M3104.95 775.55l13.85 -21.72c0,0 10.95,-3.57 26.34,-14.37 18.27,-12.82 15.87,-32.04 24.97,-30l0.13 42.23 -0.98 0.14c39.2,10.47 85.04,-0.91 85.96,8.86 2.53,26.85 -18.28,38.93 -35.69,47.34 -13.29,6.43 -28.42,16.09 -52.48,8.6 -17.6,-5.47 -45.3,-11.04 -45.3,-11.04l-16.8 -30.04z"/>
  <path class="fil2" d="M2928.06 404.95c0,0 -124.18,8.13 -155.25,56.55 -31.02,48.43 -69.54,294.31 -53.35,378.76 16.11,84.44 413.74,-16.14 413.74,-16.14l-12.67 -73.27c0,0 -229.47,1.34 -242.56,-28.55 -17.36,-39.75 50.09,-317.35 50.09,-317.35z"/>
  <path class="fil5" d="M3527.44 505.01c-1.04,3.22 18.71,35.75 46.89,30.1 17.6,-3.53 40.43,-41.38 20.37,-49.72 -33.53,-13.92 -64.42,11.02 -67.26,19.62z"/>
  <polygon class="fil4" points="4741.56,2212.92 4737.37,2210.71 5198.37,1346.64 5202.5,1348.86 "/>
  <polygon class="fil4" points="6887.33,1908.67 6368.93,1349.36 6372.49,1346.15 6890.89,1905.47 "/>
  <path class="fil11" d="M7211.34 2070.33c7.7,56.01 -7.7,110.02 -38.79,151.91 -30.95,41.88 -77.44,71.62 -132.2,79.13l-2317.87 318.47c-118.27,16.26 -227.67,-62.11 -243.05,-174.14 -7.69,-56.02 9.48,-110.27 43.44,-152.54 33.84,-42.29 84.48,-72.58 143.68,-80.71l2317.9 -318.47c109.38,-15.04 211.49,64.31 226.89,176.35l0 0z"/>
  <path class="fil12" d="M7211.34 2070.33c7.7,56.01 -7.7,110.02 -38.79,151.91 -30.95,41.88 -77.44,71.62 -132.2,79.13l-419.42 57.63 -56.05 -407.39 419.57 -57.63c109.38,-15.04 211.49,64.31 226.89,176.35l0 0z"/>
  <path class="fil10" d="M6880.34 2014.44c-34.51,33.72 -35.08,89.26 -1.43,123.77 16.4,16.73 38.22,26.08 61.61,26.37 23.25,0.26 45.5,-8.59 62.18,-24.93 34.51,-33.73 35.08,-89.25 1.43,-123.77 -33.66,-34.53 -89.28,-35.17 -123.79,-1.44zm75.73 166.41c-5.28,0.7 -10.42,1.04 -15.69,0.98 -28.1,-0.32 -54.34,-11.53 -73.87,-31.56 -40.36,-41.31 -39.51,-107.8 1.71,-148.17 41.36,-40.39 107.81,-39.62 148.17,1.71 40.5,41.33 39.65,107.82 -1.57,148.19 -16.26,15.86 -36.65,25.81 -58.75,28.85l0 0z"/>
  <polygon class="fil10" points="6776.52,2250.36 6764.39,2238.01 6866.79,2138.08 6878.77,2150.42 "/>
  <path class="fil10" d="M6734.87 2278.93l0 0c-5.99,-6.09 -5.84,-15.85 0.29,-21.8l60.18 -58.85c6.13,-5.96 15.83,-5.85 21.82,0.26 5.99,6.07 5.85,15.82 -0.14,21.77l-60.33 58.87c-6.13,5.95 -15.83,5.84 -21.82,-0.25z"/>
  <path class="fil13" d="M3318.97 4283.93l-484.2 0c-10.09,0 -18.28,-8.13 -18.28,-18.21l0 -7.7c0,-10.09 8.19,-18.27 18.28,-18.27l484.2 0c10.08,0 18.27,8.18 18.27,18.27l0 7.7c0,10.08 -8.19,18.21 -18.27,18.21z"/>
  <path class="fil4" d="M3070.5 4435.85l-238.94 0c-8.29,0 -15.07,-6.7 -15.07,-15.07 0,-8.31 6.78,-15.07 15.07,-15.07l238.94 0c8.31,0 15.07,6.76 15.07,15.07 0,8.37 -6.76,15.07 -15.07,15.07z"/>
  <path class="fil4" d="M3253.44 4372.66l-422.92 0c-7.75,0 -14.03,-6.33 -14.03,-14.03l0 -2.1c0,-7.74 6.28,-14.02 14.03,-14.02l422.92 0c7.75,0 14.02,6.28 14.02,14.02l0 2.1c0,7.7 -6.27,14.03 -14.02,14.03z"/>
  <path class="fil4" d="M3716.18 4372.66l-394.01 0c-7.5,0 -13.6,-6.09 -13.6,-13.6l0 -3.01c0,-7.52 6.1,-13.54 13.6,-13.54l394.01 0c7.5,0 13.53,6.02 13.53,13.54l0 3.01c0,7.51 -6.03,13.6 -13.53,13.6z"/>
  <path class="fil4" d="M3368.5 4435.85l-238.93 0c-8.3,0 -15.08,-6.7 -15.08,-15.07 0,-8.31 6.78,-15.07 15.08,-15.07l238.93 0c8.32,0 15.08,6.76 15.08,15.07 0,8.37 -6.76,15.07 -15.08,15.07z"/>
  <path class="fil13" d="M3908.65 4283.93l-484.27 0c-10.03,0 -18.21,-8.13 -18.21,-18.21l0 -7.7c0,-10.09 8.18,-18.27 18.21,-18.27l484.27 0c10.08,0 18.27,8.18 18.27,18.27l0 7.7c0,10.08 -8.19,18.21 -18.27,18.21z"/>
  <path class="fil13" d="M3318.97 4616.57l-484.2 0c-10.09,0 -18.28,-8.11 -18.28,-18.21l0 -7.69c0,-10.09 8.19,-18.26 18.28,-18.26l484.2 0c10.08,0 18.27,8.17 18.27,18.26l0 7.69c0,10.1 -8.19,18.21 -18.27,18.21z"/>
  <path class="fil4" d="M3070.5 4768.5l-238.94 0c-8.29,0 -15.07,-6.7 -15.07,-15.08 0,-8.3 6.78,-15.07 15.07,-15.07l238.94 0c8.31,0 15.07,6.77 15.07,15.07 0,8.38 -6.76,15.08 -15.07,15.08z"/>
  <path class="fil4" d="M3253.44 4705.31l-422.92 0c-7.75,0 -14.03,-6.28 -14.03,-14.04l0 -2.08c0,-7.76 6.28,-14.03 14.03,-14.03l422.92 0c7.75,0 14.02,6.27 14.02,14.03l0 2.08c0,7.76 -6.27,14.04 -14.02,14.04z"/>
  <path class="fil4" d="M3716.18 4705.31l-394.01 0c-7.5,0 -13.6,-6.09 -13.6,-13.59l0 -3.03c0,-7.5 6.1,-13.53 13.6,-13.53l394.01 0c7.5,0 13.53,6.03 13.53,13.53l0 3.03c0,7.5 -6.03,13.59 -13.53,13.59z"/>
  <path class="fil4" d="M3368.5 4768.5l-238.93 0c-8.3,0 -15.08,-6.7 -15.08,-15.08 0,-8.3 6.78,-15.07 15.08,-15.07l238.93 0c8.32,0 15.08,6.77 15.08,15.07 0,8.38 -6.76,15.08 -15.08,15.08z"/>
  <path class="fil13" d="M3908.65 4616.57l-484.27 0c-10.03,0 -18.21,-8.11 -18.21,-18.21l0 -7.69c0,-10.09 8.18,-18.26 18.21,-18.26l484.27 0c10.08,0 18.27,8.17 18.27,18.26l0 7.69c0,10.1 -8.19,18.21 -18.27,18.21z"/>
  <polygon class="fil6" points="5835.99,2594.76 5559.46,2659.13 5422.69,2907.97 5318.3,2340.85 "/>
  <polygon class="fil6" points="5721.04,2837.61 5680.68,2868.14 5504.13,2635.01 5544.34,2604.48 "/>
  <path class="fil14" d="M5655.01 3767.04l-680.12 0c-27.52,0 -49.91,-22.33 -49.91,-49.84l0 -680.07c0,-27.51 22.39,-49.82 49.91,-49.82l680.12 0c27.38,0 49.77,22.31 49.77,49.82l0 680.07c0,27.51 -22.39,49.84 -49.77,49.84z"/>
  <path class="fil9" d="M5024.66 3603.92l151.6 -273.13c17.54,-31.8 62.18,-34.62 83.71,-5.29l87.43 119.2c18.54,25.36 55.76,27.36 76.86,4.16 22.11,-24.07 60.9,-20.83 78.58,6.55l94.41 145.62c21.4,33.17 -2.42,76.92 -41.92,76.92l-487.03 0c-38.08,0 -62.03,-40.8 -43.64,-74.03l0 0z"/>
  <path class="fil9" d="M5323.72 3203.13c0,-32.92 26.67,-59.62 59.61,-59.62 32.95,0 59.62,26.7 59.62,59.62 0,32.91 -26.67,59.59 -59.62,59.59 -32.94,0 -59.61,-26.68 -59.61,-59.59z"/>
  <path class="fil14" d="M6652.44 3788.04l-673.7 91.93c-27.38,3.69 -52.48,-15.39 -56.19,-42.65l-91.98 -673.83c-3.71,-27.28 15.4,-52.41 42.64,-56.13l673.84 -91.91c27.24,-3.71 52.48,15.37 56.19,42.65l91.85 673.82c3.7,27.25 -15.41,52.42 -42.65,56.12z"/>
  <path class="fil9" d="M6005.98 3711.61l113.23 -291.12c13.13,-33.88 56.91,-42.71 82.15,-16.55l102.82 106.27c21.82,22.65 58.9,19.63 76.73,-6.27 18.54,-26.81 57.62,-28.85 78.72,-4.12l113.24 131.54c25.67,29.92 7.98,76.5 -31.09,81.85l-482.6 65.84c-37.65,5.17 -67.03,-32.06 -53.2,-67.44l0 0z"/>
  <path class="fil9" d="M6247.99 3274.08c-4.42,-32.63 18.4,-62.67 51.06,-67.12 32.66,-4.45 62.61,18.38 67.17,51 4.42,32.62 -18.4,62.66 -51.06,67.11 -32.65,4.45 -62.6,-18.38 -67.17,-50.99z"/>
  <polygon class="fil2" points="4278.27,6533.77 4671.22,6533.77 4671.22,6196.88 4278.27,6196.88 "/>
  <polygon class="fil6" points="4262.4,6208.44 4684.51,6208.44 4684.51,6182.42 4262.4,6182.42 "/>
  <polygon class="fil9" points="4278.27,6395.01 4671.22,6395.01 4671.22,6288 4278.27,6288 "/>
  <path class="fil2" d="M5149.31 6534.01l-371.08 0c-13.55,0 -24.55,-11 -24.55,-24.61l0 -41.17c0,-14.65 12.71,-26.03 27.26,-24.42l371.07 41.16c12.41,1.36 21.83,11.94 21.83,24.43 0,13.61 -10.99,24.61 -24.53,24.61z"/>
  <path class="fil15" d="M10339.12 6567.3l-10330.39 -3.56c-6.96,0 -12.61,-5.67 -12.61,-12.57l0 -6.45c0,-6.95 5.72,-12.62 12.61,-12.62l10330.39 3.57c6.85,0 12.55,5.66 12.55,12.62l0 6.46c0,6.89 -5.7,12.55 -12.55,12.55z"/>
  <path class="fil4" d="M3103.85 2855.59l-42.52 0c-3.88,0 -7.02,-3.15 -7.02,-7.03 0,-3.88 3.14,-7.01 7.02,-7.01l42.52 0c3.87,0 7.01,3.13 7.01,7.01 0,3.88 -3.14,7.03 -7.01,7.03zm84.92 0l-42.46 0c-3.88,0 -7.07,-3.15 -7.07,-7.03 0,-3.88 3.19,-7.01 7.07,-7.01l42.46 0c3.87,0 7.01,3.13 7.01,7.01 0,3.88 -3.14,7.03 -7.01,7.03zm84.91 0l-42.46 0c-3.88,0 -7.01,-3.15 -7.01,-7.03 0,-3.88 3.13,-7.01 7.01,-7.01l42.46 0c3.88,0 7.09,3.13 7.09,7.01 0,3.88 -3.21,7.03 -7.09,7.03zm84.98 0l-42.51 0c-3.88,0 -7.03,-3.15 -7.03,-7.03 0,-3.88 3.15,-7.01 7.03,-7.01l42.51 0c3.88,0 7.02,3.13 7.02,7.01 0,3.88 -3.14,7.03 -7.02,7.03zm84.91 0l-42.45 0c-3.88,0 -7.02,-3.15 -7.02,-7.03 0,-3.88 3.14,-7.01 7.02,-7.01l42.45 0c3.88,0 7.02,3.13 7.02,7.01 0,3.88 -3.14,7.03 -7.02,7.03zm84.91 0l-42.45 0c-3.87,0 -7,-3.15 -7,-7.03 0,-3.88 3.13,-7.01 7,-7.01l42.45 0c3.95,0 7.08,3.13 7.08,7.01 0,3.88 -3.13,7.03 -7.08,7.03zm84.99 0l-42.46 0c-3.88,0 -7.07,-3.15 -7.07,-7.03 0,-3.88 3.19,-7.01 7.07,-7.01l42.46 0c3.88,0 7.01,3.13 7.01,7.01 0,3.88 -3.13,7.03 -7.01,7.03zm84.91 0l-42.46 0c-3.88,0 -7,-3.15 -7,-7.03 0,-3.88 3.12,-7.01 7,-7.01l42.46 0c3.88,0 7.09,3.13 7.09,7.01 0,3.88 -3.21,7.03 -7.09,7.03zm84.98 0l-42.51 0c-3.88,0 -7.03,-3.15 -7.03,-7.03 0,-3.88 3.15,-7.01 7.03,-7.01l42.51 0c3.88,0 7.02,3.13 7.02,7.01 0,3.88 -3.14,7.03 -7.02,7.03zm84.91 0l-42.45 0c-3.88,0 -7.02,-3.15 -7.02,-7.03 0,-3.88 3.14,-7.01 7.02,-7.01l42.45 0c3.88,0 7.02,3.13 7.02,7.01 0,3.88 -3.14,7.03 -7.02,7.03zm84.91 0l-42.45 0c-3.87,0 -7,-3.15 -7,-7.03 0,-3.88 3.13,-7.01 7,-7.01l42.45 0c3.96,0 7.09,3.13 7.09,7.01 0,3.88 -3.13,7.03 -7.09,7.03zm84.99 0l-42.46 0c-3.88,0 -7.07,-3.15 -7.07,-7.03 0,-3.88 3.19,-7.01 7.07,-7.01l42.46 0c3.88,0 7.01,3.13 7.01,7.01 0,3.88 -3.13,7.03 -7.01,7.03zm84.91 0l-42.46 0c-3.86,0 -7,-3.15 -7,-7.03 0,-3.88 3.14,-7.01 7,-7.01l42.46 0c3.88,0 7.03,3.13 7.03,7.01 0,3.88 -3.15,7.03 -7.03,7.03zm84.98 0l-42.51 0c-3.88,0 -7.02,-3.15 -7.02,-7.03 0,-3.88 3.14,-7.01 7.02,-7.01l42.51 0c3.88,0 7.02,3.13 7.02,7.01 0,3.88 -3.14,7.03 -7.02,7.03zm84.91 0l-42.45 0c-3.88,0 -7.02,-3.15 -7.02,-7.03 0,-3.88 3.14,-7.01 7.02,-7.01l42.45 0c3.88,0 7.02,3.13 7.02,7.01 0,3.88 -3.14,7.03 -7.02,7.03zm84.93 0l-42.46 0c-3.88,0 -7.01,-3.15 -7.01,-7.03 0,-3.88 3.13,-7.01 7.01,-7.01l42.46 0c3.86,0 7.07,3.13 7.07,7.01 0,3.88 -3.21,7.03 -7.07,7.03zm84.97 0l-42.46 0c-3.88,0 -7.07,-3.15 -7.07,-7.03 0,-3.88 3.19,-7.01 7.07,-7.01l42.46 0c3.88,0 7.02,3.13 7.02,7.01 0,3.88 -3.14,7.03 -7.02,7.03zm-1483.99 12.28c-2.22,0 -4.43,-1.08 -5.79,-3.09 -2.21,-3.21 -1.35,-7.59 1.86,-9.76 12.98,-8.8 28.18,-13.46 43.92,-13.47l0 0c3.88,0 7.02,3.12 7.02,7 0.06,3.89 -3.14,7.03 -7.02,7.04 -12.92,0.03 -25.35,3.85 -36.06,11.07 -1.16,0.81 -2.59,1.21 -3.93,1.21zm1565.65 2.53c-1.54,0 -3.01,-0.47 -4.31,-1.46 -10.21,-7.86 -22.46,-12.43 -35.33,-13.22 -3.86,-0.24 -6.83,-3.58 -6.57,-7.46 0.24,-3.86 3.62,-6.87 7.45,-6.57 15.68,0.95 30.57,6.53 43.01,16.1 3.08,2.37 3.69,6.77 1.28,9.85 -1.35,1.82 -3.44,2.76 -5.53,2.76zm-1597.22 71.77c-3.88,0 -7.02,-3.15 -7.02,-7.03l0 -14.84c0,-10.23 1.91,-20.18 5.72,-29.6 1.48,-3.59 5.55,-5.33 9.17,-3.86 3.58,1.45 5.36,5.55 3.88,9.15 -3.14,7.72 -4.73,15.89 -4.73,24.31l0 14.84c0,3.88 -3.14,7.03 -7.02,7.03zm1625.27 4.32c-3.86,0 -7,-3.15 -7,-7.03l0 -19.16c0,-7.08 -1.17,-14.02 -3.4,-20.65 -1.22,-3.68 0.74,-7.68 4.44,-8.9 3.69,-1.26 7.63,0.73 8.93,4.42 2.69,8.07 4.05,16.53 4.05,25.13l0 19.16c0,3.88 -3.14,7.03 -7.02,7.03zm-1625.27 80.62c-3.88,0 -7.02,-3.15 -7.02,-7.03l0 -42.47c0,-3.88 3.14,-7.03 7.02,-7.03 3.88,0 7.02,3.15 7.02,7.03l0 42.47c0,3.88 -3.14,7.03 -7.02,7.03zm1625.27 4.33c-3.86,0 -7,-3.16 -7,-7.05l0 -42.46c0,-3.89 3.14,-7.03 7,-7.03 3.88,0 7.02,3.14 7.02,7.03l0 42.46c0,3.89 -3.14,7.05 -7.02,7.05zm-1625.27 80.62c-3.88,0 -7.02,-3.16 -7.02,-7.04l0 -42.48c0,-3.88 3.14,-7.02 7.02,-7.02 3.88,0 7.02,3.14 7.02,7.02l0 42.48c0,3.88 -3.14,7.04 -7.02,7.04zm1625.27 4.31c-3.86,0 -7,-3.15 -7,-7.03l0 -42.47c0,-3.89 3.14,-7.03 7,-7.03 3.88,0 7.02,3.14 7.02,7.03l0 42.47c0,3.88 -3.14,7.03 -7.02,7.03zm-1625.27 80.62c-3.88,0 -7.02,-3.15 -7.02,-7.04l0 -42.46c0,-3.88 3.14,-7.04 7.02,-7.04 3.88,0 7.02,3.16 7.02,7.04l0 42.46c0,3.89 -3.14,7.04 -7.02,7.04zm1625.27 4.31c-3.86,0 -7,-3.14 -7,-7.02l0 -42.48c0,-3.88 3.14,-7.03 7,-7.03 3.88,0 7.02,3.15 7.02,7.03l0 42.48c0,3.88 -3.14,7.02 -7.02,7.02zm-1625.27 80.63c-3.88,0 -7.02,-3.15 -7.02,-7.03l0 -42.47c0,-3.89 3.14,-7.03 7.02,-7.03 3.88,0 7.02,3.14 7.02,7.03l0 42.47c0,3.88 -3.14,7.03 -7.02,7.03zm1625.27 4.32c-3.86,0 -7,-3.15 -7,-7.04l0 -42.46c0,-3.89 3.14,-7.04 7,-7.04 3.88,0 7.02,3.15 7.02,7.04l0 42.46c0,3.89 -3.14,7.04 -7.02,7.04zm-1625.27 80.62c-3.88,0 -7.02,-3.15 -7.02,-7.03l0 -42.48c0,-3.87 3.14,-7.02 7.02,-7.02 3.88,0 7.02,3.15 7.02,7.02l0 42.48c0,3.88 -3.14,7.03 -7.02,7.03zm1625.27 4.31c-3.86,0 -7,-3.14 -7,-7.02l0 -42.47c0,-3.87 3.14,-7.03 7,-7.03 3.88,0 7.02,3.16 7.02,7.03l0 42.47c0,3.88 -3.14,7.02 -7.02,7.02zm-1625.27 80.62c-3.88,0 -7.02,-3.14 -7.02,-7.02l0 -42.47c0,-3.88 3.14,-7.03 7.02,-7.03 3.88,0 7.02,3.15 7.02,7.03l0 42.47c0,3.88 -3.14,7.02 -7.02,7.02zm1625.27 4.32c-3.86,0 -7,-3.14 -7,-7.03l0 -42.47c0,-3.88 3.14,-7.02 7,-7.02 3.88,0 7.02,3.14 7.02,7.02l0 42.47c0,3.89 -3.14,7.03 -7.02,7.03zm-1625.27 80.6c-3.88,0 -7.02,-3.13 -7.02,-7l0 -42.45c0,-3.88 3.14,-7.03 7.02,-7.03 3.88,0 7.02,3.15 7.02,7.03l0 42.45c0,3.87 -3.14,7 -7.02,7zm1625.27 4.31c-3.86,0 -7,-3.14 -7,-7l0 -42.46c0,-3.87 3.14,-7.01 7,-7.01 3.88,0 7.02,3.14 7.02,7.01l0 42.46c0,3.86 -3.14,7 -7.02,7zm-1625.27 80.68c-3.88,0 -7.02,-3.2 -7.02,-7.08l0 -42.45c0,-3.88 3.14,-7.02 7.02,-7.02 3.88,0 7.02,3.14 7.02,7.02l0 42.45c0,3.88 -3.14,7.08 -7.02,7.08zm1625.27 4.3c-3.86,0 -7,-3.13 -7,-7.01l0 -42.52c0,-3.87 3.14,-7.01 7,-7.01 3.88,0 7.02,3.14 7.02,7.01l0 42.52c0,3.88 -3.14,7.01 -7.02,7.01zm-1625.27 80.61c-3.88,0 -7.02,-3.14 -7.02,-7l0 -42.46c0,-3.88 3.14,-7.09 7.02,-7.09 3.88,0 7.02,3.21 7.02,7.09l0 42.46c0,3.86 -3.14,7 -7.02,7zm1625.27 4.31c-3.86,0 -7,-3.14 -7,-7.02l0 -42.44c0,-3.88 3.14,-7.09 7,-7.09 3.88,0 7.02,3.21 7.02,7.09l0 42.44c0,3.88 -3.14,7.02 -7.02,7.02zm-1597.33 71.87c-1.49,0 -3.01,-0.5 -4.25,-1.47 -12.5,-9.59 -21.72,-22.59 -26.7,-37.42 -1.24,-3.69 0.8,-7.68 4.49,-8.92 3.62,-1.23 7.63,0.74 8.86,4.43 4.06,12.25 11.62,22.83 21.9,30.76 3.08,2.34 3.64,6.78 1.3,9.86 -1.42,1.78 -3.45,2.76 -5.6,2.76zm1565.9 2.53c-2.28,0 -4.49,-1.11 -5.85,-3.08 -2.15,-3.26 -1.35,-7.63 1.84,-9.79 10.71,-7.26 18.95,-17.41 23.76,-29.35 1.41,-3.62 5.53,-5.34 9.17,-3.93 3.56,1.47 5.29,5.53 3.86,9.17 -5.84,14.52 -15.87,26.88 -28.85,35.75 -1.22,0.8 -2.58,1.23 -3.93,1.23zm-1484.26 12.36l-37.89 0c-1.67,0 -3.32,-0.05 -5.05,-0.18 -3.88,-0.25 -6.77,-3.57 -6.52,-7.45 0.25,-3.88 3.57,-6.89 7.45,-6.59 1.34,0.08 2.77,0.13 4.12,0.13l37.89 0c3.88,0 7.03,3.14 7.03,7.02 0,3.88 -3.15,7.07 -7.03,7.07zm84.93 0l-42.46 0c-3.88,0 -7.01,-3.19 -7.01,-7.07 0,-3.88 3.13,-7.02 7.01,-7.02l42.46 0c3.88,0 7.02,3.14 7.02,7.02 0,3.88 -3.14,7.07 -7.02,7.07zm84.97 0l-42.52 0c-3.87,0 -7.01,-3.19 -7.01,-7.07 0,-3.88 3.14,-7.02 7.01,-7.02l42.52 0c3.88,0 7.01,3.14 7.01,7.02 0,3.88 -3.13,7.07 -7.01,7.07zm84.92 0l-42.45 0c-3.88,0 -7.08,-3.19 -7.08,-7.07 0,-3.88 3.2,-7.02 7.08,-7.02l42.45 0c3.87,0 7.02,3.14 7.02,7.02 0,3.88 -3.15,7.07 -7.02,7.07zm84.91 0l-42.45 0c-3.88,0 -7.02,-3.19 -7.02,-7.07 0,-3.88 3.14,-7.02 7.02,-7.02l42.45 0c3.88,0 7.08,3.14 7.08,7.02 0,3.88 -3.2,7.07 -7.08,7.07zm84.97 0l-42.51 0c-3.88,0 -7.02,-3.19 -7.02,-7.07 0,-3.88 3.14,-7.02 7.02,-7.02l42.51 0c3.88,0 7.03,3.14 7.03,7.02 0,3.88 -3.15,7.07 -7.03,7.07zm84.93 0l-42.46 0c-3.88,0 -7.01,-3.19 -7.01,-7.07 0,-3.88 3.13,-7.02 7.01,-7.02l42.46 0c3.88,0 7.02,3.14 7.02,7.02 0,3.88 -3.14,7.07 -7.02,7.07zm84.98 0l-42.52 0c-3.88,0 -7.02,-3.19 -7.02,-7.07 0,-3.88 3.14,-7.02 7.02,-7.02l42.52 0c3.87,0 7.02,3.14 7.02,7.02 0,3.88 -3.15,7.07 -7.02,7.07zm84.91 0l-42.45 0c-3.88,0 -7.08,-3.19 -7.08,-7.07 0,-3.88 3.2,-7.02 7.08,-7.02l42.45 0c3.88,0 7.02,3.14 7.02,7.02 0,3.88 -3.14,7.07 -7.02,7.07zm84.91 0l-42.45 0c-3.88,0 -7.02,-3.19 -7.02,-7.07 0,-3.88 3.14,-7.02 7.02,-7.02l42.45 0c3.88,0 7.02,3.14 7.02,7.02 0,3.88 -3.14,7.07 -7.02,7.07zm84.99 0l-42.53 0c-3.88,0 -7,-3.19 -7,-7.07 0,-3.88 3.12,-7.02 7,-7.02l42.53 0c3.86,0 7.02,3.14 7.02,7.02 0,3.88 -3.16,7.07 -7.02,7.07zm84.91 0l-42.46 0c-3.88,0 -7.01,-3.19 -7.01,-7.07 0,-3.88 3.13,-7.02 7.01,-7.02l42.46 0c3.88,0 7.02,3.14 7.02,7.02 0,3.88 -3.14,7.07 -7.02,7.07zm84.92 0l-42.46 0c-3.88,0 -7.02,-3.19 -7.02,-7.07 0,-3.88 3.14,-7.02 7.02,-7.02l42.46 0c3.87,0 7.08,3.14 7.08,7.02 0,3.88 -3.21,7.07 -7.08,7.07zm84.97 0l-42.45 0c-3.88,0 -7.08,-3.19 -7.08,-7.07 0,-3.88 3.2,-7.02 7.08,-7.02l42.45 0c3.88,0 7.02,3.14 7.02,7.02 0,3.88 -3.14,7.07 -7.02,7.07zm84.92 0l-42.46 0c-3.88,0 -7.02,-3.19 -7.02,-7.07 0,-3.88 3.14,-7.02 7.02,-7.02l42.46 0c3.87,0 7.01,3.14 7.01,7.02 0,3.88 -3.14,7.07 -7.01,7.07zm84.98 0l-42.53 0c-3.86,0 -7,-3.19 -7,-7.07 0,-3.88 3.14,-7.02 7,-7.02l42.53 0c3.88,0 7.02,3.14 7.02,7.02 0,3.88 -3.14,7.07 -7.02,7.07zm84.91 0l-42.46 0c-3.87,0 -7.01,-3.19 -7.01,-7.07 0,-3.88 3.14,-7.02 7.01,-7.02l42.46 0c3.88,0 7.02,3.14 7.02,7.02 0,3.88 -3.14,7.07 -7.02,7.07zm85.23 0l-42.77 0c-3.88,0 -7.02,-3.19 -7.02,-7.07 0,-3.88 3.14,-7.02 7.02,-7.02l42.47 0c3.86,0 7.18,3.14 7.18,7.02 0,3.88 -3.01,7.07 -6.88,7.07z"/>
  <path class="fil4" d="M6239.01 4739.65l-37.51 0c-3.42,0 -6.27,-2.77 -6.27,-6.22 0,-3.45 2.71,-6.22 6.13,-6.22l37.65 0c3.42,0 6.27,2.77 6.27,6.22 0,3.45 -2.85,6.22 -6.27,6.22zm75.3 0l-37.65 0c-3.42,0 -6.28,-2.77 -6.28,-6.22 0,-3.45 2.86,-6.22 6.28,-6.22l37.65 0c3.42,0 6.13,2.77 6.13,6.22 0,3.45 -2.71,6.22 -6.13,6.22zm75.3 0l-37.79 0c-3.43,0 -6.14,-2.77 -6.14,-6.22 0,-3.45 2.71,-6.22 6.14,-6.22l37.79 0c3.42,0 6.13,2.77 6.13,6.22 0,3.45 -2.71,6.22 -6.13,6.22zm75.15 0l-37.65 0c-3.42,0 -6.13,-2.77 -6.13,-6.22 0,-3.45 2.71,-6.22 6.13,-6.22l37.65 0c3.43,0 6.28,2.77 6.28,6.22 0,3.45 -2.85,6.22 -6.28,6.22zm75.16 0l-37.51 0c-3.42,0 -6.27,-2.77 -6.27,-6.22 0,-3.45 2.85,-6.22 6.27,-6.22l37.51 0c3.57,0 6.28,2.77 6.28,6.22 0,3.45 -2.71,6.22 -6.28,6.22zm75.3 0l-37.5 0c-3.57,0 -6.28,-2.77 -6.28,-6.22 0,-3.45 2.71,-6.22 6.28,-6.22l37.5 0c3.42,0 6.28,2.77 6.28,6.22 0,3.45 -2.86,6.22 -6.28,6.22zm75.3 0l-37.65 0c-3.42,0 -6.27,-2.77 -6.27,-6.22 0,-3.45 2.85,-6.22 6.27,-6.22l37.65 0c3.43,0 6.13,2.77 6.13,6.22 0,3.45 -2.7,6.22 -6.13,6.22zm75.3 0l-37.65 0c-3.42,0 -6.27,-2.77 -6.27,-6.22 0,-3.45 2.85,-6.22 6.27,-6.22l37.65 0c3.42,0 6.13,2.77 6.13,6.22 0,3.45 -2.71,6.22 -6.13,6.22zm75.16 0l-37.65 0c-3.42,0 -6.14,-2.77 -6.14,-6.22 0,-3.45 2.72,-6.22 6.14,-6.22l37.65 0c3.42,0 6.27,2.77 6.27,6.22 0,3.45 -2.85,6.22 -6.27,6.22zm75.3 0.05l-0.29 0 -0.85 -0.05 -36.51 0c-3.43,0 -6.28,-2.77 -6.28,-6.22 0,-3.45 2.85,-6.22 6.28,-6.22l36.51 0 1.42 0.06c3.42,0.13 5.99,3.02 5.85,6.46 -0.14,3.34 -2.85,5.97 -6.13,5.97zm-739.31 61.28c-3.42,0 -6.27,-2.76 -6.27,-6.2l0 -37.91c0.14,-3.37 2.85,-6.16 6.42,-5.97 3.56,0.19 6.13,3.08 5.99,6.46l0 37.42c0,3.44 -2.71,6.2 -6.14,6.2zm762.7 1c-3.43,0 -6.14,-2.78 -6.14,-6.21l0 -37.61c0,-3.44 2.71,-6.2 6.14,-6.2 3.42,0 6.27,2.76 6.27,6.2l0 37.61c0,3.43 -2.85,6.21 -6.27,6.21zm-762.7 74.26c-3.42,0 -6.27,-2.76 -6.27,-6.22l0 -37.65c0,-3.45 2.85,-6.21 6.27,-6.21 3.43,0 6.14,2.76 6.14,6.21l0 37.65c0,3.46 -2.71,6.22 -6.14,6.22zm762.7 1c-3.43,0 -6.14,-2.78 -6.14,-6.22l0 -37.6c0,-3.44 2.71,-6.28 6.14,-6.28 3.42,0 6.27,2.84 6.27,6.28l0 37.6c0,3.44 -2.85,6.22 -6.27,6.22zm-762.7 74.26c-3.42,0 -6.27,-2.82 -6.27,-6.22l0 -37.65c0,-3.45 2.85,-6.22 6.27,-6.22 3.43,0 6.14,2.77 6.14,6.22l0 37.65c0,3.4 -2.71,6.22 -6.14,6.22zm762.7 0.98l-0.15 0c-3.42,-0.12 -6.13,-3.01 -5.99,-6.39l0 -37.47c0,-3.4 2.71,-6.22 6.14,-6.22 3.42,0 6.27,2.82 6.27,6.22l0 37.83c-0.14,3.4 -2.85,6.03 -6.27,6.03zm-701.8 23.82l-37.94 0c-3.42,-0.19 -6.13,-3.08 -5.84,-6.52 0.14,-3.45 2.85,-6.03 6.41,-5.9l37.37 0c3.42,0 6.27,2.77 6.27,6.2 0,3.45 -2.85,6.22 -6.27,6.22zm75.3 0l-37.65 0c-3.42,0 -6.28,-2.77 -6.28,-6.22 0,-3.43 2.86,-6.2 6.28,-6.2l37.65 0c3.42,0 6.13,2.77 6.13,6.2 0,3.45 -2.71,6.22 -6.13,6.22zm75.16 0l-37.51 0c-3.42,0 -6.28,-2.77 -6.28,-6.22 0,-3.43 2.86,-6.2 6.28,-6.2l37.51 0c3.42,0 6.27,2.77 6.27,6.2 0,3.45 -2.85,6.22 -6.27,6.22zm75.29 0l-37.65 0c-3.42,0 -6.27,-2.77 -6.27,-6.22 0,-3.43 2.85,-6.2 6.27,-6.2l37.65 0c3.43,0 6.28,2.77 6.28,6.2 0,3.45 -2.85,6.22 -6.28,6.22zm75.3 0l-37.65 0c-3.56,0 -6.27,-2.77 -6.27,-6.22 0,-3.43 2.71,-6.2 6.27,-6.2l37.65 0c3.43,0 6.14,2.77 6.14,6.2 0,3.45 -2.71,6.22 -6.14,6.22zm75.16 0l-37.65 0c-3.42,0 -6.13,-2.77 -6.13,-6.22 0,-3.43 2.71,-6.2 6.13,-6.2l37.65 0c3.42,0 6.28,2.77 6.28,6.2 0,3.45 -2.86,6.22 -6.28,6.22zm75.3 0l-37.65 0c-3.42,0 -6.27,-2.77 -6.27,-6.22 0,-3.43 2.85,-6.2 6.27,-6.2l37.65 0c3.42,0 6.28,2.77 6.28,6.2 0,3.45 -2.86,6.22 -6.28,6.22zm75.16 0l-37.51 0c-3.42,0 -6.28,-2.77 -6.28,-6.22 0,-3.43 2.86,-6.2 6.28,-6.2l37.51 0c3.42,0 6.27,2.77 6.27,6.2 0,3.45 -2.85,6.22 -6.27,6.22zm75.3 0l-37.65 0c-3.43,0 -6.28,-2.77 -6.28,-6.22 0,-3.43 2.85,-6.2 6.28,-6.2l37.65 0c3.42,0 6.27,2.77 6.27,6.2 0,3.45 -2.85,6.22 -6.27,6.22zm75.44 0l-37.79 0c-3.43,0 -6.28,-2.77 -6.28,-6.22 0,-3.43 2.85,-6.2 6.28,-6.2l37.65 0c3.42,0 6.27,2.77 6.27,6.2 0,3.45 -2.57,6.22 -6.13,6.22z"/>
  <path class="fil4" d="M3704.3 2169.81l-41.47 0c-3.96,0 -7.15,-3.15 -7.15,-7.03 0,-3.86 3.08,-7.03 6.96,-7.03l41.66 0c3.88,0 7.01,3.17 7.01,7.03 0,3.88 -3.13,7.03 -7.01,7.03zm83.24 0l-41.66 0c-3.86,0 -7.01,-3.15 -7.01,-7.03 0,-3.86 3.15,-7.03 7.01,-7.03l41.66 0c3.88,0 7.02,3.17 7.02,7.03 0,3.88 -3.14,7.03 -7.02,7.03zm83.26 0l-41.6 0c-3.88,0 -7.08,-3.15 -7.08,-7.03 0,-3.86 3.2,-7.03 7.08,-7.03l41.6 0c3.88,0 7.09,3.17 7.09,7.03 0,3.88 -3.21,7.03 -7.09,7.03zm83.26 0l-41.61 0c-3.87,0 -7.01,-3.15 -7.01,-7.03 0,-3.86 3.14,-7.03 7.01,-7.03l41.61 0c3.87,0 7.07,3.17 7.07,7.03 0,3.88 -3.2,7.03 -7.07,7.03zm83.31 0l-41.66 0c-3.88,0 -7.02,-3.15 -7.02,-7.03 0,-3.86 3.14,-7.03 7.02,-7.03l41.66 0c3.88,0 7.02,3.17 7.02,7.03 0,3.88 -3.14,7.03 -7.02,7.03zm83.26 0l-41.66 0c-3.88,0 -7.02,-3.15 -7.02,-7.03 0,-3.86 3.14,-7.03 7.02,-7.03l41.66 0c3.88,0 7.01,3.17 7.01,7.03 0,3.88 -3.13,7.03 -7.01,7.03zm83.25 0l-41.67 0c-3.86,0 -7,-3.15 -7,-7.03 0,-3.86 3.14,-7.03 7,-7.03l41.67 0c3.87,0 7.01,3.17 7.01,7.03 0,3.88 -3.14,7.03 -7.01,7.03zm58.52 39.56c-3.88,0 -7.02,-3.15 -7.02,-7.03l0 -4.98c0,-9.94 -5.4,-19.15 -14.09,-24.03 -3.38,-1.91 -4.55,-6.2 -2.65,-9.58 1.85,-3.38 6.16,-4.58 9.54,-2.68 13.11,7.37 21.23,21.28 21.23,36.29l0 4.98c0,3.88 -3.13,7.03 -7.01,7.03zm-634.23 24.08c-3.88,0 -7.02,-3.14 -7.02,-7.02l0 -29.07c0,-5.09 0.93,-10.06 2.71,-14.78 1.42,-3.64 5.48,-5.47 9.12,-4.08 3.63,1.38 5.42,5.44 4.06,9.07 -1.17,3.12 -1.8,6.41 -1.8,9.79l0 29.07c0,3.88 -3.13,7.02 -7.07,7.02zm634.23 59.19c-3.88,0 -7.02,-3.15 -7.02,-7.03l0 -41.64c0,-3.88 3.14,-7.02 7.02,-7.02 3.88,0 7.01,3.14 7.01,7.02l0 41.64c0,3.88 -3.13,7.03 -7.01,7.03zm-634.23 24.08c-3.88,0 -7.02,-3.15 -7.02,-7.03l0 -41.63c0,-3.9 3.14,-7.03 7.02,-7.03 3.94,0 7.07,3.13 7.07,7.03l0 41.63c0,3.88 -3.13,7.03 -7.07,7.03zm634.23 59.18c-3.88,0 -7.02,-3.15 -7.02,-7.03l0 -41.63c0,-3.88 3.14,-7.03 7.02,-7.03 3.88,0 7.01,3.15 7.01,7.03l0 41.63c0,3.88 -3.13,7.03 -7.01,7.03zm-634.23 24.07c-3.88,0 -7.02,-3.13 -7.02,-7.03l0 -41.63c0,-3.87 3.14,-7.03 7.02,-7.03 3.94,0 7.07,3.16 7.07,7.03l0 41.63c0,3.9 -3.13,7.03 -7.07,7.03zm634.23 59.2c-3.88,0 -7.02,-3.15 -7.02,-7.04l0 -41.63c0,-3.88 3.14,-7.03 7.02,-7.03 3.88,0 7.01,3.15 7.01,7.03l0 41.63c0,3.89 -3.13,7.04 -7.01,7.04zm-634.23 24.08c-3.88,0 -7.02,-3.16 -7.02,-7.03l0 -41.63c0,-3.9 3.14,-7.03 7.02,-7.03 3.94,0 7.07,3.13 7.07,7.03l0 41.63c0,3.87 -3.13,7.03 -7.07,7.03zm634.23 59.18c-3.88,0 -7.02,-3.15 -7.02,-7.03l0 -41.63c0,-3.88 3.14,-7.03 7.02,-7.03 3.88,0 7.01,3.15 7.01,7.03l0 41.63c0,3.88 -3.13,7.03 -7.01,7.03zm-634.23 24.07c-3.88,0 -7.02,-3.13 -7.02,-7.01l0 -41.64c0,-3.88 3.14,-7.04 7.02,-7.04 3.94,0 7.07,3.16 7.07,7.04l0 41.64c0,3.88 -3.13,7.01 -7.07,7.01zm634.23 59.2c-3.88,0 -7.02,-3.15 -7.02,-7.04l0 -41.63c0,-3.88 3.14,-7.03 7.02,-7.03 3.88,0 7.01,3.15 7.01,7.03l0 41.63c0,3.89 -3.13,7.04 -7.01,7.04zm-634.23 24.07c-3.88,0 -7.02,-3.15 -7.02,-7.03l0 -41.63c0,-3.87 3.14,-7.03 7.02,-7.03 3.94,0 7.07,3.16 7.07,7.03l0 41.63c0,3.88 -3.13,7.03 -7.07,7.03zm632.02 58.92c-0.8,0 -1.67,-0.13 -2.47,-0.44 -3.64,-1.37 -5.48,-5.42 -4.12,-9.06 1.17,-3.09 1.78,-6.36 1.78,-9.71l0 -29.18c0,-3.88 3.14,-7.03 7.02,-7.03 3.88,0 7.01,3.15 7.01,7.03l0 29.18c0,5.05 -0.87,9.97 -2.65,14.66 -1.04,2.82 -3.75,4.55 -6.57,4.55zm-614.42 17.93c-1.23,0 -2.4,-0.29 -3.51,-0.92 -12.98,-7.39 -21.11,-21.26 -21.11,-36.22l0 -5.11c0,-3.88 3.14,-7.01 7.02,-7.01 3.94,0 7.07,3.13 7.07,7.01l0 5.11c0,9.91 5.37,19.09 13.98,23.99 3.38,1.92 4.55,6.21 2.65,9.58 -1.29,2.28 -3.69,3.57 -6.1,3.57zm82.46 4.47l-41.6 0c-3.94,0 -7.08,-3.15 -7.08,-7.03 0,-3.88 3.14,-7.03 7.08,-7.03l41.6 0c3.88,0 7.01,3.15 7.01,7.03 0,3.88 -3.13,7.03 -7.01,7.03zm83.26 0l-41.61 0c-3.87,0 -7.07,-3.15 -7.07,-7.03 0,-3.88 3.2,-7.03 7.07,-7.03l41.61 0c3.87,0 7.07,3.15 7.07,7.03 0,3.88 -3.2,7.03 -7.07,7.03zm83.25 0l-41.6 0c-3.88,0 -7.01,-3.15 -7.01,-7.03 0,-3.88 3.13,-7.03 7.01,-7.03l41.6 0c3.94,0 7.08,3.15 7.08,7.03 0,3.88 -3.14,7.03 -7.08,7.03zm83.32 0l-41.66 0c-3.88,0 -7.02,-3.15 -7.02,-7.03 0,-3.88 3.14,-7.03 7.02,-7.03l41.66 0c3.88,0 7.01,3.15 7.01,7.03 0,3.88 -3.13,7.03 -7.01,7.03zm83.24 0l-41.64 0c-3.88,0 -7.03,-3.15 -7.03,-7.03 0,-3.88 3.15,-7.03 7.03,-7.03l41.64 0c3.88,0 7.02,3.15 7.02,7.03 0,3.88 -3.14,7.03 -7.02,7.03zm83.26 0l-41.66 0c-3.87,0 -7.02,-3.15 -7.02,-7.03 0,-3.88 3.15,-7.03 7.02,-7.03l41.66 0c3.87,0 7.01,3.15 7.01,7.03 0,3.88 -3.14,7.03 -7.01,7.03zm83.5 0l-41.9 0c-3.88,0 -7.02,-3.15 -7.02,-7.03 0,-3.88 3.14,-7.03 7.02,-7.03l41.65 0c3.88,0 7.13,3.15 7.13,7.03 0,3.88 -3,7.03 -6.88,7.03z"/>
  <path class="fil4" d="M6239.01 5086.88l-37.51 0c-3.42,0 -6.27,-2.78 -6.27,-6.22 0,-3.45 2.71,-6.21 6.13,-6.21l37.65 0c3.42,0 6.27,2.76 6.27,6.21 0,3.44 -2.85,6.22 -6.27,6.22zm75.3 0l-37.65 0c-3.42,0 -6.28,-2.78 -6.28,-6.22 0,-3.45 2.86,-6.21 6.28,-6.21l37.65 0c3.42,0 6.13,2.76 6.13,6.21 0,3.44 -2.71,6.22 -6.13,6.22zm75.3 0l-37.79 0c-3.43,0 -6.14,-2.78 -6.14,-6.22 0,-3.45 2.71,-6.21 6.14,-6.21l37.79 0c3.42,0 6.13,2.76 6.13,6.21 0,3.44 -2.71,6.22 -6.13,6.22zm75.15 0l-37.65 0c-3.42,0 -6.13,-2.78 -6.13,-6.22 0,-3.45 2.71,-6.21 6.13,-6.21l37.65 0c3.43,0 6.28,2.76 6.28,6.21 0,3.44 -2.85,6.22 -6.28,6.22zm75.16 0l-37.51 0c-3.42,0 -6.27,-2.78 -6.27,-6.22 0,-3.45 2.85,-6.21 6.27,-6.21l37.51 0c3.57,0 6.28,2.76 6.28,6.21 0,3.44 -2.71,6.22 -6.28,6.22zm75.3 0l-37.5 0c-3.57,0 -6.28,-2.78 -6.28,-6.22 0,-3.45 2.71,-6.21 6.28,-6.21l37.5 0c3.42,0 6.28,2.76 6.28,6.21 0,3.44 -2.86,6.22 -6.28,6.22zm75.3 0l-37.65 0c-3.42,0 -6.27,-2.78 -6.27,-6.22 0,-3.45 2.85,-6.21 6.27,-6.21l37.65 0c3.43,0 6.13,2.76 6.13,6.21 0,3.44 -2.7,6.22 -6.13,6.22zm75.3 0l-37.65 0c-3.42,0 -6.27,-2.78 -6.27,-6.22 0,-3.45 2.85,-6.21 6.27,-6.21l37.65 0c3.42,0 6.13,2.76 6.13,6.21 0,3.44 -2.71,6.22 -6.13,6.22zm75.16 0l-37.65 0c-3.42,0 -6.14,-2.78 -6.14,-6.22 0,-3.45 2.72,-6.21 6.14,-6.21l37.65 0c3.42,0 6.27,2.76 6.27,6.21 0,3.44 -2.85,6.22 -6.27,6.22zm75.3 0.06l-0.29 0 -0.85 -0.06 -36.51 0c-3.43,0 -6.28,-2.78 -6.28,-6.22 0,-3.45 2.85,-6.21 6.28,-6.21l36.51 0 1.42 0.05c3.42,0.13 5.99,3.03 5.85,6.46 -0.14,3.33 -2.85,5.98 -6.13,5.98zm-739.31 61.28c-3.42,0 -6.27,-2.77 -6.27,-6.2l0 -37.91c0.14,-3.45 2.85,-6.1 6.42,-5.98 3.56,0.13 6.13,3.08 5.99,6.46l0 37.43c0,3.43 -2.71,6.2 -6.14,6.2zm762.7 0.98c-3.43,0 -6.14,-2.76 -6.14,-6.2l0 -37.61c0,-3.43 2.71,-6.27 6.14,-6.27 3.42,0 6.27,2.84 6.27,6.27l0 37.61c0,3.44 -2.85,6.2 -6.27,6.2zm-762.7 74.28c-3.42,0 -6.27,-2.83 -6.27,-6.22l0 -37.65c0,-3.45 2.85,-6.22 6.27,-6.22 3.43,0 6.14,2.77 6.14,6.22l0 37.65c0,3.39 -2.71,6.22 -6.14,6.22zm762.7 0.98c-3.43,0 -6.14,-2.77 -6.14,-6.2l0 -37.61c0,-3.45 2.71,-6.28 6.14,-6.28 3.42,0 6.27,2.83 6.27,6.28l0 37.61c0,3.43 -2.85,6.2 -6.27,6.2zm-762.7 74.27c-3.42,0 -6.27,-2.82 -6.27,-6.27l0 -37.6c0,-3.45 2.85,-6.21 6.27,-6.21 3.43,0 6.14,2.76 6.14,6.21l0 37.6c0,3.45 -2.71,6.27 -6.14,6.27zm762.7 0.99l-0.15 0c-3.42,-0.12 -6.13,-3.01 -5.99,-6.46l0 -37.41c0,-3.45 2.71,-6.22 6.14,-6.22 3.42,0 6.27,2.77 6.27,6.22l0 37.83c-0.14,3.4 -2.85,6.04 -6.27,6.04zm-701.8 23.81l-37.94 0c-3.42,-0.18 -6.13,-3.14 -5.84,-6.51 0.14,-3.46 2.85,-6.16 6.41,-5.98l1 0.06 36.37 0c3.42,0 6.27,2.78 6.27,6.21 0,3.46 -2.85,6.22 -6.27,6.22zm75.3 0l-37.65 0c-3.42,0 -6.28,-2.76 -6.28,-6.22 0,-3.43 2.86,-6.21 6.28,-6.21l37.65 0c3.42,0 6.13,2.78 6.13,6.21 0,3.46 -2.71,6.22 -6.13,6.22zm75.16 0l-37.51 0c-3.42,0 -6.28,-2.76 -6.28,-6.22 0,-3.43 2.86,-6.21 6.28,-6.21l37.51 0c3.42,0 6.27,2.78 6.27,6.21 0,3.46 -2.85,6.22 -6.27,6.22zm75.29 0l-37.65 0c-3.42,0 -6.27,-2.76 -6.27,-6.22 0,-3.43 2.85,-6.21 6.27,-6.21l37.65 0c3.43,0 6.28,2.78 6.28,6.21 0,3.46 -2.85,6.22 -6.28,6.22zm75.3 0l-37.65 0c-3.56,0 -6.27,-2.76 -6.27,-6.22 0,-3.43 2.71,-6.21 6.27,-6.21l37.65 0c3.43,0 6.14,2.78 6.14,6.21 0,3.46 -2.71,6.22 -6.14,6.22zm75.16 0l-37.65 0c-3.42,0 -6.13,-2.76 -6.13,-6.22 0,-3.43 2.71,-6.21 6.13,-6.21l37.65 0c3.42,0 6.28,2.78 6.28,6.21 0,3.46 -2.86,6.22 -6.28,6.22zm75.3 0l-37.65 0c-3.42,0 -6.27,-2.76 -6.27,-6.22 0,-3.43 2.85,-6.21 6.27,-6.21l37.65 0c3.42,0 6.28,2.78 6.28,6.21 0,3.46 -2.86,6.22 -6.28,6.22zm75.16 0l-37.51 0c-3.42,0 -6.28,-2.76 -6.28,-6.22 0,-3.43 2.86,-6.21 6.28,-6.21l37.51 0c3.42,0 6.27,2.78 6.27,6.21 0,3.46 -2.85,6.22 -6.27,6.22zm75.3 0l-37.65 0c-3.43,0 -6.28,-2.76 -6.28,-6.22 0,-3.43 2.85,-6.21 6.28,-6.21l37.65 0c3.42,0 6.27,2.78 6.27,6.21 0,3.46 -2.85,6.22 -6.27,6.22zm75.44 0l-37.79 0c-3.43,0 -6.28,-2.76 -6.28,-6.22 0,-3.43 2.85,-6.21 6.28,-6.21l37.65 0c3.42,0 6.27,2.78 6.27,6.21 0,3.46 -2.57,6.22 -6.13,6.22z"/>
  <path class="fil4" d="M2834.52 4119.88l-37.17 0c-3.45,0 -6.27,-2.76 -6.27,-6.22 0,-3.43 2.71,-6.2 6.16,-6.2l37.28 0c3.45,0 6.22,2.77 6.22,6.2 0,3.46 -2.77,6.22 -6.22,6.22zm74.58 0l-37.29 0c-3.45,0 -6.22,-2.76 -6.22,-6.22 0,-3.43 2.77,-6.2 6.22,-6.2l37.29 0c3.44,0 6.21,2.77 6.21,6.2 0,3.46 -2.77,6.22 -6.21,6.22zm74.57 0l-37.29 0c-3.44,0 -6.2,-2.76 -6.2,-6.22 0,-3.43 2.76,-6.2 6.2,-6.2l37.29 0c3.46,0 6.28,2.77 6.28,6.2 0,3.46 -2.82,6.22 -6.28,6.22zm74.65 0l-37.29 0c-3.46,0 -6.28,-2.76 -6.28,-6.22 0,-3.43 2.82,-6.2 6.28,-6.2l37.29 0c3.44,0 6.22,2.77 6.22,6.2 0,3.46 -2.78,6.22 -6.22,6.22zm74.57 0l-37.29 0c-3.44,0 -6.2,-2.76 -6.2,-6.22 0,-3.43 2.76,-6.2 6.2,-6.2l37.29 0c3.45,0 6.22,2.77 6.22,6.2 0,3.46 -2.77,6.22 -6.22,6.22zm74.59 0l-37.3 0c-3.45,0 -6.21,-2.76 -6.21,-6.22 0,-3.43 2.76,-6.2 6.21,-6.2l37.3 0c3.43,0 6.27,2.77 6.27,6.2 0,3.46 -2.84,6.22 -6.27,6.22zm74.63 0l-37.35 0c-3.38,0 -6.21,-2.76 -6.21,-6.22 0,-3.43 2.83,-6.2 6.21,-6.2l37.35 0c3.45,0 6.21,2.77 6.21,6.2 0,3.46 -2.76,6.22 -6.21,6.22zm74.58 0l-37.29 0c-3.44,0 -6.22,-2.76 -6.22,-6.22 0,-3.43 2.78,-6.2 6.22,-6.2l37.29 0c3.44,0 6.21,2.77 6.21,6.2 0,3.46 -2.77,6.22 -6.21,6.22zm74.58 0l-37.3 0c-3.43,0 -6.2,-2.76 -6.2,-6.22 0,-3.43 2.77,-6.2 6.2,-6.2l37.3 0c3.45,0 6.21,2.77 6.21,6.2 0,3.46 -2.76,6.22 -6.21,6.22zm74.58 0l-37.29 0c-3.45,0 -6.22,-2.76 -6.22,-6.22 0,-3.43 2.77,-6.2 6.22,-6.2l37.29 0c3.44,0 6.28,2.77 6.28,6.2 0,3.46 -2.84,6.22 -6.28,6.22zm74.63 0l-37.28 0c-3.45,0 -6.29,-2.76 -6.29,-6.22 0,-3.43 2.84,-6.2 6.29,-6.2l37.28 0c3.45,0 6.22,2.77 6.22,6.2 0,3.46 -2.77,6.22 -6.22,6.22zm74.59 0l-37.3 0c-3.43,0 -6.21,-2.76 -6.21,-6.22 0,-3.43 2.78,-6.2 6.21,-6.2l37.3 0c3.45,0 6.22,2.77 6.22,6.2 0,3.46 -2.77,6.22 -6.22,6.22zm74.57 0l-37.28 0c-3.45,0 -6.22,-2.76 -6.22,-6.22 0,-3.43 2.77,-6.2 6.22,-6.2l37.28 0c3.45,0 6.22,2.77 6.22,6.2 0,3.46 -2.77,6.22 -6.22,6.22zm74.64 0l-37.35 0c-3.38,0 -6.22,-2.76 -6.22,-6.22 0,-3.43 2.84,-6.2 6.22,-6.2l37.35 0c3.38,0 6.22,2.77 6.22,6.2 0,3.46 -2.84,6.22 -6.22,6.22zm74.58 0l-37.3 0c-3.43,0 -6.2,-2.76 -6.2,-6.22 0,-3.43 2.77,-6.2 6.2,-6.2l37.3 0c3.45,0 6.21,2.77 6.21,6.2 0,3.46 -2.76,6.22 -6.21,6.22zm74.58 0.43l-0.74 -0.06c-2.21,-0.24 -4.42,-0.37 -6.65,-0.37l-29.9 0c-3.45,0 -6.22,-2.76 -6.22,-6.22 0,-3.43 2.77,-6.2 6.22,-6.2l29.9 0c2.71,0 5.42,0.12 8.06,0.43 3.45,0.43 5.91,3.51 5.48,6.89 -0.37,3.19 -3.01,5.53 -6.15,5.53zm-1214.73 38.65c-0.8,0 -1.65,-0.13 -2.4,-0.5 -3.2,-1.28 -4.67,-4.98 -3.38,-8.12 5.29,-12.73 14.21,-23.5 25.66,-31.14 2.89,-1.9 6.7,-1.17 8.67,1.72 1.91,2.84 1.11,6.72 -1.73,8.62 -9.46,6.29 -16.72,15.14 -21.09,25.6 -0.99,2.41 -3.33,3.82 -5.73,3.82zm1268.38 6.83c-2.71,0 -5.16,-1.73 -5.96,-4.49 -3.14,-10.84 -9.35,-20.5 -18.04,-27.81 -2.58,-2.23 -2.95,-6.16 -0.73,-8.82 2.28,-2.58 6.22,-2.95 8.8,-0.67 10.58,8.92 18.16,20.61 21.96,33.85 0.93,3.32 -0.98,6.77 -4.23,7.7 -0.63,0.17 -1.18,0.24 -1.8,0.24zm-1273.3 67.13c-3.45,0 -6.22,-2.83 -6.22,-6.28l0 -37.29c0,-3.44 2.77,-6.21 6.22,-6.21 3.45,0 6.22,2.77 6.22,6.21l0 37.29c0,3.45 -2.77,6.28 -6.22,6.28zm1275.83 7.26c-3.44,0 -6.28,-2.77 -6.28,-6.22l0 -37.34c0,-3.39 2.84,-6.22 6.28,-6.22 3.45,0 6.21,2.83 6.21,6.22l0 37.34c0,3.45 -2.76,6.22 -6.21,6.22zm-1275.83 67.32c-3.45,0 -6.22,-2.78 -6.22,-6.21l0 -37.3c0,-3.45 2.77,-6.27 6.22,-6.27 3.45,0 6.22,2.82 6.22,6.27l0 37.3c0,3.43 -2.77,6.21 -6.22,6.21zm1275.83 7.25c-3.44,0 -6.28,-2.77 -6.28,-6.2l0 -37.3c0,-3.44 2.84,-6.22 6.28,-6.22 3.45,0 6.21,2.78 6.21,6.22l0 37.3c0,3.43 -2.76,6.2 -6.21,6.2zm-1275.83 67.33c-3.45,0 -6.22,-2.77 -6.22,-6.22l0 -37.3c0,-3.43 2.77,-6.21 6.22,-6.21 3.45,0 6.22,2.78 6.22,6.21l0 37.3c0,3.45 -2.77,6.22 -6.22,6.22zm1275.83 7.26c-3.44,0 -6.28,-2.77 -6.28,-6.22l0 -37.3c0,-3.43 2.84,-6.2 6.28,-6.2 3.45,0 6.21,2.77 6.21,6.2l0 37.3c0,3.45 -2.76,6.22 -6.21,6.22zm-1275.83 67.38c-3.45,0 -6.22,-2.84 -6.22,-6.27l0 -37.3c0,-3.45 2.77,-6.22 6.22,-6.22 3.45,0 6.22,2.77 6.22,6.22l0 37.3c0,3.43 -2.77,6.27 -6.22,6.27zm1275.83 7.26c-3.44,0 -6.28,-2.84 -6.28,-6.28l0 -37.29c0,-3.45 2.84,-6.22 6.28,-6.22 3.45,0 6.21,2.77 6.21,6.22l0 37.29c0,3.44 -2.76,6.28 -6.21,6.28zm-1275.83 67.31c-3.45,0 -6.22,-2.77 -6.22,-6.22l0 -37.28c0,-3.45 2.77,-6.29 6.22,-6.29 3.45,0 6.22,2.84 6.22,6.29l0 37.28c0,3.45 -2.77,6.22 -6.22,6.22zm1275.83 7.26c-3.44,0 -6.28,-2.77 -6.28,-6.2l0 -37.3c0,-3.45 2.84,-6.29 6.28,-6.29 3.45,0 6.21,2.84 6.21,6.29l0 37.3c0,3.43 -2.76,6.2 -6.21,6.2zm-1275.83 67.31c-3.45,0 -6.22,-2.76 -6.22,-6.2l0 -37.29c0,-3.45 2.77,-6.22 6.22,-6.22 3.45,0 6.22,2.77 6.22,6.22l0 37.29c0,3.44 -2.77,6.2 -6.22,6.2zm1275.83 7.28c-3.44,0 -6.28,-2.77 -6.28,-6.22l0 -37.29c0,-3.44 2.84,-6.22 6.28,-6.22 3.45,0 6.21,2.78 6.21,6.22l0 37.29c0,3.45 -2.76,6.22 -6.21,6.22zm-1275.83 67.31c-3.45,0 -6.22,-2.77 -6.22,-6.22l0 -37.29c0,-3.44 2.77,-6.21 6.22,-6.21 3.45,0 6.22,2.77 6.22,6.21l0 37.29c0,3.45 -2.77,6.22 -6.22,6.22zm1275.83 7.26c-3.44,0 -6.28,-2.77 -6.28,-6.22l0 -37.28c0,-3.45 2.84,-6.22 6.28,-6.22 3.45,0 6.21,2.77 6.21,6.22l0 37.28c0,3.45 -2.76,6.22 -6.21,6.22zm-1275.83 67.38c-3.45,0 -6.22,-2.84 -6.22,-6.21l0 -37.36c0,-3.45 2.77,-6.21 6.22,-6.21 3.45,0 6.22,2.76 6.22,6.21l0 37.36c0,3.37 -2.77,6.21 -6.22,6.21zm1275.83 7.26c-3.44,0 -6.28,-2.76 -6.28,-6.22l0 -37.35c0,-3.38 2.84,-6.21 6.28,-6.21 3.45,0 6.21,2.83 6.21,6.21l0 37.35c0,3.46 -2.76,6.22 -6.21,6.22zm-1275.83 67.32c-3.45,0 -6.22,-2.77 -6.22,-6.22l0 -37.28c0,-3.45 2.77,-6.29 6.22,-6.29 3.45,0 6.22,2.84 6.22,6.29l0 37.28c0,3.45 -2.77,6.22 -6.22,6.22zm1275.83 7.25c-3.44,0 -6.28,-2.76 -6.28,-6.21l0 -37.28c0,-3.45 2.84,-6.22 6.28,-6.22 3.45,0 6.21,2.77 6.21,6.22l0 37.28c0,3.45 -2.76,6.21 -6.21,6.21zm-1275.83 67.33c-3.45,0 -6.22,-2.76 -6.22,-6.22l0 -37.29c0,-3.45 2.77,-6.22 6.22,-6.22 3.45,0 6.22,2.77 6.22,6.22l0 37.29c0,3.46 -2.77,6.22 -6.22,6.22zm1275.83 7.26c-3.44,0 -6.28,-2.78 -6.28,-6.22l0 -37.29c0,-3.45 2.84,-6.22 6.28,-6.22 3.45,0 6.21,2.77 6.21,6.22l0 37.29c0,3.44 -2.76,6.22 -6.21,6.22zm-1275.83 67.32c-3.45,0 -6.22,-2.77 -6.22,-6.22l0 -37.28c0,-3.45 2.77,-6.22 6.22,-6.22 3.45,0 6.22,2.77 6.22,6.22l0 37.28c0,3.45 -2.77,6.22 -6.22,6.22zm1275.83 7.31c-3.44,0 -6.28,-2.82 -6.28,-6.28l0 -37.27c0,-3.46 2.84,-6.22 6.28,-6.22 3.45,0 6.21,2.76 6.21,6.22l0 37.27c0,3.46 -2.76,6.28 -6.21,6.28zm-1253.44 60.68c-1.47,0 -2.88,-0.5 -4.05,-1.48 -10.53,-8.99 -18.1,-20.74 -21.91,-33.9 -0.92,-3.32 0.99,-6.77 4.31,-7.76 3.32,-0.93 6.76,0.99 7.69,4.31 3.13,10.84 9.35,20.49 17.97,27.88 2.64,2.21 2.95,6.14 0.74,8.73 -1.23,1.48 -3.01,2.22 -4.75,2.22zm1225.26 4.37c-1.97,0 -3.94,-0.93 -5.18,-2.77 -1.9,-2.83 -1.17,-6.7 1.74,-8.62 9.41,-6.34 16.67,-15.2 21.04,-25.65 1.29,-3.14 4.91,-4.68 8.11,-3.32 3.15,1.28 4.69,4.92 3.34,8.11 -5.24,12.73 -14.11,23.5 -25.54,31.2 -1.12,0.73 -2.29,1.05 -3.51,1.05zm-1154.31 10.76l-29.78 0c-2.77,0 -5.53,-0.11 -8.24,-0.5 -3.45,-0.35 -5.85,-3.49 -5.48,-6.89 0.43,-3.43 3.51,-5.83 6.96,-5.47 2.21,0.24 4.48,0.43 6.76,0.43l29.78 0c3.45,0 6.22,2.78 6.22,6.22 0,3.45 -2.77,6.21 -6.22,6.21zm74.59 0l-37.3 0c-3.43,0 -6.22,-2.76 -6.22,-6.21 0,-3.44 2.79,-6.22 6.22,-6.22l37.3 0c3.45,0 6.21,2.78 6.21,6.22 0,3.45 -2.76,6.21 -6.21,6.21zm74.57 0l-37.28 0c-3.45,0 -6.22,-2.76 -6.22,-6.21 0,-3.44 2.77,-6.22 6.22,-6.22l37.28 0c3.45,0 6.27,2.78 6.27,6.22 0,3.45 -2.82,6.21 -6.27,6.21zm74.64 0l-37.35 0c-3.38,0 -6.22,-2.76 -6.22,-6.21 0,-3.44 2.84,-6.22 6.22,-6.22l37.35 0c3.45,0 6.22,2.78 6.22,6.22 0,3.45 -2.77,6.21 -6.22,6.21zm74.57 0l-37.28 0c-3.45,0 -6.27,-2.76 -6.27,-6.21 0,-3.44 2.82,-6.22 6.27,-6.22l37.28 0c3.45,0 6.22,2.78 6.22,6.22 0,3.45 -2.77,6.21 -6.22,6.21zm74.59 0l-37.29 0c-3.45,0 -6.22,-2.76 -6.22,-6.21 0,-3.44 2.77,-6.22 6.22,-6.22l37.29 0c3.44,0 6.22,2.78 6.22,6.22 0,3.45 -2.78,6.21 -6.22,6.21zm74.57 0l-37.29 0c-3.44,0 -6.21,-2.76 -6.21,-6.21 0,-3.44 2.77,-6.22 6.21,-6.22l37.29 0c3.45,0 6.29,2.78 6.29,6.22 0,3.45 -2.84,6.21 -6.29,6.21zm74.65 0l-37.3 0c-3.44,0 -6.27,-2.76 -6.27,-6.21 0,-3.44 2.83,-6.22 6.27,-6.22l37.3 0c3.45,0 6.21,2.78 6.21,6.22 0,3.45 -2.76,6.21 -6.21,6.21zm74.58 0l-37.29 0c-3.45,0 -6.22,-2.76 -6.22,-6.21 0,-3.44 2.77,-6.22 6.22,-6.22l37.29 0c3.44,0 6.21,2.78 6.21,6.22 0,3.45 -2.77,6.21 -6.21,6.21zm74.57 0l-37.29 0c-3.44,0 -6.2,-2.76 -6.2,-6.21 0,-3.44 2.76,-6.22 6.2,-6.22l37.29 0c3.44,0 6.21,2.78 6.21,6.22 0,3.45 -2.77,6.21 -6.21,6.21zm74.58 0l-37.28 0c-3.45,0 -6.22,-2.76 -6.22,-6.21 0,-3.44 2.77,-6.22 6.22,-6.22l37.28 0c3.45,0 6.27,2.78 6.27,6.22 0,3.45 -2.82,6.21 -6.27,6.21zm74.64 0l-37.29 0c-3.44,0 -6.28,-2.76 -6.28,-6.21 0,-3.44 2.84,-6.22 6.28,-6.22l37.29 0c3.45,0 6.22,2.78 6.22,6.22 0,3.45 -2.77,6.21 -6.22,6.21zm74.57 0l-37.28 0c-3.45,0 -6.22,-2.76 -6.22,-6.21 0,-3.44 2.77,-6.22 6.22,-6.22l37.28 0c3.45,0 6.22,2.78 6.22,6.22 0,3.45 -2.77,6.21 -6.22,6.21zm74.59 0l-37.29 0c-3.44,0 -6.22,-2.76 -6.22,-6.21 0,-3.44 2.78,-6.22 6.22,-6.22l37.29 0c3.45,0 6.27,2.78 6.27,6.22 0,3.45 -2.82,6.21 -6.27,6.21zm74.64 0l-37.29 0c-3.45,0 -6.28,-2.76 -6.28,-6.21 0,-3.44 2.83,-6.22 6.28,-6.22l37.29 0c3.44,0 6.2,2.78 6.2,6.22 0,3.45 -2.76,6.21 -6.2,6.21zm74.82 0l-37.54 0c-3.44,0 -6.2,-2.76 -6.2,-6.21 0,-3.44 2.76,-6.22 6.2,-6.22l37.29 0c3.46,0 6.35,2.78 6.35,6.22 0,3.45 -2.65,6.21 -6.1,6.21z"/>
  <path class="fil16" d="M4308.86 3918.73l-1507.5 0c-32.49,0 -58.9,-26.4 -58.9,-58.89l0 -824.27c0,-32.53 26.41,-58.9 58.9,-58.9l1507.5 0c32.54,0 58.89,26.37 58.89,58.9l0 824.27c0,32.49 -26.35,58.89 -58.89,58.89z"/>
  <path class="fil17" d="M3371.71 3260.84l0 373.73c0,23.38 25.96,37.35 45.47,24.55l284.04 -186.9c17.65,-11.59 17.65,-37.46 0,-49.04l-284.04 -186.88c-19.51,-12.84 -45.47,1.17 -45.47,24.54l0 0z"/>
  <path class="fil13" d="M2826.96 3833.76c0,-16.13 13.03,-29.18 29.15,-29.18 16.13,0 29.18,13.05 29.18,29.18 0,16.11 -13.05,29.16 -29.18,29.16 -16.12,0 -29.15,-13.05 -29.15,-29.16z"/>
  <path class="fil13" d="M4183.26 3841.63l-1319.26 0c-4.37,0 -7.89,-3.51 -7.89,-7.87 0,-4.32 3.52,-7.89 7.89,-7.89l1319.26 0c4.38,0 7.89,3.57 7.89,7.89 0,4.36 -3.51,7.87 -7.89,7.87z"/>
  <polygon class="fil14" points="4262.4,5368.81 5103.24,5368.81 5103.24,4113.66 4262.4,4113.66 "/>
  <path class="fil6" d="M4763.54 4516.96l-11.53 0 0 -51.76c0,-18.52 15.09,-33.65 33.63,-33.65l142.33 0c9.98,0 18.83,-6.78 21.39,-16.49l22.54 -85.54c1.71,-6.7 0.28,-13.66 -3.86,-19.14 -4.27,-5.47 -10.69,-8.61 -17.54,-8.61l-185.68 0 0 -11.51 185.68 0c10.41,0 20.11,4.75 26.67,13.11 6.28,8.31 8.42,18.89 5.85,29.1l-22.53 85.54c-3.85,14.76 -17.26,25.05 -32.52,25.05l-142.33 0c-12.12,0 -22.1,9.97 -22.1,22.14l0 51.76z"/>
  <path class="fil2" d="M4897.31 4344.54l-244.48 0c-20.68,0 -37.35,-16.74 -37.35,-37.35l0 -22.33c0,-20.68 16.67,-37.37 37.35,-37.37l244.48 0c20.53,0 37.36,16.69 37.36,37.37l0 22.33c0,20.61 -16.83,37.35 -37.36,37.35z"/>
  <path class="fil6" d="M4757.81 4731.65l0 0c-17.49,0 -31.64,-14.16 -31.64,-31.63l0 -191.67c0,-17.49 14.15,-31.71 31.64,-31.71 17.42,0 31.68,14.22 31.68,31.71l0 191.67c0,17.47 -14.26,31.63 -31.68,31.63z"/>
  <path class="fil5" d="M5968.19 5147.31c0,0 21.82,67.07 19.96,82.38 -1.85,15.32 -15.54,67.69 -25.24,81.11 -9.84,13.4 -14.69,-54.58 -22.39,-64.86 -7.7,-10.21 -1.57,25.6 -6.99,28.92 -5.42,3.32 -16.83,-26.34 -21.67,-36.79 -5,-10.53 11.97,-49.11 11.97,-76 0,-26.96 44.36,-14.76 44.36,-14.76z"/>
  <path class="fil4" d="M5456.49 4614.98c-6.13,-76.86 77.44,-129.6 143.33,-89.59 1.43,0.79 2.71,1.65 3.99,2.52 98.69,63.51 311.61,359.91 326.3,389.56 14.69,29.72 57.9,265.95 57.9,265.95 0,0 -53.48,19.56 -78.44,-0.75 0,0 -86.7,-224.03 -99.54,-235.22 -12.69,-11.21 -346.69,-198.57 -349.54,-268.78 -0.72,-18.58 -2.29,-40.92 -4,-63.69l0 0z"/>
  <path class="fil18" d="M6052.33 6349.85c0,0 39.79,36.3 31.95,62.08 -7.71,25.78 -43.5,43.01 -48.49,74.51 -4.85,31.57 -24.25,48.74 -41.65,48.74 -17.54,0 -83.28,0 -83.28,0 0,0 -12.98,-22.16 18.11,-28.86 31.09,-6.7 42.78,-43.74 40.79,-78.15 -1.86,-34.38 2.99,-80.24 2.99,-80.24l66.03 -15.31 13.55 17.23z"/>
  <path class="fil18" d="M5564.17 6443.74c0,0 7.13,82.65 -10.27,91.26l-223.62 -0.5c0,0 0,-25.77 35.94,-31.5 35.94,-5.72 98.97,-26.77 109.67,-73.59 10.7,-46.84 88.28,14.33 88.28,14.33l0 0z"/>
  <path class="fil2" d="M5375.35 5276.4c0,0 11.83,144.85 25.67,318.98 18.82,236.54 41.64,527.1 43.78,582.1 3.85,95.63 19.4,248.48 19.4,248.48 0,0 36.93,36.31 110.66,21.05 0,0 65.75,-218.27 84.57,-449.19 0.29,-3.76 0.57,-7.57 0.86,-11.39 17.4,-235.12 44.64,-730.09 44.64,-730.09l-329.58 20.06 0 0z"/>
  <path class="fil19" d="M5375.35 5276.4c0,0 11.83,144.85 25.67,318.98l258.41 402.44c0.29,-3.76 0.57,-7.57 0.86,-11.39 17.4,-235.12 44.64,-730.09 44.64,-730.09l-329.58 20.06 0 0z"/>
  <path class="fil2" d="M5429.25 5293.63c0,0 212.64,524.57 352.4,771.13 139.62,246.56 183.26,315.36 183.26,315.36 0,0 80.15,-31.57 87.42,-53.05 0,0 -53.48,-475.96 -147.03,-592 -52.91,-65.55 -114.95,-262.32 -117.94,-331.12 -2.86,-68.8 -18.83,-204.96 -18.83,-204.96l-339.28 94.64z"/>
  <path class="fil5" d="M5612.51 4506.68c0,0 -142.32,72.17 -225.75,48.11 0,0 19.96,-26.14 55.19,-46.02 -3.14,-16.55 -5.71,-30.96 -7.28,-43.19 -3.99,-28.19 -4.27,-44.19 -4.27,-44.19l54.47 -44.73 51.92 -42.76c-1.86,117.46 75.72,172.77 75.72,172.77l0 0.01z"/>
  <path class="fil6" d="M5753.98 5240.52c-57.47,34.77 -111.95,60.92 -175.69,75.63 -75.02,17.85 -167.43,12.62 -198.38,17.3 -3.14,0.42 -6.13,-0.45 -8.98,-2.29 -2.29,-1.24 -15.98,-92.91 -29.67,-208.6 -0.57,-4.62 -1.28,-9.35 -1.42,-14.03l-0.29 -1.54c-5.27,-45.22 -9.98,-92.73 -13.97,-140.34 -3.28,-37.06 -5.99,-73.72 -7.85,-108.12 -2.42,-43.08 -3.42,-82.64 -2.42,-115.2 0.43,-14.82 1.28,-28.18 2.56,-39.81 8.13,-67.55 40.51,-115.87 70.74,-151.79l25.24 -28.68c29.24,1.84 58.9,-3.64 87.14,-22.22 30.66,-20.24 63.89,-42.03 70.17,-38.39 47.06,25.84 85.56,92.61 112.95,180.84 15.68,50.83 27.66,108.49 35.51,169.53 2.42,18.89 4.56,38.33 6.13,57.71 0.28,3.57 0.57,7.15 0.85,10.66 3.71,52.91 9.7,102.51 16.4,146.74 8.99,59.76 19.4,109.72 26.53,144.98 3.57,17.9 6.42,31.81 8.13,41.72 1.43,8.67 -15.97,21.11 -23.67,25.9l-0.01 0z"/>
  <path class="fil8" d="M5538.64 4378.75c0,0 -35.08,66.95 -103.97,86.83 -3.99,-28.19 -4.27,-44.19 -4.27,-44.19l54.47 -44.73 53.77 2.09z"/>
  <path class="fil5" d="M5405.01 4419.98c0,0 137.62,19.68 148.74,-64.86 11.27,-84.54 36.66,-139 -50.77,-155.12 -87.42,-16.18 -108.81,13.91 -119.5,41.23 -10.7,27.31 -13.98,171.42 21.53,178.75l0 0z"/>
  <path class="fil4" d="M5600.39 4187.94c1.28,-1.49 3.99,-2.65 10.41,-3.14 0,0 -5.13,-3.08 -11.98,-3.14 -1.57,-8.85 -6.56,-24.48 -21.96,-27.99 0,0 8.27,4.23 9.55,13.66 -17.96,-17.86 -56.18,-30.33 -161.29,-19.94 -138.19,13.65 -90.84,101.46 -72.73,111.68 18.25,10.21 62.75,-19.69 96.26,-17.72 33.52,2.02 40.79,50.15 52.2,56.54 11.55,6.41 6.84,-5.22 21.96,-12.42 15.26,-7.26 17.26,18.16 13.12,34.76 -4.14,16.62 17.4,37.97 17.4,37.97 0,0 0,0 20.82,-23.33 20.82,-23.37 39.08,-120.91 28.95,-141.46 -1,-1.78 -1.85,-3.62 -2.71,-5.47l0 0z"/>
  <path class="fil4" d="M5556.75 4750.9c0,0 -116.09,88.24 -239.02,107.63 -2.42,-43.08 -3.42,-82.64 -2.42,-115.2l241.44 7.57z"/>
  <path class="fil5" d="M4844.26 4637.01c-1.86,-1.97 -25.53,-81.05 -66.46,-75.31 -26.71,3.8 -70.34,19.25 -58.77,54.39 4.56,13.83 85.87,61.47 85.87,61.47l39.36 -40.55z"/>
  <path class="fil6" d="M5571.01 4580.33c66.17,39.57 60.76,138.14 -9.98,168.79 -1.43,0.61 -2.85,1.22 -4.28,1.78 -108.96,43.7 -473.9,45.72 -506.56,40.49 -32.8,-5.22 -250.43,-106.69 -250.43,-106.69 0,0 14.98,-54.95 46.07,-63.56 0,0 232.74,58.99 249.43,55 16.54,-3.93 362.52,-167.74 421.56,-129.41 15.54,10.16 34.51,21.85 54.19,33.6l0 0z"/>
  <path class="fil20" d="M8026.09 1983.89l-290.5 0c-12.12,0 -22.11,-9.98 -22.11,-22.21 0,-12.2 9.99,-22.19 22.11,-22.19l290.5 0c12.26,0 22.25,9.99 22.25,22.19 0,12.23 -9.99,22.21 -22.25,22.21z"/>
  <path class="fil20" d="M8026.09 2070.62l-290.5 0c-12.12,0 -22.11,-9.98 -22.11,-22.19 0,-12.2 9.99,-22.2 22.11,-22.2l290.5 0c12.26,0 22.25,10 22.25,22.2 0,12.21 -9.99,22.19 -22.25,22.19z"/>
  <path class="fil20" d="M8026.09 2159.62l-290.5 0c-12.12,0 -22.11,-10 -22.11,-22.21 0,-12.21 9.99,-22.2 22.11,-22.2l290.5 0c12.26,0 22.25,9.99 22.25,22.2 0,12.21 -9.99,22.21 -22.25,22.21z"/>
  <path class="fil20" d="M6888.47 4254.34l-691.53 0c-16.26,0 -29.52,-13.29 -29.52,-29.48 0,-16.19 13.26,-29.42 29.52,-29.42l691.53 0c16.26,0 29.52,13.23 29.52,29.42 0,16.19 -13.26,29.48 -29.52,29.48z"/>
  <path class="fil20" d="M3507.75 2233.63l-691.63 0c-16.19,0 -29.41,-13.25 -29.41,-29.43 0,-16.21 13.22,-29.45 29.41,-29.45l691.63 0c16.18,0 29.42,13.24 29.42,29.45 0,16.18 -13.24,29.43 -29.42,29.43z"/>
  <path class="fil20" d="M6888.47 4546.37l-691.53 0c-16.26,0 -29.52,-13.24 -29.52,-29.41 0,-16.19 13.26,-29.48 29.52,-29.48l691.53 0c16.26,0 29.52,13.29 29.52,29.48 0,16.17 -13.26,29.41 -29.52,29.41z"/>
  <path class="fil20" d="M6888.47 4400.34l-827.16 0c-16.11,0 -29.52,-13.22 -29.52,-29.46 0,-16.19 13.41,-29.42 29.52,-29.42l827.16 0c16.26,0 29.52,13.23 29.52,29.42 0,16.24 -13.26,29.46 -29.52,29.46z"/>
  <path class="fil13" d="M3302.41 2418.76l-390.24 0c-12.31,0 -22.39,-10.09 -22.39,-22.42l0 -14.05c0,-12.32 10.08,-22.42 22.39,-22.42l390.24 0c12.38,0 22.47,10.1 22.47,22.42l0 14.05c0,12.33 -10.09,22.42 -22.47,22.42z"/>
  <path class="fil9" d="M2760.56 2389.32c0,-16.26 13.16,-29.45 29.4,-29.45 16.25,0 29.48,13.19 29.48,29.45 0,16.26 -13.23,29.44 -29.48,29.44 -16.24,0 -29.4,-13.18 -29.4,-29.44z"/>
  <path class="fil13" d="M3376.5 2535.91l-462.42 0c-13.35,0 -24.3,-10.92 -24.3,-24.28l0 -10.3c0,-13.36 10.95,-24.29 24.3,-24.29l462.42 0c13.35,0 24.32,10.93 24.32,24.29l0 10.3c0,13.36 -10.97,24.28 -24.32,24.28z"/>
  <path class="fil9" d="M2760.56 2506.48c0,-16.26 13.16,-29.44 29.4,-29.44 16.25,0 29.48,13.18 29.48,29.44 0,16.26 -13.23,29.43 -29.48,29.43 -16.24,0 -29.4,-13.17 -29.4,-29.43z"/>
  <path class="fil13" d="M3302.41 2663.09l-390.24 0c-12.31,0 -22.39,-10.08 -22.39,-22.4l0 -14.06c0,-12.32 10.08,-22.41 22.39,-22.41l390.24 0c12.38,0 22.47,10.09 22.47,22.41l0 14.06c0,12.32 -10.09,22.4 -22.47,22.4z"/>
  <path class="fil9" d="M2760.56 2633.66c0,-16.26 13.16,-29.44 29.4,-29.44 16.25,0 29.48,13.18 29.48,29.44 0,16.26 -13.23,29.43 -29.48,29.43 -16.24,0 -29.4,-13.17 -29.4,-29.43z"/>
  <path class="fil4" d="M3937.33 2319.74c-34.23,33.43 -34.84,88.48 -1.43,122.69 16.19,16.57 37.91,25.86 61.04,26.11 23.2,0.27 45.05,-8.48 61.65,-24.68 34.23,-33.43 34.84,-88.48 1.43,-122.69 -33.42,-34.23 -88.49,-34.86 -122.69,-1.43zm75 164.95c-5.11,0.7 -10.34,1.04 -15.56,0.97 -27.77,-0.32 -53.73,-11.43 -73.12,-31.26 -39.99,-40.98 -39.25,-106.86 1.73,-146.89l0 0c40.98,-40.02 106.83,-39.27 146.88,1.71 39.99,40.95 39.25,106.86 -1.72,146.87 -16.07,15.72 -36.37,25.6 -58.22,28.6l0.01 0z"/>
  <polygon class="fil4" points="3834.37,2553.58 3822.44,2541.36 3923.85,2442.29 3935.77,2454.52 "/>
  <path class="fil4" d="M3793.14 2581.91l0 0c-5.84,-6.05 -5.71,-15.71 0.32,-21.61l59.68 -58.34c6.03,-5.89 15.69,-5.78 21.59,0.25 5.92,6.04 5.79,15.7 -0.24,21.59l-59.74 58.35c-6.03,5.9 -15.7,5.77 -21.61,-0.24z"/>
  <path class="fil4" d="M8854.53 6537.15l0 0c-13.27,0.06 -27.1,-9.48 -31.09,-21.35l-797.92 -2429.82c-3.99,-11.93 3.56,-21.6 16.83,-21.66 13.26,-0.13 27.24,9.47 31.09,21.35l797.91 2429.82c4,11.88 -3.56,21.61 -16.82,21.66z"/>
  <path class="fil4" d="M9497.71 6533.46l0 0c-13.26,0.06 -27.1,-9.54 -31.09,-21.42l-798.06 -2429.82c-3.85,-11.87 3.71,-21.59 16.97,-21.65 13.26,-0.07 27.1,9.47 31.09,21.41l798.06 2429.81c3.85,11.89 -3.71,21.54 -16.97,21.67z"/>
  <path class="fil4" d="M8805.18 4420.78l-645.89 3.75c-12.41,0.06 -25.53,-8.98 -29.24,-20.18 -3.71,-11.19 3.43,-20.36 15.98,-20.43l645.89 -3.76c12.41,-0.05 25.53,8.99 29.24,20.18 3.7,11.21 -3.57,20.38 -15.98,20.44z"/>
  <path class="fil4" d="M8944.51 4845.05l-645.89 3.75c-12.41,0.06 -25.67,-9.04 -29.24,-20.18 -3.7,-11.21 3.57,-20.43 15.98,-20.49l645.75 -3.75c12.55,-0.06 25.67,9.04 29.38,20.18 3.71,11.19 -3.57,20.44 -15.98,20.49z"/>
  <path class="fil4" d="M9078.71 5253.63l-645.89 3.76c-12.41,0.06 -25.67,-9.06 -29.24,-20.18 -3.7,-11.21 3.57,-20.44 15.98,-20.51l645.75 -3.73c12.55,-0.08 25.67,9.04 29.38,20.23 3.7,11.14 -3.57,20.37 -15.98,20.43z"/>
  <path class="fil4" d="M9229.74 5713.59l-645.75 3.75c-12.55,0.06 -25.67,-8.98 -29.38,-20.18 -3.71,-11.19 3.57,-20.36 15.97,-20.43l645.9 -3.75c12.4,-0.06 25.67,8.98 29.23,20.18 3.71,11.21 -3.56,20.38 -15.97,20.43z"/>
  <path class="fil4" d="M9387.9 6195.08l-645.9 3.69c-12.4,0.13 -25.52,-8.98 -29.23,-20.17 -3.71,-11.14 3.42,-20.37 15.97,-20.43l645.9 -3.76c12.4,-0.06 25.52,9.05 29.23,20.19 3.71,11.2 -3.56,20.37 -15.97,20.48z"/>
  <path class="fil4" d="M7997.57 2973.09l0 0c-5,0.99 -9.99,-2.36 -10.99,-7.43l-10.26 -53.38c-1,-5.06 2.28,-10.01 7.41,-10.99 4.99,-0.99 9.99,2.36 10.98,7.43l10.27 53.38c1,5.06 -2.42,10.01 -7.41,10.99z"/>
  <polygon class="fil4" points="7984.3,2887.8 7978.03,2889.02 7963.05,2811.85 7969.47,2810.63 "/>
  <path class="fil5" d="M7969.47 2376.3c0,0 -6.13,-53.15 -18.97,-73.47 -12.97,-20.31 -61.6,-33.37 -64.6,-30.38 -9.55,9.24 28.1,41.88 29.52,53.91 1.43,12.04 -19.11,3.71 -9.27,27.17 8.42,19.8 35.94,45.49 35.94,45.49l27.38 -22.72z"/>
  <path class="fil7" d="M7945.94 2370.37c17.83,-13.94 21.53,-13.66 21.53,-13.66 0,0 164.29,142.28 180.27,154.94 15.97,12.67 262.55,84.2 262.55,84.2l39.22 200.5c0,0 -333.72,-161.21 -373.65,-194.09 -65.89,-54.37 -149.03,-206.51 -149.03,-206.51 0,0 5.28,-14.43 19.11,-25.38z"/>
  <path class="fil4" d="M8415.71 4297.41c0,0 -2.86,68.54 -16.12,85.16l-182.97 1.1c1.28,-7.07 2,-23.44 27.38,-27.86 31.95,-5.55 69.45,-27.88 88.85,-70.15 20.39,-44.5 82.86,11.75 82.86,11.75l0 0z"/>
  <path class="fil4" d="M8774.81 4287.5c0,0 12.83,91.07 -4.42,92.66 -2.29,0.19 -73.88,1.36 -104.83,1.86 -36.36,0.61 -96.12,-0.69 -96.12,-0.69 -7.56,0.32 -12.41,-7.81 -8.7,-14.27 4.28,-7.13 12.27,-14.7 27.53,-17.66 31.94,-6.14 85,-29.53 103.68,-72.17 19.54,-44.81 82.86,10.27 82.86,10.27z"/>
  <path class="fil4" d="M8320.44 3354.58c0,0 50.91,178.09 196.8,487.42 145.9,309.33 152.17,458.36 152.17,458.36 0,0 22.11,7.81 51.49,4.68 31.66,-3.38 53.9,-17.54 53.9,-17.54 0,0 -9.41,-368.16 -78.29,-524.21 -68.88,-156.1 -82.86,-583.22 -82.86,-583.22l-293.21 174.51 0 0z"/>
  <path class="fil6" d="M8238.72 3201.33c0,0 -3.99,275.8 43.64,614.46 47.78,338.6 25.53,496.08 25.53,496.08 0,0 12.55,9.22 51.48,9.1 45.5,-0.18 68.89,-19.01 68.89,-19.01 0,0 68.31,-338.79 48.77,-508.26 -19.68,-169.52 93.55,-581.62 93.55,-581.62l-331.86 -10.75 0 0z"/>
  <path class="fil5" d="M8464.19 2555.92l-53.9 39.93 -77.87 -16.41c1.14,-7.1 6.28,-36.54 10.98,-63.21 0.29,-1.58 0.43,-3.15 0.86,-4.69 3.99,-22.69 7.41,-42.18 7.41,-42.18l72.73 -36.27 27.24 -13.52c-0.14,0.47 -2.28,25.19 -2.42,28.79 -5.13,64.05 14.97,107.56 14.97,107.56z"/>
  <path class="fil2" d="M8618.64 3235.4c-17.54,80.6 -394.89,45.22 -389.9,-3.99 0.14,-1.64 1.14,-24.42 2.57,-55.11 2.85,-66.41 7.13,-170.16 7.7,-178.28l0.14 -0.41c6.7,-68.53 13.26,-135.54 13.69,-179.32 0.29,-37.97 5.56,-76.77 12.55,-112.01 6.42,-32.53 14.26,-62.05 21.11,-85.06 4.85,-16.23 13.83,-30.47 25.81,-41.67 8.42,-7.97 18.4,-14.39 29.24,-18.75 3.14,-1.26 6.13,-2.3 9.27,-3.18 44.35,-12.89 105.82,-28.82 122.36,-23.95 45.21,13.27 78.58,92.66 102.4,193.83 44.35,189.4 54.62,455.36 43.06,507.9l0 0z"/>
  <path class="fil8" d="M8443.66 2449.49c-15.97,30.58 -75.44,57.02 -100.26,66.74 0.29,-1.58 0.43,-3.15 0.86,-4.69 3.99,-22.69 7.41,-42.18 7.41,-42.18l72.73 -36.27c16.12,-0.24 25.82,3.82 19.26,16.4z"/>
  <path class="fil5" d="M8316.31 2465.09c0,0 131.2,40.96 155.44,-41.18 24.25,-82.15 57.62,-132.18 -25.24,-161.8 -82.71,-29.62 -108.38,-3.09 -123.07,22.35 -14.84,25.44 -40.65,167.87 -7.14,180.63l0.01 0z"/>
  <path class="fil4" d="M8328.57 2276.54c0,0 8.41,95.6 28.1,91.43 19.82,-4.13 37.64,-7.21 34.79,21.6 -2.85,28.82 -30.23,62.07 30.66,67.18 60.9,5.09 148.46,-152.01 131.78,-181.76 -48.35,-85.82 -295.21,-103.15 -225.33,1.55l0 0z"/>
  <path class="fil7" d="M8231.31 3176.3c2.85,-66.41 7.13,-170.16 7.7,-178.28l0.14 -0.41 222.76 -133.26c0,0 8.7,311.05 -230.6,311.95z"/>
  <path class="fil5" d="M8054.18 2897.48c0,0 -45.35,-30.64 -53.9,-33.32 -8.56,-2.66 -36.8,-5.56 -38.08,-3.35 -1.29,2.23 -5.14,9.03 -0.29,11.33 4.99,2.31 11.13,1.49 9.27,3.09 -1.85,1.61 -20.39,-7.2 -24.67,2.24 -4.28,9.45 -7.99,41.79 13.69,51.6 21.82,9.81 75.3,0.94 79.29,2.07 32.8,9.52 14.69,-33.66 14.69,-33.66z"/>
  <path class="fil2" d="M8053.75 2889.19c0,0 220.91,37.58 240.59,28.04 31.23,-15.22 -12.12,-239.49 -12.12,-239.49 0,0 -1.85,-50.83 57.47,-62.81 51.63,-10.42 101.4,28.23 101.4,28.23 0,0 45.21,40.5 39.51,85.44 -12.84,99.58 -32.81,302.15 -99.41,333.2 -85.85,40.04 -334.57,-111.05 -334.57,-111.05 0,0 -8.27,-10.14 -7.13,-28.97 1.14,-16.6 14.26,-32.59 14.26,-32.59z"/>
  <path class="fil5" d="M7905.15 2350.86c0,0 -14.12,-28.14 -16.4,-33.42 -2.28,-5.27 3.28,-4.13 8.7,-1.19 5.42,2.95 12.84,19.28 21.25,17.31 6.7,-1.57 -13.55,17.3 -13.55,17.3z"/>
 </g>
</svg>
