<?xml version="1.0" encoding="utf-8"?>
<svg width="1036mm" height="656mm" version="1.1" style="shape-rendering:geometricPrecision; text-rendering:geometricPrecision; image-rendering:optimizeQuality; fill-rule:evenodd; clip-rule:evenodd" viewBox="0 0 103600 65600" xmlns="http://www.w3.org/2000/svg">
  <defs>
    <style type="text/css">
   
    .fil10 {fill:black;fill-rule:nonzero}
    .fil4 {fill:#151F2C;fill-rule:nonzero}
    .fil12 {fill:#2A4A7C;fill-rule:nonzero}
    .fil7 {fill:#2B6EB2;fill-rule:nonzero}
    .fil6 {fill:#384152;fill-rule:nonzero}
    .fil3 {fill:#43A1F6;fill-rule:nonzero}
    .fil11 {fill:#AEC3FF;fill-rule:nonzero}
    .fil2 {fill:#B8C0C7;fill-rule:nonzero}
    .fil8 {fill:#DE6B4D;fill-rule:nonzero}
    .fil0 {fill:#E9E9E9;fill-rule:nonzero}
    .fil13 {fill:#EBF3FA;fill-rule:nonzero}
    .fil5 {fill:#EE805F;fill-rule:nonzero}
    .fil1 {fill:#F4F4F4;fill-rule:nonzero}
    .fil9 {fill:white;fill-rule:nonzero}
   
  </style>
  </defs>
  <g id="Layer_x0020_1">
    <path class="fil0" d="M51913.52 12207.6c86.99,219.62 158.29,456.37 206.78,709.37 94.12,482.6 -2.84,1244.16 -221.04,1685.67 -22.82,47.5 -47.06,93.56 -71.31,139.63 -1503.13,2789.36 -5441.24,2234.72 -6089.71,-912.59 -84.43,-411.58 -32.08,-1010.71 114.94,-1470.05 35.81,-105.96 73.89,-205.5 117.53,-289.79 200.66,-400.6 449.23,-735.88 732.88,-1008.7 1617.5,-1553.62 4320.02,-1044.92 5209.93,1146.46zm-9825.44 4360.83l1535.79 -173c127.92,-13.11 252.28,46.49 322.46,154.32 88.55,137.9 183.96,273.23 285.49,405.59 188.98,246.15 391.34,473.61 607.96,678.98 101.55,96.41 135.36,242.71 83.73,371.79l-589 1503.85c-64.45,159.86 6.28,343.54 163.71,420.71l1323.04 655.44c150.16,73.88 329.71,22.97 420.27,-116.66l800.49 -1253.57c75.16,-123.64 224.63,-180.83 368.67,-142.61 608.09,160.59 1239.86,223.47 1873.07,186.54 152.58,-8.84 295.19,90.56 340.84,236.02l270.97 863.1c52.76,163.28 219.62,264.69 389.33,231.75l1437.53 -290.51c29.95,-5.84 57.04,-14.11 82.72,-27.66 125.49,-59.32 201.07,-194.68 183.96,-336.57l-128.36 -1147.18 -31.36 -279.67c239.59,-134.48 473.48,-288.8 697.37,-460.2 300.92,-230.91 574.73,-485.9 817.18,-757.01 92.69,-103.24 239.59,-140.46 367.93,-88.69l1210.79 475.76c165.44,64.03 353.68,-7.57 430.69,-166.86l502 -1011.56 142.62 -290.22c78.44,-158.02 25.66,-351.4 -124.08,-445.52l-1045.35 -669.57c-122.65,-76.15 -183.96,-221.2 -148.31,-358.53 96.96,-412.86 152.58,-835 159.72,-1257.29 2.86,-36.78 2.86,-70.59 2.86,-106.66 -1.43,-12.12 1.41,-23.96 2.84,-35.81 12.84,-135.33 106.96,-247.99 236.75,-288.5l1400.45 -443.38c17.11,-3.86 32.79,-11.41 45.63,-17.97 136.9,-66.32 213.91,-219.48 185.39,-371.37l-288.08 -1432.82c-34.22,-172.99 -195.37,-290.22 -372.22,-271.39l-1601.53 180.97c-135.49,16.97 -265.26,-53.04 -329.43,-173.27 -145.47,-263.26 -312.33,-519.83 -502,-767.27 -101.27,-131.2 -205.36,-256.7 -315.18,-376.91 -88.42,-98.27 -114.09,-237.6 -65.6,-359.82l566.18 -1445.66c62.74,-158.87 -7.13,-341.12 -162.58,-417.99l-1309.2 -646.47c-158.29,-78.44 -349.39,-26.81 -446.37,123.92l-633.2 991.89c-85.57,133.05 -248.15,189.81 -396.47,140.19 -581.86,-201.66 -1192.24,-309.63 -1806.91,-324.59 -145.45,-1.15 -275.24,-97.42 -319.44,-237.88l-397.9 -1262.42c-54.19,-169.42 -226.75,-270.39 -400.74,-236.87l-1427.69 285.93c-171.71,33.95 -288.08,195.38 -267.12,366.52l6.86 67.02 148.89 1332.87c15.96,142.75 -57.2,277.38 -184.68,343.7l-1.16 1c-306.46,158.15 -602.39,345.11 -886.06,562.74 -151.45,115.94 -293.48,237.88 -431.96,365.23 -94.84,89.71 -231.32,116.24 -352.55,69.04l-1229.61 -483.04c-167.85,-66.59 -359.24,7.99 -437.96,168.43l-644.33 1304.05c-18.4,37.36 -28.24,76.87 -33.23,114.81 -12.83,124.5 44.94,252.43 154.46,323.29l838.13 532.52c101.55,66.32 161.15,182.42 156.3,300.78 -1.85,31.09 -7.41,62.74 -17.25,93.98 -254.71,748.15 -356.96,1538.07 -301.48,2327.01 10.97,133.77 -63.47,258.69 -179.69,320.32 -16.69,8.54 -34.52,15.96 -52.92,21.82l-1134.77 358.09c-164.29,51.77 -263.26,219.06 -230.04,389.34l6.14 33.36 279.38 1396.89c36.79,175.56 199.37,293.21 377.21,273.4l0.01 0.01z"/>
    <path class="fil0" d="M90848.2 11189.65c-1473.19,-2971.33 -6577.31,-937.11 -6577.31,-937.11 0,0 -2507.12,6210.2 -3528.24,6548.92 -1019.67,338.84 1106.7,-5728.04 1106.7,-5728.04 -2067.89,206.64 -6742.75,3719.34 -6742.75,3719.34 0,0 1601.54,6346.55 529.1,6423.56 -1072.45,77.15 -1130.92,-5691.82 -1130.92,-5691.82 -1845.4,978.9 -3223.05,3632.5 -3223.05,3632.5 -1548.78,4183.96 3904.74,5956.92 3904.74,5956.92 0,0 506.27,2211.35 -360.82,5035.65l0 0.16c0,0 -216.77,532.66 -372.22,1396.02l534.81 -106.25c15.68,-152.3 35.65,-300.48 62.75,-444.24l1.42 -2.56 1.43 -6.28c19.97,-89.99 48.49,-218.05 85.57,-374.49l0 -1.29c101.25,-352.55 163.99,-610.82 199.65,-795.5l1.43 -1.71c289.51,-1101.69 734.47,-2550.77 1150.89,-2918.86 0,0 -75.58,-71.44 -162.58,-222.75 51.35,71.16 105.54,145.17 162.58,222.75 1306.34,1780.8 5951.22,1198.09 8398.46,167.85 2447.23,-1030.22 1192.25,-1528.94 -413.58,-2423.97 -1607.24,-895.05 -4423.83,-15.4 -5365.08,-304.34 -941.25,-288.93 211.05,-993.87 1938.1,-1200.95 1725.61,-207.08 2914.99,1324.88 5714.49,1040.8 2799.49,-284.23 3866.24,-5868.51 3866.24,-5868.51 -1779.81,965.77 -5389.35,594.84 -5650.32,-33.53 -260.99,-628.07 4788.92,-1563.45 5536.23,-1915.7 744.43,-352.27 1806.89,-2195.25 332.28,-5166.57z"/>
    <path class="fil0" d="M6630.72 34027.48c-599.97,-3262.26 4705.51,-4692.38 4705.51,-4692.38 0,0 5727.47,3470.05 6747.72,3129.65 1020.26,-340.43 -4317.74,-3923 -4317.74,-3923 1778.8,-1073.17 7625.78,-1061.9 7625.78,-1061.9 0,0 2521.67,6040.21 3426.14,5459.06 905.16,-581.15 -2505,-5234.3 -2505,-5234.3 2063.75,-322.46 4756.57,977.04 4756.57,977.04 3747.28,2421.57 444.22,7108.38 444.22,7108.38 0,0 918.72,2074.31 3305.49,3815.75l0 0c0,0 492.29,297.2 1134.77,894.61l-492.3 235.17c-103.4,-112.66 -208.64,-219.06 -316.32,-317.61l-1.85 -1.84 -4.84 -4.28c-70.18,-60.33 -169.86,-145.19 -293.51,-248.01l-0.71 -0.56 -0.56 0c-291.08,-222.78 -496.59,-391.34 -636.2,-517.55l-1.29 -1.14c-892.32,-708.22 -2117.37,-1601.11 -2671.14,-1646.75 0,0 17.83,-102.67 -2.56,-276.24 0.72,88 1.85,180.27 2.56,276.24 21.55,2207.93 -4045.93,4524.67 -6622.79,5166.43 -2576.44,641.76 -1870.64,-509.55 -1121.22,-2188.1 749.44,-1679.27 3532.08,-2663.29 4112.94,-3458.79 580.16,-795.06 -764.26,-669.56 -2271.25,199.95 -1506.27,868.79 -1540.21,2807.04 -3951.66,4257.41 -2411.43,1450.37 -6611.66,-2381.34 -6611.66,-2381.34 2003.42,-293.37 4671.55,-2753.57 4503.56,-3412.58 -167.43,-659.59 -4771.25,1617.64 -5579.87,1783.22 -807.9,165.01 -2762.82,-674.43 -3362.81,-3936.55l0.02 0.01z"/>
    <path class="fil0" d="M93995.67 54965.73c2611.23,-2046.06 -416.44,-6632.05 -416.44,-6632.05 0,0 -6588.71,-1194.39 -7127.78,-2125.36 -539.08,-931.12 5832.86,-78.86 5832.86,-78.86 -621.79,-1981.89 -5008.54,-5846.84 -5008.54,-5846.84 0,0 -5889.91,2854.54 -6183.7,1819.45 -292.35,-1034.95 5345.13,-2261.27 5345.13,-2261.27 -1333.44,-1609.1 -4211.35,-2418.85 -4211.35,-2418.85 -4411.01,-668.29 -5041.37,5030.24 -5041.37,5030.24 0,0 -2062.16,945.23 -5004.26,668.99l0 0c0,0 -566.19,-104.11 -1441.81,-81.86l212.49 502.72c151.17,-15.98 300.91,-25.82 447.8,-28.96l8.56 0c92.69,1.87 223.91,4.27 383.63,9.28l2.85 0c363.67,26.37 630.35,36.21 818.61,33.79l1.43 0c1138.03,60.33 2646.89,203.08 3091.83,535.95 0,0 54.19,-88.57 185.39,-204.79 -59.89,65.16 -121.21,133.47 -185.39,204.79 -1478.89,1639.9 34.24,6069.59 1538.78,8257.13 1504.56,2188.1 1738.45,857.82 2290.37,-896.48 550.48,-1753.69 -882.79,-4334.42 -791.51,-5314.6 92.71,-980.9 1016.83,4.29 1570.16,1653.31 553.35,1649.16 -705.93,3123.51 139.77,5807.48 845.68,2684.11 6530.22,2596.11 6530.22,2596.11 -1306.33,-1547.49 -1675.69,-5157.72 -1112.37,-5540.36 561.89,-382.78 2501.42,4373.08 2997.72,5032.09 496.3,659.01 2517.1,1325.45 5126.93,-721.06l-0.01 0.01z"/>
    <path class="fil1" d="M70296.28 16562.43c0,0 305.19,-6111.96 3163.15,-9943.67 139.77,-187.52 338,-271.81 534.8,-271.81 336.57,0 667.44,247.86 685.96,648.74 1.43,10.56 1.43,21.25 1.43,32.1 34.24,1084.14 -3130.34,5885.34 -4385.33,9534.64l-0.01 0z"/>
    <path class="fil1" d="M70038.16 18323.99c0,0 2572.73,-7790.51 7629.77,-11505.71 129.78,-95.99 285.22,-143.33 437.83,-143.33 206.78,0 412.15,87.7 549.05,260.56 155.45,195.09 241.02,510.84 116.94,1021.53 -329.44,1361.66 -5917,6253.99 -8733.59,10366.95z"/>
    <path class="fil1" d="M26266.63 26490.41c-2337.71,-2260.99 -6547.77,-4658.29 -6935.96,-5485.59 -3.84,-8.28 -7.42,-16.55 -11.12,-24.68 -180.98,-401.6 134.77,-810.47 519.25,-810.47 83.15,0 168.72,18.96 254.14,60.9 3608.96,1786.36 6173.7,6259.84 6173.7,6259.84l-0.01 0z"/>
    <path class="fil1" d="M27133.56 27714.74c-3686.97,-2012.82 -9752.41,-3552.77 -10519.67,-4449.51 -287.94,-336.41 -344.56,-605.95 -302.76,-811.76 57.33,-282.51 315.02,-473.61 596.27,-473.61 33.22,0 67.17,2.72 100.95,8.26 5216.06,858.82 10125.21,5726.62 10125.21,5726.62z"/>
    <path class="fil2" d="M82897.55 16820.14l0 38805.18c0,678.71 -490.6,1229.47 -1093.85,1229.47l-55987.44 0c-604.4,0 -1094.13,-550.76 -1094.13,-1229.47l0 -38805.18c0,-679.28 489.73,-1229.47 1094.13,-1229.47l55987.44 0c603.25,0 1093.85,550.19 1093.85,1229.47z"/>
    <path class="fil3" d="M80130.85 14604.94l0 3146.75 -62482.01 0 0 -3146.75c0,-649.46 526.1,-1175.42 1175.28,-1175.42l60130.19 0c648.9,0 1176.55,525.96 1176.55,1175.42l-0.01 0z" style="fill: rgb(6, 12, 58);"/>
    <path class="fil0" d="M19560.13 15590.67c0,-302.21 244.86,-547.2 547.07,-547.2 302.05,0 546.91,244.99 546.91,547.2 0,302.19 -244.86,547.21 -546.91,547.21 -302.21,0 -547.07,-245.02 -547.07,-547.21z"/>
    <path class="fil0" d="M21716.29 15590.67c0,-302.21 244.86,-547.2 546.91,-547.2 302.21,0 547.07,244.99 547.07,547.2 0,302.19 -244.86,547.21 -547.07,547.21 -302.05,0 -546.91,-245.02 -546.91,-547.21z"/>
    <path class="fil0" d="M23926.49 15590.67c0,-302.21 244.87,-547.2 547.07,-547.2 302.76,0 547.64,244.99 547.64,547.2 0,302.19 -244.88,547.21 -547.64,547.21 -302.2,0 -547.07,-245.02 -547.07,-547.21z"/>
    <path class="fil0" d="M62911.8 7916.11c42.78,106.95 77.01,222.2 101.25,345.55 45.65,235.04 -1.41,605.83 -108.37,820.74 -11.42,23.25 -22.83,45.65 -34.24,68.16 -731.61,1358.4 -2649.73,1088.29 -2966.35,-444.38 -39.92,-200.5 -15.68,-492.29 57.06,-716.05 17.11,-51.49 35.65,-99.98 57.04,-141.19 96.98,-194.96 218.2,-358.24 356.54,-491.17 788.64,-756.55 2103.54,-508.83 2537.07,558.34zm-4784.65 2123.79l747.29 -84.29c62.76,-6.42 124.08,22.68 156.88,75.16 44.21,67.17 89.84,133.05 139.76,197.66 92.69,119.8 191.1,230.47 295.22,330.43 49.9,47.06 67.01,118.23 41.35,181.12l-286.65 732.47c-31.38,77.86 2.85,167.29 79.85,204.93l644.63 319.02c72.72,36.09 159.72,11.27 203.93,-56.62l389.34 -610.66c37.06,-60.19 109.8,-87.99 179.69,-69.45 296.63,78.3 604.68,108.8 912.72,90.98 74.16,-4.28 144.04,43.93 165.44,114.94l132.61 420.3c25.68,79.57 106.98,128.91 189.69,112.94l700.23 -141.62c14.25,-2.84 27.09,-6.84 39.92,-13.39 61.33,-28.82 98.42,-94.84 89.85,-163.88l-61.33 -558.75 -17.11 -136.19c116.95,-65.46 231.05,-140.62 339.43,-224.05 146.89,-112.52 280.95,-236.75 399.31,-368.8 45.63,-50.2 115.53,-68.31 178.27,-43.07l590.43 231.6c79.85,31.24 171.12,-3.7 209.64,-81.28l243.86 -492.59 69.87 -141.32c37.09,-77.03 12.84,-171.15 -59.89,-216.92l-510.56 -326.15c-59.9,-37.09 -88.42,-107.68 -71.31,-174.57 47.06,-201.08 74.17,-406.72 77.01,-612.39 2.86,-17.96 1.43,-34.22 1.43,-51.91 0,-5.84 1.43,-11.54 1.43,-17.39 7.14,-65.89 52.77,-120.79 115.52,-140.62l681.69 -215.92c8.55,-1.85 15.68,-5.41 22.82,-8.68 67.03,-32.38 104.11,-106.98 89.84,-180.85l-139.76 -697.8c-17.12,-84.29 -94.12,-141.32 -181.11,-132.2l-780.1 88.14c-65.6,8.26 -129.77,-25.82 -161.15,-84.44 -69.89,-128.2 -151.17,-252.99 -243.86,-373.64 -48.49,-63.75 -99.84,-124.94 -152.61,-183.55 -44.21,-47.77 -57.03,-115.66 -32.81,-175.28l275.26 -703.92c31.37,-77.45 -2.86,-166.14 -78.44,-203.66l-637.48 -314.75c-77.01,-38.36 -171.13,-13.12 -218.21,60.33l-308.03 483.04c-41.36,64.74 -121.23,92.41 -193.96,68.16 -282.38,-98.11 -579.01,-150.73 -879.93,-158.01 -69.87,-0.57 -132.63,-47.49 -154.01,-115.8l-195.38 -614.81c-25.67,-82.57 -109.81,-131.78 -193.96,-115.38l-695.95 139.19c-82.72,16.55 -139.77,95.13 -129.78,178.56l2.85 32.65 72.73 649.03c8.57,69.6 -27.09,135.2 -89.84,167.43l0 0.44c-149.75,77.15 -293.79,168.13 -432.12,274.23 -74.15,56.34 -142.61,115.8 -209.65,177.84 -47.05,43.65 -112.66,56.48 -172.55,33.51l-598.98 -235.16c-81.28,-32.37 -173.99,3.86 -212.48,82l-313.76 635.06c-8.56,18.25 -14.27,37.5 -17.11,55.91 -5.7,60.75 22.81,122.93 75.58,157.43l407.87 259.42c49.92,32.24 78.44,88.7 77.01,146.47 -1.41,15.12 -2.84,30.52 -8.54,45.77 -124.09,364.39 -173.99,749.01 -146.91,1133.2 5.71,65.19 -31.37,126.08 -86.98,156.03 -8.57,4.13 -17.11,7.71 -25.68,10.69l-553.34 174.28c-79.85,25.24 -128.34,106.66 -111.23,189.67l2.86 16.26 135.47 680.27c18.54,85.56 96.98,142.89 183.97,133.2z"/>
    <path class="fil4" d="M14601.19 45149.28c0,0 83.01,-907.6 -931.69,-907.6 0,0 307.62,83.01 467.06,249.86 0,0 -647.31,-379.77 -1351.83,204.22 -703.92,583.29 -266.54,2047.77 -480.59,2325.3 -214.21,278.24 -1048.5,334.15 -946.4,1232.61 102.13,898.88 2647.05,2024.96 2483.47,2768.25 0,0 997.44,-1465.63 284.23,-2135.05 0,0 347.68,327.86 382.78,716.78 0,0 94.83,-759.85 -388.92,-1003 -428.26,-214.78 -778.39,-1001.72 -741.44,-1142.04 36.94,-140.9 1223.32,-2309.33 1223.32,-2309.33l0.01 0z"/>
    <path class="fil5" d="M13602.49 49509.51c0,0 757.41,3136.35 1501.98,3763.42 447.38,376.5 1777.1,1241.02 1777.1,1241.02l-553.2 200.66c0,0 -1844.84,-622.65 -2257.7,-1108.25 -412.86,-485.46 -1543.21,-2918.57 -1543.21,-2918.57l1075.03 -1178.28z"/>
    <path class="fil6" d="M6478.13 55019.21c6.12,11.71 13.55,24.54 20.39,36.94 166.14,287.95 546.93,994.3 966.07,1767.83 198.08,366.79 405.44,748.28 602.4,1107.53 339.55,620.37 647.88,1172.29 828.15,1463.92 183.41,297.2 318.17,505.13 372.36,588.84l0.58 0.57c16.53,25.24 19.67,55.49 17.82,85.58 -19.11,262.12 -14.13,521.81 11.69,777.81 252.86,2514.83 1948.8,3863.08 1948.8,3863.08l504.56 74.45c0,0 -713.78,-2644.03 -923.56,-4138.75 -35.79,-252.85 -51.19,-458.36 -38.79,-591.99 36.94,-389.47 -31.94,-961.08 -163.14,-1617.65 -232.47,-1166.72 -659.59,-2597.97 -1030.68,-3744.31 -23.95,-73.15 -732.88,-2638.46 -732.88,-2638.46 -594.98,520.54 -2766.4,735.31 -2766.4,735.31 0,0 -368.09,894.6 382.63,2229.31l0 -0.01z"/>
    <path class="fil4" d="M12809.28 65423.81l-2104.39 0c0,0 -50.49,-320.59 59.04,-564.17 105.25,-233.33 255.42,-240.61 19.1,-606.83 134.07,137.9 563.62,194.52 868.24,153.88 36.94,60.33 240.03,465.77 364.95,555.05 137.18,99.11 750.71,64.04 793.07,462.07l-0.01 0z"/>
    <path class="fil4" d="M6478.13 55019.21c6.12,11.71 13.55,24.54 20.39,36.94 166.14,287.95 1063.19,1945.09 1482.31,2717.92 -485.44,-1998.01 -147.74,-3996.01 -147.74,-3996.01l-1354.96 1241.15z"/>
    <path class="fil4" d="M14313.69 45021.92c14.27,-55.33 -1201.65,549.49 -1263.12,617.81 -570.45,632.48 -408.01,1457.62 -81.3,1465.75 209.23,4.85 168.59,353.13 168.59,353.13l2330.84 -986.32c0,0 -280.51,-1636.9 -1155.02,-1450.37l0.01 0z"/>
    <path class="fil3" d="M13530.47 49038.76c0,0 355.09,708.93 310.75,1283.66 0,0 -427.7,675.55 -1537.07,845.98 0,0 953.79,-2130.21 1226.33,-2129.63l-0.01 -0.01z" style="fill: rgb(63, 75, 160);"/>
    <path class="fil6" d="M8118.61 52946.19l7.41 -393.17c-784.51,98.39 -2704.36,-937.83 -2704.36,-937.83 0,0 -820.32,545.77 -932.85,2104.39 -54.75,760.54 -401.87,3977.47 -439.95,4938.09 -14.13,348.27 -18.54,596.85 -20.41,695.95l0 1.16c0,30.08 -14.68,57.17 -33.22,80.56 -162.43,206.8 -302.77,425.29 -424.55,651.74 -1196.82,2226.91 -571.04,5251.87 -571.04,5251.87l277.53 -70.18c0,0 1012.28,-3136.34 1673.7,-4493.15 111.95,-230.17 214.21,-409.3 299.07,-512.54 248.58,-302.21 511.4,-815.32 769.83,-1432.55 488.44,-1166.71 2098.83,-5884.34 2098.83,-5884.34l0.01 0z"/>
    <path class="fil4" d="M4673.37 65423.81l-2105.11 0c0,0 -50.34,-320.59 59.76,-564.17 105.24,-233.33 270.11,-339.71 230.74,-622.09 133.49,137.76 351.98,291.64 655.89,251 37.64,60.33 240.73,383.91 365.51,473.19 137.34,99.11 750.73,64.04 793.22,462.07l-0.01 0z"/>
    <path class="fil3" d="M12161.96 51620.76c-283.09,47.91 46.2,273.24 -342.69,315.03 -553.21,60.31 -1124.8,102.11 -1423.86,220.91 -109.52,43.64 -182.26,97.83 -204.93,166.14 -129.91,390.05 -951.94,1060.76 -951.94,1060.76 -3664.3,-166.71 -3900.61,-1800.35 -3900.61,-1800.35 2378.21,-2310.02 4402.03,-3569.02 6074.59,-3724.75 406.75,-38.07 955.66,12.98 1212.78,127.49 584.59,260.28 905.18,1052.78 905.18,1052.78 0,0 -294.22,2398.59 -1368.51,2582l-0.01 -0.01z" style="fill: rgb(6, 12, 58);"/>
    <path class="fil7" d="M11819.27 51935.79c-553.21,60.31 -1124.8,102.11 -1423.86,220.91 -122.5,-1827.58 740.17,-3202.23 740.17,-3202.23 0,0 562.47,2289.64 683.7,2981.32l-0.01 0z" style="fill: rgb(63, 75, 160);"/>
    <path class="fil5" d="M12593.94 48136.72c104.67,327.88 453.5,1261.42 936.54,902.04 -15.98,-69.46 85.55,-272.54 204.93,-478.05 153.16,-262.82 335.28,-531.66 335.28,-531.66l-787.51 -690.4 -46.92 -41.2c-206.07,359.81 -408.43,532.8 -585.7,665.14 -54.2,40.5 -76.87,110.1 -56.62,174.13z"/>
    <path class="fil8" d="M14070.68 48029.05c0,0 -182.12,268.26 -335.28,531.66 -489.17,-302.19 -489.87,-907.72 -452.23,-1222.06l787.51 690.4z"/>
    <path class="fil5" d="M14092.94 48374.9c0,0 -1188.83,-661.6 -765.55,-1395.62 423.41,-733.46 555.03,-1313.18 1331.57,-921.7 777.24,390.61 761.84,755.56 679.98,1034.94 -81.86,278.67 -926.12,1435.54 -1246,1282.39l0 -0.01z"/>
    <path class="fil4" d="M15539.46 46664.25c-54.05,-326.16 -219.63,-356.96 -335.3,-335.42 -438.67,-726.04 -1156.15,-442.39 -1156.15,-442.39 -382.78,480.61 -937.26,562.46 -937.26,562.46 0,0 138.48,256.57 706.51,415.87 173.41,48.05 370.93,19.12 561.18,-44.92 -394.47,219.76 -806.75,304.04 -806.75,304.04 748.85,68.33 1461.48,-616.66 1535.2,-689.81 34.52,106.54 95.42,328.58 59.19,491.02 -49.35,220.89 -245.58,620.22 -125.64,671.99 0,0 580.87,-444.24 499.01,-932.84l0.01 0z"/>
    <polygon class="fil3" points="26249.38,62738.55 17379.44,58413.95 18513.49,56087.96 27383.43,60411.98 " style="fill: rgb(6, 12, 58);"/>
    <path class="fil3" d="M14605.49 58900.71c-814.76,-396.91 -1393.18,-1132.79 -1587.58,-2018.27 -78.85,-359.38 148.34,-714.48 507.72,-793.77 359.94,-78.87 714.92,148.31 794.35,507.7 106.38,485.46 423.28,888.47 869.37,1106.26 800.05,390.18 1767.96,56.04 2158.01,-743.88 390.19,-799.93 56.62,-1767.97 -743.3,-2158.02 -363.65,-177.27 -776.52,-211.63 -1164.14,-97.26 -352.69,104.11 -723.78,-97.12 -827.74,-450.37 -104.53,-353.1 97.26,-723.62 450.53,-828.29 706.92,-208.51 1461.91,-145.77 2125.34,177.97 1460.78,711.79 2069.89,2479.75 1357.38,3940.54 -711.92,1460.07 -2479.88,2069.3 -3939.95,1357.39l0.01 0z" style="fill: rgb(6, 12, 58);"/>
    <path class="fil3" d="M27153.25 65018.36c-1460.78,-712.51 -2070.03,-2479.89 -1357.38,-3940.68 711.92,-1460.77 2479.74,-2069.88 3939.96,-1357.39 663.3,323.02 1178.41,878.79 1449.09,1564.74 135.34,342.85 -31.95,729.9 -374.65,865.24 -342.13,134.78 -729.18,-32.65 -864.66,-375.35 -148.19,-375.36 -430.13,-679.42 -793.79,-856.55 -799.91,-390.18 -1767.82,-56.61 -2157.87,743.32 -390.19,799.91 -56.62,1768.53 743.3,2158.01 446.09,217.77 958.65,219.04 1406.72,4.27 332.16,-159.44 730.32,-19.1 889.07,312.6 159.28,331.73 19.67,729.76 -312.63,889.21 -817.16,391.89 -1752.97,389.47 -2567.16,-7.42z" style="fill: rgb(6, 12, 58);"/>
    <path class="fil7" d="M24191.04 60676.53l-4672.7 -2277.97c-133.63,-65.16 -190.25,-228.32 -125.07,-362.36l118.81 -243.73c65.88,-134.2 228.88,-190.1 362.5,-124.94l4672.85 2277.95c134.06,65.32 190.68,228.34 124.8,362.52l-118.67 243.59c-65.32,134.2 -228.32,190.24 -362.52,124.94z" style="fill: rgb(63, 75, 160);"/>
    <path class="fil5" d="M13412.24 56537.75c0,0 25.24,221.62 118.79,336.01 94.13,113.93 366.1,390.74 371.09,553.19 0,0 -13.56,71.44 -72.02,58.46 -58.47,-12.83 -261.55,-214.05 -365.53,-199.36 0,0 55.35,324.86 110.81,416 54.77,91.69 156.31,436.25 123.08,514.97 -33.23,78.86 -583.99,-380.21 -751.29,-604.82 -166.71,-224.62 -2.56,-1135.35 -2.56,-1135.35l467.63 60.9z"/>
    <path class="fil5" d="M12296.72 48644.99c0,0 -1391.88,-75.72 -1639.18,798.07 -246.73,873.22 463.91,4360.81 617.81,4720.77 278.66,655.44 1637.32,2525.94 1637.32,2525.94l499.58 -152.02c0,0 -906.31,-2857.53 -1108.1,-3140.05 -317.47,-444.24 409.15,-4372.5 -7.43,-4752.71z"/>
    <path class="fil3" d="M10383 50610.91c3.71,20.96 1317.46,241.87 2138.91,-175.26 0,0 686.1,-2149.47 -294.64,-2046.64 -980.9,102.68 -1561.18,411.59 -1586.42,881.07 -24.54,469.62 -257.85,1340.84 -257.85,1340.84l0 -0.01z" style="fill: rgb(6, 12, 58);"/>
    <path class="fil5" d="M16197.89 53115.9c-65.88,3.14 -187.11,24.67 -230.75,58.47 -75.73,58.47 -161.15,160.02 8.71,245.02 255.27,126.63 765.39,70.72 745.14,-6.28 -62.74,-240.45 -154.44,-314.32 -523.1,-297.21z"/>
    <path class="fil5" d="M32416.23 18892.16c-67.03,77.01 -75.74,162.86 -42.51,254.7l0.58 1.15c61.6,169.83 264.11,359.38 499.71,548.62 30.1,24.4 57.19,46.36 80.58,66.89 6.28,5.42 12.4,10.69 17.97,16.11l14.13 12.55c219.61,202.66 136.61,249 531.64,660.02 450.39,468.63 759.85,477.03 848.56,434.25 74.31,-36.37 -77,-284.8 -245.01,-564.02 -7.99,-13.42 -15.98,-27.11 -24.53,-40.8 -22.25,-37.08 -44.35,-74.72 -67.17,-112.09 -196.24,-335.99 -145.75,-493.72 -98.96,-993.87 37.5,-406.44 631.9,-2270.69 631.9,-2270.69l-862.67 -148.59c0,0 -259.68,1484.45 -546.49,1713.05 -152.59,121.94 -324.29,123.37 -471.33,213.64 -10.41,6.28 -20.25,12.83 -30.67,19.39 -83.7,55.49 -168.7,112.66 -235.73,189.69z"/>
    <path class="fil4" d="M32416.23 18892.16c-67.03,77.01 -75.74,162.86 -42.51,254.7l0.58 1.15c75.16,169.69 272.68,358.23 501,546.77 29.51,24.82 55.9,47.49 79.29,68.74 6.28,5.42 12.4,10.69 17.97,16.11l14.13 12.55c219.61,202.66 136.61,249 531.64,660.02 450.39,468.63 759.85,477.03 848.56,434.25 74.31,-36.37 -77,-284.8 -245.01,-564.02 -88,-32.1 -494.72,-197.54 -802.34,-591.29 -271.39,-345.97 -452.23,-790.51 -636.91,-1048.06 -10.41,6.28 -20.25,12.83 -30.67,19.39 -83.7,55.49 -168.7,112.66 -235.73,189.69z"/>
    <path class="fil5" d="M39373.17 18353.36c53.48,266.26 433.11,221.9 857.1,118.23 423.98,-103.68 323.16,19.53 926.71,-47.36 603.66,-66.73 786.5,-291.78 804.9,-381.48 16.69,-79.72 -281.8,-107.82 -601.84,-144.62 -39.92,-4.55 -80.56,-9.54 -120.49,-14.53 -361.25,-45.37 -625.94,-278.38 -953.81,-469.78 -310.75,-181.4 -774.67,-919.99 -774.67,-919.99l-827.72 65.45c0,0 434.39,659.88 602.4,946.81 98.53,168.72 93.54,391.76 81.28,564.04 -6.84,93.56 -12.98,189.39 6.14,283.23z"/>
    <path class="fil4" d="M40230.26 18471.59c423.98,-103.68 323.16,19.53 926.71,-47.36 603.66,-66.73 786.5,-291.78 804.9,-381.48 16.69,-79.72 -281.8,-107.82 -601.84,-144.62l-2.42 6.14c0,0 -362.37,256.7 -864.52,268.68 -409.87,9.98 -843.7,-107.39 -1126.07,-102.82 -6.84,93.56 -12.98,189.39 6.14,283.23 53.48,266.26 433.11,221.9 857.1,118.23z"/>
    <path class="fil4" d="M36200.46 13060l-773.39 2082.43 -1010.42 2719.05c0,0 -274.39,26.39 -537.21,-49.2 -241.16,-69.88 -518.69,-252.57 -518.69,-252.57 0,0 280.51,-2919.57 803.63,-4595.4 134.18,-430.11 284.22,-778.09 450.36,-973.9 811.76,-958.8 1585.71,1069.59 1585.71,1069.59l0.01 0z"/>
    <path class="fil6" d="M35414.1 9752.97c-507,-163.6 -1953.08,46.34 -3405.89,330.71l-303.91 -501.72 -3137.62 -245c0,0 -1035.51,2295.91 -468.19,3758.83 82.99,215.07 248.57,352.99 530.95,357.54l45.63 0c0,0 1867.5,-1.13 2473.61,-1.13 1560.47,0 3302.49,-1072.6 3527.67,-1117.53 368.51,-73.87 516.26,663.72 884.91,1438.39 369.08,774.39 3467.35,3429.99 3467.35,3429.99 0,0 475.62,4.71 672.56,-69.18 211.63,-79.16 289.22,-182.26 289.22,-182.26 0,0 -3432.97,-6830 -4576.28,-7198.64l-0.01 0z"/>
    <path class="fil4" d="M30664.38 30.63c-439.39,-113.08 -1041.23,-0.42 -1140.77,9.42 -1193.82,117.51 -1594.97,1449.21 -1414.14,2482.46 166.14,953.37 -317.45,1217.2 -877.36,1970.32 -1124.36,1510.13 -389.61,2783.38 497.15,3111.67 532.24,196.96 1270.68,-299.91 1270.68,-299.91 13.56,5.27 2321.03,-1511.98 3267.41,-2367.37 1575.15,-616.37 -482.46,-4618.37 -1602.96,-4906.59l-0.01 0z"/>
    <path class="fil5" d="M30841.08 4398.28c31.22,110.53 -491.17,313.62 -889.92,238.87 -374.63,-69.87 -794.92,-508.97 -708.22,-550.18 143.49,-68.19 240.03,-237.75 161.31,-1154.75l71.31 8.13 1199.94 137.04c0,0 3.71,373.66 31.37,723.76 23.39,293.94 83.01,416.86 134.21,597.13z"/>
    <path class="fil8" d="M30675.5 3077.4c0,0 3.71,373.66 31.37,723.76 -662.15,35.52 -1060.9,-538.5 -1231.31,-860.8l1199.94 137.04z"/>
    <path class="fil5" d="M30923.51 3390.58c0,0 -1561.18,154.04 -1641.76,-819.58 -81.29,-973.63 -337.27,-1609.54 655.89,-1749.01 993.15,-139.33 1218.48,216.06 1324.3,534.37 105.82,318.47 65.16,1969.06 -338.42,2034.22l-0.01 0z"/>
    <path class="fil4" d="M30756.08 668.4c0,0 -196.25,1189.4 -1085.43,1471.61 -648.6,205.94 -942.68,70.17 -942.68,70.17 0,0 312.61,-414.15 423.28,-989.6 32.67,-169.56 153.16,-309.19 317.61,-363.22 460.78,-151.61 1019.53,-566.19 1287.22,-188.97l0 0.01z"/>
    <path class="fil4" d="M30461.86 922.11c0,0 294.22,65.6 555.19,445.24 142.06,207.36 307.62,730.32 279.24,961.78 0,0 273.26,-1100.69 -125.5,-1510.27 -422.12,-434.24 -708.93,103.26 -708.93,103.26l0 -0.01z"/>
    <path class="fil3" d="M28030.18 7596.66c27.66,118.23 51.63,226.9 70.74,327.3 31.94,162 53.48,301.47 68.88,424.7 48.06,384.05 33.95,611.52 65.88,860.39 17.83,139.03 50.48,285.08 116.96,468.33 64.59,178.42 1760.39,337.29 2725.88,273.25 306.48,-19.83 539.66,-63.03 622.65,-134.63 344.7,-298.92 310.19,358.68 357.53,-2788.07 22.82,-1534.93 -1302.62,-2901.88 -1302.62,-2901.88 0,0 -105.82,655.59 -1420.14,-124.79 -46.76,-27.38 -564.32,739.16 -1062.75,1682.97 -548.92,1042.64 -398.18,1263.11 -243.01,1912.43z" style="fill: rgb(6, 12, 58);"/>
    <path class="fil6" d="M35427.07 15142.43l-1010.42 2719.05c0,0 -274.39,26.39 -537.21,-49.2 -241.16,-69.88 -518.69,-252.57 -518.69,-252.57 0,0 280.51,-2919.57 803.63,-4595.4l1262.69 2178.12z"/>
    <path class="fil3" d="M30756.08 4125.76c0,0 1352.54,229.31 1511.26,811.46 158.73,582.28 1255.84,3838.85 1255.84,3838.85 0,0 -849.81,289.93 -1167.84,-27.52 -317.61,-317.61 -1105.12,-2946.81 -1105.12,-2946.81l-494.15 -1675.97 0.01 -0.01z" style="fill: rgb(6, 12, 58);"/>
    <path class="fil9" d="M30563.41 2816.43c0,0 65.32,160.16 238.16,160.16 172.86,0 219.78,-25.82 252.29,-62.47 32.65,-36.52 65.3,-107.11 65.3,-107.11 0,0 -286.79,-56.62 -555.75,9.42z"/>
    <path class="fil7" d="M28169.8 8348.66c48.06,384.05 33.95,611.52 65.88,860.39 1228.18,3.99 2869.95,-948.24 2869.95,-948.24l-2935.83 87.85z" style="fill: rgb(63, 75, 160);"/>
    <path class="fil7" d="M31105.63 7455.33c0,0 -1913.16,-56.9 -2235.6,-1144.19 -354.39,-1194.52 -751.28,491.16 -751.28,491.16l211.05 1076.03 2098.97 0 676.86 -423z" style="fill: rgb(63, 75, 160);"/>
    <path class="fil2" d="M34440.05 4505.1l-103.4 -255.99c-110.66,-274.53 -377.21,-454.22 -673.12,-454.22l-1907.02 0 0 6375.93 7888.62 0 0 -5165.86 -4464.21 0c-325.58,0 -619.07,-197.81 -740.87,-499.86z"/>
    <polygon class="fil9" points="32946.6,7672.1 32946.6,7212.46 34558.12,6506.4 34558.12,6976.01 33432.78,7439.07 34558.12,7902 34558.12,8378.18 "/>
    <polygon class="fil9" points="36233.82,5956.91 36663.24,5956.91 35187.62,9041.04 34758.21,9041.04 "/>
    <polygon class="fil9" points="38455.01,7212.46 38455.01,7672.1 36842.93,8378.18 36842.93,7908.69 37968.99,7445.63 36842.93,6982.71 36842.93,6506.4 "/>
    <path class="fil5" d="M31104.91 7707.48l138.48 -217.21c0,0 109.52,-35.66 263.4,-143.61 182.69,-128.22 158.72,-320.45 249.72,-300.06l1.28 422.28 -9.84 1.41c392.05,104.69 850.41,-9.12 859.67,88.58 25.24,268.54 -182.83,389.33 -356.96,473.47 -132.91,64.31 -284.23,160.88 -524.81,86 -175.98,-54.77 -452.95,-110.38 -452.95,-110.38l-167.99 -300.48z"/>
    <path class="fil3" d="M29335.93 4001.54c0,0 -1241.73,81.28 -1552.48,565.47 -310.18,484.31 -695.38,2943.1 -533.51,3787.65 161.15,844.4 4137.48,-161.43 4137.48,-161.43l-126.79 -732.76c0,0 -2294.64,13.41 -2425.54,-285.5 -173.58,-397.46 500.84,-3173.43 500.84,-3173.43z" style="fill: rgb(6, 12, 58);"/>
    <path class="fil5" d="M35329.8 5002.1c-10.4,32.24 187.12,357.54 468.92,301.06 175.98,-35.37 404.3,-413.86 203.64,-497.28 -335.28,-139.2 -644.18,110.23 -672.56,196.22z"/>
    <polygon class="fil4" points="47470.99,22081.25 47429.06,22059.15 52039.02,13418.39 52080.38,13440.63 "/>
    <polygon class="fil4" points="68928.64,19038.76 63744.66,13445.64 63780.31,13413.54 68964.29,19006.67 "/>
    <path class="fil0" d="M72168.8 20655.27c77.01,560.19 -77.01,1100.26 -387.91,1519.11 -309.48,418.85 -774.39,716.19 -1322.03,791.35l-23178.69 3184.69c-1182.69,162.59 -2276.65,-621.09 -2430.53,-1741.44 -76.87,-560.19 94.83,-1102.68 434.39,-1525.38 338.42,-422.85 844.84,-725.76 1436.81,-807.04l23178.99 -3184.7c1093.83,-150.46 2114.94,643.06 2268.96,1763.41l0.01 0z"/>
    <path class="fil3" d="M72168.8 20655.27c77.01,560.19 -77.01,1100.26 -387.91,1519.11 -309.48,418.85 -774.39,716.19 -1322.03,791.35l-4194.22 576.3 -560.48 -4073.87 4195.67 -576.3c1093.83,-150.46 2114.94,643.06 2268.96,1763.41l0.01 0z" style="fill: rgb(6, 12, 58);"/>
    <path class="fil9" d="M68858.75 20096.37c-345.12,337.29 -350.83,892.62 -14.25,1237.74 163.99,167.29 382.2,260.85 616.08,263.7 232.46,2.56 454.94,-85.86 621.79,-249.29 345.14,-337.27 350.84,-892.47 14.27,-1237.74 -336.57,-345.27 -892.76,-351.68 -1237.89,-14.41zm757.28 1664.15c-52.76,6.99 -104.12,10.41 -156.88,9.83 -280.94,-3.28 -543.35,-115.36 -738.72,-315.6 -403.61,-413.14 -395.06,-1078 17.11,-1481.73 413.58,-403.88 1078.15,-396.19 1481.73,17.11 405.03,413.3 396.47,1078.16 -15.68,1481.89 -162.58,158.58 -366.52,258.13 -587.57,288.5l0.01 0z"/>
    <polygon class="fil9" points="67820.53,22455.62 67699.31,22332.11 68723.27,21332.83 68843.06,21456.18 "/>
    <path class="fil9" d="M67404.09 22741.27l0 0c-59.89,-60.89 -58.46,-158.44 2.86,-217.91l601.82 -588.56c61.33,-59.62 158.31,-58.48 218.21,2.57 59.9,60.75 58.47,158.29 -1.43,217.77l-603.25 588.7c-61.33,59.48 -158.31,58.33 -218.21,-2.57z"/>
    <path class="fil3" d="M33245.1 42791.33l-4841.99 0c-100.97,0 -182.83,-81.3 -182.83,-182.12l0 -77.03c0,-100.81 81.86,-182.67 182.83,-182.67l4841.99 0c100.81,0 182.69,81.86 182.69,182.67l0 77.03c0,100.82 -81.88,182.12 -182.69,182.12z" style="fill: rgb(63, 75, 160);"/>
    <path class="fil4" d="M30760.35 44310.57l-2389.33 0c-82.99,0 -150.74,-67.01 -150.74,-150.74 0,-83.13 67.75,-150.74 150.74,-150.74l2389.33 0c83.15,0 150.74,67.61 150.74,150.74 0,83.73 -67.59,150.74 -150.74,150.74z"/>
    <path class="fil4" d="M32589.78 43678.66l-4229.17 0c-77.57,0 -140.33,-63.31 -140.33,-140.34l0 -20.97c0,-77.42 62.76,-140.18 140.33,-140.18l4229.17 0c77.45,0 140.19,62.76 140.19,140.18l0 20.97c0,77.03 -62.74,140.34 -140.19,140.34z"/>
    <path class="fil4" d="M37217.14 43678.66l-3940.11 0c-75,0 -135.91,-60.89 -135.91,-136.05l0 -30.09c0,-75.16 60.91,-135.35 135.91,-135.35l3940.11 0c75.03,0 135.34,60.19 135.34,135.35l0 30.09c0,75.16 -60.31,136.05 -135.34,136.05z"/>
    <path class="fil4" d="M33740.39 44310.57l-2389.33 0c-83.01,0 -150.74,-67.01 -150.74,-150.74 0,-83.13 67.73,-150.74 150.74,-150.74l2389.33 0c83.15,0 150.74,67.61 150.74,150.74 0,83.73 -67.59,150.74 -150.74,150.74z"/>
    <path class="fil3" d="M39141.84 42791.33l-4842.69 0c-100.26,0 -182.12,-81.3 -182.12,-182.12l0 -77.03c0,-100.81 81.86,-182.67 182.12,-182.67l4842.69 0c100.84,0 182.7,81.86 182.7,182.67l0 77.03c0,100.82 -81.86,182.12 -182.7,182.12z" style="fill: rgb(63, 75, 160);"/>
    <path class="fil3" d="M33245.1 46117.76l-4841.99 0c-100.97,0 -182.83,-81.14 -182.83,-182.12l0 -76.87c0,-100.97 81.86,-182.69 182.83,-182.69l4841.99 0c100.81,0 182.69,81.72 182.69,182.69l0 76.87c0,100.98 -81.88,182.12 -182.69,182.12z" style="fill: rgb(63, 75, 160);"/>
    <path class="fil4" d="M30760.35 47637.01l-2389.33 0c-82.99,0 -150.74,-67.03 -150.74,-150.74 0,-83.01 67.75,-150.74 150.74,-150.74l2389.33 0c83.15,0 150.74,67.73 150.74,150.74 0,83.71 -67.59,150.74 -150.74,150.74z"/>
    <path class="fil4" d="M32589.78 47005.09l-4229.17 0c-77.57,0 -140.33,-62.74 -140.33,-140.32l0 -20.83c0,-77.58 62.76,-140.32 140.33,-140.32l4229.17 0c77.45,0 140.19,62.74 140.19,140.32l0 20.83c0,77.58 -62.74,140.32 -140.19,140.32z"/>
    <path class="fil4" d="M37217.14 47005.09l-3940.11 0c-75,0 -135.91,-60.89 -135.91,-135.91l0 -30.23c0,-75.02 60.91,-135.33 135.91,-135.33l3940.11 0c75.03,0 135.34,60.31 135.34,135.33l0 30.23c0,75.02 -60.31,135.91 -135.34,135.91z"/>
    <path class="fil4" d="M33740.39 47637.01l-2389.33 0c-83.01,0 -150.74,-67.03 -150.74,-150.74 0,-83.01 67.73,-150.74 150.74,-150.74l2389.33 0c83.15,0 150.74,67.73 150.74,150.74 0,83.71 -67.59,150.74 -150.74,150.74z"/>
    <path class="fil3" d="M39141.84 46117.76l-4842.69 0c-100.26,0 -182.12,-81.14 -182.12,-182.12l0 -76.87c0,-100.97 81.86,-182.69 182.12,-182.69l4842.69 0c100.84,0 182.7,81.72 182.7,182.69l0 76.87c0,100.98 -81.86,182.12 -182.7,182.12z" style="fill: rgb(63, 75, 160);"/>
    <polygon class="fil6" points="58415.23,25899.57 55649.98,26543.32 54282.31,29031.76 53238.39,23360.49 "/>
    <polygon class="fil6" points="57265.77,28328.12 56862.17,28633.44 55096.63,26302.16 55498.8,25996.83 "/>
    <path class="fil0" d="M56605.47 37622.47l-6801.19 0c-275.24,0 -499.15,-223.33 -499.15,-498.43l0 -6800.77c0,-275.1 223.91,-498.14 499.15,-498.14l6801.19 0c273.83,0 497.72,223.04 497.72,498.14l0 6800.77c0,275.1 -223.89,498.43 -497.72,498.43z"/>
    <path class="fil7" d="M50302 35991.26l1515.97 -2731.31c175.41,-318.03 621.79,-346.27 837.14,-52.9l874.22 1191.95c185.39,253.58 557.62,273.67 768.67,41.65 221.07,-240.74 608.97,-208.37 785.8,65.46l944.11 1456.21c213.92,331.72 -24.24,769.25 -419.28,769.25l-4870.22 0c-380.79,0 -620.38,-408.01 -436.4,-740.31l-0.01 0z" style="fill: rgb(63, 75, 160);"/>
    <path class="fil7" d="M53292.58 31983.28c0,-329.16 266.7,-596.13 596.13,-596.13 329.44,0 596.12,266.97 596.12,596.13 0,329.14 -266.68,595.98 -596.12,595.98 -329.43,0 -596.13,-266.84 -596.13,-595.98z" style="fill: rgb(63, 75, 160);"/>
    <path class="fil0" d="M66579.81 37832.39l-6737.03 919.29c-273.83,36.93 -524.82,-153.88 -561.89,-426.41l-919.86 -6738.32c-37.09,-272.82 154.01,-524.09 426.41,-561.31l6738.46 -919.15c272.38,-37.09 524.81,153.73 561.89,426.55l918.43 6738.18c37.09,272.52 -154.03,524.23 -426.41,561.17z"/>
    <path class="fil7" d="M60115.17 37068.13l1132.34 -2911.16c131.21,-338.84 569.03,-427.11 821.46,-165.56l1028.23 1062.75c218.21,226.46 589,196.23 767.27,-62.76 185.39,-268.1 576.16,-288.5 787.23,-41.21l1132.35 1315.46c256.7,299.21 79.85,764.99 -310.9,818.47l-4826.02 658.44c-376.5,51.63 -670.28,-320.6 -531.94,-674.42l-0.02 -0.01z" style="fill: rgb(63, 75, 160);"/>
    <path class="fil7" d="M62535.3 32692.77c-44.2,-326.3 183.97,-626.64 510.56,-671.13 326.58,-44.5 626.06,183.82 671.71,509.98 44.2,326.16 -183.96,626.64 -510.56,671.14 -326.57,44.49 -626.06,-183.83 -671.71,-509.99z" style="fill: rgb(63, 75, 160);"/>
    <polygon class="fil3" points="42838.06,65289.75 46767.61,65289.75 46767.61,61920.81 42838.06,61920.81 " style="fill: rgb(6, 12, 58);"/>
    <polygon class="fil6" points="42679.34,62036.47 46900.52,62036.47 46900.52,61776.2 42679.34,61776.2 "/>
    <polygon class="fil6" points="42838.06,63902.13 46767.61,63902.13 46767.61,62832.03 42838.06,62832.03 "/>
    <path class="fil3" d="M51548.43 65292.17l-3710.79 0c-135.48,0 -245.43,-110.09 -245.43,-246.14l0 -411.73c0,-146.47 127.07,-260.26 272.54,-244.15l3710.77 411.58c124.07,13.55 218.21,119.37 218.21,244.3 0,136.05 -109.82,246.14 -245.3,246.14z" style="fill: rgb(6, 12, 58);"/>
    <path class="fil10" d="M103446.6 65625.03l-103303.9 -35.65c-69.59,0 -126.07,-56.62 -126.07,-125.64l0 -64.47c0,-69.59 57.19,-126.21 126.07,-126.21l103303.9 35.65c68.45,0 125.5,56.62 125.5,126.21l0 64.61c0,68.88 -57.05,125.5 -125.5,125.5z"/>
    <path class="fil4" d="M31093.92 28507.94l-425.26 0c-38.79,0 -70.17,-31.52 -70.17,-70.31 0,-38.79 31.38,-70.15 70.17,-70.15l425.26 0c38.66,0 70.04,31.36 70.04,70.15 0,38.79 -31.38,70.31 -70.04,70.31zm849.11 0l-424.55 0c-38.79,0 -70.75,-31.52 -70.75,-70.31 0,-38.79 31.96,-70.15 70.75,-70.15l424.55 0c38.79,0 70.17,31.36 70.17,70.15 0,38.79 -31.38,70.31 -70.17,70.31zm849.12 0l-424.55 0c-38.79,0 -70.17,-31.52 -70.17,-70.31 0,-38.79 31.38,-70.15 70.17,-70.15l424.55 0c38.79,0 70.89,31.36 70.89,70.15 0,38.79 -32.1,70.31 -70.89,70.31zm849.83 0l-425.12 0c-38.79,0 -70.31,-31.52 -70.31,-70.31 0,-38.79 31.52,-70.15 70.31,-70.15l425.12 0c38.8,0 70.17,31.36 70.17,70.15 0,38.79 -31.37,70.31 -70.17,70.31zm849.12 0l-424.55 0c-38.79,0 -70.17,-31.52 -70.17,-70.31 0,-38.79 31.38,-70.15 70.17,-70.15l424.55 0c38.79,0 70.17,31.36 70.17,70.15 0,38.79 -31.38,70.31 -70.17,70.31zm849.11 0l-424.55 0c-38.65,0 -70.03,-31.52 -70.03,-70.31 0,-38.79 31.38,-70.15 70.03,-70.15l424.55 0c39.51,0 70.75,31.36 70.75,70.15 0,38.79 -31.24,70.31 -70.75,70.31zm849.83 0l-424.55 0c-38.79,0 -70.74,-31.52 -70.74,-70.31 0,-38.79 31.95,-70.15 70.74,-70.15l424.55 0c38.8,0 70.17,31.36 70.17,70.15 0,38.79 -31.37,70.31 -70.17,70.31zm849.12 0l-424.55 0c-38.79,0 -70.03,-31.52 -70.03,-70.31 0,-38.79 31.24,-70.15 70.03,-70.15l424.55 0c38.79,0 70.89,31.36 70.89,70.15 0,38.79 -32.1,70.31 -70.89,70.31zm849.83 0l-425.13 0c-38.79,0 -70.31,-31.52 -70.31,-70.31 0,-38.79 31.52,-70.15 70.31,-70.15l425.13 0c38.79,0 70.17,31.36 70.17,70.15 0,38.79 -31.38,70.31 -70.17,70.31zm849.11 0l-424.55 0c-38.79,0 -70.17,-31.52 -70.17,-70.31 0,-38.79 31.38,-70.15 70.17,-70.15l424.55 0c38.8,0 70.17,31.36 70.17,70.15 0,38.79 -31.37,70.31 -70.17,70.31zm849.12 0l-424.55 0c-38.65,0 -70.03,-31.52 -70.03,-70.31 0,-38.79 31.38,-70.15 70.03,-70.15l424.55 0c39.51,0 70.89,31.36 70.89,70.15 0,38.79 -31.38,70.31 -70.89,70.31zm849.82 0l-424.55 0c-38.79,0 -70.74,-31.52 -70.74,-70.31 0,-38.79 31.95,-70.15 70.74,-70.15l424.55 0c38.8,0 70.18,31.36 70.18,70.15 0,38.79 -31.38,70.31 -70.18,70.31zm849.12 0l-424.55 0c-38.65,0 -70.03,-31.52 -70.03,-70.31 0,-38.79 31.38,-70.15 70.03,-70.15l424.55 0c38.8,0 70.31,31.36 70.31,70.15 0,38.79 -31.51,70.31 -70.31,70.31zm849.84 0l-425.13 0c-38.79,0 -70.17,-31.52 -70.17,-70.31 0,-38.79 31.38,-70.15 70.17,-70.15l425.13 0c38.79,0 70.17,31.36 70.17,70.15 0,38.79 -31.38,70.31 -70.17,70.31zm849.1 0l-424.55 0c-38.79,0 -70.17,-31.52 -70.17,-70.31 0,-38.79 31.38,-70.15 70.17,-70.15l424.55 0c38.8,0 70.18,31.36 70.18,70.15 0,38.79 -31.38,70.31 -70.18,70.31zm849.26 0l-424.55 0c-38.79,0 -70.17,-31.52 -70.17,-70.31 0,-38.79 31.38,-70.15 70.17,-70.15l424.55 0c38.66,0 70.75,31.36 70.75,70.15 0,38.79 -32.09,70.31 -70.75,70.31zm849.7 0l-424.55 0c-38.8,0 -70.75,-31.52 -70.75,-70.31 0,-38.79 31.95,-70.15 70.75,-70.15l424.55 0c38.79,0 70.17,31.36 70.17,70.15 0,38.79 -31.38,70.31 -70.17,70.31zm-14839.86 122.8c-22.24,0 -44.35,-10.83 -57.89,-30.95 -22.12,-32.09 -13.55,-75.87 18.54,-97.55 129.78,-87.98 281.8,-134.62 439.24,-134.76l0 0c38.79,0 70.17,31.22 70.17,70.01 0.58,38.93 -31.38,70.31 -70.17,70.45 -129.2,0.3 -253.56,38.52 -360.66,110.68 -11.56,8.12 -25.81,12.12 -39.23,12.12zm15656.45 25.24c-15.4,0 -30.09,-4.71 -43.06,-14.55 -102.11,-78.58 -224.63,-124.35 -353.27,-132.2 -38.63,-2.42 -68.3,-35.79 -65.74,-74.58 2.43,-38.65 36.23,-68.74 74.45,-65.76 156.88,9.56 305.76,65.32 430.11,161.01 30.81,23.69 36.95,67.75 12.84,98.55 -13.54,18.13 -34.36,27.53 -55.33,27.53zm-15972.19 717.77c-38.79,0 -70.15,-31.52 -70.15,-70.31l0 -148.45c0,-102.27 19.1,-201.81 57.17,-295.93 14.83,-35.93 55.49,-53.34 91.7,-38.65 35.81,14.54 53.63,55.48 38.79,91.55 -31.36,77.17 -47.34,158.89 -47.34,243.03l0 148.45c0,38.79 -31.38,70.31 -70.17,70.31zm16252.7 43.21c-38.63,0 -70.01,-31.52 -70.01,-70.31l0 -191.66c0,-70.75 -11.69,-140.2 -33.95,-206.5 -12.26,-36.81 7.42,-76.73 44.36,-88.99 36.93,-12.56 76.29,7.27 89.27,44.2 26.95,80.72 40.5,165.28 40.5,251.29l0 191.66c0,38.79 -31.38,70.31 -70.17,70.31zm-16252.7 806.19c-38.79,0 -70.15,-31.52 -70.15,-70.31l0 -424.69c0,-38.79 31.36,-70.31 70.15,-70.31 38.79,0 70.17,31.52 70.17,70.31l0 424.69c0,38.79 -31.38,70.31 -70.17,70.31zm16252.7 43.22c-38.63,0 -70.01,-31.52 -70.01,-70.45l0 -424.57c0,-38.93 31.38,-70.31 70.01,-70.31 38.79,0 70.17,31.38 70.17,70.31l0 424.57c0,38.93 -31.38,70.45 -70.17,70.45zm-16252.7 806.2c-38.79,0 -70.15,-31.52 -70.15,-70.32l0 -424.84c0,-38.79 31.36,-70.17 70.15,-70.17 38.79,0 70.17,31.38 70.17,70.17l0 424.84c0,38.8 -31.38,70.32 -70.17,70.32zm16252.7 43.19c-38.63,0 -70.01,-31.52 -70.01,-70.31l0 -424.69c0,-38.95 31.38,-70.31 70.01,-70.31 38.79,0 70.17,31.36 70.17,70.31l0 424.69c0,38.79 -31.38,70.31 -70.17,70.31zm-16252.7 806.19c-38.79,0 -70.15,-31.52 -70.15,-70.45l0 -424.55c0,-38.79 31.36,-70.47 70.15,-70.47 38.79,0 70.17,31.68 70.17,70.47l0 424.55c0,38.93 -31.38,70.45 -70.17,70.45zm16252.7 43.07c-38.63,0 -70.01,-31.36 -70.01,-70.16l0 -424.84c0,-38.79 31.38,-70.31 70.01,-70.31 38.79,0 70.17,31.52 70.17,70.31l0 424.84c0,38.8 -31.38,70.16 -70.17,70.16zm-16252.7 806.33c-38.79,0 -70.15,-31.5 -70.15,-70.29l0 -424.71c0,-38.93 31.36,-70.31 70.15,-70.31 38.79,0 70.17,31.38 70.17,70.31l0 424.71c0,38.79 -31.38,70.29 -70.17,70.29zm16252.7 43.22c-38.63,0 -70.01,-31.52 -70.01,-70.45l0 -424.57c0,-38.93 31.38,-70.45 70.01,-70.45 38.79,0 70.17,31.52 70.17,70.45l0 424.57c0,38.93 -31.38,70.45 -70.17,70.45zm-16252.7 806.19c-38.79,0 -70.15,-31.51 -70.15,-70.31l0 -424.84c0,-38.66 31.36,-70.17 70.15,-70.17 38.79,0 70.17,31.51 70.17,70.17l0 424.84c0,38.8 -31.38,70.31 -70.17,70.31zm16252.7 43.07c-38.63,0 -70.01,-31.38 -70.01,-70.17l0 -424.69c0,-38.79 31.38,-70.31 70.01,-70.31 38.79,0 70.17,31.52 70.17,70.31l0 424.69c0,38.79 -31.38,70.17 -70.17,70.17zm-16252.7 806.18c-38.79,0 -70.15,-31.38 -70.15,-70.17l0 -424.69c0,-38.79 31.36,-70.31 70.15,-70.31 38.79,0 70.17,31.52 70.17,70.31l0 424.69c0,38.79 -31.38,70.17 -70.17,70.17zm16252.7 43.21c-38.63,0 -70.01,-31.36 -70.01,-70.3l0 -424.7c0,-38.8 31.38,-70.17 70.01,-70.17 38.79,0 70.17,31.37 70.17,70.17l0 424.7c0,38.94 -31.38,70.3 -70.17,70.3zm-16252.7 806.05c-38.79,0 -70.15,-31.38 -70.15,-70.01l0 -424.57c0,-38.79 31.36,-70.31 70.15,-70.31 38.79,0 70.17,31.52 70.17,70.31l0 424.57c0,38.63 -31.38,70.01 -70.17,70.01zm16252.7 43.07c-38.63,0 -70.01,-31.37 -70.01,-70.02l0 -424.57c0,-38.77 31.38,-70.15 70.01,-70.15 38.79,0 70.17,31.38 70.17,70.15l0 424.57c0,38.65 -31.38,70.02 -70.17,70.02zm-16252.7 806.76c-38.79,0 -70.15,-31.93 -70.15,-70.73l0 -424.56c0,-38.8 31.36,-70.16 70.15,-70.16 38.79,0 70.17,31.36 70.17,70.16l0 424.56c0,38.8 -31.38,70.73 -70.17,70.73zm16252.7 43.07c-38.63,0 -70.01,-31.36 -70.01,-70.15l0 -425.15c0,-38.77 31.38,-70.15 70.01,-70.15 38.79,0 70.17,31.38 70.17,70.15l0 425.15c0,38.79 -31.38,70.15 -70.17,70.15zm-16252.7 806.04c-38.79,0 -70.15,-31.38 -70.15,-70.01l0 -424.57c0,-38.79 31.36,-70.87 70.15,-70.87 38.79,0 70.17,32.08 70.17,70.87l0 424.57c0,38.63 -31.38,70.01 -70.17,70.01zm16252.7 43.07c-38.63,0 -70.01,-31.36 -70.01,-70.16l0 -424.42c0,-38.8 31.38,-70.87 70.01,-70.87 38.79,0 70.17,32.07 70.17,70.87l0 424.42c0,38.8 -31.38,70.16 -70.17,70.16zm-15973.32 718.77c-14.83,0 -30.09,-4.99 -42.49,-14.69 -124.93,-95.97 -217.2,-225.9 -266.98,-374.21 -12.4,-36.94 7.99,-76.87 44.93,-89.27 36.21,-12.28 76.3,7.41 88.56,44.34 40.64,122.51 116.24,228.34 219.06,307.61 30.8,23.39 36.35,67.75 12.98,98.55 -14.27,17.83 -34.52,27.67 -56.06,27.67zm15659.01 25.25c-22.82,0 -44.92,-11.12 -58.47,-30.8 -21.54,-32.53 -13.55,-76.31 18.4,-97.83 107.1,-72.6 189.53,-174.13 237.59,-293.51 14.13,-36.23 55.34,-53.48 91.69,-39.37 35.65,14.71 52.92,55.35 38.66,91.72 -58.47,145.17 -158.73,268.82 -288.5,357.52 -12.27,7.98 -25.82,12.27 -39.37,12.27zm-14842.55 123.64l-378.92 0c-16.69,0 -33.23,-0.56 -50.48,-1.85 -38.79,-2.43 -67.74,-35.65 -65.18,-74.45 2.42,-38.79 35.65,-68.88 74.44,-65.88 13.42,0.72 27.67,1.28 41.22,1.28l378.92 0c38.79,0 70.31,31.38 70.31,70.17 0,38.79 -31.52,70.73 -70.31,70.73zm849.26 0l-424.55 0c-38.79,0 -70.17,-31.94 -70.17,-70.73 0,-38.79 31.38,-70.17 70.17,-70.17l424.55 0c38.79,0 70.17,31.38 70.17,70.17 0,38.79 -31.38,70.73 -70.17,70.73zm849.68 0l-425.12 0c-38.79,0 -70.17,-31.94 -70.17,-70.73 0,-38.79 31.38,-70.17 70.17,-70.17l425.12 0c38.8,0 70.17,31.38 70.17,70.17 0,38.79 -31.37,70.73 -70.17,70.73zm849.26 0l-424.55 0c-38.79,0 -70.75,-31.94 -70.75,-70.73 0,-38.79 31.96,-70.17 70.75,-70.17l424.55 0c38.65,0 70.17,31.38 70.17,70.17 0,38.79 -31.52,70.73 -70.17,70.73zm849.12 0l-424.55 0c-38.79,0 -70.17,-31.94 -70.17,-70.73 0,-38.79 31.38,-70.17 70.17,-70.17l424.55 0c38.79,0 70.75,31.38 70.75,70.17 0,38.79 -31.96,70.73 -70.75,70.73zm849.68 0l-425.12 0c-38.79,0 -70.17,-31.94 -70.17,-70.73 0,-38.79 31.38,-70.17 70.17,-70.17l425.12 0c38.8,0 70.31,31.38 70.31,70.17 0,38.79 -31.51,70.73 -70.31,70.73zm849.26 0l-424.55 0c-38.79,0 -70.17,-31.94 -70.17,-70.73 0,-38.79 31.38,-70.17 70.17,-70.17l424.55 0c38.79,0 70.17,31.38 70.17,70.17 0,38.79 -31.38,70.73 -70.17,70.73zm849.83 0l-425.26 0c-38.79,0 -70.17,-31.94 -70.17,-70.73 0,-38.79 31.38,-70.17 70.17,-70.17l425.26 0c38.66,0 70.18,31.38 70.18,70.17 0,38.79 -31.52,70.73 -70.18,70.73zm849.11 0l-424.55 0c-38.79,0 -70.74,-31.94 -70.74,-70.73 0,-38.79 31.95,-70.17 70.74,-70.17l424.55 0c38.79,0 70.17,31.38 70.17,70.17 0,38.79 -31.38,70.73 -70.17,70.73zm849.12 0l-424.55 0c-38.79,0 -70.17,-31.94 -70.17,-70.73 0,-38.79 31.38,-70.17 70.17,-70.17l424.55 0c38.79,0 70.17,31.38 70.17,70.17 0,38.79 -31.38,70.73 -70.17,70.73zm849.83 0l-425.26 0c-38.79,0 -70.03,-31.94 -70.03,-70.73 0,-38.79 31.24,-70.17 70.03,-70.17l425.26 0c38.66,0 70.18,31.38 70.18,70.17 0,38.79 -31.52,70.73 -70.18,70.73zm849.11 0l-424.55 0c-38.79,0 -70.17,-31.94 -70.17,-70.73 0,-38.79 31.38,-70.17 70.17,-70.17l424.55 0c38.79,0 70.17,31.38 70.17,70.17 0,38.79 -31.38,70.73 -70.17,70.73zm849.26 0l-424.69 0c-38.79,0 -70.17,-31.94 -70.17,-70.73 0,-38.79 31.38,-70.17 70.17,-70.17l424.69 0c38.65,0 70.75,31.38 70.75,70.17 0,38.79 -32.1,70.73 -70.75,70.73zm849.69 0l-424.55 0c-38.79,0 -70.74,-31.94 -70.74,-70.73 0,-38.79 31.95,-70.17 70.74,-70.17l424.55 0c38.8,0 70.18,31.38 70.18,70.17 0,38.79 -31.38,70.73 -70.18,70.73zm849.12 0l-424.55 0c-38.79,0 -70.17,-31.94 -70.17,-70.73 0,-38.79 31.38,-70.17 70.17,-70.17l424.55 0c38.79,0 70.17,31.38 70.17,70.17 0,38.79 -31.38,70.73 -70.17,70.73zm849.83 0l-425.27 0c-38.65,0 -70.03,-31.94 -70.03,-70.73 0,-38.79 31.38,-70.17 70.03,-70.17l425.27 0c38.79,0 70.17,31.38 70.17,70.17 0,38.79 -31.38,70.73 -70.17,70.73zm849.11 0l-424.55 0c-38.79,0 -70.17,-31.94 -70.17,-70.73 0,-38.79 31.38,-70.17 70.17,-70.17l424.55 0c38.8,0 70.18,31.38 70.18,70.17 0,38.79 -31.38,70.73 -70.18,70.73zm852.26 0l-427.69 0c-38.79,0 -70.17,-31.94 -70.17,-70.73 0,-38.79 31.38,-70.17 70.17,-70.17l424.69 0c38.65,0 71.88,31.38 71.88,70.17 0,38.79 -30.09,70.73 -68.88,70.73z"/>
    <path class="fil4" d="M62445.46 47348.51l-375.07 0c-34.22,0 -62.76,-27.68 -62.76,-62.18 0,-34.52 27.11,-62.19 61.33,-62.19l376.5 0c34.22,0 62.75,27.67 62.75,62.19 0,34.5 -28.53,62.18 -62.75,62.18zm752.99 0l-376.5 0c-34.22,0 -62.74,-27.68 -62.74,-62.18 0,-34.52 28.52,-62.19 62.74,-62.19l376.5 0c34.24,0 61.33,27.67 61.33,62.19 0,34.5 -27.09,62.18 -61.33,62.18zm753.01 0l-377.93 0c-34.22,0 -61.33,-27.68 -61.33,-62.18 0,-34.52 27.11,-62.19 61.33,-62.19l377.93 0c34.22,0 61.33,27.67 61.33,62.19 0,34.5 -27.11,62.18 -61.33,62.18zm751.55 0l-376.5 0c-34.22,0 -61.32,-27.68 -61.32,-62.18 0,-34.52 27.1,-62.19 61.32,-62.19l376.5 0c34.24,0 62.76,27.67 62.76,62.19 0,34.5 -28.52,62.18 -62.76,62.18zm751.58 0l-375.08 0c-34.23,0 -62.74,-27.68 -62.74,-62.18 0,-34.52 28.51,-62.19 62.74,-62.19l375.08 0c35.65,0 62.74,27.67 62.74,62.19 0,34.5 -27.09,62.18 -62.74,62.18zm752.99 0l-375.06 0c-35.66,0 -62.76,-27.68 -62.76,-62.18 0,-34.52 27.1,-62.19 62.76,-62.19l375.06 0c34.23,0 62.76,27.67 62.76,62.19 0,34.5 -28.53,62.18 -62.76,62.18zm753 0l-376.5 0c-34.22,0 -62.74,-27.68 -62.74,-62.18 0,-34.52 28.52,-62.19 62.74,-62.19l376.5 0c34.24,0 61.32,27.67 61.32,62.19 0,34.5 -27.08,62.18 -61.32,62.18zm753 0l-376.52 0c-34.22,0 -62.74,-27.68 -62.74,-62.18 0,-34.52 28.52,-62.19 62.74,-62.19l376.52 0c34.22,0 61.31,27.67 61.31,62.19 0,34.5 -27.09,62.18 -61.31,62.18zm751.56 0l-376.5 0c-34.22,0 -61.33,-27.68 -61.33,-62.18 0,-34.52 27.11,-62.19 61.33,-62.19l376.5 0c34.22,0 62.76,27.67 62.76,62.19 0,34.5 -28.54,62.18 -62.76,62.18zm752.99 0.56l-2.84 0 -8.57 -0.56 -365.09 0c-34.22,0 -62.74,-27.68 -62.74,-62.18 0,-34.52 28.52,-62.19 62.74,-62.19l365.09 0 14.27 0.58c34.22,1.27 59.9,30.23 58.47,64.61 -1.43,33.36 -28.52,59.74 -61.33,59.74zm-7393.03 612.8c-34.24,0 -62.76,-27.66 -62.76,-62.02l0 -379.08c1.43,-33.78 28.52,-61.61 64.19,-59.74 35.65,1.85 61.31,30.8 59.89,64.59l0 374.23c0,34.36 -27.1,62.02 -61.32,62.02zm7626.92 10c-34.22,0 -61.31,-27.82 -61.31,-62.18l0 -376.08c0,-34.36 27.09,-62.03 61.31,-62.03 34.24,0 62.76,27.67 62.76,62.03l0 376.08c0,34.36 -28.52,62.18 -62.76,62.18zm-7626.92 742.58c-34.24,0 -62.76,-27.67 -62.76,-62.18l0 -376.5c0,-34.5 28.52,-62.18 62.76,-62.18 34.22,0 61.32,27.68 61.32,62.18l0 376.5c0,34.51 -27.1,62.18 -61.32,62.18zm7626.92 9.99c-34.22,0 -61.31,-27.82 -61.31,-62.18l0 -376.08c0,-34.36 27.09,-62.74 61.31,-62.74 34.24,0 62.76,28.38 62.76,62.74l0 376.08c0,34.36 -28.52,62.18 -62.76,62.18zm-7626.92 742.58c-34.24,0 -62.76,-28.24 -62.76,-62.18l0 -376.5c0,-34.52 28.52,-62.18 62.76,-62.18 34.22,0 61.32,27.66 61.32,62.18l0 376.5c0,33.94 -27.1,62.18 -61.32,62.18zm7626.92 9.84l-1.42 0c-34.24,-1.27 -61.32,-30.09 -59.89,-63.89l0 -374.79c0,-33.94 27.09,-62.18 61.31,-62.18 34.24,0 62.76,28.24 62.76,62.18l0 378.36c-1.43,33.95 -28.52,60.32 -62.76,60.32zm-7017.97 238.16l-379.36 0c-34.22,-1.85 -61.31,-30.8 -58.47,-65.17 1.43,-34.51 28.52,-60.33 64.18,-59.04l373.65 0c34.22,0 62.76,27.67 62.76,62.04 0,34.51 -28.54,62.17 -62.76,62.17zm752.99 0l-376.5 0c-34.22,0 -62.74,-27.66 -62.74,-62.17 0,-34.37 28.52,-62.04 62.74,-62.04l376.5 0c34.24,0 61.33,27.67 61.33,62.04 0,34.51 -27.09,62.17 -61.33,62.17zm751.58 0l-375.07 0c-34.23,0 -62.75,-27.66 -62.75,-62.17 0,-34.37 28.52,-62.04 62.75,-62.04l375.07 0c34.22,0 62.74,27.67 62.74,62.04 0,34.51 -28.52,62.17 -62.74,62.17zm752.98 0l-376.49 0c-34.23,0 -62.74,-27.66 -62.74,-62.17 0,-34.37 28.51,-62.04 62.74,-62.04l376.49 0c34.23,0 62.76,27.67 62.76,62.04 0,34.51 -28.53,62.17 -62.76,62.17zm753 0l-376.5 0c-35.65,0 -62.74,-27.66 -62.74,-62.17 0,-34.37 27.09,-62.04 62.74,-62.04l376.5 0c34.24,0 61.32,27.67 61.32,62.04 0,34.51 -27.08,62.17 -61.32,62.17zm751.58 0l-376.5 0c-34.22,0 -61.33,-27.66 -61.33,-62.17 0,-34.37 27.11,-62.04 61.33,-62.04l376.5 0c34.22,0 62.75,27.67 62.75,62.04 0,34.51 -28.53,62.17 -62.75,62.17zm752.99 0l-376.5 0c-34.22,0 -62.74,-27.66 -62.74,-62.17 0,-34.37 28.52,-62.04 62.74,-62.04l376.5 0c34.24,0 62.76,27.67 62.76,62.04 0,34.51 -28.52,62.17 -62.76,62.17zm751.57 0l-375.09 0c-34.22,0 -62.74,-27.66 -62.74,-62.17 0,-34.37 28.52,-62.04 62.74,-62.04l375.09 0c34.22,0 62.74,27.67 62.74,62.04 0,34.51 -28.52,62.17 -62.74,62.17zm752.99 0l-376.5 0c-34.22,0 -62.75,-27.66 -62.75,-62.17 0,-34.37 28.53,-62.04 62.75,-62.04l376.5 0c34.22,0 62.76,27.67 62.76,62.04 0,34.51 -28.54,62.17 -62.76,62.17zm754.42 0l-377.92 0c-34.22,0 -62.74,-27.66 -62.74,-62.17 0,-34.37 28.52,-62.04 62.74,-62.04l376.49 0c34.24,0 62.76,27.67 62.76,62.04 0,34.51 -25.67,62.17 -61.33,62.17z"/>
    <path class="fil4" d="M37098.34 21650.14l-414.71 0c-39.51,0 -71.44,-31.52 -71.44,-70.31 0,-38.65 30.8,-70.31 69.59,-70.31l416.56 0c38.8,0 70.18,31.66 70.18,70.31 0,38.79 -31.38,70.31 -70.18,70.31zm832.44 0l-416.58 0c-38.65,0 -70.17,-31.52 -70.17,-70.31 0,-38.65 31.52,-70.31 70.17,-70.31l416.58 0c38.79,0 70.15,31.66 70.15,70.31 0,38.79 -31.36,70.31 -70.15,70.31zm832.56 0l-416 0c-38.79,0 -70.73,-31.52 -70.73,-70.31 0,-38.65 31.94,-70.31 70.73,-70.31l416 0c38.79,0 70.89,31.66 70.89,70.31 0,38.79 -32.1,70.31 -70.89,70.31zm832.59 0l-416.01 0c-38.79,0 -70.17,-31.52 -70.17,-70.31 0,-38.65 31.38,-70.31 70.17,-70.31l416.01 0c38.79,0 70.72,31.66 70.72,70.31 0,38.79 -31.93,70.31 -70.72,70.31zm833.13 0l-416.57 0c-38.79,0 -70.17,-31.52 -70.17,-70.31 0,-38.65 31.38,-70.31 70.17,-70.31l416.57 0c38.79,0 70.17,31.66 70.17,70.31 0,38.79 -31.38,70.31 -70.17,70.31zm832.58 0l-416.58 0c-38.79,0 -70.15,-31.52 -70.15,-70.31 0,-38.65 31.36,-70.31 70.15,-70.31l416.58 0c38.79,0 70.17,31.66 70.17,70.31 0,38.79 -31.38,70.31 -70.17,70.31zm832.56 0l-416.7 0c-38.65,0 -70.03,-31.52 -70.03,-70.31 0,-38.65 31.38,-70.31 70.03,-70.31l416.7 0c38.66,0 70.04,31.66 70.04,70.31 0,38.79 -31.38,70.31 -70.04,70.31zm585.14 395.61c-38.79,0 -70.16,-31.51 -70.16,-70.31l0 -49.78c0,-99.4 -54.05,-191.52 -140.9,-240.3 -33.8,-19.1 -45.5,-62.03 -26.53,-95.83 18.55,-33.81 61.61,-45.79 95.41,-26.81 131.07,73.73 212.35,212.78 212.35,362.94l0 49.78c0,38.8 -31.38,70.31 -70.17,70.31zm-6342.26 240.73c-38.79,0 -70.17,-31.38 -70.17,-70.17l0 -290.65c0,-50.91 9.28,-100.68 27.11,-147.88 14.11,-36.36 54.75,-54.63 91.12,-40.79 36.37,13.83 54.19,54.47 40.64,90.7 -11.69,31.24 -17.97,64.17 -17.97,97.97l0 290.65c0,38.79 -31.38,70.17 -70.73,70.17zm6342.26 591.98c-38.79,0 -70.16,-31.52 -70.16,-70.31l0 -416.42c0,-38.8 31.37,-70.18 70.16,-70.18 38.79,0 70.17,31.38 70.17,70.18l0 416.42c0,38.79 -31.38,70.31 -70.17,70.31zm-6342.26 240.73c-38.79,0 -70.17,-31.52 -70.17,-70.31l0 -416.28c0,-38.94 31.38,-70.31 70.17,-70.31 39.35,0 70.73,31.37 70.73,70.31l0 416.28c0,38.79 -31.38,70.31 -70.73,70.31zm6342.26 591.84c-38.79,0 -70.16,-31.52 -70.16,-70.31l0 -416.28c0,-38.79 31.37,-70.31 70.16,-70.31 38.79,0 70.17,31.52 70.17,70.31l0 416.28c0,38.79 -31.38,70.31 -70.17,70.31zm-6342.26 240.73c-38.79,0 -70.17,-31.37 -70.17,-70.3l0 -416.3c0,-38.79 31.38,-70.31 70.17,-70.31 39.35,0 70.73,31.52 70.73,70.31l0 416.3c0,38.93 -31.38,70.3 -70.73,70.3zm6342.26 591.99c-38.79,0 -70.16,-31.51 -70.16,-70.45l0 -416.3c0,-38.79 31.37,-70.29 70.16,-70.29 38.79,0 70.17,31.5 70.17,70.29l0 416.3c0,38.94 -31.38,70.45 -70.17,70.45zm-6342.26 240.73c-38.79,0 -70.17,-31.52 -70.17,-70.31l0 -416.29c0,-38.93 31.38,-70.31 70.17,-70.31 39.35,0 70.73,31.38 70.73,70.31l0 416.29c0,38.79 -31.38,70.31 -70.73,70.31zm6342.26 591.84c-38.79,0 -70.16,-31.52 -70.16,-70.31l0 -416.28c0,-38.8 31.37,-70.32 70.16,-70.32 38.79,0 70.17,31.52 70.17,70.32l0 416.28c0,38.79 -31.38,70.31 -70.17,70.31zm-6342.26 240.74c-38.79,0 -70.17,-31.38 -70.17,-70.17l0 -416.42c0,-38.8 31.38,-70.31 70.17,-70.31 39.35,0 70.73,31.51 70.73,70.31l0 416.42c0,38.79 -31.38,70.17 -70.73,70.17zm6342.26 591.97c-38.79,0 -70.16,-31.52 -70.16,-70.45l0 -416.28c0,-38.79 31.37,-70.31 70.16,-70.31 38.79,0 70.17,31.52 70.17,70.31l0 416.28c0,38.93 -31.38,70.45 -70.17,70.45zm-6342.26 240.73c-38.79,0 -70.17,-31.51 -70.17,-70.3l0 -416.3c0,-38.79 31.38,-70.31 70.17,-70.31 39.35,0 70.73,31.52 70.73,70.31l0 416.3c0,38.79 -31.38,70.3 -70.73,70.3zm6320.17 589.13c-7.99,0 -16.69,-1.27 -24.67,-4.41 -36.36,-13.69 -54.76,-54.19 -41.21,-90.56 11.68,-30.94 17.82,-63.61 17.82,-97.12l0 -291.78c0,-38.79 31.37,-70.31 70.16,-70.31 38.79,0 70.17,31.52 70.17,70.31l0 291.78c0,50.48 -8.7,99.68 -26.53,146.6 -10.41,28.24 -37.5,45.49 -65.74,45.49zm-6144.19 179.28c-12.26,0 -23.95,-2.86 -35.08,-9.13 -129.77,-73.88 -211.07,-212.64 -211.07,-362.24l0 -51.06c0,-38.79 31.38,-70.17 70.17,-70.17 39.35,0 70.73,31.38 70.73,70.17l0 51.06c0,99.11 53.62,190.96 139.77,239.87 33.8,19.25 45.49,62.18 26.53,95.84 -12.98,22.82 -36.94,35.66 -61.05,35.66zm824.59 44.77l-416.01 0c-39.37,0 -70.73,-31.52 -70.73,-70.31 0,-38.79 31.36,-70.31 70.73,-70.31l416.01 0c38.79,0 70.17,31.52 70.17,70.31 0,38.79 -31.38,70.31 -70.17,70.31zm832.58 0l-416.01 0c-38.79,0 -70.74,-31.52 -70.74,-70.31 0,-38.79 31.95,-70.31 70.74,-70.31l416.01 0c38.79,0 70.73,31.52 70.73,70.31 0,38.79 -31.94,70.31 -70.73,70.31zm832.56 0l-416 0c-38.79,0 -70.15,-31.52 -70.15,-70.31 0,-38.79 31.36,-70.31 70.15,-70.31l416 0c39.37,0 70.75,31.52 70.75,70.31 0,38.79 -31.38,70.31 -70.75,70.31zm833.14 0l-416.56 0c-38.79,0 -70.17,-31.52 -70.17,-70.31 0,-38.79 31.38,-70.31 70.17,-70.31l416.56 0c38.8,0 70.18,31.52 70.18,70.31 0,38.79 -31.38,70.31 -70.18,70.31zm832.44 0l-416.44 0c-38.79,0 -70.3,-31.52 -70.3,-70.31 0,-38.79 31.51,-70.31 70.3,-70.31l416.44 0c38.79,0 70.17,31.52 70.17,70.31 0,38.79 -31.38,70.31 -70.17,70.31zm832.56 0l-416.56 0c-38.65,0 -70.17,-31.52 -70.17,-70.31 0,-38.79 31.52,-70.31 70.17,-70.31l416.56 0c38.79,0 70.17,31.52 70.17,70.31 0,38.79 -31.38,70.31 -70.17,70.31zm835.01 0l-419 0c-38.78,0 -70.16,-31.52 -70.16,-70.31 0,-38.79 31.38,-70.31 70.16,-70.31l416.58 0c38.79,0 71.3,31.52 71.3,70.31 0,38.79 -30.09,70.31 -68.88,70.31z"/>
    <path class="fil4" d="M62445.46 50820.85l-375.07 0c-34.22,0 -62.76,-27.82 -62.76,-62.19 0,-34.51 27.11,-62.18 61.33,-62.18l376.5 0c34.22,0 62.75,27.67 62.75,62.18 0,34.37 -28.53,62.19 -62.75,62.19zm752.99 0l-376.5 0c-34.22,0 -62.74,-27.82 -62.74,-62.19 0,-34.51 28.52,-62.18 62.74,-62.18l376.5 0c34.24,0 61.33,27.67 61.33,62.18 0,34.37 -27.09,62.19 -61.33,62.19zm753.01 0l-377.93 0c-34.22,0 -61.33,-27.82 -61.33,-62.19 0,-34.51 27.11,-62.18 61.33,-62.18l377.93 0c34.22,0 61.33,27.67 61.33,62.18 0,34.37 -27.11,62.19 -61.33,62.19zm751.55 0l-376.5 0c-34.22,0 -61.32,-27.82 -61.32,-62.19 0,-34.51 27.1,-62.18 61.32,-62.18l376.5 0c34.24,0 62.76,27.67 62.76,62.18 0,34.37 -28.52,62.19 -62.76,62.19zm751.58 0l-375.08 0c-34.23,0 -62.74,-27.82 -62.74,-62.19 0,-34.51 28.51,-62.18 62.74,-62.18l375.08 0c35.65,0 62.74,27.67 62.74,62.18 0,34.37 -27.09,62.19 -62.74,62.19zm752.99 0l-375.06 0c-35.66,0 -62.76,-27.82 -62.76,-62.19 0,-34.51 27.1,-62.18 62.76,-62.18l375.06 0c34.23,0 62.76,27.67 62.76,62.18 0,34.37 -28.53,62.19 -62.76,62.19zm753 0l-376.5 0c-34.22,0 -62.74,-27.82 -62.74,-62.19 0,-34.51 28.52,-62.18 62.74,-62.18l376.5 0c34.24,0 61.32,27.67 61.32,62.18 0,34.37 -27.08,62.19 -61.32,62.19zm753 0l-376.52 0c-34.22,0 -62.74,-27.82 -62.74,-62.19 0,-34.51 28.52,-62.18 62.74,-62.18l376.52 0c34.22,0 61.31,27.67 61.31,62.18 0,34.37 -27.09,62.19 -61.31,62.19zm751.56 0l-376.5 0c-34.22,0 -61.33,-27.82 -61.33,-62.19 0,-34.51 27.11,-62.18 61.33,-62.18l376.5 0c34.22,0 62.76,27.67 62.76,62.18 0,34.37 -28.54,62.19 -62.76,62.19zm752.99 0.56l-2.84 0 -8.57 -0.56 -365.09 0c-34.22,0 -62.74,-27.82 -62.74,-62.19 0,-34.51 28.52,-62.18 62.74,-62.18l365.09 0 14.27 0.58c34.22,1.27 59.9,30.23 58.47,64.59 -1.43,33.23 -28.52,59.76 -61.33,59.76zm-7393.03 612.8c-34.24,0 -62.76,-27.66 -62.76,-62.02l0 -379.08c1.43,-34.5 28.52,-61.03 64.19,-59.74 35.65,1.27 61.31,30.8 59.89,64.59l0 374.23c0,34.36 -27.1,62.02 -61.32,62.02zm7626.92 9.84c-34.22,0 -61.31,-27.66 -61.31,-62.03l0 -376.07c0,-34.37 27.09,-62.74 61.31,-62.74 34.24,0 62.76,28.37 62.76,62.74l0 376.07c0,34.37 -28.52,62.03 -62.76,62.03zm-7626.92 742.74c-34.24,0 -62.76,-28.24 -62.76,-62.19l0 -376.49c0,-34.52 28.52,-62.18 62.76,-62.18 34.22,0 61.32,27.66 61.32,62.18l0 376.49c0,33.95 -27.1,62.19 -61.32,62.19zm7626.92 9.83c-34.22,0 -61.31,-27.66 -61.31,-62.02l0 -376.08c0,-34.52 27.09,-62.76 61.31,-62.76 34.24,0 62.76,28.24 62.76,62.76l0 376.08c0,34.36 -28.52,62.02 -62.76,62.02zm-7626.92 742.73c-34.24,0 -62.76,-28.24 -62.76,-62.76l0 -375.92c0,-34.52 28.52,-62.18 62.76,-62.18 34.22,0 61.32,27.66 61.32,62.18l0 375.92c0,34.52 -27.1,62.76 -61.32,62.76zm7626.92 9.84l-1.42 0c-34.24,-1.14 -61.32,-30.09 -59.89,-64.61l0 -374.07c0,-34.52 27.09,-62.18 61.31,-62.18 34.24,0 62.76,27.66 62.76,62.18l0 378.34c-1.43,33.95 -28.52,60.34 -62.76,60.34zm-7017.97 238.16l-379.36 0c-34.22,-1.85 -61.31,-31.38 -58.47,-65.17 1.43,-34.52 28.52,-61.6 64.18,-59.76l9.99 0.58 363.66 0c34.22,0 62.76,27.8 62.76,62.17 0,34.51 -28.54,62.18 -62.76,62.18zm752.99 0l-376.5 0c-34.22,0 -62.74,-27.67 -62.74,-62.18 0,-34.37 28.52,-62.17 62.74,-62.17l376.5 0c34.24,0 61.33,27.8 61.33,62.17 0,34.51 -27.09,62.18 -61.33,62.18zm751.58 0l-375.07 0c-34.23,0 -62.75,-27.67 -62.75,-62.18 0,-34.37 28.52,-62.17 62.75,-62.17l375.07 0c34.22,0 62.74,27.8 62.74,62.17 0,34.51 -28.52,62.18 -62.74,62.18zm752.98 0l-376.49 0c-34.23,0 -62.74,-27.67 -62.74,-62.18 0,-34.37 28.51,-62.17 62.74,-62.17l376.49 0c34.23,0 62.76,27.8 62.76,62.17 0,34.51 -28.53,62.18 -62.76,62.18zm753 0l-376.5 0c-35.65,0 -62.74,-27.67 -62.74,-62.18 0,-34.37 27.09,-62.17 62.74,-62.17l376.5 0c34.24,0 61.32,27.8 61.32,62.17 0,34.51 -27.08,62.18 -61.32,62.18zm751.58 0l-376.5 0c-34.22,0 -61.33,-27.67 -61.33,-62.18 0,-34.37 27.11,-62.17 61.33,-62.17l376.5 0c34.22,0 62.75,27.8 62.75,62.17 0,34.51 -28.53,62.18 -62.75,62.18zm752.99 0l-376.5 0c-34.22,0 -62.74,-27.67 -62.74,-62.18 0,-34.37 28.52,-62.17 62.74,-62.17l376.5 0c34.24,0 62.76,27.8 62.76,62.17 0,34.51 -28.52,62.18 -62.76,62.18zm751.57 0l-375.09 0c-34.22,0 -62.74,-27.67 -62.74,-62.18 0,-34.37 28.52,-62.17 62.74,-62.17l375.09 0c34.22,0 62.74,27.8 62.74,62.17 0,34.51 -28.52,62.18 -62.74,62.18zm752.99 0l-376.5 0c-34.22,0 -62.75,-27.67 -62.75,-62.18 0,-34.37 28.53,-62.17 62.75,-62.17l376.5 0c34.22,0 62.76,27.8 62.76,62.17 0,34.51 -28.54,62.18 -62.76,62.18zm754.42 0l-377.92 0c-34.22,0 -62.74,-27.67 -62.74,-62.18 0,-34.37 28.52,-62.17 62.74,-62.17l376.49 0c34.24,0 62.76,27.8 62.76,62.17 0,34.51 -25.67,62.18 -61.33,62.18z"/>
    <path class="fil4" d="M28400.55 41150.85l-371.65 0c-34.52,0 -62.76,-27.66 -62.76,-62.18 0,-34.36 27.11,-62.04 61.61,-62.04l372.8 0c34.5,0 62.18,27.68 62.18,62.04 0,34.52 -27.68,62.18 -62.18,62.18zm745.85 0l-372.94 0c-34.5,0 -62.16,-27.66 -62.16,-62.18 0,-34.36 27.66,-62.04 62.16,-62.04l372.94 0c34.38,0 62.04,27.68 62.04,62.04 0,34.52 -27.66,62.18 -62.04,62.18zm745.72 0l-372.92 0c-34.38,0 -62.05,-27.66 -62.05,-62.18 0,-34.36 27.67,-62.04 62.05,-62.04l372.92 0c34.52,0 62.76,27.68 62.76,62.04 0,34.52 -28.24,62.18 -62.76,62.18zm746.45 0l-372.94 0c-34.52,0 -62.76,-27.66 -62.76,-62.18 0,-34.36 28.24,-62.04 62.76,-62.04l372.94 0c34.36,0 62.16,27.68 62.16,62.04 0,34.52 -27.8,62.18 -62.16,62.18zm745.72 0l-372.94 0c-34.36,0 -62.02,-27.66 -62.02,-62.18 0,-34.36 27.66,-62.04 62.02,-62.04l372.94 0c34.52,0 62.18,27.68 62.18,62.04 0,34.52 -27.66,62.18 -62.18,62.18zm745.85 0l-372.92 0c-34.52,0 -62.19,-27.66 -62.19,-62.18 0,-34.36 27.67,-62.04 62.19,-62.04l372.92 0c34.38,0 62.76,27.68 62.76,62.04 0,34.52 -28.38,62.18 -62.76,62.18zm746.29 0l-373.49 0c-33.81,0 -62.05,-27.66 -62.05,-62.18 0,-34.36 28.24,-62.04 62.05,-62.04l373.49 0c34.52,0 62.18,27.68 62.18,62.04 0,34.52 -27.66,62.18 -62.18,62.18zm745.88 0l-372.94 0c-34.36,0 -62.18,-27.66 -62.18,-62.18 0,-34.36 27.82,-62.04 62.18,-62.04l372.94 0c34.36,0 62.04,27.68 62.04,62.04 0,34.52 -27.68,62.18 -62.04,62.18zm745.72 0l-372.94 0c-34.36,0 -62.03,-27.66 -62.03,-62.18 0,-34.36 27.67,-62.04 62.03,-62.04l372.94 0c34.52,0 62.18,27.68 62.18,62.04 0,34.52 -27.66,62.18 -62.18,62.18zm745.86 0l-372.93 0c-34.52,0 -62.19,-27.66 -62.19,-62.18 0,-34.36 27.67,-62.04 62.19,-62.04l372.93 0c34.37,0 62.74,27.68 62.74,62.04 0,34.52 -28.37,62.18 -62.74,62.18zm746.3 0l-372.8 0c-34.52,0 -62.9,-27.66 -62.9,-62.18 0,-34.36 28.38,-62.04 62.9,-62.04l372.8 0c34.5,0 62.16,27.68 62.16,62.04 0,34.52 -27.66,62.18 -62.16,62.18zm745.86 0l-372.94 0c-34.36,0 -62.17,-27.66 -62.17,-62.18 0,-34.36 27.81,-62.04 62.17,-62.04l372.94 0c34.52,0 62.18,27.68 62.18,62.04 0,34.52 -27.66,62.18 -62.18,62.18zm745.71 0l-372.78 0c-34.52,0 -62.19,-27.66 -62.19,-62.18 0,-34.36 27.67,-62.04 62.19,-62.04l372.78 0c34.51,0 62.18,27.68 62.18,62.04 0,34.52 -27.67,62.18 -62.18,62.18zm746.45 0l-373.52 0c-33.8,0 -62.18,-27.66 -62.18,-62.18 0,-34.36 28.38,-62.04 62.18,-62.04l373.52 0c33.78,0 62.16,27.68 62.16,62.04 0,34.52 -28.38,62.18 -62.16,62.18zm745.72 0l-372.94 0c-34.36,0 -62.03,-27.66 -62.03,-62.18 0,-34.36 27.67,-62.04 62.03,-62.04l372.94 0c34.52,0 62.18,27.68 62.18,62.04 0,34.52 -27.66,62.18 -62.18,62.18zm745.86 4.28l-7.42 -0.58c-22.1,-2.42 -44.2,-3.7 -66.45,-3.7l-299.05 0c-34.52,0 -62.19,-27.66 -62.19,-62.18 0,-34.36 27.67,-62.04 62.19,-62.04l299.05 0c27.1,0 54.19,1.15 80.58,4.29 34.5,4.27 59.04,35.08 54.75,68.88 -3.69,31.94 -30.09,55.33 -61.46,55.33zm-12147.32 386.49c-7.99,0 -16.54,-1.29 -23.97,-5.01 -32.07,-12.82 -46.76,-49.76 -33.78,-81.14 52.9,-127.35 142.03,-235.02 256.56,-311.47 28.94,-18.96 67.01,-11.69 86.7,17.27 19.1,28.38 11.13,67.17 -17.26,86.13 -94.68,62.89 -167.28,151.45 -210.92,255.98 -9.97,24.11 -33.37,38.24 -57.33,38.24zm12683.82 68.3c-27.09,0 -51.63,-17.25 -59.6,-44.93 -31.38,-108.37 -93.56,-204.93 -180.41,-278.09 -25.81,-22.25 -29.53,-61.6 -7.27,-88.13 22.81,-25.82 62.18,-29.52 87.98,-6.7 105.82,89.13 181.56,206.07 219.63,338.42 9.27,33.23 -9.83,67.75 -42.36,77.01 -6.27,1.71 -11.83,2.42 -17.97,2.42zm-12733.03 671.27c-34.5,0 -62.18,-28.24 -62.18,-62.74l0 -372.94c0,-34.36 27.68,-62.04 62.18,-62.04 34.52,0 62.19,27.68 62.19,62.04l0 372.94c0,34.5 -27.67,62.74 -62.19,62.74zm12758.27 72.59c-34.36,0 -62.74,-27.66 -62.74,-62.18l0 -373.36c0,-33.94 28.38,-62.18 62.74,-62.18 34.52,0 62.18,28.24 62.18,62.18l0 373.36c0,34.52 -27.66,62.18 -62.18,62.18zm-12758.27 673.28c-34.5,0 -62.18,-27.82 -62.18,-62.18l0 -372.94c0,-34.5 27.68,-62.74 62.18,-62.74 34.52,0 62.19,28.24 62.19,62.74l0 372.94c0,34.36 -27.67,62.18 -62.19,62.18zm12758.27 72.44c-34.36,0 -62.74,-27.66 -62.74,-62.02l0 -372.94c0,-34.38 28.38,-62.18 62.74,-62.18 34.52,0 62.18,27.8 62.18,62.18l0 372.94c0,34.36 -27.66,62.02 -62.18,62.02zm-12758.27 673.28c-34.5,0 -62.18,-27.66 -62.18,-62.18l0 -372.94c0,-34.36 27.68,-62.16 62.18,-62.16 34.52,0 62.19,27.8 62.19,62.16l0 372.94c0,34.52 -27.67,62.18 -62.19,62.18zm12758.27 72.6c-34.36,0 -62.74,-27.67 -62.74,-62.18l0 -372.94c0,-34.36 28.38,-62.03 62.74,-62.03 34.52,0 62.18,27.67 62.18,62.03l0 372.94c0,34.51 -27.66,62.18 -62.18,62.18zm-12758.27 673.84c-34.5,0 -62.18,-28.38 -62.18,-62.74l0 -372.94c0,-34.52 27.68,-62.18 62.18,-62.18 34.52,0 62.19,27.66 62.19,62.18l0 372.94c0,34.36 -27.67,62.74 -62.19,62.74zm12758.27 72.59c-34.36,0 -62.74,-28.38 -62.74,-62.76l0 -372.92c0,-34.52 28.38,-62.18 62.74,-62.18 34.52,0 62.18,27.66 62.18,62.18l0 372.92c0,34.38 -27.66,62.76 -62.18,62.76zm-12758.27 673.13c-34.5,0 -62.18,-27.68 -62.18,-62.18l0 -372.8c0,-34.5 27.68,-62.9 62.18,-62.9 34.52,0 62.19,28.4 62.19,62.9l0 372.8c0,34.5 -27.67,62.18 -62.19,62.18zm12758.27 72.58c-34.36,0 -62.74,-27.66 -62.74,-62.02l0 -372.94c0,-34.52 28.38,-62.9 62.74,-62.9 34.52,0 62.18,28.38 62.18,62.9l0 372.94c0,34.36 -27.66,62.02 -62.18,62.02zm-12758.27 673.14c-34.5,0 -62.18,-27.66 -62.18,-62.04l0 -372.94c0,-34.5 27.68,-62.16 62.18,-62.16 34.52,0 62.19,27.66 62.19,62.16l0 372.94c0,34.38 -27.67,62.04 -62.19,62.04zm12758.27 72.74c-34.36,0 -62.74,-27.68 -62.74,-62.19l0 -372.93c0,-34.37 28.38,-62.19 62.74,-62.19 34.52,0 62.18,27.82 62.18,62.19l0 372.93c0,34.51 -27.66,62.19 -62.18,62.19zm-12758.27 673.12c-34.5,0 -62.18,-27.66 -62.18,-62.18l0 -372.92c0,-34.38 27.68,-62.05 62.18,-62.05 34.52,0 62.19,27.67 62.19,62.05l0 372.92c0,34.52 -27.67,62.18 -62.19,62.18zm12758.27 72.6c-34.36,0 -62.74,-27.67 -62.74,-62.19l0 -372.78c0,-34.52 28.38,-62.18 62.74,-62.18 34.52,0 62.18,27.66 62.18,62.18l0 372.78c0,34.52 -27.66,62.19 -62.18,62.19zm-12758.27 673.82c-34.5,0 -62.18,-28.37 -62.18,-62.16l0 -373.51c0,-34.51 27.68,-62.19 62.18,-62.19 34.52,0 62.19,27.68 62.19,62.19l0 373.51c0,33.79 -27.67,62.16 -62.19,62.16zm12758.27 72.6c-34.36,0 -62.74,-27.66 -62.74,-62.18l0 -373.5c0,-33.8 28.38,-62.18 62.74,-62.18 34.52,0 62.18,28.38 62.18,62.18l0 373.5c0,34.52 -27.66,62.18 -62.18,62.18zm-12758.27 673.14c-34.5,0 -62.18,-27.66 -62.18,-62.18l0 -372.8c0,-34.5 27.68,-62.88 62.18,-62.88 34.52,0 62.19,28.38 62.19,62.88l0 372.8c0,34.52 -27.67,62.18 -62.19,62.18zm12758.27 72.58c-34.36,0 -62.74,-27.66 -62.74,-62.17l0 -372.79c0,-34.52 28.38,-62.19 62.74,-62.19 34.52,0 62.18,27.67 62.18,62.19l0 372.79c0,34.51 -27.66,62.17 -62.18,62.17zm-12758.27 673.28c-34.5,0 -62.18,-27.66 -62.18,-62.18l0 -372.92c0,-34.52 27.68,-62.19 62.18,-62.19 34.52,0 62.19,27.67 62.19,62.19l0 372.92c0,34.52 -27.67,62.18 -62.19,62.18zm12758.27 72.6c-34.36,0 -62.74,-27.81 -62.74,-62.19l0 -372.93c0,-34.51 28.38,-62.17 62.74,-62.17 34.52,0 62.18,27.66 62.18,62.17l0 372.93c0,34.38 -27.66,62.19 -62.18,62.19zm-12758.27 673.14c-34.5,0 -62.18,-27.68 -62.18,-62.19l0 -372.79c0,-34.51 27.68,-62.19 62.18,-62.19 34.52,0 62.19,27.68 62.19,62.19l0 372.79c0,34.51 -27.67,62.19 -62.19,62.19zm12758.27 73.15c-34.36,0 -62.74,-28.24 -62.74,-62.76l0 -372.78c0,-34.52 28.38,-62.18 62.74,-62.18 34.52,0 62.18,27.66 62.18,62.18l0 372.78c0,34.52 -27.66,62.76 -62.18,62.76zm-12534.36 606.82c-14.68,0 -28.81,-5.01 -40.5,-14.85 -105.25,-89.84 -180.98,-207.35 -219.06,-338.99 -9.26,-33.23 9.84,-67.73 43.07,-77.57 33.24,-9.28 67.6,9.84 76.87,43.07 31.37,108.38 93.56,204.93 179.69,278.8 26.39,22.11 29.53,61.46 7.43,87.28 -12.28,14.82 -30.11,22.26 -47.5,22.26zm12252.57 43.64c-19.68,0 -39.35,-9.28 -51.77,-27.69 -18.96,-28.23 -11.69,-67.01 17.41,-86.13 94.12,-63.45 166.71,-152.02 210.35,-256.56 12.98,-31.38 49.19,-46.78 81.15,-33.23 31.51,12.84 46.92,49.21 33.36,81.15 -52.34,127.34 -141.04,235.03 -255.41,312.04 -11.13,7.28 -22.83,10.42 -35.09,10.42zm-11543.08 107.67l-297.76 0c-27.68,0 -55.34,-1.15 -82.43,-5.01 -34.52,-3.56 -58.48,-34.93 -54.77,-68.88 4.27,-34.36 35.08,-58.33 69.6,-54.75 22.1,2.42 44.77,4.27 67.6,4.27l297.76 0c34.52,0 62.19,27.81 62.19,62.19 0,34.5 -27.67,62.18 -62.19,62.18zm745.88 0l-372.94 0c-34.36,0 -62.18,-27.68 -62.18,-62.18 0,-34.38 27.82,-62.19 62.18,-62.19l372.94 0c34.52,0 62.18,27.81 62.18,62.19 0,34.5 -27.66,62.18 -62.18,62.18zm745.71 0l-372.78 0c-34.52,0 -62.18,-27.68 -62.18,-62.18 0,-34.38 27.66,-62.19 62.18,-62.19l372.78 0c34.52,0 62.76,27.81 62.76,62.19 0,34.5 -28.24,62.18 -62.76,62.18zm746.43 0l-373.49 0c-33.81,0 -62.19,-27.68 -62.19,-62.18 0,-34.38 28.38,-62.19 62.19,-62.19l373.49 0c34.52,0 62.19,27.81 62.19,62.19 0,34.5 -27.67,62.18 -62.19,62.18zm745.74 0l-372.8 0c-34.52,0 -62.74,-27.68 -62.74,-62.18 0,-34.38 28.22,-62.19 62.74,-62.19l372.8 0c34.5,0 62.18,27.81 62.18,62.19 0,34.5 -27.68,62.18 -62.18,62.18zm745.85 0l-372.94 0c-34.5,0 -62.16,-27.68 -62.16,-62.18 0,-34.38 27.66,-62.19 62.16,-62.19l372.94 0c34.38,0 62.18,27.81 62.18,62.19 0,34.5 -27.8,62.18 -62.18,62.18zm745.72 0l-372.92 0c-34.38,0 -62.05,-27.68 -62.05,-62.18 0,-34.38 27.67,-62.19 62.05,-62.19l372.92 0c34.52,0 62.9,27.81 62.9,62.19 0,34.5 -28.38,62.18 -62.9,62.18zm746.45 0l-372.94 0c-34.38,0 -62.76,-27.68 -62.76,-62.18 0,-34.38 28.38,-62.19 62.76,-62.19l372.94 0c34.5,0 62.16,27.81 62.16,62.19 0,34.5 -27.66,62.18 -62.16,62.18zm745.86 0l-372.94 0c-34.5,0 -62.17,-27.68 -62.17,-62.18 0,-34.38 27.67,-62.19 62.17,-62.19l372.94 0c34.38,0 62.04,27.81 62.04,62.19 0,34.5 -27.66,62.18 -62.04,62.18zm745.71 0l-372.92 0c-34.38,0 -62.05,-27.68 -62.05,-62.18 0,-34.38 27.67,-62.19 62.05,-62.19l372.92 0c34.38,0 62.04,27.81 62.04,62.19 0,34.5 -27.66,62.18 -62.04,62.18zm745.73 0l-372.79 0c-34.52,0 -62.19,-27.68 -62.19,-62.18 0,-34.38 27.67,-62.19 62.19,-62.19l372.79 0c34.51,0 62.74,27.81 62.74,62.19 0,34.5 -28.23,62.18 -62.74,62.18zm746.44 0l-372.94 0c-34.36,0 -62.74,-27.68 -62.74,-62.18 0,-34.38 28.38,-62.19 62.74,-62.19l372.94 0c34.52,0 62.18,27.81 62.18,62.19 0,34.5 -27.66,62.18 -62.18,62.18zm745.71 0l-372.78 0c-34.52,0 -62.19,-27.68 -62.19,-62.18 0,-34.38 27.67,-62.19 62.19,-62.19l372.78 0c34.52,0 62.18,27.81 62.18,62.19 0,34.5 -27.66,62.18 -62.18,62.18zm745.87 0l-372.93 0c-34.38,0 -62.19,-27.68 -62.19,-62.18 0,-34.38 27.81,-62.19 62.19,-62.19l372.93 0c34.5,0 62.74,27.81 62.74,62.19 0,34.5 -28.24,62.18 -62.74,62.18zm746.44 0l-372.94 0c-34.52,0 -62.74,-27.68 -62.74,-62.18 0,-34.38 28.22,-62.19 62.74,-62.19l372.94 0c34.36,0 62.02,27.81 62.02,62.19 0,34.5 -27.66,62.18 -62.02,62.18zm748.14 0l-375.36 0c-34.36,0 -62.03,-27.68 -62.03,-62.18 0,-34.38 27.67,-62.19 62.03,-62.19l372.94 0c34.52,0 63.47,27.81 63.47,62.19 0,34.5 -26.53,62.18 -61.05,62.18z"/>
    <path class="fil0" d="M43143.97 39139.31l-15075 0c-324.87,0 -589,-263.98 -589,-588.86l0 -8242.72c0,-325.3 264.13,-589 589,-589l15075 0c325.44,0 588.86,263.7 588.86,589l0 8242.72c0,324.88 -263.42,588.86 -588.86,588.86z"/>
    <path class="fil3" d="M33772.47 32560.44l0 3737.3c0,233.75 259.56,373.52 454.66,245.44l2840.41 -1868.94c176.55,-115.94 176.55,-374.65 0,-490.45l-2840.41 -1868.78c-195.1,-128.36 -454.66,11.69 -454.66,245.44l0 -0.01z" style="fill: rgb(63, 75, 160);"/>
    <path class="fil11" d="M28324.95 38289.61c0,-161.29 130.35,-291.79 291.5,-291.79 161.31,0 291.8,130.5 291.8,291.79 0,161.15 -130.49,291.64 -291.8,291.64 -161.15,0 -291.5,-130.49 -291.5,-291.64z" style="fill: rgb(63, 75, 160);"/>
    <path class="fil11" d="M41888 38368.33l-13192.67 0c-43.64,0 -78.88,-35.08 -78.88,-78.72 0,-43.2 35.24,-78.87 78.88,-78.87l13192.67 0c43.78,0 78.86,35.67 78.86,78.87 0,43.64 -35.08,78.72 -78.86,78.72z" style="fill: rgb(63, 75, 160);"/>
    <polygon class="fil0" points="42679.34,53640.16 51087.81,53640.16 51087.81,41088.64 42679.34,41088.64 "/>
    <path class="fil6" d="M47690.77 45121.6l-115.25 0 0 -517.54c0,-185.25 150.9,-336.57 336.3,-336.57l1423.26 0c99.82,0 188.26,-67.73 213.91,-164.85l225.34 -855.39c17.11,-67.03 2.85,-136.63 -38.51,-191.4 -42.79,-54.75 -106.96,-86.13 -175.42,-86.13l-1856.81 0 0 -115.09 1856.81 0c104.12,0 201.1,47.48 266.7,131.07 62.74,83.13 84.14,188.95 58.46,291.06l-225.32 855.4c-38.51,147.6 -172.56,250.42 -325.16,250.42l-1423.26 0c-121.23,0 -221.05,99.7 -221.05,221.48l0 517.54z"/>
    <path class="fil3" d="M49028.46 43397.42l-2444.8 0c-206.8,0 -373.52,-167.43 -373.52,-373.5l0 -223.33c0,-206.8 166.72,-373.65 373.52,-373.65l2444.8 0c205.36,0 373.65,166.85 373.65,373.65l0 223.33c0,206.07 -168.29,373.5 -373.65,373.5z" style="fill: rgb(6, 12, 58);"/>
    <path class="fil6" d="M47633.43 47268.51l0 0c-174.84,0 -316.32,-141.62 -316.32,-316.32l0 -1916.71c0,-174.84 141.48,-317.04 316.32,-317.04 174.27,0 316.88,142.2 316.88,317.04l0 1916.71c0,174.7 -142.61,316.32 -316.88,316.32z"/>
    <path class="fil5" d="M59737.24 51425.09c0,0 218.2,670.72 199.66,823.88 -18.54,153.16 -155.44,676.84 -252.42,811.04 -98.4,134.05 -146.89,-545.78 -223.9,-648.6 -77.02,-102.12 -15.69,255.99 -69.89,289.21 -54.19,33.23 -168.28,-263.41 -216.77,-367.94 -49.91,-105.25 119.79,-491.01 119.79,-759.99 0,-269.54 443.53,-147.6 443.53,-147.6z"/>
    <path class="fil4" d="M54620.31 46101.78c-61.33,-768.53 774.38,-1295.92 1433.24,-895.88 14.27,7.97 27.11,16.54 39.94,25.24 986.88,635.05 3116.08,3599.11 3262.98,3895.61 146.88,297.21 579,2659.43 579,2659.43 0,0 -534.78,195.67 -784.37,-7.41 0,0 -867.08,-2240.3 -995.44,-2352.25 -126.91,-112.1 -3466.92,-1985.73 -3495.43,-2687.83 -7.14,-185.81 -22.82,-409.14 -39.93,-636.91l0.01 0z"/>
    <path class="fil12" d="M60578.66 63450.48c0,0 397.89,363.09 319.46,620.8 -77.02,257.83 -434.98,430.11 -484.9,745.14 -48.47,315.75 -242.43,487.45 -416.42,487.45 -175.42,0 -832.86,0 -832.86,0 0,0 -129.77,-221.61 181.12,-288.64 310.9,-67.03 427.83,-437.4 407.88,-781.53 -18.54,-343.82 29.95,-802.33 29.95,-802.33l660.28 -153.17 135.49 172.28z"/>
    <path class="fil12" d="M55697.04 64389.44c0,0 71.3,826.44 -102.69,912.57l-2236.17 -4.99c0,0 0,-257.69 359.39,-315.03 359.38,-57.19 989.74,-267.69 1096.69,-735.88 106.96,-468.35 882.79,143.33 882.79,143.33l-0.01 0z"/>
    <path class="fil3" d="M53808.83 52716.03c0,0 118.37,1448.5 256.7,3189.82 188.26,2365.37 416.44,5270.96 437.83,5821.01 38.51,956.23 193.96,2484.74 193.96,2484.74 0,0 369.36,363.11 1106.67,210.5 0,0 657.45,-2182.69 845.7,-4491.86 2.85,-37.66 5.71,-75.73 8.55,-113.95 173.99,-2351.12 446.39,-7300.91 446.39,-7300.91l-3295.79 200.66 -0.01 -0.01z" style="fill: rgb(6, 12, 58);"/>
    <path class="fil7" d="M53808.83 52716.03c0,0 118.37,1448.5 256.7,3189.82l2584.15 4024.39c2.85,-37.66 5.71,-75.73 8.55,-113.95 173.99,-2351.12 446.39,-7300.91 446.39,-7300.91l-3295.79 200.66 0 -0.01z" style="fill: rgb(63, 75, 160);"/>
    <path class="fil3" d="M54347.91 52888.3c0,0 2126.35,5245.72 3523.97,7711.35 1396.17,2465.62 1832.57,3153.59 1832.57,3153.59 0,0 801.48,-315.74 874.21,-530.53 0,0 -534.8,-4759.55 -1470.34,-5920 -529.08,-655.44 -1149.46,-2623.2 -1179.4,-3311.17 -28.52,-687.97 -188.24,-2049.62 -188.24,-2049.62l-3392.77 946.38z" style="fill: rgb(6, 12, 58);"/>
    <path class="fil5" d="M56180.49 45018.78c0,0 -1423.26,721.77 -2257.56,481.18 0,0 199.67,-261.41 551.92,-460.22 -31.38,-165.56 -57.05,-309.6 -72.74,-431.96 -39.92,-281.82 -42.78,-441.82 -42.78,-441.82l544.78 -447.38 519.12 -427.55c-18.54,1174.56 757.27,1727.74 757.27,1727.74l-0.01 0.01z"/>
    <path class="fil6" d="M57595.21 52357.22c-574.73,347.68 -1119.52,609.23 -1756.99,756.27 -750.14,178.56 -1674.27,126.21 -1983.73,172.99 -31.38,4.28 -61.33,-4.43 -89.85,-22.83 -22.83,-12.4 -159.73,-929.11 -296.64,-2085.99 -5.7,-46.2 -12.84,-93.54 -14.27,-140.32l-2.84 -15.41c-52.77,-452.23 -99.83,-927.27 -139.77,-1403.44 -32.79,-370.52 -59.9,-737.18 -78.44,-1081.16 -24.24,-430.83 -34.22,-826.44 -24.24,-1152.02 4.29,-148.18 12.83,-281.81 25.67,-398.04 81.3,-675.55 405.02,-1158.73 707.37,-1517.96l252.42 -286.79c292.36,18.38 589,-36.37 871.36,-222.2 306.62,-202.37 638.92,-420.28 701.66,-383.91 470.63,258.41 855.68,926.13 1129.51,1808.46 156.86,508.28 276.65,1084.86 355.09,1695.25 24.25,188.95 45.65,383.33 61.33,577.15 2.86,35.65 5.7,71.45 8.56,106.52 37.09,529.1 96.98,1025.12 164,1467.48 89.84,597.55 193.96,1097.14 265.26,1449.8 35.66,178.97 64.17,318.03 81.28,417.15 14.27,86.71 -159.72,211.06 -236.72,258.99l-0.02 0.01z"/>
    <path class="fil8" d="M55441.76 43739.55c0,0 -350.83,669.43 -1039.66,868.24 -39.92,-281.82 -42.78,-441.82 -42.78,-441.82l544.78 -447.38 537.66 20.96z"/>
    <path class="fil5" d="M54105.48 44151.84c0,0 1376.2,196.82 1487.43,-648.6 112.66,-845.4 366.52,-1390.03 -507.7,-1551.18 -874.22,-161.87 -1088.13,139.03 -1195.09,412.29 -106.97,273.09 -139.76,1714.2 215.35,1787.49l0.01 0z"/>
    <path class="fil4" d="M56059.26 41831.41c12.84,-14.85 39.95,-26.53 104.12,-31.38 0,0 -51.34,-30.81 -119.8,-31.38 -15.68,-88.56 -65.6,-244.86 -219.62,-279.95 0,0 82.72,42.36 95.55,136.62 -179.69,-178.55 -561.89,-303.34 -1612.95,-199.36 -1381.9,136.47 -908.44,1014.54 -727.33,1116.79 182.55,102.12 627.51,-196.95 962.65,-177.27 335.14,20.25 407.88,501.58 521.97,565.47 115.5,64.03 68.44,-52.19 219.62,-124.21 152.58,-72.6 172.56,181.54 131.2,347.54 -41.36,166.28 173.99,379.78 173.99,379.78 0,0 0,0 208.21,-233.31 208.21,-233.75 390.76,-1209.08 289.51,-1414.58 -9.98,-17.83 -18.54,-36.23 -27.11,-54.75l-0.01 -0.01z"/>
    <path class="fil4" d="M55622.87 47461.03c0,0 -1160.87,882.35 -2390.19,1076.29 -24.24,-430.83 -34.22,-826.44 -24.24,-1152.02l2414.43 75.73z"/>
    <path class="fil5" d="M48497.94 46322.13c-18.54,-19.69 -255.28,-810.48 -664.57,-753.15 -267.12,38.08 -703.37,192.53 -587.71,543.93 45.63,138.34 858.68,614.67 858.68,614.67l393.6 -405.45z"/>
    <path class="fil6" d="M55765.48 45755.37c661.73,395.62 607.54,1381.35 -99.82,1687.83 -14.25,6.13 -28.52,12.27 -42.79,17.83 -1089.56,436.97 -4739,457.22 -5065.6,404.88 -328,-52.21 -2504.27,-1066.89 -2504.27,-1066.89 0,0 149.74,-549.49 460.63,-635.62 0,0 2327.45,589.97 2494.31,550.05 165.42,-39.37 3625.22,-1677.41 4215.62,-1294.08 155.45,101.55 345.12,218.48 541.92,335.99l0 0.01z"/>
    <path class="fil13" d="M80316.25 19790.9l-2905.01 0c-121.22,0 -221.06,-99.82 -221.06,-222.04 0,-122.08 99.84,-221.92 221.06,-221.92l2905.01 0c122.65,0 222.48,99.84 222.48,221.92 0,122.22 -99.83,222.04 -222.48,222.04z"/>
    <path class="fil13" d="M80316.25 20658.26l-2905.01 0c-121.22,0 -221.06,-99.83 -221.06,-221.91 0,-122.08 99.84,-222.04 221.06,-222.04l2905.01 0c122.65,0 222.48,99.96 222.48,222.04 0,122.08 -99.83,221.91 -222.48,221.91z"/>
    <path class="fil13" d="M80316.25 21548.17l-2905.01 0c-121.22,0 -221.06,-99.98 -221.06,-222.04 0,-122.08 99.84,-222.06 221.06,-222.06l2905.01 0c122.65,0 222.48,99.98 222.48,222.06 0,122.06 -99.83,222.04 -222.48,222.04z"/>
    <path class="fil13" d="M68940.05 42495.4l-6915.3 0c-162.56,0 -295.19,-132.91 -295.19,-294.78 0,-161.87 132.63,-294.22 295.19,-294.22l6915.3 0c162.58,0 295.21,132.35 295.21,294.22 0,161.87 -132.63,294.78 -295.21,294.78z"/>
    <path class="fil13" d="M35132.85 22288.33l-6916.28 0c-161.87,0 -294.07,-132.48 -294.07,-294.35 0,-162.02 132.2,-294.49 294.07,-294.49l6916.28 0c161.87,0 294.22,132.47 294.22,294.49 0,161.87 -132.35,294.35 -294.22,294.35z"/>
    <path class="fil13" d="M68940.05 45415.68l-6915.3 0c-162.56,0 -295.19,-132.35 -295.19,-294.08 0,-161.87 132.63,-294.78 295.19,-294.78l6915.3 0c162.58,0 295.21,132.91 295.21,294.78 0,161.73 -132.63,294.08 -295.21,294.08z"/>
    <path class="fil13" d="M68940.05 43955.47l-8271.54 0c-161.15,0 -295.21,-132.21 -295.21,-294.63 0,-161.87 134.06,-294.22 295.21,-294.22l8271.54 0c162.58,0 295.21,132.35 295.21,294.22 0,162.42 -132.63,294.63 -295.21,294.63z"/>
    <path class="fil13" d="M33079.52 24139.58l-3902.46 0c-123.07,0 -223.91,-100.82 -223.91,-224.19l0 -140.47c0,-123.21 100.84,-224.19 223.91,-224.19l3902.46 0c123.78,0 224.62,100.98 224.62,224.19l0 140.47c0,123.37 -100.84,224.19 -224.62,224.19z"/>
    <path class="fil13" d="M27660.95 23845.23c0,-162.58 131.64,-294.5 294.07,-294.5 162.44,0 294.77,131.92 294.77,294.5 0,162.59 -132.33,294.35 -294.77,294.35 -162.43,0 -294.07,-131.76 -294.07,-294.35z"/>
    <path class="fil13" d="M33820.4 25311.15l-4624.21 0c-133.49,0 -243.03,-109.24 -243.03,-242.87l0 -102.96c0,-133.64 109.54,-242.89 243.03,-242.89l4624.21 0c133.49,0 243.15,109.25 243.15,242.89l0 102.96c0,133.63 -109.66,242.87 -243.15,242.87z"/>
    <path class="fil13" d="M27660.95 25016.79c0,-162.58 131.64,-294.36 294.07,-294.36 162.44,0 294.77,131.78 294.77,294.36 0,162.59 -132.33,294.36 -294.77,294.36 -162.43,0 -294.07,-131.77 -294.07,-294.36z"/>
    <path class="fil13" d="M33079.52 26582.96l-3902.46 0c-123.07,0 -223.91,-100.83 -223.91,-224.05l0 -140.6c0,-123.23 100.84,-224.05 223.91,-224.05l3902.46 0c123.78,0 224.62,100.82 224.62,224.05l0 140.6c0,123.22 -100.84,224.05 -224.62,224.05z"/>
    <path class="fil13" d="M27660.95 26288.6c0,-162.56 131.64,-294.34 294.07,-294.34 162.44,0 294.77,131.78 294.77,294.34 0,162.59 -132.33,294.36 -294.77,294.36 -162.43,0 -294.07,-131.77 -294.07,-294.36z"/>
    <path class="fil4" d="M39428.63 23149.42c-342.27,334.28 -348.39,884.77 -14.25,1226.9 161.87,165.72 379.06,258.55 610.39,261.12 232.02,2.72 450.5,-84.84 616.5,-246.87 342.28,-334.26 348.42,-884.77 14.27,-1226.88 -334.15,-342.28 -884.91,-348.56 -1226.91,-14.27zm750 1649.47c-51.05,6.99 -103.39,10.41 -155.58,9.69 -277.67,-3.14 -537.23,-114.23 -731.19,-312.6 -399.89,-409.73 -392.48,-1068.6 17.27,-1468.91l0 0c409.86,-400.17 1068.3,-392.61 1468.89,17.11 399.89,409.58 392.47,1068.6 -17.25,1468.77 -160.73,157.16 -363.66,255.99 -582.15,285.94l0.01 0z"/>
    <polygon class="fil4" points="38399.11,25487.85 38279.75,25365.63 39293.87,24374.89 39413.09,24497.25 "/>
    <path class="fil4" d="M37986.82 25771.07l0 0c-58.47,-60.48 -57.19,-157.02 3.14,-216.06l596.83 -583.44c60.33,-58.88 156.88,-57.75 215.92,2.57 59.18,60.33 57.91,157.01 -2.42,215.92l-597.41 583.43c-60.33,59.04 -157.02,57.75 -216.06,-2.42z"/>
    <path class="fil4" d="M88600.62 65323.55l0 0c-132.63,0.56 -270.95,-94.83 -310.9,-213.49l-7979.18 -24298.2c-39.92,-119.36 35.66,-216.06 168.29,-216.64 132.63,-1.27 272.4,94.7 310.89,213.5l7979.18 24298.2c39.95,118.8 -35.65,216.06 -168.28,216.63z"/>
    <path class="fil4" d="M95032.44 65286.61l0 0c-132.62,0.58 -270.95,-95.41 -310.9,-214.21l-7980.59 -24298.2c-38.51,-118.64 37.08,-215.9 169.7,-216.48 132.63,-0.71 270.97,94.7 310.91,214.06l7980.6 24298.19c38.51,118.81 -37.09,215.37 -169.72,216.64z"/>
    <path class="fil4" d="M88107.19 44159.83l-6458.94 37.52c-124.07,0.56 -255.27,-89.85 -292.35,-201.81 -37.09,-111.95 34.22,-203.64 159.72,-204.36l6458.93 -37.51c124.07,-0.56 255.28,89.84 292.36,201.8 37.08,112.09 -35.65,203.8 -159.72,204.36z"/>
    <path class="fil4" d="M89500.5 48402.56l-6458.94 37.5c-124.06,0.58 -256.7,-90.42 -292.35,-201.79 -37.08,-112.1 35.65,-204.38 159.74,-204.93l6457.49 -37.52c125.51,-0.56 256.72,90.42 293.78,201.81 37.09,111.94 -35.65,204.35 -159.72,204.93z"/>
    <path class="fil4" d="M90842.49 52488.28l-6458.93 37.64c-124.07,0.58 -256.71,-90.56 -292.36,-201.79 -37.08,-112.1 35.65,-204.38 159.74,-205.09l6457.49 -37.36c125.5,-0.72 256.72,90.42 293.78,202.37 37.09,111.38 -35.65,203.65 -159.72,204.23z"/>
    <path class="fil4" d="M92352.76 57087.95l-6457.51 37.5c-125.5,0.58 -256.7,-89.84 -293.78,-201.79 -37.08,-111.95 35.65,-203.64 159.72,-204.36l6458.94 -37.51c124.06,-0.56 256.7,89.84 292.35,201.81 37.08,112.08 -35.65,203.78 -159.72,204.35z"/>
    <path class="fil4" d="M93934.34 61902.85l-6458.94 36.92c-124.07,1.29 -255.27,-89.84 -292.35,-201.79 -37.08,-111.39 34.22,-203.66 159.72,-204.22l6458.94 -37.66c124.07,-0.57 255.27,90.57 292.35,201.95 37.08,111.95 -35.65,203.64 -159.72,204.8z"/>
    <path class="fil4" d="M80031.03 29682.94l0 0c-49.92,9.84 -99.83,-23.67 -109.82,-74.31l-102.67 -533.79c-9.99,-50.63 22.82,-100.12 74.15,-109.96 49.92,-9.83 99.84,23.67 109.82,74.31l102.68 533.79c9.98,50.64 -24.24,100.12 -74.16,109.96z"/>
    <polygon class="fil4" points="79898.39,28829.97 79835.65,28842.23 79685.91,28070.56 79750.08,28058.3 "/>
    <path class="fil5" d="M79750.08 23715.03c0,0 -61.33,-531.53 -189.67,-734.75 -129.79,-203.09 -616.09,-333.71 -646.03,-303.76 -95.55,92.41 280.94,418.84 295.19,539.07 14.27,120.38 -191.1,37.09 -92.69,271.69 84.15,198.08 359.39,454.93 359.39,454.93l273.81 -227.18z"/>
    <path class="fil7" d="M79514.76 23655.7c178.28,-139.34 215.35,-136.62 215.35,-136.62 0,0 1642.9,1422.84 1802.62,1549.47 159.74,126.65 2625.5,841.99 2625.5,841.99l392.2 2004.99c0,0 -3337.14,-1612.08 -3736.47,-1940.96 -658.87,-543.63 -1490.3,-2065.03 -1490.3,-2065.03 0,0 52.77,-144.31 191.1,-253.84z" style="fill: rgb(63, 75, 160);"/>
    <path class="fil4" d="M84212.43 42926.09c0,0 -28.52,685.4 -161.15,851.68l-1829.73 10.99c12.84,-70.75 19.97,-234.46 273.83,-278.66 319.44,-55.49 694.53,-278.82 888.47,-701.52 203.94,-444.96 828.59,117.51 828.59,117.51l-0.01 0z"/>
    <path class="fil4" d="M87803.41 42826.98c0,0 128.36,910.73 -44.2,926.69 -22.82,1.86 -738.74,13.55 -1048.21,18.54 -363.66,6.14 -961.22,-6.84 -961.22,-6.84 -75.58,3.14 -124.07,-78.16 -86.98,-142.75 42.78,-71.32 122.63,-147.04 275.24,-176.57 319.46,-61.47 849.97,-295.34 1036.8,-721.75 195.37,-448.1 828.57,102.68 828.57,102.68z"/>
    <path class="fil4" d="M83259.77 33497.83c0,0 509.13,1780.94 1968.04,4874.22 1458.94,3093.26 1521.68,4583.55 1521.68,4583.55 0,0 221.05,78.16 514.83,46.78 316.62,-33.78 539.08,-175.4 539.08,-175.4 0,0 -94.12,-3681.56 -782.94,-5242.03 -688.82,-1561.02 -828.59,-5832.28 -828.59,-5832.28l-2932.11 1745.15 0.01 0.01z"/>
    <path class="fil6" d="M82442.6 31965.31c0,0 -39.93,2757.99 436.41,6144.61 477.75,3386.05 255.27,4960.78 255.27,4960.78 0,0 125.5,92.27 514.83,90.98 454.94,-1.71 688.83,-190.1 688.83,-190.1 0,0 683.11,-3387.9 487.74,-5082.57 -196.82,-1695.23 935.53,-5816.18 935.53,-5816.18l-3318.6 -107.52 -0.01 0z"/>
    <path class="fil5" d="M84697.31 25511.24l-539.08 399.31 -778.66 -164.14c11.4,-71.02 62.75,-365.38 109.81,-632.06 2.85,-15.84 4.28,-31.52 8.55,-46.92 39.94,-226.91 74.17,-421.85 74.17,-421.85l727.31 -362.68 272.4 -135.2c-1.43,4.71 -22.81,251.87 -24.24,287.95 -51.34,640.47 149.74,1075.59 149.74,1075.59z"/>
    <path class="fil3" d="M86241.8 32306.02c-175.42,806.03 -3948.95,452.21 -3899.03,-39.94 1.43,-16.4 11.4,-244.15 25.67,-551.07 28.52,-664.14 71.31,-1701.64 77.01,-1782.78l1.43 -4.14c67.03,-685.26 132.63,-1355.39 136.91,-1793.22 2.84,-379.63 55.62,-767.67 125.5,-1120.07 64.17,-325.3 142.61,-620.51 211.07,-850.54 48.49,-162.31 138.33,-304.78 258.13,-416.72 84.14,-79.73 183.96,-143.9 292.35,-187.54 31.38,-12.55 61.33,-22.96 92.69,-31.8 443.53,-128.92 1058.2,-288.22 1223.63,-239.45 452.09,132.63 785.8,926.56 1023.96,1938.25 443.53,1894.04 546.21,4553.61 430.69,5079.01l-0.01 0.01z" style="fill: rgb(6, 12, 58);"/>
    <path class="fil8" d="M84491.94 24446.91c-159.72,305.77 -754.42,570.16 -1002.56,667.44 2.85,-15.84 4.28,-31.52 8.55,-46.92 39.94,-226.91 74.17,-421.85 74.17,-421.85l727.31 -362.68c161.17,-2.42 258.13,38.24 192.53,164.01z"/>
    <path class="fil5" d="M83218.42 24602.94c0,0 1312.05,409.58 1554.47,-411.87 242.45,-821.46 576.16,-1321.74 -252.41,-1617.94 -827.16,-296.21 -1083.86,-30.95 -1230.76,223.47 -148.31,254.43 -406.45,1678.69 -71.31,1806.34l0.01 0z"/>
    <path class="fil4" d="M83341.05 22717.45c0,0 84.15,955.93 280.97,914.3 198.21,-41.36 376.49,-72.16 347.96,215.92 -28.52,288.22 -302.33,620.79 306.62,671.85 608.97,50.91 1484.59,-1520.11 1317.74,-1817.6 -483.45,-858.25 -2952.08,-1031.52 -2253.28,15.54l-0.01 -0.01z"/>
    <path class="fil7" d="M82368.45 31715.01c28.52,-664.14 71.31,-1701.64 77.01,-1782.78l1.43 -4.14 2227.61 -1332.59c0,0 86.98,3110.53 -2306.05,3119.51z" style="fill: rgb(63, 75, 160);"/>
    <path class="fil5" d="M80597.2 28926.81c0,0 -453.52,-306.35 -539.08,-333.16 -85.57,-26.66 -367.95,-55.62 -380.78,-33.5 -12.84,22.24 -51.34,90.26 -2.85,113.23 49.91,23.1 111.23,14.97 92.69,30.95 -18.54,16.11 -203.94,-72.02 -246.72,22.39 -42.79,94.54 -79.85,417.86 136.9,515.97 218.21,98.11 753.01,9.42 792.94,20.69 328.01,95.25 146.9,-336.57 146.9,-336.57z"/>
    <path class="fil3" d="M80592.91 28843.94c0,0 2209.06,375.8 2405.89,280.39 312.3,-152.17 -121.23,-2394.9 -121.23,-2394.9 0,0 -18.54,-508.28 574.73,-628.07 516.26,-104.26 1013.99,282.24 1013.99,282.24 0,0 452.07,405.01 395.03,854.38 -128.36,995.88 -328.02,3021.54 -994.01,3332.01 -858.54,400.47 -3345.71,-1110.52 -3345.71,-1110.52 0,0 -82.71,-101.4 -71.3,-289.65 11.41,-166 142.61,-325.88 142.61,-325.88z" style="fill: rgb(6, 12, 58);"/>
    <path class="fil5" d="M79106.89 23460.61c0,0 -141.18,-281.38 -164,-334.15 -22.81,-52.76 32.8,-41.35 86.99,-11.98 54.19,29.51 128.36,192.81 212.5,173.13 67.03,-15.69 -135.49,173 -135.49,173z"/>
  </g>
</svg>