<?xml version="1.0" encoding="UTF-8"?>
<!DOCTYPE svg PUBLIC "-//W3C//DTD SVG 1.1//EN" "http://www.w3.org/Graphics/SVG/1.1/DTD/svg11.dtd">
<!-- Creator: CorelDRAW 2021 (64-Bit) -->
<svg xmlns="http://www.w3.org/2000/svg" xml:space="preserve" width="137.654mm" height="93.413mm" version="1.1" style="shape-rendering:geometricPrecision; text-rendering:geometricPrecision; image-rendering:optimizeQuality; fill-rule:evenodd; clip-rule:evenodd"
viewBox="0 0 13765.4 9341.3"
 xmlns:xlink="http://www.w3.org/1999/xlink"
 xmlns:xodm="http://www.corel.com/coreldraw/odm/2003">
 <defs>
  <style type="text/css">
   <![CDATA[
    .str0 {stroke:#34346B;stroke-width:50.45;stroke-miterlimit:10;stroke-opacity:0.211765}
    .str3 {stroke:#34346B;stroke-width:12.61;stroke-miterlimit:10;stroke-opacity:0.211765}
    .str2 {stroke:#34346B;stroke-width:75.67;stroke-linecap:round;stroke-miterlimit:10;stroke-opacity:0.211765}
    .str4 {stroke:#012F2D;stroke-width:50.45;stroke-miterlimit:10}
    .str5 {stroke:#052A38;stroke-width:50.45;stroke-miterlimit:10}
    .str1 {stroke:#34346B;stroke-width:50.45;stroke-miterlimit:10}
    .str7 {stroke:#D1F6F4;stroke-width:12.61;stroke-miterlimit:10}
    .str6 {stroke:#052A38;stroke-width:75.67;stroke-linecap:round;stroke-miterlimit:10}
    .fil4 {fill:none;fill-rule:nonzero}
    .fil2 {fill:none;fill-rule:nonzero}
    .fil14 {fill:#00CCFF;fill-rule:nonzero}
    .fil5 {fill:#052A38;fill-rule:nonzero}
    .fil9 {fill:#0C1C24;fill-rule:nonzero}
    .fil10 {fill:#336699;fill-rule:nonzero}
    .fil19 {fill:#99FFFF;fill-rule:nonzero}
    .fil13 {fill:#9EB8B8;fill-rule:nonzero}
    .fil18 {fill:#D1F6F4;fill-rule:nonzero}
    .fil7 {fill:#F6445D;fill-rule:nonzero}
    .fil17 {fill:#FFCFCA;fill-rule:nonzero}
    .fil3 {fill:#34346B;fill-rule:nonzero;fill-opacity:0.211765}
    .fil8 {fill:#F6445D;fill-rule:nonzero;fill-opacity:0.278431}
    .fil11 {fill:#D32346;fill-rule:nonzero;fill-opacity:0.431373}
    .fil20 {fill:#FF877C;fill-rule:nonzero;fill-opacity:0.439216}
    .fil16 {fill:#33959E;fill-rule:nonzero;fill-opacity:0.458824}
    .fil0 {fill:#00CCFF;fill-rule:nonzero;fill-opacity:0.580392}
    .fil1 {fill:#336699;fill-rule:nonzero;fill-opacity:0.580392}
    .fil6 {fill:#052A38;fill-rule:nonzero;fill-opacity:0.588235}
    .fil22 {fill:#00CCFF;fill-rule:nonzero}
    .fil12 {fill:#0C1C24;fill-rule:nonzero}
    .fil15 {fill:#336699;fill-rule:nonzero}
    .fil21 {fill:#D1F6F4;fill-rule:nonzero}
   ]]>
  </style>
 </defs>
 <g id="OBJECTS">
  <metadata id="CorelCorpID_0Corel-Layer"/>
  <g id="_1126275918736">
   <path class="fil0" d="M13764.71 9181.62c0,89.82 -3081.5,162.64 -6882.72,162.64 -3801.2,0 -6882.7,-72.82 -6882.7,-162.64 0,-89.83 3081.5,-162.65 6882.7,-162.65 3801.22,0 6882.72,72.82 6882.72,162.65z"/>
   <path class="fil1" d="M6762.45 9177.09c0,46.87 -1282.33,84.86 -2864.15,84.86 -1581.82,0 -2864.14,-37.99 -2864.14,-84.86 0,-46.87 1282.32,-84.86 2864.14,-84.86 1581.82,0 2864.15,37.99 2864.15,84.86z"/>
   <path class="fil1" d="M12795.85 9177.09c0,46.87 -1282.32,84.86 -2864.15,84.86 -1581.82,0 -2864.15,-37.99 -2864.15,-84.86 0,-46.87 1282.33,-84.86 2864.15,-84.86 1581.83,0 2864.15,37.99 2864.15,84.86z"/>
   <g>
    <line class="fil2 str0" x1="7065.3" y1="4845.94" x2="5648.48" y2= "3635.21" />
    <path class="fil2 str0" d="M5648.48 3635.21c-33.77,-28.86 -83.43,-29.2 -117.6,-0.81"/>
    <line class="fil2 str0" x1="5530.88" y1="3634.4" x2="4025.86" y2= "4885.02" />
    <path class="fil3" d="M7557.17 133.63l3682.57 3523.56 253 3015.72 -1112.6 15.76 109.95 -3070.53 1.5 -42.05 -28.81 -30.66 -2899.16 -3084.98 -50.29 -53.52 -66.38 31.41 -937.57 443.56 1047.79 -748.27zm9.37 -130.68l-2034.6 1453 1958.16 -926.41 2899.16 3084.98 -113.75 3176.54 1326.81 -18.79 -265.23 -3161.58 -3770.55 -3607.74z"/>
    <path class="fil4 str1" d="M6305.53 1089.96l28.67 -206.94 212.67 92.76 59.53 -287.15m0.01 -0.01l242.49 144.27 38.82 -345.16 0 -0.01 319.72 175.55 132.34 -498.38 146.81 307.66 291.95 -266.75 -100.3 523.94m0.01 0.01l492.63 -148.55 -131.32 533.02 646.94 -39.66 -161.1 556.64m0.01 0.01l674.59 -65.33 -111.35 638.16 647.38 -83.06 -144.68 644.49m0.01 0.01l682.26 -172.34m0.01 0.01l-185.91 700.5m0.01 0.01l702.7 -130.7 -352.03 479.24 829.03 15.57 -815.06 355.95 855.1 285.82 -853.76 362.45 951.58 298.98 -1075.32 309.15 1104.33 298.41 -1083.08 283.4 1146.51 309 -1211.38 327.49m-0.01 0.34l1315.98 283.51"/>
    <path class="fil3" d="M5601.64 2601.49c-3.69,-100.15 -5.44,-200.25 -5.22,-300.29 -0.7,-100.07 0.15,-200.1 1.99,-300.1 3.85,-199.99 10.4,-399.91 22.77,-599.67l0.48 -7.82 6.08 -3.5c62.89,-36.3 125.13,-73.67 188.62,-108.99 63.32,-35.6 126.28,-71.79 190.18,-106.45 -59.99,41.05 -120.91,80.58 -181.48,120.68 -60.39,40.4 -122.04,78.73 -183.04,118.14l6.55 -11.31c1.29,200.14 -3.24,400.12 -10.46,600.02 -3.7,99.95 -8.4,199.87 -14.64,299.75 -5.31,99.9 -12.6,199.75 -21.83,299.54z"/>
    <line class="fil2 str2" x1="5590.02" y1="2381.44" x2="5590.02" y2= "2845.37" />
    <path class="fil2 str2" d="M5590.02 2845.37c0,44.43 11.94,88.04 34.57,126.27"/>
    <line class="fil2 str2" x1="5624.59" y1="2971.64" x2="5814.21" y2= "3291.97" />
    <path class="fil2 str2" d="M5814.21 3291.97c59.26,100.11 40.92,227.96 -44.08,307.38"/>
    <line class="fil2 str2" x1="5770.13" y1="3599.35" x2="5749.12" y2= "3618.98" />
    <path class="fil2 str2" d="M5749.12 3618.98c-85.88,80.24 -216.32,89.14 -312.3,21.29"/>
    <path class="fil2 str2" d="M5436.82 3640.27c-99.37,-70.24 -133.06,-202.23 -79.5,-311.5"/>
    <line class="fil2 str2" x1="5357.32" y1="3328.77" x2="5363.25" y2= "3316.67" />
    <polygon class="fil3" points="5739.09,2601.49 5440.95,2601.49 5264.38,1574.58 5915.67,1574.58 "/>
    <path class="fil3" d="M5856.69 1574.58l-111.52 648.55c-27.49,159.91 -159.75,279.18 -318.98,292.49l14.76 85.87 298.14 0 176.58 -1026.91 -58.98 0z"/>
    <path class="fil3" d="M11866.37 8108.84l-1849.8 0 0 -1429.39 1682.16 0c92.58,0 167.64,75.06 167.64,167.64l0 1261.75z"/>
    <path class="fil3" d="M10146.31 8319.05l-1887.05 0 0 -1244.54c0,-63.18 14.95,-125.46 43.63,-181.76l668.33 -1311.88 41.13 -80.73c17.72,-34.78 53.45,-56.69 92.49,-56.69l937.67 0c57.33,0 103.8,46.48 103.8,103.81l0 2771.79z"/>
    <path class="fil3" d="M10042.51 5443.45l-25.07 0 0 2084.02c0,304.36 -246.73,551.09 -551.09,551.09l-1207.09 0 0 240.49 1887.05 0 0 -2771.79c0,-57.33 -46.47,-103.81 -103.8,-103.81z"/>
    <path class="fil3" d="M12258.02 9207.65l-4223.41 0c-365.89,0 -662.49,-296.61 -662.49,-662.5 0,-365.89 296.6,-662.49 662.49,-662.49l4223.41 0c365.89,0 662.5,296.6 662.5,662.49 0,365.89 -296.61,662.5 -662.5,662.5z"/>
    <path class="fil3" d="M9679.79 5603.21l-716.14 0 -617.14 1194.02 1333.28 0c67.12,0 121.53,-54.42 121.53,-121.54l0 -950.95c0,-67.12 -54.41,-121.53 -121.53,-121.53z"/>
    <path class="fil3" d="M11517.68 7744.03c-617.6,0 -1126.23,-465.4 -1195,-1064.58l-176.37 0 0 1203.21 1728.31 0 0 -138.63 -356.94 0z"/>
    <polygon class="fil3" points="11648.28,6679.45 10188.94,6679.45 10188.94,6452.43 11648.28,6452.43 "/>
    <path class="fil3" d="M12258.02 9207.65l-4223.41 0c-365.89,0 -662.49,-296.61 -662.49,-662.5 0,-365.89 296.6,-662.49 662.49,-662.49l4223.41 0c365.89,0 662.5,296.6 662.5,662.49 0,365.89 -296.61,662.5 -662.5,662.5z"/>
    <path class="fil3" d="M12285.06 9072.42l-4248.89 0c-262.32,0 -474.99,-212.66 -474.99,-474.99l0 -84.23c0,-262.33 212.67,-474.99 474.99,-474.99l4248.89 0c262.33,0 474.99,212.66 474.99,474.99l0 84.23c0,262.33 -212.66,474.99 -474.99,474.99z"/>
    <path class="fil3" d="M7686.7 8579.54l0 -31.94c0,-214.86 174.18,-389.04 389.04,-389.04l4154.27 0c214.85,0 389.02,174.17 389.02,389.02l0 31.97c0,214.85 -174.17,389.02 -389.02,389.02l-4154.28 0c-214.85,0 -389.03,-174.17 -389.03,-389.03z"/>
    <path class="fil3" d="M6038.34 9036.74l-3890.79 0c-144.52,0 -261.67,-117.16 -261.67,-261.68l0 -2449.01c0,-144.51 117.15,-261.67 261.67,-261.67l3890.79 0c144.52,0 261.67,117.16 261.67,261.67l0 2449.01c0,144.52 -117.15,261.68 -261.67,261.68z"/>
    <path class="fil3" d="M2147.55 8986.29c-116.47,0 -211.22,-94.77 -211.22,-211.23l0 -2449c0,-116.47 94.75,-211.23 211.22,-211.23l3890.78 0c116.48,0 211.24,94.76 211.24,211.23l0 2449c0,116.46 -94.76,211.23 -211.24,211.23l-3890.78 0z"/>
    <polygon class="fil3" points="6054.08,8653.35 2135.76,8653.35 2135.76,6310.34 6054.08,6310.34 "/>
    <path class="fil3" d="M6082.75 6089.61l-1428.81 0c-968.66,912.35 -2793.28,2738.1 -2793.28,2738.1 0,119.87 97.52,217.42 217.4,217.42l4004.69 0c119.88,0 217.41,-97.55 217.41,-217.42l0 -2520.69c0,-119.87 -97.53,-217.41 -217.41,-217.41z"/>
    <path class="fil3" d="M6038.34 6064.38l-2704.01 0 0 1263.66 2965.68 0 0 -1001.99c0,-144.51 -117.15,-261.67 -261.67,-261.67z"/>
    <line class="fil2 str0" x1="5535.09" y1="3621.88" x2="3970.92" y2= "4921.65" />
    <polygon class="fil3" points="7628.65,7190.52 3435.23,7190.52 3435.23,4683.01 7628.65,4683.01 "/>
    <polygon class="fil3" points="7628.65,5015.57 3435.23,5015.57 3435.23,4683.01 7628.65,4683.01 "/>
    <polygon class="fil3" points="4845.54,6965.33 3685.28,6965.33 3685.28,5283.7 4845.54,5283.7 "/>
    <polygon class="fil3" points="7460.29,6361.68 6300.01,6361.68 6300.01,5283.7 7460.29,5283.7 "/>
    <polygon class="fil3" points="6170.53,5767.06 5010.25,5767.06 5010.25,5289.07 6170.53,5289.07 "/>
    <polygon class="fil3" points="6170.53,6361.68 5010.25,6361.68 5010.25,5883.68 6170.53,5883.68 "/>
    <polygon class="fil3" points="6170.53,6956.29 5010.25,6956.29 5010.25,6478.3 6170.53,6478.3 "/>
    <polygon class="fil3" points="7460.29,6956.29 6300.01,6956.29 6300.01,6478.3 7460.29,6478.3 "/>
    <path class="fil3" d="M3646.19 4836.48c5.23,-21.59 26.96,-34.85 48.55,-29.62 21.58,5.22 34.85,26.95 29.62,48.54 -5.22,21.59 -26.96,34.85 -48.54,29.62 -21.59,-5.22 -34.85,-26.96 -29.63,-48.54z"/>
    <path class="fil3" d="M3821.21 4836.48c5.22,-21.59 26.96,-34.85 48.54,-29.62 21.59,5.22 34.85,26.95 29.63,48.54 -5.23,21.59 -26.96,34.85 -48.55,29.62 -21.58,-5.22 -34.84,-26.96 -29.62,-48.54z"/>
    <path class="fil3" d="M3996.24 4836.48c5.22,-21.59 26.96,-34.85 48.54,-29.62 21.59,5.22 34.85,26.95 29.62,48.54 -5.22,21.59 -26.96,34.85 -48.54,29.62 -21.59,-5.22 -34.85,-26.96 -29.62,-48.54z"/>
    <line class="fil2 str3" x1="3777.71" y1="5452.39" x2="4711.01" y2= "5452.39" />
    <line class="fil2 str3" x1="3777.71" y1="5636.84" x2="4711.01" y2= "5636.84" />
    <line class="fil2 str3" x1="3777.71" y1="5821.29" x2="4711.01" y2= "5821.29" />
    <line class="fil2 str3" x1="3777.71" y1="6005.74" x2="4711.01" y2= "6005.74" />
    <line class="fil2 str3" x1="3777.71" y1="6190.19" x2="4711.01" y2= "6190.19" />
    <line class="fil2 str3" x1="3777.71" y1="6374.64" x2="4711.01" y2= "6374.64" />
    <line class="fil2 str3" x1="3777.71" y1="6559.09" x2="4711.01" y2= "6559.09" />
    <line class="fil2 str3" x1="3777.71" y1="6743.54" x2="4711.01" y2= "6743.54" />
    <line class="fil2 str3" x1="6431.54" y1="5452.39" x2="7364.85" y2= "5452.39" />
    <line class="fil2 str3" x1="6431.54" y1="5636.84" x2="7364.85" y2= "5636.84" />
    <line class="fil2 str3" x1="6431.54" y1="5821.29" x2="7364.85" y2= "5821.29" />
    <line class="fil2 str3" x1="6431.54" y1="6005.74" x2="7364.85" y2= "6005.74" />
    <line class="fil2 str3" x1="6431.54" y1="6190.19" x2="7364.85" y2= "6190.19" />
    <path class="fil3" d="M5301.36 6042.39c0,36.85 -29.88,66.72 -66.72,66.71 -36.85,0 -66.71,-29.88 -66.71,-66.72 0.01,-36.85 29.88,-66.71 66.72,-66.71 36.85,0 66.72,29.88 66.71,66.72z"/>
    <path class="fil3" d="M5091.38 6262.13c0.01,-79.11 64.15,-143.23 143.26,-143.22 79.1,0.01 143.23,64.14 143.22,143.25l-286.48 -0.03z"/>
    <path class="fil3" d="M6016.06 6640.77c-0.01,36.85 -29.88,66.72 -66.73,66.71 -36.84,0 -66.71,-29.88 -66.71,-66.72 0.01,-36.85 29.88,-66.72 66.73,-66.71 36.84,0 66.71,29.88 66.71,66.72z"/>
    <path class="fil3" d="M5806.08 6860.5c0.01,-79.1 64.14,-143.22 143.25,-143.21 79.11,0 143.23,64.14 143.22,143.25l-286.47 -0.04z"/>
    <path class="fil3" d="M6016.06 5451.54c-0.01,36.85 -29.88,66.71 -66.73,66.71 -36.84,0 -66.71,-29.88 -66.71,-66.72 0.01,-36.85 29.88,-66.72 66.73,-66.71 36.84,0 66.71,29.88 66.71,66.72z"/>
    <path class="fil3" d="M5806.08 5671.28c0.01,-79.11 64.14,-143.24 143.25,-143.23 79.11,0.02 143.23,64.15 143.22,143.26l-286.47 -0.03z"/>
    <path class="fil3" d="M5121.14 6980.05l-1685.91 0 0 210.47 4193.42 0 0 -2507.51 -8.87 0c-106.92,1286.35 -1184.67,2297.04 -2498.64,2297.04z"/>
    <path class="fil3" d="M6375.83 9179.68l-4742.2 0c-195.03,0 -353.14,-158.11 -353.14,-353.15l5448.48 0c0,195.04 -158.1,353.15 -353.14,353.15z"/>
    <path class="fil3" d="M6375.83 9036.74l-4742.2 0c-144.11,0 -267.85,-86.45 -322.75,-210.21l-30.39 0c0,195.04 158.11,353.15 353.14,353.15l4742.2 0c195.04,0 353.14,-158.11 353.14,-353.15l-30.38 0c-54.91,123.76 -178.64,210.21 -322.76,210.21z"/>
    <path class="fil3" d="M9651.22 6797.23l-759.14 -1055.56 71.57 -138.45 0 -0.01 365.96 0 471.71 655.9 0 416.58c0,67.12 -54.41,121.54 -121.53,121.54l-28.57 0z"/>
    <polygon class="fil3" points="9431.6,6747.1 8782.81,5953.1 8840.27,5841.92 "/>
   </g>
   <line class="fil4 str4" x1="6973.73" y1="4845.94" x2="5556.92" y2= "3635.21" />
   <path class="fil4 str4" d="M5556.92 3635.21c-33.78,-28.86 -83.43,-29.2 -117.61,-0.81"/>
   <line class="fil4 str4" x1="5439.31" y1="3634.4" x2="3934.29" y2= "4885.02" />
   <g>
    <g>
     <path class="fil5" d="M7465.6 133.63l3682.58 3523.56 252.99 3015.72 -1112.6 15.76 109.95 -3070.53 1.51 -42.05 -28.82 -30.66 -2899.16 -3084.98 -50.29 -53.52 -66.38 31.41 -937.57 443.56 1047.79 -748.27zm9.37 -130.68l-2034.6 1453 1958.16 -926.41 2899.16 3084.98 -113.75 3176.54 1326.82 -18.79 -265.24 -3161.58 -3770.55 -3607.74z"/>
    </g>
    <path class="fil4 str5" d="M6213.96 1089.96l28.67 -206.94 212.67 92.76 59.54 -287.16 242.49 144.27 38.83 -345.17 319.71 175.55m0.01 -0.01l132.33 -498.37 146.81 307.66 291.95 -266.75 -100.29 523.95 492.64 -148.55 -131.33 533.02 646.95 -39.66 -161.1 556.65 674.6 -65.33 -111.36 638.16 647.38 -83.06 -144.68 644.49m0.01 0.01l682.27 -172.34 -185.91 700.51m0.01 0.01l702.7 -130.7 -352.02 479.24 829.02 15.57 -815.06 355.95 855.1 285.82 -853.75 362.45 951.58 298.98 -1075.33 309.15 1104.34 298.41 -1083.09 283.4 1146.52 309 -1211.39 327.49m-0.01 0.34l1315.99 283.51"/>
    <g>
     <path class="fil5" d="M5510.07 2601.49c-3.69,-100.15 -5.43,-200.25 -5.21,-300.29 -0.7,-100.07 0.14,-200.1 1.98,-300.1 3.85,-199.99 10.41,-399.91 22.78,-599.67l0.48 -7.82 6.07 -3.5c62.89,-36.3 125.13,-73.67 188.63,-108.99 63.31,-35.6 126.28,-71.79 190.17,-106.45 -59.99,41.05 -120.91,80.58 -181.48,120.68 -60.39,40.4 -122.04,78.73 -183.04,118.14l6.55 -11.31c1.29,200.14 -3.23,400.12 -10.46,600.02 -3.7,99.95 -8.39,199.87 -14.63,299.75 -5.32,99.9 -12.61,199.75 -21.84,299.54z"/>
    </g>
    <line class="fil4 str6" x1="5498.46" y1="2381.44" x2="5498.46" y2= "2845.37" />
    <path class="fil4 str6" d="M5498.46 2845.37c0,44.43 11.94,88.04 34.57,126.27"/>
    <line class="fil4 str6" x1="5533.03" y1="2971.64" x2="5722.64" y2= "3291.97" />
    <path class="fil4 str6" d="M5722.64 3291.97c59.26,100.11 40.93,227.96 -44.08,307.38"/>
    <line class="fil4 str6" x1="5678.56" y1="3599.35" x2="5657.56" y2= "3618.98" />
    <path class="fil4 str6" d="M5657.56 3618.98c-85.89,80.24 -216.32,89.14 -312.3,21.29"/>
    <line class="fil4 str6" x1="5345.26" y1="3640.27" x2="5345.25" y2= "3640.27" />
    <path class="fil4 str6" d="M5345.25 3640.27c-99.37,-70.24 -133.05,-202.23 -79.5,-311.5"/>
    <line class="fil4 str6" x1="5265.75" y1="3328.77" x2="5271.68" y2= "3316.67" />
    <g>
     <polygon class="fil5" points="5647.53,2601.49 5349.39,2601.49 5172.82,1574.58 5824.1,1574.58 "/>
     <path class="fil6" d="M5765.12 1574.58l-111.51 648.55c-27.5,159.91 -159.75,279.18 -318.99,292.49l14.77 85.87 298.14 0 176.57 -1026.91 -58.98 0z"/>
    </g>
   </g>
   <path class="fil7" d="M11774.8 8108.84l-1849.79 0 0 -1429.39 1682.15 0c92.59,0 167.64,75.06 167.64,167.64l0 1261.75z"/>
   <path class="fil7" d="M10054.75 8319.05l-1887.05 0 0 -1244.54c0,-63.18 14.95,-125.46 43.63,-181.76l668.32 -1311.88 41.13 -80.73c17.72,-34.78 53.46,-56.69 92.5,-56.69l937.66 0c57.33,0 103.81,46.48 103.81,103.81l0 2771.79z"/>
   <path class="fil8" d="M9950.94 5443.45l-25.06 0 0 2084.02c0,304.36 -246.73,551.09 -551.09,551.09l-1207.09 0 0 240.49 1887.05 0 0 -2771.79c0,-57.33 -46.48,-103.81 -103.81,-103.81z"/>
   <path class="fil9" d="M12166.45 9207.65l-4223.41 0c-365.88,0 -662.49,-296.61 -662.49,-662.5 0,-365.89 296.61,-662.49 662.49,-662.49l4223.41 0c365.89,0 662.5,296.6 662.5,662.49 0,365.89 -296.61,662.5 -662.5,662.5z"/>
   <path class="fil10" d="M9588.22 5603.21l-716.14 0 -617.13 1194.02 1333.27 0c67.12,0 121.54,-54.42 121.54,-121.54l0 -950.95c0,-67.12 -54.42,-121.53 -121.54,-121.53z"/>
   <path class="fil11" d="M11426.11 7744.03c-617.59,0 -1126.22,-465.4 -1195,-1064.58l-176.36 0 0 1203.21 1728.3 0 0 -138.63 -356.94 0z"/>
   <polygon class="fil5" points="11556.72,6679.45 10097.37,6679.45 10097.37,6452.43 11556.72,6452.43 "/>
   <path class="fil5" d="M12166.45 9207.65l-4223.41 0c-365.88,0 -662.49,-296.61 -662.49,-662.5 0,-365.89 296.61,-662.49 662.49,-662.49l4223.41 0c365.89,0 662.5,296.6 662.5,662.49 0,365.89 -296.61,662.5 -662.5,662.5z"/>
   <path class="fil12" d="M12193.49 9072.42l-4248.88 0c-262.33,0 -474.99,-212.66 -474.99,-474.99l0 -84.23c0,-262.33 212.66,-474.99 474.99,-474.99l4248.88 0c262.33,0 475,212.66 475,474.99l0 84.23c0,262.33 -212.67,474.99 -475,474.99z"/>
   <path class="fil9" d="M7595.14 8579.54l0 -31.94c0,-214.86 174.18,-389.04 389.04,-389.04l4154.26 0c214.85,0 389.02,174.17 389.02,389.02l0 31.97c0,214.85 -174.17,389.02 -389.02,389.02l-4154.27 0c-214.86,0 -389.03,-174.17 -389.03,-389.03z"/>
   <path class="fil13" d="M5946.77 9036.74l-3890.79 0c-144.52,0 -261.67,-117.16 -261.67,-261.68l0 -2449.01c0,-144.51 117.15,-261.67 261.67,-261.67l3890.79 0c144.52,0 261.67,117.16 261.67,261.67l0 2449.01c0,144.52 -117.15,261.68 -261.67,261.68z"/>
   <path class="fil5" d="M2055.98 8986.29c-116.46,0 -211.21,-94.77 -211.21,-211.23l0 -2449c0,-116.47 94.75,-211.23 211.21,-211.23l3890.79 0c116.48,0 211.23,94.76 211.23,211.23l0 2449c0,116.46 -94.75,211.23 -211.23,211.23l-3890.79 0z"/>
   <polygon class="fil14" points="5962.52,8653.35 2044.19,8653.35 2044.19,6310.34 5962.52,6310.34 "/>
   <path class="fil15" d="M5991.18 6089.61l-1428.81 0c-968.66,912.35 -2793.28,2738.1 -2793.28,2738.1 0,119.87 97.53,217.42 217.4,217.42l4004.69 0c119.89,0 217.42,-97.55 217.42,-217.42l0 -2520.69c0,-119.87 -97.53,-217.41 -217.42,-217.41z"/>
   <path class="fil16" d="M5946.77 6064.38l-2704 0 0 1263.66 2965.67 0 0 -1001.99c0,-144.51 -117.15,-261.67 -261.67,-261.67z"/>
   <line class="fil4 str4" x1="5443.52" y1="3621.88" x2="3879.35" y2= "4921.65" />
   <polygon class="fil14" points="7537.09,7190.52 3343.66,7190.52 3343.66,4683.01 7537.09,4683.01 "/>
   <polygon class="fil10" points="7537.09,5015.57 3343.66,5015.57 3343.66,4683.01 7537.09,4683.01 "/>
   <polygon class="fil10" points="4753.98,6965.33 3593.71,6965.33 3593.71,5283.7 4753.98,5283.7 "/>
   <polygon class="fil10" points="7368.72,6361.68 6208.44,6361.68 6208.44,5283.7 7368.72,5283.7 "/>
   <polygon class="fil17" points="6078.96,5767.06 4918.69,5767.06 4918.69,5289.07 6078.96,5289.07 "/>
   <polygon class="fil10" points="6078.96,6361.68 4918.69,6361.68 4918.69,5883.68 6078.96,5883.68 "/>
   <polygon class="fil17" points="6078.96,6956.29 4918.69,6956.29 4918.69,6478.3 6078.96,6478.3 "/>
   <polygon class="fil15" points="7368.72,6956.29 6208.44,6956.29 6208.44,6478.3 7368.72,6478.3 "/>
   <path class="fil18" d="M3554.63 4836.48c5.22,-21.59 26.96,-34.85 48.54,-29.62 21.59,5.22 34.85,26.95 29.62,48.54 -5.22,21.59 -26.95,34.85 -48.54,29.62 -21.58,-5.22 -34.85,-26.96 -29.62,-48.54z"/>
   <path class="fil18" d="M3729.65 4836.48c5.23,-21.59 26.95,-34.85 48.54,-29.62 21.58,5.22 34.85,26.95 29.62,48.54 -5.23,21.59 -26.96,34.85 -48.54,29.62 -21.58,-5.22 -34.84,-26.96 -29.62,-48.54z"/>
   <path class="fil18" d="M3904.67 4836.48c5.23,-21.59 26.96,-34.85 48.54,-29.62 21.59,5.22 34.85,26.95 29.63,48.54 -5.23,21.59 -26.96,34.85 -48.55,29.62 -21.58,-5.22 -34.84,-26.96 -29.62,-48.54z"/>
   <g>
    <line class="fil4 str7" x1="3686.15" y1="5452.39" x2="4619.45" y2= "5452.39" />
    <line class="fil4 str7" x1="3686.15" y1="5636.84" x2="4619.45" y2= "5636.84" />
    <line class="fil4 str7" x1="3686.15" y1="5821.29" x2="4619.45" y2= "5821.29" />
    <line class="fil4 str7" x1="3686.15" y1="6005.74" x2="4619.45" y2= "6005.74" />
    <line class="fil4 str7" x1="3686.15" y1="6190.19" x2="4619.45" y2= "6190.19" />
    <line class="fil4 str7" x1="3686.15" y1="6374.64" x2="4619.45" y2= "6374.64" />
    <line class="fil4 str7" x1="3686.15" y1="6559.09" x2="4619.45" y2= "6559.09" />
    <line class="fil4 str7" x1="3686.15" y1="6743.54" x2="4619.45" y2= "6743.54" />
   </g>
   <g>
    <line class="fil4 str7" x1="6339.98" y1="5452.39" x2="7273.28" y2= "5452.39" />
    <line class="fil4 str7" x1="6339.98" y1="5636.84" x2="7273.28" y2= "5636.84" />
    <line class="fil4 str7" x1="6339.98" y1="5821.29" x2="7273.28" y2= "5821.29" />
    <line class="fil4 str7" x1="6339.98" y1="6005.74" x2="7273.28" y2= "6005.74" />
    <line class="fil4 str7" x1="6339.98" y1="6190.19" x2="7273.28" y2= "6190.19" />
   </g>
   <g>
    <path class="fil19" d="M5209.8 6042.39c-0.01,36.85 -29.88,66.72 -66.73,66.71 -36.85,0 -66.71,-29.88 -66.7,-66.72 0,-36.85 29.87,-66.71 66.72,-66.71 36.84,0 66.71,29.88 66.71,66.72z"/>
    <path class="fil19" d="M4999.82 6262.13c0.01,-79.11 64.15,-143.23 143.25,-143.22 79.11,0.01 143.23,64.14 143.22,143.25l-286.47 -0.03z"/>
   </g>
   <g>
    <path class="fil20" d="M5924.49 6640.77c0,36.85 -29.88,66.72 -66.72,66.71 -36.85,0 -66.72,-29.88 -66.71,-66.72 0,-36.85 29.87,-66.72 66.72,-66.71 36.85,0 66.72,29.88 66.71,66.72z"/>
    <path class="fil20" d="M5714.51 6860.5c0.01,-79.1 64.15,-143.22 143.25,-143.21 79.11,0 143.24,64.14 143.23,143.25l-286.48 -0.04z"/>
   </g>
   <g>
    <path class="fil20" d="M5924.49 5451.54c0,36.85 -29.88,66.71 -66.72,66.71 -36.85,0 -66.72,-29.88 -66.71,-66.72 0,-36.85 29.87,-66.72 66.72,-66.71 36.85,0 66.72,29.88 66.71,66.72z"/>
    <path class="fil20" d="M5714.51 5671.28c0.01,-79.11 64.15,-143.24 143.25,-143.23 79.11,0.02 143.24,64.15 143.23,143.26l-286.48 -0.03z"/>
   </g>
   <path class="fil21" d="M5029.58 6980.05l-1685.92 0 0 210.47 4193.43 0 0 -2507.51 -8.87 0c-106.93,1286.35 -1184.68,2297.04 -2498.64,2297.04z"/>
   <path class="fil14" d="M6284.27 9179.68l-4742.21 0c-195.03,0 -353.14,-158.11 -353.14,-353.15l5448.49 0c0,195.04 -158.11,353.15 -353.14,353.15z"/>
   <path class="fil22" d="M6284.27 9036.74l-4742.21 0c-144.11,0 -267.85,-86.45 -322.75,-210.21l-30.39 0c0,195.04 158.11,353.15 353.14,353.15l4742.21 0c195.03,0 353.14,-158.11 353.14,-353.15l-30.39 0c-54.9,123.76 -178.64,210.21 -322.75,210.21z"/>
   <path class="fil14" d="M9559.66 6797.23l-759.15 -1055.56 71.57 -138.45 0 -0.01 365.96 0 471.72 655.92 0 416.56c0,67.12 -54.42,121.54 -121.54,121.54l-28.56 0z"/>
   <polygon class="fil14" points="9340.04,6747.1 8691.24,5953.1 8748.71,5841.91 "/>
  </g>
 </g>
</svg>
